<?xml version="1.0" encoding="UTF-8"?>
<!DOCTYPE svg PUBLIC "-//W3C//DTD SVG 1.1//EN" "http://www.w3.org/Graphics/SVG/1.1/DTD/svg11.dtd">
<svg version="1.1" xmlns="http://www.w3.org/2000/svg" xmlns:xlink="http://www.w3.org/1999/xlink" x="0" y="0" width="24" height="24" viewBox="0, 0, 24, 24">
  <g id="Ebene_1">
    <path d="M17.171,8.622 C17.019,8.332 16.959,8.015 16.999,7.704 L17.366,4.832 C17.536,3.507 16.114,2.945 15.742,2.872 C15.711,2.856 15.636,2.772 15.575,2.704 C15.355,2.458 14.986,2.046 14.303,1.835 C13.453,1.571 12.639,1.989 12.248,2.189 C12.181,2.223 12.131,2.25 12.11,2.259 C12.076,2.263 11.945,2.233 11.842,2.209 C11.593,2.152 11.252,2.072 10.807,2.072 C9.934,2.072 9.248,2.706 8.994,2.979 C8.816,3.17 8.473,3.298 8.11,3.435 C7.918,3.507 7.719,3.581 7.52,3.672 C6.599,4.093 6.623,4.673 6.624,4.676 C6.624,4.679 6.633,4.829 6.634,4.832 L7.001,7.704 C7.041,8.015 6.981,8.332 6.828,8.621 C6.554,9.141 6.421,9.594 6.421,10.007 C6.421,10.953 6.955,11.592 7.184,11.822 C7.443,12.082 7.603,12.402 7.647,12.747 L8.83,22.014 C8.844,22.128 8.941,22.25 9.055,22.25 L14.945,22.25 C15.059,22.25 15.156,22.128 15.17,22.015 L16.353,12.766 C16.397,12.421 16.557,12.092 16.816,11.832 C17.046,11.601 17.579,10.958 17.579,10.012 C17.579,9.599 17.446,9.141 17.171,8.622 z M7.709,4.071 C7.893,3.987 8.084,3.922 8.269,3.853 C8.683,3.697 9.075,3.554 9.326,3.285 C9.539,3.056 10.112,2.524 10.806,2.524 C11.2,2.524 11.512,2.598 11.739,2.651 C11.941,2.697 12.086,2.731 12.215,2.699 C12.276,2.684 12.343,2.65 12.455,2.593 C12.792,2.42 13.497,2.06 14.168,2.268 C14.731,2.442 15.024,2.768 15.238,3.007 C15.375,3.16 15.484,3.267 15.635,3.297 C15.648,3.3 16.883,3.641 16.925,4.549 L7.144,4.549 C7.214,4.322 7.368,4.227 7.709,4.071 z M16.597,7.272 L7.404,7.272 L7.116,5.003 L16.884,5.003 L16.597,7.272 z M9.255,21.796 L9.206,21.342 L14.794,21.342 L14.746,21.796 L9.255,21.796 z M16.495,11.503 C16.165,11.835 15.96,12.245 15.903,12.69 L14.852,20.888 L9.148,20.888 L8.097,12.69 C8.04,12.245 7.835,11.834 7.506,11.503 C7.316,11.312 6.875,10.785 6.875,10.007 C6.875,9.67 6.991,9.287 7.23,8.834 C7.414,8.486 7.488,8.105 7.456,7.726 L16.545,7.726 C16.512,8.104 16.586,8.486 16.77,8.834 C17.009,9.287 17.125,9.671 17.125,10.007 C17.125,10.785 16.684,11.312 16.495,11.503 z M12.267,3.646 C12.393,3.646 12.494,3.544 12.494,3.419 C12.494,3.294 12.393,3.192 12.267,3.192 C12.142,3.192 12.04,3.294 12.04,3.419 C12.04,3.544 12.142,3.646 12.267,3.646 z M14.764,4.327 C14.889,4.327 14.991,4.225 14.991,4.1 C14.991,3.975 14.889,3.873 14.764,3.873 C14.638,3.873 14.537,3.975 14.537,4.1 C14.537,4.225 14.638,4.327 14.764,4.327 z M13.997,3.212 C14.196,3.212 14.358,3.051 14.358,2.851 C14.358,2.652 14.197,2.491 13.997,2.491 C13.798,2.491 13.637,2.652 13.637,2.851 C13.637,3.05 13.798,3.212 13.997,3.212 z M14.483,10.865 C14.378,10.796 14.237,10.825 14.168,10.93 L13.77,11.535 C13.701,11.639 13.73,11.78 13.835,11.849 C13.874,11.874 13.917,11.887 13.96,11.887 C14.033,11.887 14.106,11.851 14.15,11.784 L14.548,11.179 C14.616,11.074 14.587,10.933 14.483,10.865 z M15.947,10.411 C15.842,10.342 15.702,10.372 15.633,10.476 L14.692,11.913 C14.623,12.018 14.652,12.159 14.757,12.228 C14.796,12.253 14.839,12.265 14.882,12.265 C14.956,12.265 15.028,12.229 15.072,12.162 L16.013,10.725 C16.081,10.62 16.052,10.479 15.947,10.411 z" fill="#000000"/>
  </g>
</svg>
