<?xml version="1.0" encoding="UTF-8"?>
<!DOCTYPE svg PUBLIC "-//W3C//DTD SVG 1.1//EN" "http://www.w3.org/Graphics/SVG/1.1/DTD/svg11.dtd">
<svg version="1.1" xmlns="http://www.w3.org/2000/svg" xmlns:xlink="http://www.w3.org/1999/xlink" x="0" y="0" width="24" height="24" viewBox="0, 0, 24, 24">
  <g id="Ebene_1">
    <g>
      <path d="M17.862,1.042 C18.49,1.042 19,1.565 19,2.211 L19,20.83 C19,21.476 18.49,22 17.862,22 L5.628,22 C5,22 4.49,21.476 4.49,20.83 L4.49,2.211 C4.49,1.565 5,1.042 5.628,1.042 L17.862,1.042 z M15.554,16.863 C14.743,16.863 14.084,17.521 14.084,18.333 C14.084,19.145 14.743,19.803 15.554,19.803 C16.366,19.803 17.024,19.145 17.024,18.333 C17.024,17.521 16.366,16.863 15.554,16.863 z M11.714,16.863 C10.902,16.863 10.244,17.521 10.244,18.333 C10.244,19.145 10.902,19.803 11.714,19.803 C12.525,19.803 13.183,19.145 13.183,18.333 C13.183,17.521 12.525,16.863 11.714,16.863 z M7.936,16.863 C7.124,16.863 6.466,17.521 6.466,18.333 C6.466,19.145 7.124,19.803 7.936,19.803 C8.748,19.803 9.406,19.145 9.406,18.333 C9.406,17.521 8.748,16.863 7.936,16.863 z M7.904,13.07 C7.093,13.07 6.434,13.728 6.434,14.54 C6.434,15.352 7.093,16.01 7.904,16.01 C8.716,16.01 9.374,15.352 9.374,14.54 C9.374,13.728 8.716,13.07 7.904,13.07 z M15.523,13.07 C14.711,13.07 14.053,13.728 14.053,14.54 C14.053,15.352 14.711,16.01 15.523,16.01 C16.335,16.01 16.993,15.352 16.993,14.54 C16.954,13.77 16.44,13.189 15.673,13.077 L15.523,13.07 z M11.682,13.07 C10.87,13.07 10.212,13.728 10.212,14.54 C10.212,15.352 10.87,16.01 11.682,16.01 C12.494,16.01 13.152,15.352 13.152,14.54 C13.152,13.728 12.494,13.07 11.682,13.07 z M7.936,9.371 C7.124,9.371 6.466,10.029 6.466,10.841 C6.466,11.653 7.124,12.311 7.936,12.311 C8.748,12.311 9.406,11.653 9.406,10.841 C9.406,10.029 8.748,9.371 7.936,9.371 z M15.554,9.371 C14.743,9.371 14.084,10.029 14.084,10.841 C14.084,11.653 14.743,12.311 15.554,12.311 C16.366,12.311 17.024,11.653 17.024,10.841 C17.024,10.029 16.366,9.371 15.554,9.371 z M11.714,9.371 C10.902,9.371 10.244,10.029 10.244,10.841 C10.244,11.653 10.902,12.311 11.714,12.311 C12.525,12.311 13.183,11.653 13.183,10.841 C13.183,10.029 12.525,9.371 11.714,9.371 z M16.835,2.322 L6.909,2.322 C6.28,2.322 5.771,2.831 5.771,3.46 L5.771,5.862 C5.771,6.491 6.28,7 6.909,7 L16.835,7 C17.463,7 17.973,6.491 17.973,5.862 L17.973,3.46 C17.973,2.831 17.463,2.322 16.835,2.322 z" fill="#321313"/>
      <path d="M6.466,3.144 L17.024,3.144 L17.024,6.178 L6.466,6.178 L6.466,3.144 z" fill="#321313"/>
    </g>
  </g>
</svg>
