<?xml version="1.0" encoding="UTF-8"?>
<!DOCTYPE svg PUBLIC "-//W3C//DTD SVG 1.1//EN" "http://www.w3.org/Graphics/SVG/1.1/DTD/svg11.dtd">
<svg version="1.1" xmlns="http://www.w3.org/2000/svg" xmlns:xlink="http://www.w3.org/1999/xlink" x="0" y="0" width="24" height="24" viewBox="0, 0, 24, 24">
  <g id="Ebene_1">
    <path d="M16.296,2 C16.918,2 17.422,2.504 17.422,3.127 L17.422,21.623 C17.422,22.246 16.918,22.75 16.296,22.75 L5.827,22.75 C5.204,22.75 4.7,22.246 4.7,21.623 L4.7,3.127 C4.7,2.504 5.204,2 5.827,2 L16.296,2 z M16.296,18.008 L5.827,18.008 L5.827,21.623 L16.296,21.623 L16.296,18.008 z M16.296,12.751 L5.827,12.751 L5.827,16.882 L16.296,16.882 L16.296,12.751 z M16.296,8.056 L5.827,8.056 L5.827,11.624 L16.296,11.624 L16.296,8.056 z M16.296,3.127 L5.827,3.127 L5.827,6.929 L16.296,6.929 L16.296,3.127 z" fill="#000000"/>
  </g>
</svg>
