<?xml version="1.0" encoding="UTF-8"?>
<!DOCTYPE svg PUBLIC "-//W3C//DTD SVG 1.1//EN" "http://www.w3.org/Graphics/SVG/1.1/DTD/svg11.dtd">
<svg version="1.1" xmlns="http://www.w3.org/2000/svg" xmlns:xlink="http://www.w3.org/1999/xlink" x="0" y="0" width="24" height="24" viewBox="0, 0, 24, 24">
  <g id="Ebene_1">
    <path d="M5.877,1 C8.651,1 11.426,1 14.2,1 C15.405,1 17.304,0.831 18.32,1.083 C18.547,1.563 18.447,2.641 18.32,3.225 C18.32,3.445 18.32,3.665 18.32,3.884 C18.277,4.083 18.195,4.528 18.238,4.75 C18.362,5.394 18.596,6.847 18.444,7.51 C18.321,8.048 18.138,8.581 17.991,9.076 C17.901,9.379 17.933,9.761 17.867,10.065 C17.853,10.477 17.84,10.889 17.826,11.301 C17.525,12.679 17.795,14.288 17.496,15.669 C17.402,16.103 17.497,16.564 17.414,16.946 C17.414,17.166 17.414,17.386 17.414,17.606 C17.198,18.596 17.382,19.784 17.167,20.778 C17.005,21.525 17.263,22.054 16.713,22.426 C16.157,22.804 15.401,22.708 14.612,22.88 C14.24,22.96 13.772,22.869 13.335,22.962 C12.621,23.114 10.627,23.066 9.956,22.921 C9.273,22.773 8.677,22.886 8.061,22.715 C7.71,22.618 7.302,22.483 7.113,22.22 C6.76,21.731 6.976,21.191 6.824,20.49 C6.661,19.735 6.782,18.814 6.618,18.059 C6.618,17.853 6.618,17.647 6.618,17.441 C6.535,17.056 6.629,16.594 6.536,16.163 C6.233,14.766 6.509,13.07 6.206,11.672 C6.179,11.04 6.151,10.408 6.124,9.777 C5.929,8.88 5.737,8.171 5.547,7.304 C5.424,6.742 5.61,6.017 5.712,5.574 C5.726,5.354 5.739,5.134 5.753,4.915 C5.77,4.839 5.824,4.642 5.794,4.503 C5.71,4.108 5.808,3.632 5.712,3.184 C5.59,2.619 5.521,1.741 5.629,1.165 C5.708,1.121 5.813,1.063 5.877,1 z M6.206,1.618 C6.261,2.483 6.316,3.349 6.371,4.214 C10.148,4.214 13.926,4.214 17.702,4.214 C17.693,3.389 17.717,2.375 17.867,1.618 C13.981,1.618 10.093,1.618 6.206,1.618 z M6.371,4.832 C6.364,5.333 6.3,5.801 6.206,6.233 C6.206,6.384 6.206,6.535 6.206,6.686 C6.182,6.802 6.125,7.084 6.165,7.263 C6.353,8.105 6.552,8.823 6.742,9.694 C6.742,9.914 6.742,10.134 6.742,10.354 C7.005,11.56 6.77,12.981 7.03,14.186 C7.058,14.831 7.085,15.477 7.113,16.122 C7.196,16.504 7.101,16.966 7.195,17.4 C7.498,18.789 7.255,20.459 7.566,21.808 C8.064,22.122 8.762,22.151 9.461,22.303 C9.64,22.303 9.819,22.303 9.997,22.303 C10.536,22.418 11.187,22.385 11.81,22.385 C13.472,22.385 15.004,22.272 16.301,21.973 C16.396,21.828 16.484,21.791 16.507,21.561 C16.696,21.248 16.501,20.688 16.59,20.284 C16.807,19.288 16.621,18.102 16.837,17.111 C16.837,16.905 16.837,16.699 16.837,16.493 C17.092,15.327 16.871,13.951 17.125,12.785 C17.139,12.373 17.153,11.961 17.167,11.548 C17.32,10.845 17.158,10.014 17.332,9.282 C17.494,8.596 17.71,7.969 17.867,7.263 C18.046,6.463 17.66,5.68 17.661,4.873 C17.647,4.86 17.634,4.846 17.62,4.832 C13.871,4.832 10.12,4.832 6.371,4.832" fill="#000000"/>
  </g>
</svg>
