<?xml version="1.0" encoding="UTF-8"?>
<!DOCTYPE svg PUBLIC "-//W3C//DTD SVG 1.1//EN" "http://www.w3.org/Graphics/SVG/1.1/DTD/svg11.dtd">
<svg version="1.1" xmlns="http://www.w3.org/2000/svg" xmlns:xlink="http://www.w3.org/1999/xlink" x="0" y="0" width="24" height="24" viewBox="0, 0, 24, 24">
  <g id="Ebene_1">
    <g>
      <path d="M18.65,3.734 L18.463,3.734 C17.876,2.581 16.037,1.895 13.35,1.85 L13.35,1.597 C13.35,1.13 12.97,0.75 12.503,0.75 L6.743,0.75 C6.276,0.75 5.896,1.13 5.896,1.597 L5.896,13.845 C5.782,13.788 5.655,13.752 5.52,13.752 C5.055,13.752 4.678,14.13 4.678,14.594 C4.678,15.059 5.055,15.436 5.52,15.436 C5.656,15.436 5.782,15.401 5.896,15.343 L5.896,17.958 L5.52,18.334 C5.415,18.439 5.415,18.609 5.52,18.714 C5.572,18.766 5.641,18.793 5.71,18.793 C5.779,18.793 5.848,18.766 5.9,18.714 L6.355,18.259 C6.405,18.209 6.433,18.141 6.433,18.069 L6.433,17.022 L6.809,17.022 L6.809,18.695 C6.809,18.99 7.002,19.251 7.285,19.337 C7.31,19.345 7.429,19.381 7.618,19.436 L7.618,22.348 L8.021,22.348 L8.021,22.712 L7.617,22.712 L7.617,23.25 L8.959,23.25 L8.959,22.712 L8.558,22.712 L8.558,22.348 L8.962,22.348 L8.962,21.559 L12.662,21.559 C12.66,21.573 12.657,21.586 12.657,21.601 C12.657,21.826 12.84,22.009 13.066,22.009 C13.292,22.009 13.475,21.826 13.475,21.601 C13.475,21.586 13.472,21.573 13.47,21.559 L17.172,21.559 L17.172,22.348 L17.577,22.348 L17.577,22.712 L17.173,22.712 L17.173,23.25 L18.515,23.25 L18.515,22.712 L18.114,22.712 L18.114,22.348 L18.516,22.348 L18.516,19.435 C18.704,19.381 18.822,19.345 18.847,19.337 C19.129,19.25 19.322,18.989 19.322,18.694 L19.322,4.406 C19.322,4.035 19.021,3.734 18.65,3.734 z M5.519,14.899 C5.351,14.899 5.215,14.762 5.215,14.594 C5.215,14.426 5.352,14.29 5.519,14.29 C5.687,14.29 5.824,14.426 5.824,14.594 C5.824,14.762 5.687,14.899 5.519,14.899 z M13.066,19.129 C12.081,19.129 10.62,18.825 9.468,18.54 L16.664,18.54 C15.513,18.825 14.052,19.129 13.066,19.129 z M8.153,18.136 L8.153,11.013 L17.978,11.013 L17.978,18.136 L8.153,18.136 z M8.153,10.61 L8.153,5.091 L17.978,5.091 L17.978,10.61 L8.153,10.61 z M17.314,4.5 C17.324,4.567 17.345,4.63 17.372,4.688 L8.76,4.688 C8.787,4.629 8.808,4.567 8.818,4.5 C8.908,3.865 10.427,3.189 13.066,3.189 C15.705,3.189 17.224,3.865 17.314,4.5 z M6.743,1.287 L12.503,1.287 C12.674,1.287 12.813,1.426 12.813,1.597 L12.813,1.849 C10.109,1.89 8.258,2.577 7.669,3.734 L7.481,3.734 C7.11,3.734 6.809,4.035 6.809,4.406 L6.809,12.606 L6.433,12.606 L6.433,1.597 C6.433,1.426 6.572,1.287 6.743,1.287 z M6.433,16.484 L6.433,13.144 L6.809,13.144 L6.809,16.484 L6.433,16.484 z M8.961,19.799 C10.117,20.09 11.644,20.42 12.797,20.467 L12.797,21.156 L8.961,21.156 L8.961,19.799 z M17.172,21.156 L13.335,21.156 L13.335,20.467 C14.488,20.42 16.016,20.09 17.172,19.798 L17.172,21.156 z" fill="#000000"/>
      <path d="M13.066,13.575 C11.812,13.575 10.829,14.251 10.829,15.115 C10.829,15.978 11.812,16.654 13.066,16.654 C14.32,16.654 15.303,15.978 15.303,15.115 C15.303,14.251 14.32,13.575 13.066,13.575 z M13.066,16.116 C12.145,16.116 11.367,15.658 11.367,15.114 C11.367,14.571 12.145,14.113 13.066,14.113 C13.987,14.113 14.765,14.571 14.765,15.115 C14.765,15.658 13.987,16.116 13.066,16.116 z" fill="#000000"/>
      <path d="M17.134,16.753 C17.134,17.069 16.877,17.326 16.56,17.326 C16.244,17.326 15.987,17.069 15.987,16.753 C15.987,16.436 16.244,16.18 16.56,16.18 C16.877,16.18 17.134,16.436 17.134,16.753 z" fill="#000000"/>
      <path d="M10.037,16.753 C10.037,17.069 9.78,17.326 9.464,17.326 C9.148,17.326 8.891,17.069 8.891,16.753 C8.891,16.436 9.148,16.18 9.464,16.18 C9.78,16.18 10.037,16.436 10.037,16.753 z" fill="#000000"/>
    </g>
  </g>
</svg>
