<?xml version="1.0" encoding="UTF-8"?>
<!DOCTYPE svg PUBLIC "-//W3C//DTD SVG 1.1//EN" "http://www.w3.org/Graphics/SVG/1.1/DTD/svg11.dtd">
<svg version="1.1" xmlns="http://www.w3.org/2000/svg" xmlns:xlink="http://www.w3.org/1999/xlink" x="0" y="0" width="24" height="24" viewBox="0, 0, 24, 24">
  <g id="Ebene_1">
    <path d="M11.811,1.252 C12.756,1.257 13.016,1.97 13.411,2.519 C13.765,3.011 14.194,3.487 14.544,3.985 C15.052,4.706 15.503,5.433 15.977,6.185 C17.384,8.413 18.542,10.434 19.343,13.317 C19.653,14.43 19.768,16.083 19.41,17.249 C19.073,18.348 18.525,19.231 17.91,20.049 C17.766,20.182 17.621,20.315 17.477,20.449 C16.58,21.345 15.535,22.004 14.178,22.448 C13.683,22.61 13.119,22.593 12.578,22.715 C12.286,22.781 11.751,22.736 11.511,22.682 C11.278,22.671 11.045,22.66 10.812,22.648 C10.153,22.489 9.498,22.323 8.945,22.082 C6.728,21.116 5.421,19.633 4.646,17.216 C4.344,16.274 4.256,14.716 4.546,13.65 C5.49,10.182 7.094,7.439 8.912,4.852 C9.677,3.763 10.423,2.709 11.211,1.652 C11.329,1.494 11.54,1.424 11.678,1.286 C11.756,1.279 11.772,1.279 11.811,1.252 z M11.978,3.219 C11.864,3.572 11.394,3.986 11.178,4.285 C10.656,5.009 10.136,5.745 9.645,6.485 C8.143,8.746 6.797,11.158 6.046,14.15 C5.808,15.096 5.972,16.345 6.246,17.083 C6.946,18.968 8.028,20.086 9.912,20.782 C10.517,21.006 11.204,21.149 12.045,21.149 C12.222,21.149 12.4,21.149 12.578,21.149 C12.922,21.093 13.267,21.038 13.611,20.982 C14.784,20.622 16.055,19.921 16.71,19.049 C17.181,18.423 17.606,17.741 17.877,16.916 C18.226,15.853 18.056,14.34 17.744,13.383 C17.575,12.866 17.507,12.425 17.31,11.95 C16.558,10.139 15.599,8.512 14.611,6.951 C14.022,6.022 13.405,5.158 12.778,4.285 C12.537,3.949 12.314,3.454 11.978,3.219 z M10.512,12.75 C10.736,12.913 10.872,13.192 11.111,13.35 C11.539,13.632 12.442,13.664 12.911,13.383 C13.159,13.235 13.324,12.821 13.611,12.75 C13.792,13.325 14.927,13.811 15.711,13.483 C15.885,13.41 16.091,13.265 16.244,13.15 C16.368,13.057 16.379,12.913 16.544,12.85 C16.544,12.872 16.544,12.895 16.544,12.917 C16.692,13.106 16.7,13.427 16.777,13.683 C16.995,14.41 17.125,15.566 16.877,16.383 C16.359,18.088 15.217,19.154 13.578,19.749 C13.181,19.893 12.223,20.116 11.611,19.982 C11.115,19.874 10.613,19.857 10.178,19.682 C8.777,19.118 7.883,18.19 7.312,16.783 C7.091,16.237 6.852,15.236 7.046,14.417 C7.18,13.847 7.309,13.28 7.512,12.783 C7.571,12.804 7.545,12.79 7.579,12.817 C7.83,13.062 8.024,13.338 8.379,13.483 C9.292,13.858 10.175,13.289 10.512,12.75" fill="#000000"/>
  </g>
</svg>
