<?xml version="1.0" encoding="UTF-8"?>
<!DOCTYPE svg PUBLIC "-//W3C//DTD SVG 1.1//EN" "http://www.w3.org/Graphics/SVG/1.1/DTD/svg11.dtd">
<svg version="1.1" xmlns="http://www.w3.org/2000/svg" xmlns:xlink="http://www.w3.org/1999/xlink" x="0" y="0" width="24" height="24" viewBox="0, 0, 24, 24">
  <g id="Ebene_1">
    <path d="M19.261,0.595 C20.263,1.596 21.265,2.599 22.267,3.6 C22.556,3.889 23.265,4.402 23.4,4.777 C21.338,6.824 19.276,8.872 17.214,10.919 C16.677,11.456 16.139,11.994 15.602,12.531 C15.402,12.731 15.225,13.074 14.905,13.141 C14.697,12.986 13.236,12.562 12.901,12.531 C9.968,15.464 7.034,18.398 4.101,21.331 C4.254,21.551 4.623,21.976 4.363,22.333 C4.273,22.686 3.282,23.677 2.794,23.335 C2.479,23.252 2.339,23.01 2.141,22.812 C1.723,22.394 0.775,21.708 0.616,21.113 C0.462,20.539 1.447,19.681 1.792,19.588 C2.25,19.466 2.452,19.799 2.707,19.893 C4.871,17.715 7.035,15.537 9.198,13.359 C9.75,12.807 10.302,12.255 10.854,11.703 C11.063,11.494 11.437,11.295 11.507,10.963 C11.279,10.668 11.122,9.818 10.984,9.438 C10.946,9.331 10.841,9.095 10.897,8.959 C11.478,8.393 12.059,7.826 12.64,7.26 C14.847,5.038 17.054,2.816 19.261,0.595 z M19.261,1.509 C17.374,3.411 15.486,5.314 13.598,7.216 C13.119,7.695 12.64,8.175 12.161,8.654 C11.955,8.86 11.667,8.966 11.638,9.351 C11.817,9.612 12.192,10.937 12.248,11.311 C9.068,14.491 5.887,17.672 2.707,20.852 C2.693,20.837 2.678,20.823 2.664,20.808 C2.392,20.624 2.292,20.281 1.88,20.242 C1.695,20.515 1.333,20.642 1.27,21.026 C1.733,21.337 2.677,22.688 3.186,22.725 C3.39,22.507 3.593,22.289 3.796,22.071 C3.769,21.995 3.788,22.029 3.753,21.984 C3.643,21.675 3.299,21.595 3.186,21.287 C6.381,18.108 9.576,14.927 12.77,11.747 C13.43,11.996 14.154,12.238 14.862,12.4 C16.735,10.513 18.608,8.625 20.481,6.737 C20.946,6.272 21.411,5.808 21.875,5.343 C22.071,5.147 22.384,4.97 22.485,4.69 C21.411,3.63 20.336,2.569 19.261,1.509 z M18.913,2.729 C19.03,2.738 19.225,2.76 19.305,2.816 C19.66,2.901 20.136,3.563 19.828,3.992 C19.741,4.319 19.512,4.364 19.305,4.559 C18.939,4.591 18.724,4.55 18.434,4.472 C18.081,3.959 17.972,3.86 18.172,3.121 C18.309,3.034 18.41,2.882 18.564,2.816 C18.682,2.766 18.821,2.792 18.913,2.729 z M18.913,3.383 C18.781,3.517 18.708,3.5 18.695,3.775 C18.73,3.819 18.711,3.787 18.739,3.862 C18.829,3.89 18.93,3.985 19.044,3.949 C19.394,3.839 19.231,3.442 18.913,3.383 z M20.133,4.123 C20.498,4.108 20.825,4.166 21.004,4.341 C21.18,4.513 21.419,5.132 21.178,5.43 C21.04,5.897 20.562,5.975 20.046,5.953 C19.788,5.725 19.108,5.281 19.479,4.733 C19.586,4.333 19.854,4.34 20.133,4.123 z M17.083,4.515 C17.265,4.512 17.418,4.526 17.519,4.602 C17.875,4.685 18.369,5.345 18.042,5.779 C17.912,6.307 17.105,6.579 16.604,6.214 C16.262,5.965 16.143,5.258 16.43,4.864 C16.531,4.724 16.737,4.674 16.865,4.559 C16.976,4.556 17.027,4.554 17.083,4.515 z M20.22,4.777 C20.153,4.884 20.12,4.876 20.089,5.038 C20.082,5.106 20.085,5.197 20.22,5.256 C20.282,5.298 20.362,5.298 20.481,5.299 C20.559,5.167 20.602,5.132 20.612,4.907 C20.548,4.87 20.487,4.828 20.438,4.777 C20.365,4.777 20.292,4.777 20.22,4.777 z M17.083,5.169 C16.993,5.309 16.929,5.33 16.909,5.561 C17.022,5.637 17.128,5.753 17.258,5.691 C17.362,5.655 17.329,5.674 17.388,5.604 C17.453,5.521 17.469,5.46 17.432,5.387 C17.387,5.252 17.39,5.259 17.258,5.212 C17.206,5.177 17.184,5.179 17.083,5.169 z M18.347,5.909 C18.555,5.9 18.806,5.886 18.957,5.953 C19.241,6.078 19.747,6.777 19.392,7.216 C19.319,7.469 19.083,7.671 18.782,7.695 C18.197,8.108 17.279,6.99 17.737,6.432 C17.845,6.088 18.098,6.103 18.347,5.909 z M15.254,6.301 C15.464,6.294 15.661,6.301 15.776,6.389 C16.175,6.508 16.355,6.897 16.343,7.434 C16.158,7.676 16.145,7.936 15.82,8.044 C15.666,8.176 15.264,8.223 15.079,8.087 C14.721,8.003 14.214,7.321 14.557,6.868 C14.678,6.482 14.959,6.508 15.254,6.301 z M18.434,6.563 C18.349,6.697 18.308,6.712 18.303,6.955 C18.437,7.04 18.452,7.081 18.695,7.086 C18.78,6.951 18.821,6.936 18.826,6.693 C18.782,6.65 18.739,6.606 18.695,6.563 C18.608,6.563 18.521,6.563 18.434,6.563 z M15.297,6.955 C15.216,7.083 15.154,7.107 15.123,7.303 C15.296,7.476 15.349,7.535 15.602,7.434 C15.651,7.326 15.676,7.293 15.689,7.129 C15.631,7.071 15.573,7.013 15.515,6.955 C15.442,6.955 15.37,6.955 15.297,6.955 z M16.561,7.695 C16.923,7.688 17.102,7.759 17.345,7.826 C17.5,8.049 17.934,8.586 17.606,9.002 C17.496,9.381 16.783,9.742 16.299,9.438 C15.914,9.196 15.697,8.463 16.038,8 C16.154,7.913 16.27,7.826 16.386,7.739 C16.488,7.73 16.509,7.731 16.561,7.695 z M13.424,8.087 C13.771,8.08 13.929,8.154 14.164,8.218 C14.458,8.651 14.57,8.686 14.513,9.394 C13.981,9.831 14,10.043 13.119,9.83 C12.776,9.329 12.664,9.334 12.77,8.567 C12.876,8.487 12.926,8.334 13.032,8.262 C13.154,8.178 13.314,8.177 13.424,8.087 z M16.648,8.349 C16.563,8.483 16.522,8.498 16.517,8.741 C16.649,8.819 16.684,8.862 16.909,8.872 C16.994,8.737 17.035,8.722 17.04,8.48 C16.996,8.436 16.953,8.392 16.909,8.349 C16.822,8.349 16.735,8.349 16.648,8.349 z M13.511,8.741 C13.462,8.808 13.464,8.778 13.424,8.872 C13.359,8.955 13.343,9.016 13.38,9.089 C13.429,9.215 13.388,9.17 13.511,9.22 C13.573,9.262 13.654,9.263 13.772,9.264 C13.879,9.1 13.995,8.883 13.729,8.785 C13.672,8.746 13.621,8.745 13.511,8.741 z M14.731,9.482 C14.988,9.478 15.226,9.5 15.428,9.525 C15.628,9.769 16.186,10.221 15.863,10.701 C15.747,11.181 14.993,11.533 14.469,11.181 C14.105,10.935 13.931,10.221 14.252,9.786 C14.361,9.639 14.583,9.593 14.731,9.482 z M14.949,10.091 C14.817,10.226 14.743,10.208 14.731,10.484 C14.858,10.6 14.867,10.649 15.123,10.658 C15.19,10.556 15.305,10.448 15.254,10.353 C15.198,10.16 15.119,10.159 14.949,10.091" fill="#000000"/>
  </g>
</svg>
