<?xml version="1.0" encoding="UTF-8"?>
<!DOCTYPE svg PUBLIC "-//W3C//DTD SVG 1.1//EN" "http://www.w3.org/Graphics/SVG/1.1/DTD/svg11.dtd">
<svg version="1.1" xmlns="http://www.w3.org/2000/svg" xmlns:xlink="http://www.w3.org/1999/xlink" x="0" y="0" width="24" height="24" viewBox="0, 0, 24, 24">
  <g id="Ebene_1">
    <g>
      <path d="M12.473,5.843 C13.416,5.843 14.181,6.607 14.181,7.55 C14.181,8.493 13.416,9.257 12.473,9.257 C11.53,9.257 10.766,8.493 10.766,7.55 C10.766,6.607 11.53,5.843 12.473,5.843 z M12.473,6.824 C12.073,6.824 11.748,7.149 11.748,7.55 C11.748,7.951 12.073,8.276 12.473,8.276 C12.874,8.276 13.199,7.951 13.199,7.55 C13.199,7.149 12.874,6.824 12.473,6.824 z" fill="#000000"/>
      <path d="M12.473,16.385 C13.416,16.385 14.181,17.15 14.181,18.093 C14.181,19.036 13.416,19.8 12.473,19.8 C11.53,19.8 10.766,19.036 10.766,18.093 C10.766,17.15 11.53,16.385 12.473,16.385 z M12.473,17.367 C12.073,17.367 11.748,17.692 11.748,18.093 C11.748,18.493 12.073,18.818 12.473,18.818 C12.874,18.818 13.199,18.493 13.199,18.093 C13.199,17.692 12.874,17.367 12.473,17.367 z" fill="#000000"/>
      <path d="M20.967,16.385 C21.91,16.385 22.674,17.15 22.674,18.093 C22.674,19.036 21.91,19.8 20.967,19.8 C20.024,19.8 19.26,19.036 19.26,18.093 C19.26,17.15 20.024,16.385 20.967,16.385 z M20.967,17.367 C20.566,17.367 20.242,17.692 20.242,18.093 C20.242,18.493 20.566,18.818 20.967,18.818 C21.368,18.818 21.693,18.493 21.693,18.093 C21.693,17.692 21.368,17.367 20.967,17.367 z" fill="#000000"/>
      <path d="M4.107,5.8 C5.05,5.8 5.815,6.564 5.815,7.507 C5.815,8.45 5.05,9.215 4.107,9.215 C3.164,9.215 2.4,8.45 2.4,7.507 C2.4,6.564 3.164,5.8 4.107,5.8 z M4.107,6.782 C3.707,6.782 3.382,7.107 3.382,7.507 C3.382,7.908 3.707,8.233 4.107,8.233 C4.508,8.233 4.833,7.908 4.833,7.507 C4.833,7.107 4.508,6.782 4.107,6.782 z" fill="#000000"/>
      <path d="M11.299,7.016 L11.299,8.041 L5.409,8.041 L5.409,7.016 L11.299,7.016 z" fill="#000000"/>
      <path d="M13.007,8.937 L13.007,16.834 L11.982,16.834 L11.982,8.937 L13.007,8.937 z" fill="#000000"/>
      <path d="M19.708,17.602 L19.708,18.626 L13.732,18.626 L13.732,17.602 L19.708,17.602 z" fill="#000000"/>
      <path d="M4.107,7.963 C3.856,7.963 3.652,7.759 3.652,7.507 C3.652,7.256 3.856,7.052 4.107,7.052 C4.359,7.052 4.563,7.256 4.563,7.507 C4.563,7.759 4.359,7.963 4.107,7.963 z" fill="#000000"/>
      <path d="M12.459,7.991 C12.208,7.991 12.004,7.787 12.004,7.536 C12.004,7.284 12.208,7.08 12.459,7.08 C12.71,7.08 12.914,7.284 12.914,7.536 C12.914,7.787 12.71,7.991 12.459,7.991 z" fill="#000000"/>
      <path d="M12.487,18.562 C12.236,18.562 12.032,18.358 12.032,18.107 C12.032,17.855 12.236,17.652 12.487,17.652 C12.739,17.652 12.943,17.855 12.943,18.107 C12.943,18.358 12.739,18.562 12.487,18.562 z" fill="#000000"/>
      <path d="M20.939,18.52 C20.687,18.52 20.483,18.316 20.483,18.064 C20.483,17.813 20.687,17.609 20.939,17.609 C21.19,17.609 21.394,17.813 21.394,18.064 C21.394,18.316 21.19,18.52 20.939,18.52 z" fill="#000000"/>
    </g>
  </g>
</svg>
