<?xml version="1.0" encoding="UTF-8"?>
<!DOCTYPE svg PUBLIC "-//W3C//DTD SVG 1.1//EN" "http://www.w3.org/Graphics/SVG/1.1/DTD/svg11.dtd">
<svg version="1.1" xmlns="http://www.w3.org/2000/svg" xmlns:xlink="http://www.w3.org/1999/xlink" x="0" y="0" width="24" height="24" viewBox="0, 0, 24, 24">
  <g id="Ebene_1">
    <path d="M12,14.8 C10.454,14.8 9.2,13.546 9.2,12 C9.2,10.454 10.454,9.2 12,9.2 C13.546,9.2 14.8,10.454 14.8,12 C14.8,13.546 13.546,14.8 12,14.8 z" fill="#020402"/>
    <g>
      <path d="M7.947,6.557 C8.824,6.672 8.504,6.49 8.993,6.915 C9.329,7.353 9.247,7.981 8.809,8.318 C6.128,10.38 6.128,13.588 8.809,15.65 C9.247,15.987 9.329,16.614 8.993,17.052 C8.656,17.49 8.028,17.572 7.59,17.235 C3.868,14.373 3.868,9.595 7.59,6.732 L7.947,6.557 z" fill="#000000"/>
      <path d="M5.295,3.943 C6.173,4.057 5.852,3.876 6.341,4.301 C6.678,4.739 6.596,5.367 6.158,5.703 C1.598,9.209 1.598,14.758 6.158,18.264 C6.596,18.601 6.678,19.229 6.341,19.667 C6.004,20.105 5.376,20.187 4.939,19.85 C-0.662,15.543 -0.662,8.425 4.939,4.118 L5.295,3.943 z" fill="#000000"/>
    </g>
    <g>
      <path d="M16.053,17.443 C15.176,17.328 15.496,17.51 15.007,17.085 C14.671,16.647 14.753,16.019 15.191,15.682 C17.872,13.62 17.872,10.412 15.191,8.35 C14.753,8.013 14.671,7.386 15.007,6.948 C15.344,6.51 15.972,6.428 16.41,6.765 C20.132,9.627 20.132,14.405 16.41,17.268 L16.053,17.443 z" fill="#000000"/>
      <path d="M18.705,20.057 C17.827,19.943 18.148,20.124 17.659,19.699 C17.322,19.261 17.404,18.633 17.842,18.297 C22.402,14.791 22.402,9.242 17.842,5.736 C17.404,5.399 17.322,4.771 17.659,4.333 C17.996,3.895 18.624,3.813 19.061,4.15 C24.662,8.457 24.662,15.575 19.061,19.882 L18.705,20.057 z" fill="#000000"/>
    </g>
  </g>
</svg>
