<?xml version="1.0" encoding="UTF-8"?>
<!DOCTYPE svg PUBLIC "-//W3C//DTD SVG 1.1//EN" "http://www.w3.org/Graphics/SVG/1.1/DTD/svg11.dtd">
<svg version="1.1" xmlns="http://www.w3.org/2000/svg" xmlns:xlink="http://www.w3.org/1999/xlink" x="0" y="0" width="24" height="24" viewBox="0, 0, 24, 24">
  <g id="Ebene_1">
    <path d="M11.726,1.52 C12.832,1.511 13.501,1.868 13.946,2.507 C14.517,3.328 14.369,4.965 14.369,6.349 C14.369,9.215 14.369,12.082 14.369,14.948 C15.634,15.742 16.692,17.919 15.849,19.917 C15.129,21.625 12.787,23.193 10.351,22.138 C8.732,21.436 7.157,19.129 8.166,16.745 C8.376,16.249 8.724,15.765 9.083,15.406 C9.187,15.301 9.6,15.048 9.646,14.948 C9.646,11.212 9.646,7.476 9.646,3.741 C9.694,3.663 9.652,3.541 9.682,3.423 C9.759,3.118 9.875,2.781 10.034,2.542 C10.251,2.216 10.679,1.855 11.056,1.696 C11.258,1.611 11.543,1.637 11.726,1.52 z M11.832,2.472 C11.744,2.529 11.63,2.499 11.514,2.542 C11.175,2.67 10.842,3.021 10.704,3.353 C10.582,3.645 10.633,4.153 10.633,4.551 C10.633,5.362 10.633,6.172 10.633,6.983 C10.633,9.814 10.633,12.646 10.633,15.477 C9.575,15.806 8.428,17.636 8.942,19.212 C9.408,20.645 11.202,22.138 13.206,21.292 C14.215,20.865 15.56,19.422 15.144,17.732 C14.958,16.974 14.56,16.268 14.017,15.864 C13.911,15.786 13.425,15.557 13.382,15.477 C13.382,11.506 13.382,7.535 13.382,3.564 C13.277,3.424 13.269,3.217 13.171,3.071 C12.922,2.701 12.456,2.468 11.832,2.472 z M11.373,8.639 C11.82,8.639 12.266,8.639 12.713,8.639 C12.713,11.224 12.713,13.809 12.713,16.393 C13.572,16.608 14.483,17.904 13.981,19.107 C13.726,19.718 13.246,20.099 12.572,20.305 C12.182,20.424 11.649,20.431 11.268,20.27 C10.645,20.007 9.72,19.068 9.999,17.944 C10.131,17.411 10.446,16.91 10.845,16.64 C10.923,16.586 11.345,16.443 11.373,16.393 C11.373,13.809 11.373,11.224 11.373,8.639" fill="#000000"/>
  </g>
</svg>
