<?xml version="1.0" encoding="UTF-8"?>
<!DOCTYPE svg PUBLIC "-//W3C//DTD SVG 1.1//EN" "http://www.w3.org/Graphics/SVG/1.1/DTD/svg11.dtd">
<svg version="1.1" xmlns="http://www.w3.org/2000/svg" xmlns:xlink="http://www.w3.org/1999/xlink" x="0" y="0" width="24" height="24" viewBox="0, 0, 24, 24">
  <g id="Ebene_1">
    <path d="M5.12,13.37 C5.112,10.523 7.015,10.32 9.339,9.835 C9.339,9.823 9.339,9.81 9.339,9.797 C8.816,9.291 8.583,8.338 8.274,7.631 C7.964,6.918 7.518,6.201 7.286,5.426 C7.175,5.053 7.196,4.519 7.286,4.172 C7.627,2.854 8.337,2.158 9.681,1.854 C10.369,1.698 11.065,1.983 11.429,2.196 C12.524,2.837 12.734,3.627 13.253,4.818 C13.492,5.366 13.813,5.943 14.052,6.491 C14.172,6.767 14.234,7.279 14.394,7.517 C14.438,7.547 14.458,7.546 14.546,7.555 C14.915,7.301 16.585,7.561 17.054,7.669 C17.802,7.745 18.549,7.821 19.297,7.897 C20.491,8.219 22.024,9.568 21.539,11.356 C21.228,12.502 20.445,13.252 19.297,13.56 C18.794,13.695 18.062,13.584 17.624,13.484 C17.181,13.446 16.737,13.408 16.294,13.37 C15.655,13.224 14.861,13.15 14.242,13.066 C13.778,15.069 11.983,15.059 10.061,15.574 C9.613,15.694 8.751,15.687 8.426,15.916 C8.663,16.163 8.774,16.53 8.959,16.829 C9.381,17.51 9.779,18.061 9.985,18.995 C10.098,19.507 9.886,20.056 9.757,20.363 C9.287,21.481 7.922,22.612 6.184,22.036 C4.757,21.563 4.253,20.02 3.523,18.843 C3.137,18.219 2.669,17.625 2.459,16.829 C1.957,14.925 3.648,13.536 5.12,13.37 z M9.757,3.412 C9.376,3.692 9.037,3.777 8.844,4.248 C8.645,4.736 8.886,5.203 9.035,5.54 C9.364,6.29 9.705,7.022 10.023,7.745 C10.333,8.452 10.806,9.713 12.037,9.189 C12.458,9.01 13.052,8.407 12.835,7.631 C12.758,7.353 12.563,7.078 12.455,6.833 C12.136,6.106 11.812,5.403 11.505,4.704 C11.314,4.269 11.202,3.838 10.821,3.602 C10.548,3.433 10.215,3.403 9.757,3.412 z M15.116,8.999 C15.008,9.066 14.831,9.024 14.698,9.075 C14.485,9.156 14.214,9.39 14.09,9.569 C13.761,10.044 13.851,10.789 14.166,11.204 C14.557,11.72 15.298,11.567 16.066,11.736 C16.473,11.825 16.941,11.789 17.396,11.888 C18.407,12.108 19.536,12.132 19.905,11.318 C20.183,10.703 19.916,9.971 19.525,9.683 C19.114,9.381 18.583,9.476 17.966,9.341 C17.084,9.148 16.04,9.058 15.116,8.999 z M11.277,11.013 C10.979,11.193 10.494,11.144 10.137,11.242 C9.115,11.519 7.477,11.519 6.944,12.306 C6.714,12.645 6.552,13.262 6.83,13.712 C7.008,14 7.379,14.261 7.742,14.358 C8.132,14.462 8.575,14.279 8.844,14.206 C9.521,14.024 10.215,13.961 10.859,13.788 C11.504,13.615 12.156,13.646 12.493,13.18 C13.209,12.191 12.551,10.991 11.277,11.013 z M5.044,14.928 C4.652,15.19 4.318,15.199 4.094,15.65 C3.981,15.877 3.911,16.379 4.018,16.677 C4.117,16.954 4.361,17.234 4.512,17.475 C4.868,18.046 5.191,18.629 5.538,19.185 C5.89,19.749 6.379,20.995 7.552,20.553 C8.029,20.374 8.682,19.667 8.388,18.881 C8.271,18.567 8.025,18.277 7.856,18.007 C7.5,17.435 7.177,16.853 6.83,16.297 C6.57,15.88 6.409,15.375 5.994,15.118 C5.748,14.966 5.447,14.921 5.044,14.928" fill="#000000"/>
  </g>
</svg>
