<svg xmlns="http://www.w3.org/2000/svg" viewBox="0 0 171.14 243.77"><defs><style>.cls-1{fill:#fff;}.cls-2{fill:none;}.cls-3{fill:#ffcb05;}</style></defs><g id="Layer_2" data-name="Layer 2"><g id="Layer_1-2" data-name="Layer 1"><path class="cls-1" d="M61.19,234.85l.79,1.38A15.13,15.13,0,0,0,75,243.77H96.12a15.13,15.13,0,0,0,13.06-7.55l.79-1.37h44.18a13.67,13.67,0,0,0,13.66-13.66v-2.28a13.64,13.64,0,0,0-1.89-7V90.56a14.79,14.79,0,0,0-.41-22.89,34.69,34.69,0,0,0-34.23-29.28H117.82V33.63A13.61,13.61,0,0,0,121,24.85V22.58A13.68,13.68,0,0,0,110.13,9.2l-.95-1.64A15.12,15.12,0,0,0,96.12,0H75A15.11,15.11,0,0,0,62,7.55L61,9.19A13.69,13.69,0,0,0,50.1,22.58v2.27a13.65,13.65,0,0,0,3.22,8.8v4.74H39.85A34.7,34.7,0,0,0,5.62,67.68a14.79,14.79,0,0,0-.41,22.87V212a13.66,13.66,0,0,0-1.88,6.94v2.28A13.68,13.68,0,0,0,17,234.85Z"/><path class="cls-2" d="M21.49,215.25H149.64a3.21,3.21,0,0,0,3.21-3.21V84.09H131.21a1.54,1.54,0,0,1,0-3.07h25.14a1.73,1.73,0,0,0,0-3.46h-99a1.54,1.54,0,1,1,0-3.07h95.47V73a21.59,21.59,0,0,0-21.57-21.56h-34a1.54,1.54,0,0,1,0-3.07h7.5V28.51H66.4V48.39H81.67a1.54,1.54,0,0,1,0,3.07H39.85A21.59,21.59,0,0,0,18.28,73v1.46H40.66a1.54,1.54,0,0,1,0,3.07H14.8a1.73,1.73,0,0,0,0,3.46H118.18a1.54,1.54,0,1,1,0,3.07H18.28V212A3.21,3.21,0,0,0,21.49,215.25ZM132.68,63.11a1.59,1.59,0,0,1,2.17,0,1.54,1.54,0,0,1,.45,1.09,1.54,1.54,0,0,1-1.53,1.53,1.54,1.54,0,0,1-1.54-1.53A1.58,1.58,0,0,1,132.68,63.11Zm-12.05,0a1.59,1.59,0,0,1,2.17,0,1.54,1.54,0,0,1,.42,1.39c0,.1,0,.19-.08.29a1.74,1.74,0,0,1-.15.26l-.19.23a2.11,2.11,0,0,1-.23.19.94.94,0,0,1-.26.14,1.61,1.61,0,0,1-.29.09,1.53,1.53,0,0,1-.3,0,1.54,1.54,0,0,1-1.54-1.53A1.58,1.58,0,0,1,120.63,63.11Zm-12,0a1.59,1.59,0,0,1,2.17,0,1.54,1.54,0,0,1,.45,1.09,1.54,1.54,0,0,1-1.53,1.53,1.54,1.54,0,0,1-1.54-1.53A1.58,1.58,0,0,1,108.58,63.11Zm-12,0a1.59,1.59,0,0,1,2.17,0,1.54,1.54,0,0,1,.42,1.39c0,.1-.05.19-.08.29a1.74,1.74,0,0,1-.15.26,1.77,1.77,0,0,1-.19.23,1.51,1.51,0,0,1-1.08.45,1.54,1.54,0,0,1-1.54-1.53A1.58,1.58,0,0,1,96.53,63.11Zm-12,0a1.59,1.59,0,0,1,2.17,0,1.54,1.54,0,0,1,.45,1.09,1.54,1.54,0,0,1-1.53,1.53A1.54,1.54,0,0,1,84,64.2,1.58,1.58,0,0,1,84.48,63.11Zm-12,0a1.59,1.59,0,0,1,2.17,0,1.54,1.54,0,0,1,.45,1.09,1.54,1.54,0,0,1-1.53,1.53A1.54,1.54,0,0,1,72,64.2,1.58,1.58,0,0,1,72.43,63.11Zm-12.05,0a1.59,1.59,0,0,1,2.17,0A1.54,1.54,0,0,1,63,64.2a1.53,1.53,0,0,1-1.83,1.5,1.4,1.4,0,0,1-.29-.09.94.94,0,0,1-.26-.14,1.49,1.49,0,0,1-.69-1.27A1.58,1.58,0,0,1,60.38,63.11ZM38.45,65.28a2.11,2.11,0,0,1-.23.19.94.94,0,0,1-.26.14,1.61,1.61,0,0,1-.29.09,1.52,1.52,0,0,1-.6,0,1.61,1.61,0,0,1-.29-.09.94.94,0,0,1-.26-.14,2.23,2.23,0,0,1-.24-.19,1.56,1.56,0,0,1-.45-1.08,1.54,1.54,0,0,1,2.62-1.09,1.54,1.54,0,0,1,.45,1.09A1.51,1.51,0,0,1,38.45,65.28Zm11.81,11a1.57,1.57,0,0,1-.08.29,2.15,2.15,0,0,1-.14.26,2.11,2.11,0,0,1-.19.23,1.43,1.43,0,0,1-.24.19,1.35,1.35,0,0,1-.26.15l-.29.09-.3,0A1.57,1.57,0,0,1,47.22,76a1.55,1.55,0,0,1,1.84-1.51,1.61,1.61,0,0,1,.29.09l.26.14a2.23,2.23,0,0,1,.24.19A1.57,1.57,0,0,1,50.29,76,1.53,1.53,0,0,1,50.26,76.33Zm.24-11a1.51,1.51,0,0,1-1.08.45,1.54,1.54,0,0,1-1.09-.45,1.56,1.56,0,0,1-.45-1.08,1.54,1.54,0,0,1,2.62-1.09A1.54,1.54,0,0,1,51,64.2,1.51,1.51,0,0,1,50.5,65.28Zm95.33,141a1.54,1.54,0,0,1,2.62,1.09c0,.1,0,.2,0,.3a1.31,1.31,0,0,1-.09.28,1.71,1.71,0,0,1-.14.27,2.11,2.11,0,0,1-.19.23,1.54,1.54,0,0,1-1.39.42,1.61,1.61,0,0,1-.29-.09.94.94,0,0,1-.26-.14,1.37,1.37,0,0,1-.23-.19,1.43,1.43,0,0,1-.2-.23,1.71,1.71,0,0,1-.14-.27,2.29,2.29,0,0,1-.08-.28,1.54,1.54,0,0,1,.42-1.39Zm-13.15-15a1.55,1.55,0,0,1,1.39-.42l.29.08a1.35,1.35,0,0,1,.26.15,1.06,1.06,0,0,1,.23.19,1.53,1.53,0,0,1,0,2.17,1.56,1.56,0,0,1-1.08.45,1.54,1.54,0,0,1-1.54-1.54A1.56,1.56,0,0,1,132.68,191.21Zm-9.76-109c0-.09,0-.19.08-.28a2.29,2.29,0,0,1,.14-.27,2.11,2.11,0,0,1,.19-.23,1.43,1.43,0,0,1,.24-.19.94.94,0,0,1,.26-.14,1.61,1.61,0,0,1,.29-.09,1.52,1.52,0,0,1,.6,0,1.4,1.4,0,0,1,.29.09.94.94,0,0,1,.26.14,1.12,1.12,0,0,1,.24.19,2.11,2.11,0,0,1,.19.23,2.29,2.29,0,0,1,.14.27,1.52,1.52,0,0,1,.09.28,1.6,1.6,0,0,1,0,.3,1.53,1.53,0,0,1,0,.3,1.4,1.4,0,0,1-.09.29c0,.09-.09.18-.14.27a2.11,2.11,0,0,1-.19.23,1.55,1.55,0,0,1-.24.19L125,84a1.4,1.4,0,0,1-.29.09,1.51,1.51,0,0,1-.6,0,1.61,1.61,0,0,1-.29-.09l-.26-.14a2.23,2.23,0,0,1-.24-.19,2.11,2.11,0,0,1-.19-.23c0-.09-.1-.18-.14-.27a2.45,2.45,0,0,1-.08-.29,1.53,1.53,0,0,1,0-.3A1.6,1.6,0,0,1,122.92,82.25Zm-2.29,109a1.12,1.12,0,0,1,.24-.19,1.35,1.35,0,0,1,.26-.15l.29-.08a1.53,1.53,0,0,1,1.38.42,1.51,1.51,0,0,1,.45,1.08,1.54,1.54,0,0,1-.45,1.09,1.56,1.56,0,0,1-1.08.45,1.54,1.54,0,0,1-1.54-1.54A1.56,1.56,0,0,1,120.63,191.21Zm17.66,14.64a1.54,1.54,0,1,1,0,3.07H72.9a1.54,1.54,0,0,1,0-3.07ZM72,192.29a1.56,1.56,0,0,1,.45-1.08,1.12,1.12,0,0,1,.24-.19,1.35,1.35,0,0,1,.26-.15l.29-.08a1.53,1.53,0,0,1,1.38,2.59,1.56,1.56,0,0,1-1.08.45,1.6,1.6,0,0,1-1.09-.45A1.58,1.58,0,0,1,72,192.29Zm12,0a1.56,1.56,0,0,1,.45-1.08,1.12,1.12,0,0,1,.24-.19,1.35,1.35,0,0,1,.26-.15l.29-.08a1.52,1.52,0,0,1,1.83,1.5,1.54,1.54,0,0,1-.45,1.09,1.56,1.56,0,0,1-1.08.45A1.54,1.54,0,0,1,84,192.29Zm12,0a1.54,1.54,0,0,1,1.84-1.5l.29.08a1.35,1.35,0,0,1,.26.15,1.37,1.37,0,0,1,.23.19,1.51,1.51,0,0,1,.45,1.08,1.54,1.54,0,0,1-.45,1.09,1.56,1.56,0,0,1-1.08.45,1.54,1.54,0,0,1-1.54-1.54Zm12.5-1.08a1.12,1.12,0,0,1,.24-.19,1.35,1.35,0,0,1,.26-.15l.29-.08a1.53,1.53,0,0,1,1.38,2.59,1.56,1.56,0,0,1-1.08.45,1.6,1.6,0,0,1-1.09-.45,1.58,1.58,0,0,1-.45-1.09A1.56,1.56,0,0,1,108.58,191.21ZM64.26,136.07l.47-1.49a1.58,1.58,0,0,1,.78-.92,1.52,1.52,0,0,1,1.2-.07l6.48,2.31a33.39,33.39,0,0,1,.56-6.29,28.38,28.38,0,0,1,3.84-10,26.76,26.76,0,0,1,6.25-6.9,31.13,31.13,0,0,1,3.37-2.29l2-1.19a1.54,1.54,0,0,1,2.31,1.18l.21,2.36c.1,1.09.14,2.14.19,3.16a22.38,22.38,0,0,0,1,6.91,25.41,25.41,0,0,0,4.93,7.81l.39.46c3.69,4.27,7.52,8.68,8.27,15.05a15.37,15.37,0,0,1-4.38,12.5,15.54,15.54,0,0,1-11.1,4.63H79.48a15.52,15.52,0,0,1-12.89-6.83C63.88,152.43,61.28,145.63,64.26,136.07Zm-3.88,55.14a1.55,1.55,0,0,1,1.39-.42l.29.08a1.35,1.35,0,0,1,.26.15,1.06,1.06,0,0,1,.23.19,1.51,1.51,0,0,1,.45,1.08,1.54,1.54,0,0,1-.45,1.09,1.56,1.56,0,0,1-1.08.45,1.6,1.6,0,0,1-1.09-.45,1.58,1.58,0,0,1-.45-1.09A1.56,1.56,0,0,1,60.38,191.21Zm.42,14.59h5.1a1.54,1.54,0,1,1,0,3.07H60.8a1.54,1.54,0,0,1,0-3.07ZM52.54,207a1.4,1.4,0,0,1,.09-.29c0-.09.09-.18.14-.27a1.57,1.57,0,0,1,.42-.42,1.74,1.74,0,0,1,.27-.14,1.4,1.4,0,0,1,.29-.09,1.45,1.45,0,0,1,.88.09,1.71,1.71,0,0,1,.27.14,2.11,2.11,0,0,1,.23.19,1.37,1.37,0,0,1,.19.23,1.16,1.16,0,0,1,.14.27,1.4,1.4,0,0,1,.09.29,1.53,1.53,0,0,1-1.5,1.83,1.45,1.45,0,0,1-.3,0,1.4,1.4,0,0,1-.29-.09,1.16,1.16,0,0,1-.27-.14,1.37,1.37,0,0,1-.23-.19,1.52,1.52,0,0,1-.42-1.38Zm-4.21-15.83a1.12,1.12,0,0,1,.24-.19,1.35,1.35,0,0,1,.26-.15l.29-.08a1.52,1.52,0,0,1,1.83,1.5,1.54,1.54,0,0,1-.45,1.09,1.56,1.56,0,0,1-1.08.45,1.54,1.54,0,0,1-1.54-1.54A1.56,1.56,0,0,1,48.33,191.21Zm-12,0a1.12,1.12,0,0,1,.24-.19,1.35,1.35,0,0,1,.26-.15l.29-.08a1.53,1.53,0,0,1,1.38,2.59,1.56,1.56,0,0,1-1.08.45,1.6,1.6,0,0,1-1.09-.45,1.58,1.58,0,0,1-.45-1.09A1.56,1.56,0,0,1,36.28,191.21ZM24.22,205.85H48.76a1.54,1.54,0,1,1,0,3.07H24.22a1.54,1.54,0,0,1,0-3.07Z"/><path class="cls-2" d="M63.76,25.44h43.61a.58.58,0,0,0,.59-.59V22.58a.58.58,0,0,0-.59-.59H63.76a.59.59,0,0,0-.59.59v2.27A.59.59,0,0,0,63.76,25.44Z"/><rect class="cls-2" x="16.4" y="218.32" width="138.34" height="3.45" rx="0.59"/><path class="cls-3" d="M69.14,154.73a12.4,12.4,0,0,0,9.06,5.4,7.51,7.51,0,0,1-1.71-1.8,11.42,11.42,0,0,1-1.16-10.17l.46-1.49,4,1.42a17.21,17.21,0,0,1,.28-3.16,13.7,13.7,0,0,1,4.71-8.18,14.45,14.45,0,0,1,2-1.41l2-1.19.21,2.35c0,.55.07,1.08.09,1.6a11.31,11.31,0,0,0,.5,3.44,12.69,12.69,0,0,0,2.47,3.91l.19.23c1.76,2,3.76,4.34,4.13,7.52,0,.23,0,.47,0,.72a7.58,7.58,0,0,1-2.21,5.48,5.57,5.57,0,0,1-.57.52,12.39,12.39,0,0,0,6.28-3.43,12.2,12.2,0,0,0,3.58-8.76h0a11.63,11.63,0,0,0-.07-1.22c-.64-5.43-4.15-9.49-7.54-13.41l-.4-.45a28.43,28.43,0,0,1-5.48-8.76,25,25,0,0,1-1.18-7.81c0-1-.09-2-.18-3a27.38,27.38,0,0,0-3,2,23.8,23.8,0,0,0-5.54,6.11,25.76,25.76,0,0,0-3.43,8.94,31.33,31.33,0,0,0-.42,7.83,1.54,1.54,0,0,1-2,1.56L67.18,137C64.58,145.39,66.81,151.27,69.14,154.73Z"/><path d="M79.48,163.28H91.06a15.54,15.54,0,0,0,11.1-4.63,15.37,15.37,0,0,0,4.38-12.5c-.75-6.37-4.58-10.78-8.27-15.05l-.39-.46A25.41,25.41,0,0,1,93,122.83a22.38,22.38,0,0,1-1-6.91c0-1-.09-2.07-.19-3.16l-.21-2.36a1.54,1.54,0,0,0-2.31-1.18l-2,1.19a31.13,31.13,0,0,0-3.37,2.29,26.76,26.76,0,0,0-6.25,6.9,28.38,28.38,0,0,0-3.84,10,33.39,33.39,0,0,0-.56,6.29l-6.48-2.31a1.52,1.52,0,0,0-1.2.07,1.58,1.58,0,0,0-.78.92l-.47,1.49c-3,9.56-.38,16.36,2.33,20.38A15.52,15.52,0,0,0,79.48,163.28ZM74.3,139.56a1.54,1.54,0,0,0,2-1.56,31.33,31.33,0,0,1,.42-7.83,25.76,25.76,0,0,1,3.43-8.94,23.8,23.8,0,0,1,5.54-6.11,27.38,27.38,0,0,1,3-2c.09,1,.14,2,.18,3a25,25,0,0,0,1.18,7.81,28.43,28.43,0,0,0,5.48,8.76l.4.45c3.39,3.92,6.9,8,7.54,13.41a11.63,11.63,0,0,1,.07,1.22h0a12.2,12.2,0,0,1-3.58,8.76,12.39,12.39,0,0,1-6.28,3.43,5.57,5.57,0,0,0,.57-.52,7.58,7.58,0,0,0,2.21-5.48c0-.25,0-.49,0-.72-.37-3.18-2.37-5.49-4.13-7.52l-.19-.23a12.69,12.69,0,0,1-2.47-3.91,11.31,11.31,0,0,1-.5-3.44c0-.52,0-1-.09-1.6l-.21-2.35-2,1.19a14.45,14.45,0,0,0-2,1.41,13.7,13.7,0,0,0-4.71,8.18,17.21,17.21,0,0,0-.28,3.16l-4-1.42-.46,1.49a11.42,11.42,0,0,0,1.16,10.17,7.51,7.51,0,0,0,1.71,1.8,12.4,12.4,0,0,1-9.06-5.4c-2.33-3.46-4.56-9.34-2-17.71Z"/><path d="M155.92,84.09h.43a4.8,4.8,0,0,0,0-9.6h-.43V73a24.66,24.66,0,0,0-24.64-24.63H107.82V28.47A3.65,3.65,0,0,0,111,24.85V22.58a3.66,3.66,0,0,0-3.66-3.66h-3.19l-3.67-6.38A5.07,5.07,0,0,0,96.12,10H75a5.09,5.09,0,0,0-4.4,2.54L67,18.92H63.76a3.67,3.67,0,0,0-3.66,3.66v2.27a3.66,3.66,0,0,0,3.23,3.62V48.39H39.85A24.67,24.67,0,0,0,15.21,73v1.46H14.8a4.8,4.8,0,1,0,0,9.6h.41V212a6.22,6.22,0,0,0,1,3.31,3.67,3.67,0,0,0-2.84,3.56v2.28A3.66,3.66,0,0,0,17,224.85H67l3.67,6.38a5.11,5.11,0,0,0,4.4,2.54H96.12a5.1,5.1,0,0,0,4.39-2.54l3.67-6.38h50a3.66,3.66,0,0,0,3.66-3.66v-2.28a3.67,3.67,0,0,0-2.84-3.56,6.22,6.22,0,0,0,.95-3.31ZM75,13.07H96.12a2,2,0,0,1,1.73,1l2.79,4.85H70.51l2.79-4.85A2,2,0,0,1,75,13.07ZM63.17,22.58a.59.59,0,0,1,.59-.59h43.61a.58.58,0,0,1,.59.59v2.27a.58.58,0,0,1-.59.59H63.76a.59.59,0,0,1-.59-.59Zm55,61.51a1.54,1.54,0,1,0,0-3.07H14.8a1.73,1.73,0,0,1,0-3.46H40.66a1.54,1.54,0,0,0,0-3.07H18.28V73A21.59,21.59,0,0,1,39.85,51.46H81.67a1.54,1.54,0,0,0,0-3.07H66.4V28.51h38.35V48.39h-7.5a1.54,1.54,0,0,0,0,3.07h34A21.59,21.59,0,0,1,152.85,73v1.47H57.38a1.54,1.54,0,1,0,0,3.07h99a1.73,1.73,0,0,1,0,3.46H131.21a1.54,1.54,0,0,0,0,3.07h21.64V212a3.21,3.21,0,0,1-3.21,3.21H21.49A3.21,3.21,0,0,1,18.28,212V84.09ZM96.12,230.7H75a2,2,0,0,1-1.74-1l-2.79-4.84h30.13l-2.79,4.84A2,2,0,0,1,96.12,230.7Zm58.62-9.51a.59.59,0,0,1-.59.59H17a.6.6,0,0,1-.59-.59v-2.28a.6.6,0,0,1,.59-.59H154.15a.59.59,0,0,1,.59.59Z"/><path d="M49.61,74.75l-.26-.14a1.61,1.61,0,0,0-.29-.09A1.55,1.55,0,0,0,47.22,76a1.57,1.57,0,0,0,1.54,1.54l.3,0,.29-.09a1.35,1.35,0,0,0,.26-.15,1.43,1.43,0,0,0,.24-.19,2.11,2.11,0,0,0,.19-.23,2.15,2.15,0,0,0,.14-.26,1.57,1.57,0,0,0,.08-.29,1.53,1.53,0,0,0,0-.3,1.57,1.57,0,0,0-.44-1.09A2.23,2.23,0,0,0,49.61,74.75Z"/><path d="M123,83.14c0,.09.09.18.14.27a2.11,2.11,0,0,0,.19.23,2.23,2.23,0,0,0,.24.19l.26.14a1.61,1.61,0,0,0,.29.09,1.51,1.51,0,0,0,.6,0A1.4,1.4,0,0,0,125,84l.26-.14a1.55,1.55,0,0,0,.24-.19,2.11,2.11,0,0,0,.19-.23c0-.09.1-.18.14-.27a1.4,1.4,0,0,0,.09-.29,1.53,1.53,0,0,0,0-.3,1.6,1.6,0,0,0,0-.3,1.52,1.52,0,0,0-.09-.28,2.29,2.29,0,0,0-.14-.27,2.11,2.11,0,0,0-.19-.23,1.12,1.12,0,0,0-.24-.19.94.94,0,0,0-.26-.14,1.4,1.4,0,0,0-.29-.09,1.52,1.52,0,0,0-.6,0,1.61,1.61,0,0,0-.29.09.94.94,0,0,0-.26.14,1.43,1.43,0,0,0-.24.19,2.11,2.11,0,0,0-.19.23A2.29,2.29,0,0,0,123,82c0,.09-.06.19-.08.28a1.6,1.6,0,0,0,0,.3,1.53,1.53,0,0,0,0,.3A2.45,2.45,0,0,0,123,83.14Z"/><path d="M71.37,207.38a1.54,1.54,0,0,0,1.53,1.54h65.39a1.54,1.54,0,1,0,0-3.07H72.9A1.54,1.54,0,0,0,71.37,207.38Z"/><path d="M24.22,208.92H48.76a1.54,1.54,0,1,0,0-3.07H24.22a1.54,1.54,0,0,0,0,3.07Z"/><path d="M60.8,208.87h5.1a1.54,1.54,0,1,0,0-3.07H60.8a1.54,1.54,0,0,0,0,3.07Z"/><path d="M145.49,207.92a1.71,1.71,0,0,0,.14.27,1.43,1.43,0,0,0,.2.23,1.37,1.37,0,0,0,.23.19.94.94,0,0,0,.26.14,1.61,1.61,0,0,0,.29.09,1.54,1.54,0,0,0,1.39-.42,2.11,2.11,0,0,0,.19-.23,1.71,1.71,0,0,0,.14-.27,1.31,1.31,0,0,0,.09-.28c0-.1,0-.2,0-.3a1.54,1.54,0,0,0-2.62-1.09,1.54,1.54,0,0,0-.42,1.39A2.29,2.29,0,0,0,145.49,207.92Z"/><path d="M53.19,208.61a1.16,1.16,0,0,0,.27.14,1.4,1.4,0,0,0,.29.09,1.45,1.45,0,0,0,.3,0,1.53,1.53,0,0,0,1.5-1.83,1.4,1.4,0,0,0-.09-.29,1.16,1.16,0,0,0-.14-.27,1.37,1.37,0,0,0-.19-.23,2.11,2.11,0,0,0-.23-.19,1.71,1.71,0,0,0-.27-.14,1.45,1.45,0,0,0-.88-.09,1.4,1.4,0,0,0-.29.09,1.74,1.74,0,0,0-.27.14,1.57,1.57,0,0,0-.42.42c-.05.09-.1.18-.14.27a1.4,1.4,0,0,0-.09.29,1.52,1.52,0,0,0,.42,1.38A1.37,1.37,0,0,0,53.19,208.61Z"/><path class="cls-1" d="M100.64,18.92l-2.79-4.85a2,2,0,0,0-1.73-1H75a2,2,0,0,0-1.74,1l-2.79,4.85Z"/><path class="cls-1" d="M70.51,224.85l2.79,4.84a2,2,0,0,0,1.74,1H96.12a2,2,0,0,0,1.73-1l2.79-4.84Z"/><path d="M36.28,63.11a1.58,1.58,0,0,0-.45,1.09,1.56,1.56,0,0,0,.45,1.08,2.23,2.23,0,0,0,.24.19.94.94,0,0,0,.26.14,1.61,1.61,0,0,0,.29.09,1.52,1.52,0,0,0,.6,0,1.61,1.61,0,0,0,.29-.09.94.94,0,0,0,.26-.14,2.11,2.11,0,0,0,.23-.19,1.51,1.51,0,0,0,.45-1.08,1.54,1.54,0,0,0-.45-1.09A1.59,1.59,0,0,0,36.28,63.11Z"/><path d="M48.33,63.11a1.58,1.58,0,0,0-.45,1.09,1.56,1.56,0,0,0,.45,1.08,1.54,1.54,0,0,0,1.09.45A1.54,1.54,0,0,0,51,64.2a1.54,1.54,0,0,0-.45-1.09A1.59,1.59,0,0,0,48.33,63.11Z"/><path d="M60.62,65.47a.94.94,0,0,0,.26.14,1.4,1.4,0,0,0,.29.09,1.53,1.53,0,0,0,1.38-2.59,1.54,1.54,0,0,0-2.62,1.09,1.49,1.49,0,0,0,.69,1.27Z"/><path d="M73.52,65.73a1.54,1.54,0,0,0,1.53-1.53,1.54,1.54,0,0,0-.45-1.09A1.54,1.54,0,0,0,72,64.2a1.54,1.54,0,0,0,1.54,1.53Z"/><path d="M85.57,65.73A1.54,1.54,0,0,0,87.1,64.2a1.54,1.54,0,0,0-.45-1.09A1.54,1.54,0,0,0,84,64.2a1.54,1.54,0,0,0,1.54,1.53Z"/><path d="M97.62,65.73a1.51,1.51,0,0,0,1.08-.45,1.77,1.77,0,0,0,.19-.23,1.74,1.74,0,0,0,.15-.26c0-.1.06-.19.08-.29a1.54,1.54,0,0,0-.42-1.39,1.54,1.54,0,0,0-2.62,1.09,1.54,1.54,0,0,0,1.54,1.53Z"/><path d="M109.67,65.73a1.54,1.54,0,0,0,1.53-1.53,1.54,1.54,0,0,0-.45-1.09,1.54,1.54,0,0,0-2.62,1.09,1.54,1.54,0,0,0,1.54,1.53Z"/><path d="M121.72,65.73a1.53,1.53,0,0,0,.3,0,1.61,1.61,0,0,0,.29-.09.94.94,0,0,0,.26-.14,2.11,2.11,0,0,0,.23-.19l.19-.23a1.74,1.74,0,0,0,.15-.26c0-.1.06-.19.08-.29a1.54,1.54,0,0,0-.42-1.39,1.54,1.54,0,0,0-2.62,1.09,1.54,1.54,0,0,0,1.54,1.53Z"/><path d="M133.77,65.73a1.54,1.54,0,0,0,1.53-1.53,1.54,1.54,0,0,0-.45-1.09,1.54,1.54,0,0,0-2.62,1.09,1.54,1.54,0,0,0,1.54,1.53Z"/><path d="M37.37,193.83a1.56,1.56,0,0,0,1.08-.45,1.54,1.54,0,0,0,.45-1.09,1.53,1.53,0,0,0-1.83-1.5l-.29.08a1.35,1.35,0,0,0-.26.15,1.12,1.12,0,0,0-.24.19,1.56,1.56,0,0,0-.45,1.08,1.58,1.58,0,0,0,.45,1.09A1.6,1.6,0,0,0,37.37,193.83Z"/><path d="M49.42,193.83a1.56,1.56,0,0,0,1.08-.45,1.54,1.54,0,0,0,.45-1.09,1.52,1.52,0,0,0-1.83-1.5l-.29.08a1.35,1.35,0,0,0-.26.15,1.12,1.12,0,0,0-.24.19,1.56,1.56,0,0,0-.45,1.08,1.54,1.54,0,0,0,1.54,1.54Z"/><path d="M61.47,193.83a1.56,1.56,0,0,0,1.08-.45,1.54,1.54,0,0,0,.45-1.09,1.51,1.51,0,0,0-.45-1.08,1.06,1.06,0,0,0-.23-.19,1.35,1.35,0,0,0-.26-.15l-.29-.08a1.54,1.54,0,0,0-1.84,1.5,1.58,1.58,0,0,0,.45,1.09A1.6,1.6,0,0,0,61.47,193.83Z"/><path d="M74.6,193.38a1.54,1.54,0,0,0,.45-1.09,1.53,1.53,0,0,0-1.83-1.5l-.29.08a1.35,1.35,0,0,0-.26.15,1.12,1.12,0,0,0-.24.19,1.56,1.56,0,0,0-.45,1.08,1.58,1.58,0,0,0,.45,1.09,1.6,1.6,0,0,0,1.09.45A1.56,1.56,0,0,0,74.6,193.38Z"/><path d="M86.65,193.38a1.55,1.55,0,0,0,0-2.17,1.56,1.56,0,0,0-1.39-.42l-.29.08a1.35,1.35,0,0,0-.26.15,1.12,1.12,0,0,0-.24.19,1.56,1.56,0,0,0-.45,1.08,1.54,1.54,0,0,0,1.54,1.54A1.56,1.56,0,0,0,86.65,193.38Z"/><path d="M98.7,193.38a1.54,1.54,0,0,0,.45-1.09,1.51,1.51,0,0,0-.45-1.08,1.37,1.37,0,0,0-.23-.19,1.35,1.35,0,0,0-.26-.15l-.29-.08a1.54,1.54,0,0,0-1.84,1.5,1.54,1.54,0,0,0,1.54,1.54A1.56,1.56,0,0,0,98.7,193.38Z"/><path d="M109.67,193.83a1.56,1.56,0,0,0,1.08-.45,1.54,1.54,0,0,0,.45-1.09,1.53,1.53,0,0,0-1.83-1.5l-.29.08a1.35,1.35,0,0,0-.26.15,1.12,1.12,0,0,0-.24.19,1.56,1.56,0,0,0-.45,1.08,1.58,1.58,0,0,0,.45,1.09A1.6,1.6,0,0,0,109.67,193.83Z"/><path d="M121.72,193.83a1.56,1.56,0,0,0,1.08-.45,1.54,1.54,0,0,0,.45-1.09,1.51,1.51,0,0,0-.45-1.08,1.53,1.53,0,0,0-1.38-.42l-.29.08a1.35,1.35,0,0,0-.26.15,1.12,1.12,0,0,0-.24.19,1.56,1.56,0,0,0-.45,1.08,1.54,1.54,0,0,0,1.54,1.54Z"/><path d="M133.77,193.83a1.56,1.56,0,0,0,1.08-.45,1.53,1.53,0,0,0,0-2.17,1.06,1.06,0,0,0-.23-.19,1.35,1.35,0,0,0-.26-.15l-.29-.08a1.54,1.54,0,0,0-1.84,1.5,1.54,1.54,0,0,0,1.54,1.54Z"/></g></g></svg>