<?xml version="1.0" encoding="UTF-8"?>
<!DOCTYPE svg PUBLIC "-//W3C//DTD SVG 1.1//EN" "http://www.w3.org/Graphics/SVG/1.1/DTD/svg11.dtd">
<svg version="1.1" xmlns="http://www.w3.org/2000/svg" xmlns:xlink="http://www.w3.org/1999/xlink" x="0" y="0" width="300" height="200" viewBox="0, 0, 300, 200">
  <g id="Ebene_1">
    <path d="M201.491,129.206 C201.09,129.29 200.799,129.117 200.664,129.006 C200.524,128.895 200.293,128.647 200.293,128.235 L200.293,115.887 L209.302,115.887 L209.302,127.556 L201.491,129.206 z M196.871,115.752 L196.761,106.113 C196.701,99.687 196.701,93.261 196.671,86.836 C196.706,80.41 196.701,73.984 196.761,67.558 L196.871,57.919 C196.936,54.706 196.971,51.493 197.061,48.28 C197.147,51.493 197.187,54.706 197.252,57.919 L197.357,67.558 C197.422,73.984 197.417,80.41 197.447,86.836 C197.417,93.261 197.422,99.687 197.357,106.113 L197.252,115.752 C197.187,118.965 197.147,122.178 197.061,125.391 C196.971,122.178 196.936,118.965 196.871,115.752 z M192.582,112.274 L195.238,112.274 L195.238,113.052 L192.582,113.052 z M101.583,112.274 L118.694,112.274 L118.694,113.052 L101.583,113.052 z M106.055,171.288 C106.055,172.628 104.965,173.718 103.625,173.718 L99.897,173.718 L99.897,163.527 C99.897,163.477 99.893,163.396 99.874,163.301 C99.873,163.294 99.872,163.287 99.87,163.28 C99.857,163.218 99.835,163.149 99.808,163.078 C99.806,163.074 99.804,163.071 99.803,163.067 C99.712,162.842 99.533,162.595 99.184,162.418 L95.644,159.911 C99.521,157.362 101.583,154.441 101.583,151.357 L101.583,115.887 L106.055,115.887 L106.055,171.288 z M78.25,170.527 L91.617,170.527 L91.617,173.718 L78.25,173.718 z M56.553,171.288 L56.553,170.527 L73.194,170.527 L73.194,173.718 L58.984,173.718 C57.643,173.718 56.553,172.628 56.553,171.288 z M14.101,169.36 L14.101,186.811 L10.486,186.811 L10.486,164.693 L23.749,164.693 C29.379,166.395 35.976,167.586 43.082,168.193 L15.267,168.193 C14.623,168.193 14.101,168.715 14.101,169.36 z M91.861,119.286 C91.884,116.758 91.888,114.231 91.926,111.703 C91.989,109.175 92.013,106.647 92.121,104.12 C92.292,99.064 92.545,94.009 93.027,88.953 C93.51,94.009 93.763,99.064 93.934,104.12 C94.042,106.647 94.066,109.175 94.129,111.703 C94.167,114.231 94.171,116.758 94.193,119.286 C94.2,124.342 94.107,129.397 93.938,134.453 C93.767,139.508 93.513,144.564 93.027,149.619 C92.542,144.564 92.288,139.508 92.117,134.453 C91.948,129.397 91.855,124.342 91.861,119.286 z M9.223,151.357 L9.223,80.701 C9.681,81.011 10.203,81.308 10.778,81.593 L10.778,151.357 C10.778,153.288 12.742,155.48 16.417,157.526 L16.417,83.617 C17.458,83.898 18.563,84.162 19.722,84.408 L19.722,159.125 C21.335,159.809 23.156,160.459 25.166,161.06 L25.166,85.392 C33.92,86.732 44.367,87.334 53.088,87.382 L54.236,156.607 L55.383,87.382 C56.186,87.377 57.003,87.368 57.833,87.355 L57.833,164.721 C59.292,164.683 60.72,164.622 62.111,164.538 L62.111,87.241 C64.915,87.142 67.797,86.989 70.667,86.777 L70.667,163.712 C72.011,163.528 73.313,163.325 74.568,163.102 L75.722,89.913 L76.869,162.661 C90.112,159.951 97.694,155.149 97.694,151.357 L97.694,81.593 C98.269,81.308 98.791,81.011 99.249,80.701 L99.249,151.357 C99.249,158.588 81.162,166.329 54.236,166.329 C27.31,166.329 9.223,158.588 9.223,151.357 z M43.153,13.411 C43.745,12.685 47.806,11.455 54.236,11.455 C60.666,11.455 64.727,12.685 65.319,13.411 L65.319,57.138 C64.727,57.865 60.666,59.094 54.236,59.094 C47.806,59.094 43.745,57.865 43.153,57.138 L43.153,13.411 z M41.494,58.761 C41.517,58.785 41.544,58.806 41.568,58.829 C41.603,58.861 41.639,58.894 41.675,58.926 C41.737,58.98 41.802,59.033 41.87,59.084 C41.909,59.114 41.948,59.145 41.988,59.174 C42.065,59.228 42.145,59.28 42.226,59.331 C42.264,59.355 42.3,59.38 42.339,59.403 C42.456,59.472 42.578,59.539 42.705,59.604 C42.712,59.608 42.717,59.612 42.724,59.615 C42.859,59.683 43,59.748 43.146,59.811 C43.192,59.831 43.24,59.851 43.287,59.87 C43.389,59.912 43.491,59.954 43.597,59.994 C43.655,60.016 43.715,60.037 43.775,60.058 C43.874,60.094 43.974,60.129 44.077,60.163 C44.14,60.184 44.203,60.204 44.268,60.224 C44.372,60.257 44.478,60.289 44.584,60.319 C44.648,60.338 44.713,60.357 44.778,60.375 C44.892,60.407 45.009,60.437 45.126,60.467 C45.185,60.482 45.242,60.497 45.301,60.511 C45.466,60.552 45.632,60.591 45.801,60.627 C45.812,60.63 45.824,60.633 45.836,60.635 C46.016,60.674 46.199,60.711 46.382,60.746 C46.444,60.758 46.507,60.769 46.569,60.781 C46.693,60.804 46.816,60.827 46.941,60.848 C47.012,60.86 47.083,60.872 47.155,60.884 C47.271,60.903 47.389,60.921 47.505,60.939 C47.579,60.95 47.654,60.961 47.728,60.972 C47.844,60.989 47.958,61.005 48.074,61.02 C48.146,61.03 48.218,61.04 48.289,61.049 C48.415,61.066 48.539,61.081 48.664,61.096 C48.724,61.103 48.784,61.11 48.844,61.117 C49.016,61.137 49.187,61.155 49.357,61.173 C49.368,61.174 49.379,61.175 49.39,61.176 C49.57,61.194 49.747,61.211 49.922,61.227 C49.985,61.232 50.048,61.237 50.111,61.243 C50.224,61.252 50.336,61.262 50.446,61.27 C50.515,61.276 50.581,61.28 50.647,61.285 C50.752,61.293 50.855,61.301 50.957,61.308 C51.022,61.312 51.086,61.317 51.15,61.321 C51.252,61.327 51.353,61.333 51.452,61.339 C51.51,61.343 51.568,61.346 51.625,61.349 C51.727,61.355 51.825,61.36 51.923,61.364 C51.975,61.367 52.027,61.37 52.077,61.372 C52.207,61.378 52.333,61.384 52.454,61.388 C52.472,61.389 52.491,61.39 52.508,61.391 C52.636,61.395 52.758,61.4 52.876,61.403 C52.916,61.405 52.952,61.406 52.991,61.407 C53.069,61.409 53.147,61.411 53.219,61.413 C53.266,61.414 53.309,61.415 53.354,61.416 C53.415,61.418 53.474,61.419 53.53,61.42 C53.569,61.421 53.608,61.421 53.645,61.422 C53.704,61.423 53.758,61.424 53.811,61.424 C53.837,61.425 53.862,61.425 53.886,61.425 C53.94,61.426 53.986,61.426 54.031,61.426 C54.051,61.427 54.073,61.427 54.092,61.427 C54.148,61.427 54.197,61.427 54.236,61.427 C54.275,61.427 54.324,61.427 54.38,61.427 C54.399,61.427 54.421,61.427 54.441,61.426 C54.486,61.426 54.532,61.426 54.586,61.425 C54.61,61.425 54.635,61.425 54.661,61.424 C54.714,61.424 54.768,61.423 54.828,61.422 C54.865,61.421 54.903,61.421 54.942,61.42 C54.998,61.419 55.057,61.418 55.118,61.416 C55.162,61.415 55.206,61.414 55.253,61.413 C55.326,61.411 55.403,61.409 55.481,61.407 C55.52,61.406 55.556,61.405 55.597,61.403 C55.714,61.4 55.837,61.395 55.965,61.391 C55.982,61.39 55.999,61.389 56.016,61.388 C56.138,61.384 56.264,61.378 56.395,61.372 C56.445,61.37 56.497,61.367 56.549,61.364 C56.646,61.36 56.745,61.355 56.847,61.349 C56.904,61.346 56.962,61.343 57.02,61.339 C57.119,61.333 57.22,61.327 57.322,61.321 C57.386,61.317 57.451,61.312 57.516,61.308 C57.617,61.301 57.72,61.294 57.824,61.285 C57.89,61.28 57.958,61.276 58.026,61.27 C58.136,61.262 58.248,61.252 58.361,61.243 C58.424,61.237 58.486,61.232 58.55,61.227 C58.725,61.211 58.903,61.194 59.081,61.176 C59.093,61.175 59.104,61.174 59.115,61.173 C59.285,61.155 59.456,61.137 59.629,61.117 C59.688,61.11 59.748,61.103 59.807,61.096 C59.932,61.081 60.057,61.066 60.183,61.049 C60.254,61.04 60.326,61.03 60.398,61.02 C60.513,61.005 60.629,60.989 60.745,60.972 C60.819,60.961 60.893,60.95 60.966,60.939 C61.084,60.921 61.2,60.903 61.318,60.883 C61.389,60.872 61.46,60.86 61.531,60.848 C61.656,60.827 61.78,60.804 61.904,60.781 C61.966,60.769 62.028,60.758 62.09,60.747 C62.274,60.711 62.456,60.674 62.636,60.635 C62.648,60.633 62.659,60.63 62.671,60.627 C62.839,60.591 63.006,60.552 63.171,60.511 C63.23,60.497 63.288,60.482 63.346,60.467 C63.464,60.437 63.58,60.407 63.694,60.375 C63.759,60.357 63.823,60.338 63.888,60.319 C63.995,60.289 64.1,60.257 64.204,60.224 C64.268,60.204 64.332,60.184 64.395,60.163 C64.498,60.129 64.598,60.094 64.698,60.058 C64.757,60.037 64.817,60.016 64.875,59.994 C64.981,59.954 65.083,59.912 65.186,59.87 C65.232,59.851 65.28,59.831 65.326,59.812 C65.471,59.748 65.613,59.683 65.747,59.615 C65.754,59.612 65.76,59.608 65.767,59.604 C65.894,59.539 66.016,59.472 66.133,59.403 C66.172,59.38 66.208,59.355 66.245,59.331 C66.327,59.28 66.408,59.228 66.483,59.174 C66.524,59.145 66.563,59.114 66.602,59.084 C66.67,59.033 66.735,58.98 66.796,58.926 C66.834,58.894 66.869,58.861 66.904,58.829 C66.928,58.806 66.955,58.785 66.978,58.761 C75.638,62.799 95.638,72.605 98.681,76.318 L98.755,76.4 C98.98,76.627 99.249,76.964 99.249,77.274 C99.249,78.293 96.6,80.53 86.668,82.454 C78.017,84.129 66.499,85.052 54.236,85.052 C41.973,85.052 30.455,84.129 21.803,82.454 C11.872,80.53 9.223,78.293 9.223,77.274 C9.223,76.964 9.491,76.627 9.717,76.4 L9.79,76.318 C12.834,72.605 32.834,62.799 41.494,58.761 z M22.709,64.727 C22.418,64.151 22.57,63.655 22.877,63.265 L29.491,59.919 C29.835,59.96 30.18,60.116 30.369,60.491 C30.508,60.765 30.652,61.061 30.783,61.333 C28.309,62.56 25.631,63.917 23,65.303 C22.87,65.044 22.758,64.822 22.709,64.727 z M17.825,57.102 C17.811,57.076 17.826,57.031 17.852,57.018 L25.701,53.048 C25.708,53.045 25.716,53.043 25.724,53.043 C25.749,53.043 25.776,53.056 25.786,53.076 L26.414,54.318 C24.788,54.954 23.315,55.63 22.33,56.128 C20.973,56.815 19.664,57.561 18.446,58.332 L17.825,57.102 z M23.383,58.211 C27.626,56.065 31.238,55.05 33.108,54.827 C31.205,56.168 26.933,58.329 24.154,59.734 C21.375,61.14 17.103,63.3 14.895,64.038 C16.183,62.663 19.141,60.356 23.383,58.211 z M18.509,65.474 L19.362,65.042 L20.242,66.78 C19.96,66.933 19.679,67.086 19.401,67.239 L18.509,65.474 z M93.95,186.811 L93.95,169.36 C93.95,168.715 93.427,168.193 92.783,168.193 L65.39,168.193 C72.496,167.586 79.093,166.395 84.723,164.693 L97.564,164.693 L97.564,186.811 L93.95,186.811 z M111.111,33.525 C111.111,32.703 111.779,32.034 112.601,32.034 L151.394,32.034 C152.216,32.034 152.885,32.703 152.885,33.525 L152.885,37.096 C151.36,37.528 150.409,38.398 150.409,39.499 L150.409,42.899 C130.981,44.603 118.694,55.389 118.694,59.33 L118.694,110.832 L111.111,110.832 L111.111,33.525 z M107.304,39.606 L107.317,34.489 C107.313,33.91 107.355,33.311 107.467,32.726 C107.681,31.562 108.225,30.385 109.173,29.583 C110.114,28.774 111.333,28.406 112.504,28.31 C113.102,28.258 113.671,28.281 114.236,28.269 L115.942,28.257 L119.353,28.245 L132.999,28.217 C137.547,28.236 142.096,28.23 146.645,28.275 C142.098,28.412 137.55,28.498 133.002,28.61 L119.357,28.86 L115.946,28.918 L114.24,28.94 C113.669,28.954 113.099,28.935 112.563,28.986 C111.481,29.08 110.419,29.419 109.625,30.109 C108.827,30.792 108.355,31.798 108.163,32.858 C108.064,33.391 108.028,33.932 108.034,34.489 L108.064,46.429 C108.031,55.527 108.037,64.623 107.973,73.721 L107.865,87.366 C107.801,91.915 107.763,96.464 107.675,101.012 C107.588,96.464 107.55,91.915 107.486,87.366 L107.377,73.721 C107.313,64.623 107.32,55.527 107.287,46.429 L107.304,39.606 z M155.218,40.337 L154.441,40.337 L154.83,32.829 L155.218,40.337 z M172.956,147.651 L170.707,147.651 C174.535,143.973 178.818,139.562 182.271,135.438 C183.433,134.96 184.51,134.451 185.497,133.912 C182.05,138.386 177.31,143.406 172.956,147.651 z M176.268,147.651 C177.05,146.869 177.841,146.067 178.628,145.252 L181.765,147.651 L176.268,147.651 z M135.008,147.651 L129.51,147.651 L132.648,145.252 C133.436,146.067 134.225,146.869 135.008,147.651 z M129.003,135.438 C132.455,139.562 136.739,143.973 140.57,147.651 L138.319,147.651 C133.967,143.406 129.224,138.385 125.78,133.912 C126.766,134.451 127.845,134.96 129.003,135.438 z M175.572,56.15 C176.579,55.244 177.866,55.034 178.448,55.679 C179.024,56.324 178.673,57.581 177.666,58.486 C176.654,59.391 175.371,59.602 174.79,58.957 C174.214,58.311 174.56,57.055 175.572,56.15 z M155.217,42.199 C155.753,42.199 156.26,42.159 156.727,42.083 C155.402,42.87 154.155,44.223 153.905,45.83 C153.32,45.714 152.914,45.54 152.743,45.409 L152.743,41.859 C153.449,42.077 154.285,42.199 155.217,42.199 z M181.369,51.393 C187.466,54.851 190.142,58.377 190.247,59.287 C190.112,59.49 188.839,61.001 179.941,62.33 C173.342,63.316 164.709,63.858 155.638,63.858 C146.566,63.858 137.935,63.316 131.337,62.33 C122.436,61.001 121.163,59.49 121.03,59.287 C121.132,58.377 123.81,54.851 129.907,51.393 C134.267,48.921 141.146,46.054 150.409,45.234 L150.409,45.587 C150.409,47.176 152.386,48.286 155.217,48.286 C155.347,48.286 155.473,48.281 155.6,48.277 C155.41,50.079 151.8,52.052 147.144,52.816 C142.168,53.634 137.881,52.762 137.57,50.868 C137.493,50.399 137.668,49.912 138.05,49.432 C135.461,50.334 133.276,51.338 131.522,52.279 C126.779,54.823 124.135,57.378 123.076,58.769 C124.27,59.295 126.992,60.18 132.813,60.969 C136.611,61.484 141.044,61.859 145.787,62.078 C149.145,61.903 152.441,61.429 151.895,60.455 C151.214,59.24 150.048,57.101 151.458,55.74 C152.867,54.379 156.049,53.002 162.346,53.261 C169.444,53.552 171.583,55.657 171.588,57.992 C171.598,59.75 169.239,61.196 165.776,62.065 C170.411,61.844 174.74,61.474 178.463,60.969 C184.285,60.18 187.005,59.295 188.198,58.769 C187.141,57.378 184.495,54.823 179.755,52.279 C176.464,50.514 171.674,48.523 165.496,47.416 C167.079,48.121 168.101,49.209 168.051,49.759 C167.981,50.552 165.736,49.344 162.869,49.078 C160.004,48.813 157.603,49.59 157.676,48.797 C157.734,48.175 159.272,47.131 161.313,46.834 C160.77,46.78 160.222,46.73 159.661,46.691 C159.896,46.36 160.023,45.989 160.023,45.587 L160.023,45.157 C169.72,45.871 176.874,48.846 181.369,51.393 z M190.247,125.108 C190.247,131.117 176.343,137.552 155.638,137.552 C134.935,137.552 121.027,131.117 121.027,125.108 L121.027,62.115 C121.463,62.332 121.977,62.549 122.583,62.764 L122.583,125.108 C122.583,126.457 123.72,127.939 125.726,129.346 L125.726,63.659 C126.24,63.779 126.789,63.897 127.379,64.015 L127.379,130.377 C128.52,131.016 129.834,131.627 131.308,132.187 C131.906,132.415 132.53,132.63 133.165,132.839 L133.906,102.449 L134.658,133.303 C135.613,133.582 136.6,133.842 137.619,134.079 L137.619,65.423 C138.642,65.517 139.691,65.602 140.763,65.68 L140.763,107.355 C141.311,104.044 143.002,101.101 145.429,98.922 C145.429,86.7 145.429,73.605 145.429,65.957 C148.704,66.111 152.132,66.191 155.638,66.191 C158.695,66.191 161.693,66.131 164.582,66.013 L164.582,97.904 C167.315,99.871 169.339,102.711 170.221,105.998 L170.221,65.701 C171.533,65.608 172.811,65.505 174.044,65.387 L174.044,133.986 C174.805,133.803 175.552,133.61 176.278,133.403 L177.24,76.727 L178.192,132.812 C178.798,132.611 179.395,132.405 179.966,132.187 C185.352,130.14 188.694,127.428 188.694,125.108 L188.694,62.764 C189.3,62.549 189.811,62.332 190.247,62.115 L190.247,125.108 z M164.235,143.148 C164.14,145.643 159.378,147.489 153.596,147.271 C147.814,147.052 143.204,144.853 143.298,142.358 C143.343,141.182 144.434,140.153 146.173,139.413 C149.184,139.721 152.354,139.885 155.638,139.885 C157.48,139.885 159.284,139.831 161.046,139.732 C163.05,140.633 164.284,141.849 164.235,143.148 z M167.4,141.833 C167.4,140.977 168.261,140.283 169.324,140.283 C170.386,140.283 171.248,140.977 171.248,141.833 C171.248,142.69 170.386,143.385 169.324,143.385 C168.261,143.385 167.4,142.69 167.4,141.833 z M147.811,170.51 L147.811,159.168 C149.68,160.263 152.518,160.924 155.638,160.924 C157.31,160.924 158.899,160.732 160.305,160.388 C159.648,160.726 158.966,161.029 158.252,161.27 C157.203,161.612 156.107,161.847 154.985,161.958 C154.875,161.969 154.763,161.974 154.652,161.982 C155.256,162.349 156.124,163.082 156.124,164.288 C156.124,165.674 156.124,169.74 156.124,171.685 C159.452,171.599 161.393,170.658 161.909,170.198 L161.909,159.898 C162.48,159.683 163.002,159.439 163.464,159.168 L163.464,170.51 C163.464,171.601 160.343,173.249 155.638,173.249 C150.933,173.249 147.811,171.601 147.811,170.51 z M149.127,155.299 C149.173,155.347 149.228,155.387 149.271,155.438 C149.688,155.938 151.869,157.035 155.638,157.035 C159.407,157.035 161.588,155.938 162.004,155.438 C162.048,155.387 162.103,155.347 162.148,155.299 L164.573,155.299 C164.134,155.663 163.735,155.985 163.382,156.258 C163.316,156.31 163.255,156.368 163.2,156.433 C162.335,157.472 159.599,158.591 155.638,158.591 C151.676,158.591 148.941,157.472 148.076,156.434 C148.021,156.368 147.961,156.31 147.894,156.257 C147.541,155.985 147.142,155.663 146.703,155.299 L149.127,155.299 z M187.727,186.811 L185.397,186.811 L185.397,154.132 C185.397,153.488 184.871,152.966 184.23,152.966 L127.047,152.966 C126.403,152.966 125.881,153.488 125.881,154.132 L125.881,186.811 L123.547,186.811 L123.547,150.632 L187.727,150.632 L187.727,186.811 z M168.357,43.518 C168.357,42.696 169.023,42.027 169.845,42.027 L193.749,42.027 C194.571,42.027 195.238,42.696 195.238,43.518 L195.238,110.832 L192.582,110.832 L192.582,59.33 C192.582,55.923 183.398,47.4 168.357,44.051 L168.357,43.518 z M166.187,40.209 C166.904,39.385 167.846,38.784 168.878,38.457 L169.274,38.356 C169.409,38.327 169.544,38.312 169.679,38.29 C169.95,38.26 170.236,38.255 170.486,38.262 L172.024,38.286 L175.106,38.335 L187.421,38.529 L175.106,38.724 L172.024,38.772 L170.486,38.796 C170.221,38.798 169.99,38.811 169.755,38.844 C169.639,38.868 169.519,38.884 169.404,38.912 L169.053,39.013 C168.146,39.332 167.309,39.904 166.703,40.651 C166.082,41.385 165.721,42.312 165.726,43.234 L164.945,43.234 C164.975,42.096 165.456,41.018 166.187,40.209 z M203.705,112.274 L204.091,79.608 L204.477,112.663 L204.477,112.663 C204.477,112.663 204.477,112.664 204.477,112.664 C204.482,112.878 204.306,113.054 204.096,113.057 C204.086,113.057 204.076,113.053 204.071,113.052 L200.293,113.052 L200.293,112.274 L203.705,112.274 z M203.941,30.453 C204.001,28.706 205.008,27.023 206.521,26.138 C207.273,25.683 208.139,25.439 209.011,25.406 C209.853,25.386 210.645,25.405 211.461,25.403 L216.331,25.421 C219.573,25.439 222.82,25.428 226.067,25.476 L235.802,25.584 C239.044,25.649 242.29,25.687 245.537,25.775 C242.29,25.863 239.044,25.901 235.802,25.966 L226.067,26.074 C222.82,26.121 219.573,26.11 216.331,26.129 L211.461,26.146 C210.66,26.154 209.823,26.142 209.046,26.166 C208.295,26.2 207.558,26.415 206.922,26.806 C205.619,27.553 204.742,28.988 204.682,30.49 C204.652,32.075 204.662,33.725 204.652,35.34 C204.632,38.584 204.642,41.83 204.597,45.075 L204.487,54.81 C204.422,58.055 204.387,61.301 204.296,64.546 C204.211,61.301 204.171,58.055 204.106,54.81 L204.001,45.075 C203.956,41.83 203.961,38.584 203.946,35.34 C203.946,33.709 203.921,32.112 203.941,30.453 z M249.781,30.478 L249.781,30.963 C248.128,31.386 246.83,32.258 246.83,33.641 L246.83,37.383 C234.7,38.284 225.881,42.795 220.43,46.647 C214.087,51.129 210.134,56.12 209.302,59.191 L209.302,110.832 L207.553,110.832 L207.553,30.478 C207.553,29.656 208.225,28.988 209.046,28.988 L248.288,28.988 C249.11,28.988 249.781,29.656 249.781,30.478 z M251.595,33.641 L250.818,33.641 L251.209,29.488 L251.595,33.641 z M209.938,128.973 C211.582,128.562 213.235,128.196 214.893,127.838 C216.552,127.495 218.21,127.161 219.884,126.872 C221.552,126.578 223.226,126.31 224.914,126.119 C223.291,126.627 221.653,127.06 220.009,127.466 C218.361,127.876 216.707,128.242 215.054,128.599 C213.39,128.942 211.732,129.275 210.063,129.565 C208.39,129.859 206.716,130.127 205.028,130.319 C206.651,129.811 208.29,129.379 209.938,128.973 z M219.122,59.191 C216.557,57.675 223.732,52.58 227.956,52.58 C224.138,54.424 223.777,56.358 222.078,58.022 C221.081,59.001 219.854,59.624 219.122,59.191 z M240.176,63.038 C239.279,62.384 239.665,60.326 241.038,58.44 C242.411,56.554 244.25,55.555 245.151,56.208 C246.048,56.862 245.662,58.921 244.29,60.806 C242.912,62.692 241.073,63.691 240.176,63.038 z M260.929,61.33 C260.734,63.761 256.069,64.635 253.444,64.538 C250.818,64.442 248.969,62.687 249.746,60.696 C250.528,58.705 251.014,57.539 253.444,56.858 C256.63,55.965 261.125,58.9 260.929,61.33 z M274.548,52.229 C272.989,51.743 268.149,49.626 263.264,49.08 C260.924,48.819 259.095,48.016 259.862,46.358 C260.443,45.094 262.387,45.289 264.622,45.678 C266.862,46.066 272.784,48.479 275.319,50.538 C276.512,51.508 276.101,52.715 274.548,52.229 z M216.111,150.19 C215.725,143.941 215.52,137.691 215.374,131.441 L216.853,131.13 C216.707,137.483 216.502,143.837 216.111,150.19 z M219.904,136.155 C219.799,134.282 219.718,132.41 219.648,130.539 L220.159,130.43 C220.094,132.338 220.009,134.246 219.904,136.155 z M222.304,124.464 C222.91,122.746 224.739,121.396 226.538,121.97 C229.82,123.017 229.023,127.052 228.056,127.293 C228.326,125.691 227.244,124.175 225.646,123.906 C224.849,123.772 222.409,124.461 222.304,124.464 z M219.448,123.225 C219.393,121.07 219.383,118.915 219.353,116.76 L219.323,110.296 L219.353,103.831 C219.383,101.676 219.398,99.522 219.448,97.367 C219.533,93.057 219.663,88.748 219.904,84.438 C220.144,88.748 220.27,93.057 220.355,97.367 C220.41,99.522 220.42,101.676 220.455,103.831 L220.485,110.296 L220.455,116.76 C220.425,118.915 220.415,121.07 220.36,123.225 C220.345,123.894 220.33,124.563 220.315,125.231 L219.498,125.404 C219.478,124.678 219.463,123.952 219.448,123.225 z M215.189,120.514 L215.139,110.622 L215.194,100.729 C215.244,97.432 215.264,94.134 215.354,90.837 C215.495,84.242 215.705,77.647 216.111,71.052 C216.512,77.647 216.722,84.242 216.868,90.837 C216.953,94.134 216.973,97.432 217.028,100.729 L217.083,110.622 L217.028,120.514 C217.003,122.323 216.978,124.132 216.953,125.941 L215.274,126.296 C215.244,124.369 215.219,122.441 215.189,120.514 z M211.637,63.84 C212.098,64.154 212.619,64.455 213.195,64.743 L213.195,126.735 L211.637,127.064 L211.637,63.84 z M277.358,142.753 L276.246,68.275 C277.003,68.154 277.749,68.027 278.476,67.893 L277.358,142.753 z M252.306,36.623 C253.153,36.623 254.02,36.525 254.806,36.328 C252.943,37.184 250.968,39.063 250.728,41.35 C249.846,41.177 249.32,40.893 249.165,40.736 L249.165,36.134 C250.107,36.462 251.224,36.623 252.306,36.623 z M251.209,166.524 C227.54,166.524 211.637,159.888 211.637,153.691 L211.637,132.231 L213.195,131.902 L213.195,153.691 C213.195,155.469 215.835,158.455 223.286,161.015 C225.831,161.89 228.672,162.626 231.728,163.22 L231.728,69.022 C232.886,69.151 234.053,69.269 235.231,69.373 L235.231,163.822 C237.155,164.113 239.144,164.351 241.193,164.533 L241.193,69.8 C244.67,69.991 248.082,70.08 251.209,70.08 C253.87,70.08 256.741,70.015 259.682,69.878 L259.682,164.656 C261.52,164.52 263.314,164.341 265.063,164.118 L265.063,69.548 C267.703,69.347 270.344,69.085 272.889,68.757 L272.889,162.76 C275.114,162.258 277.203,161.676 279.127,161.015 C286.578,158.455 289.218,155.469 289.218,153.691 L289.218,64.743 C289.794,64.455 290.315,64.154 290.776,63.84 L290.776,153.691 C290.776,159.888 274.878,166.524 251.209,166.524 z M290.776,60.358 C290.776,61.322 288.456,63.441 279.773,65.266 C272.153,66.866 262.011,67.747 251.209,67.747 C240.407,67.747 230.26,66.866 222.64,65.266 C213.957,63.441 211.637,61.322 211.637,60.358 C211.637,58.74 214.613,53.616 221.778,48.553 C226.954,44.895 235.316,40.615 246.83,39.724 L246.83,40.849 C246.83,41.001 246.85,41.145 246.88,41.285 C243.543,41.549 240.477,42.102 237.691,42.847 C237.41,42.93 237.125,43.014 236.844,43.106 C235.426,43.563 234.028,44.089 232.736,44.802 C234.123,44.296 235.556,43.999 236.999,43.768 C238.437,43.536 239.895,43.417 241.348,43.327 C242.801,43.237 244.265,43.21 245.718,43.213 C246.83,43.219 247.947,43.25 249.049,43.301 C250.012,43.658 251.179,43.83 252.306,43.83 C254.095,43.83 255.969,43.401 256.996,42.489 C257.372,42.986 257.437,43.586 257.041,44.317 C254.706,48.594 243.718,51.511 238.212,51.511 C232.701,51.511 230.792,49.955 226.708,50.15 C223.677,50.294 220.866,51.615 218.461,53.24 C215.119,56.361 213.476,59.086 213.225,60.169 C213.851,60.869 216.747,62.598 224.609,64.07 C231.914,65.438 241.359,66.191 251.209,66.191 C261.054,66.191 270.499,65.438 277.804,64.07 C285.676,62.596 288.572,60.865 289.188,60.166 C288.857,58.708 285.916,54.128 279.513,49.665 C274.873,46.431 267.573,42.69 257.677,41.5 C257.743,41.296 257.788,41.08 257.788,40.849 L257.788,39.939 C268.169,41.169 275.795,45.133 280.635,48.553 C287.8,53.616 290.776,58.74 290.776,60.358 z M289.464,177.558 C288.737,177.558 288.151,176.97 288.151,176.246 L288.151,164.512 L286.362,165.637 C279.859,169.732 267.328,172.451 253.664,172.733 L252.517,172.756 L252.517,187.232 C252.517,187.956 251.93,188.545 251.209,188.545 C250.482,188.545 249.896,187.956 249.896,187.232 L249.896,172.756 L248.754,172.733 C235.085,172.451 222.554,169.732 216.051,165.637 L214.262,164.512 L214.262,176.246 C214.262,176.97 213.676,177.558 212.949,177.558 C212.228,177.558 211.637,176.97 211.637,176.246 L211.637,158.823 C213.751,161.052 217.263,163.057 222.023,164.693 C229.835,167.378 240.201,168.857 251.209,168.857 C262.212,168.857 272.578,167.378 280.39,164.693 C285.15,163.057 288.662,161.052 290.776,158.823 L290.776,176.246 C290.776,176.97 290.185,177.558 289.464,177.558 z M293.111,59.191 C292.279,56.12 288.326,51.129 281.983,46.647 C276.867,43.033 268.786,38.835 257.788,37.588 L257.788,33.641 C257.788,32.258 256.49,31.386 254.837,30.963 L254.837,30.478 C254.837,26.869 251.9,23.932 248.288,23.932 L209.046,23.932 C205.434,23.932 202.498,26.869 202.498,30.478 L202.498,110.832 L200.293,110.832 L200.293,43.518 C200.293,39.908 197.357,36.971 193.749,36.971 L169.845,36.971 C166.358,36.971 163.504,39.718 163.317,43.162 C162.243,43.023 161.145,42.909 160.023,42.827 L160.023,39.499 C160.023,38.496 159.234,37.684 157.94,37.221 L157.94,33.525 C157.94,29.915 155.003,26.979 151.394,26.979 L112.601,26.979 C108.992,26.979 106.055,29.915 106.055,33.525 L106.055,110.832 L101.583,110.832 L101.583,77.274 C101.583,76.403 101.202,75.569 100.45,74.797 C96.491,70.075 72.149,58.597 67.653,56.502 L67.653,13.303 C67.653,9.24 55.609,9.122 54.236,9.122 C52.862,9.122 40.819,9.24 40.819,13.303 L40.819,56.502 C39.786,56.984 37.707,57.96 35.066,59.236 L33.964,57.057 C36.111,55.626 36.714,54.625 36.153,53.513 L36.152,53.513 C35.524,52.27 33.462,52.283 31.057,52.833 L31.329,50.795 C31.388,50.773 31.448,50.756 31.506,50.727 C32.331,50.31 32.653,49.286 32.226,48.441 C31.799,47.596 30.783,47.249 29.958,47.666 C29.133,48.084 28.81,49.107 29.237,49.952 C29.361,50.197 29.538,50.394 29.741,50.549 L29.377,53.282 C29.127,53.358 28.876,53.438 28.625,53.52 L27.868,52.023 C27.579,51.452 27.085,51.028 26.477,50.828 C25.868,50.628 25.218,50.677 24.648,50.966 L16.799,54.935 C16.228,55.224 15.803,55.718 15.604,56.327 C15.405,56.935 15.454,57.585 15.743,58.155 L16.496,59.647 C16.279,59.803 16.07,59.96 15.863,60.118 L13.444,58.791 C13.44,58.535 13.386,58.276 13.263,58.031 C12.835,57.186 11.82,56.839 10.994,57.257 C10.169,57.674 9.847,58.698 10.274,59.543 C10.702,60.388 11.717,60.735 12.543,60.317 C12.6,60.288 12.649,60.25 12.702,60.215 L14.509,61.207 C12.255,63.153 11.465,64.589 12.033,65.711 C12.345,66.329 12.844,66.638 13.642,66.638 C14.278,66.638 15.109,66.438 16.184,66.047 L17.362,68.377 C12.969,70.871 9.349,73.213 8.022,74.796 C7.27,75.569 6.889,76.402 6.889,77.274 L6.889,151.357 C6.889,154.384 8.872,157.253 12.609,159.767 L8.866,162.418 C8.518,162.595 8.338,162.842 8.248,163.067 C8.246,163.071 8.245,163.074 8.243,163.078 C8.215,163.149 8.193,163.218 8.181,163.28 C8.179,163.287 8.177,163.294 8.176,163.301 C8.158,163.396 8.153,163.477 8.153,163.527 L8.153,187.977 C8.153,188.622 8.675,189.144 9.32,189.144 L15.267,189.144 C15.912,189.144 16.434,188.622 16.434,187.977 L16.434,170.527 L51.498,170.527 L51.498,171.288 C51.498,175.415 54.856,178.774 58.984,178.774 L91.617,178.774 L91.617,187.977 C91.617,188.622 92.139,189.144 92.783,189.144 L98.731,189.144 C99.375,189.144 99.897,188.622 99.897,187.977 L99.897,178.774 L103.625,178.774 C107.752,178.774 111.111,175.415 111.111,171.288 L111.111,115.887 L118.694,115.887 L118.694,125.108 C118.694,125.695 118.784,126.272 118.943,126.839 C118.968,126.971 119.001,127.093 119.038,127.197 C120.42,131.192 124.864,136.854 129.861,142.294 L121.673,148.538 C121.644,148.56 121.618,148.587 121.59,148.612 C121.576,148.625 121.561,148.637 121.548,148.65 C121.5,148.7 121.456,148.752 121.417,148.809 C121.41,148.819 121.405,148.831 121.398,148.842 C121.368,148.889 121.341,148.937 121.318,148.988 C121.309,149.01 121.301,149.032 121.292,149.056 C121.275,149.099 121.262,149.144 121.251,149.189 C121.245,149.213 121.239,149.235 121.235,149.259 C121.224,149.319 121.218,149.379 121.217,149.439 C121.217,149.448 121.214,149.456 121.214,149.465 L121.214,187.977 C121.214,188.622 121.736,189.144 122.381,189.144 L127.047,189.144 C127.692,189.144 128.214,188.622 128.214,187.977 L128.214,155.299 L136.672,155.299 L136.672,167.448 C136.672,168.092 137.194,168.614 137.839,168.614 L140.853,168.614 C141.497,168.614 142.019,168.092 142.019,167.448 L142.019,155.299 L143.129,155.299 C144.015,156.08 144.805,156.755 145.479,157.31 L145.479,170.51 C145.479,173.402 149.846,175.583 155.638,175.583 C161.43,175.583 165.796,173.402 165.796,170.51 L165.796,157.309 C166.473,156.755 167.259,156.08 168.146,155.299 L169.048,155.299 L169.048,167.448 C169.048,168.092 169.569,168.614 170.216,168.614 L173.227,168.614 C173.873,168.614 174.394,168.092 174.394,167.448 L174.394,155.299 L183.062,155.299 L183.062,187.977 C183.062,188.622 183.583,189.144 184.23,189.144 L188.894,189.144 C189.541,189.144 190.062,188.622 190.062,187.977 L190.062,149.465 C190.062,149.456 190.062,149.448 190.062,149.439 C190.057,149.379 190.052,149.319 190.042,149.259 C190.037,149.235 190.032,149.213 190.027,149.189 C190.017,149.144 190.002,149.099 189.982,149.056 C189.977,149.032 189.967,149.01 189.957,148.988 C189.937,148.937 189.906,148.889 189.876,148.842 C189.871,148.831 189.866,148.819 189.861,148.809 C189.821,148.752 189.776,148.7 189.726,148.65 C189.716,148.637 189.701,148.625 189.686,148.612 C189.656,148.587 189.631,148.56 189.601,148.538 L181.414,142.294 C186.414,136.854 190.853,131.191 192.236,127.197 C192.276,127.093 192.306,126.973 192.332,126.842 C192.492,126.274 192.582,125.695 192.582,125.108 L192.582,115.887 L195.238,115.887 L195.238,128.235 C195.238,130.067 196.054,131.779 197.477,132.932 C198.57,133.816 199.907,134.284 201.28,134.284 C201.696,134.284 202.117,134.241 202.538,134.152 L205.549,133.516 L209.302,132.723 L209.302,153.691 C209.302,154.382 209.437,155.063 209.668,155.732 C209.437,156.402 209.302,157.082 209.302,157.774 L209.302,176.246 C209.302,178.256 210.94,179.892 212.949,179.892 C214.959,179.892 216.597,178.256 216.597,176.246 L216.597,168.637 C223.597,172.307 234.895,174.655 247.561,175.037 L247.561,187.232 C247.561,189.242 249.195,190.878 251.209,190.878 C253.218,190.878 254.852,189.242 254.852,187.232 L254.852,175.037 C267.518,174.655 278.816,172.307 285.816,168.637 L285.816,176.246 C285.816,178.256 287.454,179.892 289.464,179.892 C291.473,179.892 293.111,178.256 293.111,176.246 L293.111,157.774 C293.111,157.082 292.981,156.402 292.745,155.732 C292.981,155.063 293.111,154.382 293.111,153.691 L293.111,59.191" fill="#848484"/>
  </g>
</svg>
