<svg xmlns="http://www.w3.org/2000/svg" viewBox="0 0 160.71 243.12"><defs><style>.cls-1{fill:#fff;}.cls-2{fill:none;}.cls-3{fill:#edebdd;}</style></defs><g id="Layer_2" data-name="Layer 2"><g id="Layer_1-2" data-name="Layer 1"><path class="cls-1" d="M146.67,20.31A17.68,17.68,0,0,0,130.16,8.9H107.45l-.77-1.34A15.12,15.12,0,0,0,93.61,0H72.54A15.12,15.12,0,0,0,59.47,7.55L58.69,8.9H30.55A17.7,17.7,0,0,0,14,20.31,20,20,0,0,0,0,39.37V152.9a23.17,23.17,0,0,0,4.85,14.15l52.61,67.73a19.63,19.63,0,0,0,15.95,8.34H85.67a21.42,21.42,0,0,0,17-8.26l53.15-67.75a23.18,23.18,0,0,0,4.92-14.24V39.37A20,20,0,0,0,146.67,20.31Z"/><path class="cls-2" d="M140.75,32.48H122.2a1.54,1.54,0,0,1,0-3.07h12.55V26.56A4.6,4.6,0,0,0,130.16,22H100.91l-.12,0H65.35l-.11,0H30.55A4.6,4.6,0,0,0,26,26.56v2.85H91.71a1.54,1.54,0,0,1,0,3.07H20a6.9,6.9,0,0,0-6.89,6.89V152.9a10.11,10.11,0,0,0,2.1,6.14l52.61,67.72c1.89,2.43,3.36,3.29,5.63,3.29H85.67a8.46,8.46,0,0,0,6.69-3.26L145.5,159a10,10,0,0,0,2.14-6.17V39.37A6.9,6.9,0,0,0,140.75,32.48Zm-17,58.66a.41.41,0,0,0,0,.18,1.54,1.54,0,0,1-3.07,0v-.16a1.54,1.54,0,1,1,3.07,0Zm-1.85,12.5a1.53,1.53,0,0,1-1.47,1.08,1.8,1.8,0,0,1-.45-.06,1.54,1.54,0,1,1,1.92-1Zm-2-25.82a1.53,1.53,0,0,1,.91,2.93,1.43,1.43,0,0,1-.46.07,1.53,1.53,0,0,1-.45-3Zm-5.67-10.59A1.53,1.53,0,1,1,116,69.75a1.49,1.49,0,0,1-.87.27,1.53,1.53,0,0,1-.87-2.79Zm2.23,47.64a1.53,1.53,0,0,1-1.27.67,1.51,1.51,0,0,1-.86-.27,1.53,1.53,0,1,1,2.13-.4Zm-9.4-85.51h5.1a1.54,1.54,0,0,1,0,3.07h-5.1a1.54,1.54,0,1,1,0-3.07Zm-1.37,29.4a1.54,1.54,0,0,1,2.41,1.91,1.5,1.5,0,0,1-1.21.58,1.49,1.49,0,0,1-1-.33A1.55,1.55,0,0,1,105.7,58.76ZM99.23,29.81a1.52,1.52,0,0,1,1.38-.42,1.4,1.4,0,0,1,.29.09l.26.14a1.55,1.55,0,0,1,.24.19,1.58,1.58,0,0,1,.45,1.09,1.41,1.41,0,0,1-.12.58,1.71,1.71,0,0,1-.14.27,2.11,2.11,0,0,1-.19.23,1.12,1.12,0,0,1-.24.19.94.94,0,0,1-.26.14,1.4,1.4,0,0,1-.29.09A1.52,1.52,0,0,1,99.23,32a1.37,1.37,0,0,1-.19-.23,1.17,1.17,0,0,1-.15-.27c0-.09-.06-.19-.08-.28a1.54,1.54,0,0,1,.42-1.39ZM95.06,53.19a1.53,1.53,0,1,1,2.86,1.11,1.52,1.52,0,0,1-1.43,1,1.43,1.43,0,0,1-.56-.11A1.52,1.52,0,0,1,95.06,53.19Zm-10.17-3.6a1.53,1.53,0,0,1-.11,3.06h-.11a1.53,1.53,0,0,1,.22-3.06Zm-12.43,1a1.53,1.53,0,1,1,.69,3,1.32,1.32,0,0,1-.34,0,1.53,1.53,0,0,1-.35-3ZM60.87,55.14a1.54,1.54,0,0,1,1.55,2.65,1.57,1.57,0,0,1-.77.21,1.54,1.54,0,0,1-.78-2.86Zm21,5.28A30.9,30.9,0,1,1,51,91.31,30.93,30.93,0,0,1,81.9,60.42ZM108,124a1.53,1.53,0,0,1-2.16-.24A1.54,1.54,0,1,1,108,124Zm-10.79,6.25a1.52,1.52,0,0,1-2-.87,1.54,1.54,0,1,1,2,.87Zm-10.73,1.13A1.54,1.54,0,0,1,85.06,133H85a1.54,1.54,0,1,1,1.53-1.65Zm-12-.43a1.54,1.54,0,0,1-1.5,1.2,1.37,1.37,0,0,1-.34,0A1.53,1.53,0,1,1,74.47,131Zm-23.32-68A1.54,1.54,0,0,1,53.41,65a1.56,1.56,0,0,1-1.13.49,1.51,1.51,0,0,1-1-.41A1.54,1.54,0,0,1,51.15,62.94Zm-7,10.31a1.54,1.54,0,1,1,1.38,2.2,1.58,1.58,0,0,1-.66-.15A1.54,1.54,0,0,1,44.15,73.25ZM42.28,98.92l-.23,0a1.55,1.55,0,1,1,.23,0ZM40.51,85.17a1.53,1.53,0,1,1,3,.45A1.52,1.52,0,0,1,42,86.93H41.8A1.54,1.54,0,0,1,40.51,85.17Zm3.76,72H19.85a1.54,1.54,0,1,1,0-3.07H44.27a1.54,1.54,0,0,1,0,3.07Zm2-46.9a1.5,1.5,0,0,1-.67.16,1.55,1.55,0,1,1,.67-.16Zm4.33,46.4a1.54,1.54,0,0,1-1.09.45,1.51,1.51,0,0,1-1.08-.45,1.53,1.53,0,0,1,0-2.17,1.59,1.59,0,0,1,2.17,0,1.53,1.53,0,0,1,0,2.17Zm2.83-36.75a1.56,1.56,0,0,1-1,.41,1.53,1.53,0,1,1,1-.41Zm7.88,37.2H56.25a1.54,1.54,0,1,1,0-3.07h5.07a1.54,1.54,0,0,1,0,3.07ZM63.12,127a1.54,1.54,0,0,1-1.33.77,1.57,1.57,0,0,1-.77-.21,1.54,1.54,0,1,1,2.1-.56Zm8.34,94a1.53,1.53,0,1,1-2.17-2.17,1.59,1.59,0,0,1,2.17,0,1.53,1.53,0,0,1,0,2.17Zm9.44,0a1.54,1.54,0,0,1-1.09.45A1.54,1.54,0,0,1,78.28,220a1.54,1.54,0,0,1,.45-1.09,1.59,1.59,0,0,1,2.17,0,1.53,1.53,0,0,1,0,2.17Zm10.51,0a1.53,1.53,0,1,1-2.17-2.17,1.59,1.59,0,0,1,2.17,0,1.53,1.53,0,0,1,0,2.17Zm40.87-63.91h-64a1.54,1.54,0,1,1,0-3.07h64a1.54,1.54,0,1,1,0,3.07Zm9.66-.5a1.51,1.51,0,0,1-1.08.45,1.55,1.55,0,0,1-1.09-.45,1.53,1.53,0,0,1,0-2.17,1.55,1.55,0,0,1,.24-.19,1.3,1.3,0,0,1,.26-.14,1.4,1.4,0,0,1,.29-.09,1.53,1.53,0,0,1,1.38,2.59Z"/><path class="cls-1" d="M95.35,14.07a2,2,0,0,0-1.74-1H72.54a2,2,0,0,0-1.74,1L68,18.9H98.13Z"/><path class="cls-3" d="M81.9,119.14A27.83,27.83,0,1,0,54.07,91.31,27.85,27.85,0,0,0,81.9,119.14ZM80.36,72.46a1.54,1.54,0,1,1,3.07,0V90.75l5.78,6.85A1.53,1.53,0,0,1,89,99.76a1.52,1.52,0,0,1-2.16-.18L80.72,92.3a1.52,1.52,0,0,1-.36-1Z"/><path d="M81.9,122.21A30.9,30.9,0,1,0,51,91.31,30.93,30.93,0,0,0,81.9,122.21Zm0-58.72A27.83,27.83,0,1,1,54.07,91.31,27.85,27.85,0,0,1,81.9,63.49Z"/><path d="M86.87,99.58a1.53,1.53,0,0,0,2.34-2l-5.78-6.85V72.46a1.54,1.54,0,1,0-3.07,0V91.31a1.52,1.52,0,0,0,.36,1Z"/><path d="M62.56,124.92A1.54,1.54,0,1,0,61,127.58a1.57,1.57,0,0,0,.77.21,1.54,1.54,0,0,0,.77-2.87Z"/><path d="M120.66,91.16v.16a1.54,1.54,0,0,0,3.07,0,.41.41,0,0,1,0-.18,1.54,1.54,0,1,0-3.07,0Z"/><path d="M120.36,80.82a1.43,1.43,0,0,0,.46-.07,1.53,1.53,0,0,0-.91-2.93,1.53,1.53,0,0,0,.45,3Z"/><path d="M96.09,127.4a1.54,1.54,0,0,0,.56,3,1.55,1.55,0,0,0,.56-.11,1.54,1.54,0,0,0-1.12-2.86Z"/><path d="M52.28,65.52A1.56,1.56,0,0,0,53.41,65a1.54,1.54,0,1,0-2.17.08A1.51,1.51,0,0,0,52.28,65.52Z"/><path d="M119,102.74a1.53,1.53,0,0,0,1,1.92,1.8,1.8,0,0,0,.45.06,1.53,1.53,0,1,0-1.46-2Z"/><path d="M83.41,131.62A1.55,1.55,0,0,0,85,133h.11a1.53,1.53,0,1,0-1.65-1.41Z"/><path d="M106.08,121.61a1.54,1.54,0,0,0,1,2.74,1.54,1.54,0,0,0,1.2-2.5A1.54,1.54,0,0,0,106.08,121.61Z"/><path d="M61.65,58a1.57,1.57,0,0,0,.77-.21,1.54,1.54,0,1,0-.77.21Z"/><path d="M71.47,130.29a1.53,1.53,0,0,0,1.16,1.83,1.37,1.37,0,0,0,.34,0,1.53,1.53,0,1,0-1.5-1.87Z"/><path d="M51.35,117.65a1.54,1.54,0,0,0,1,2.66,1.56,1.56,0,0,0,1-.41,1.54,1.54,0,1,0-2.09-2.25Z"/><path d="M44.94,107.49a1.54,1.54,0,0,0,.67,2.92,1.5,1.5,0,0,0,.67-.16,1.53,1.53,0,1,0-1.34-2.76Z"/><path d="M41.82,95.89a1.53,1.53,0,0,0,.23,3l.23,0a1.53,1.53,0,1,0-.46-3Z"/><path d="M41.8,86.92H42a1.53,1.53,0,0,0,.22-3.05,1.54,1.54,0,0,0-.45,3Z"/><path d="M44.87,75.3a1.58,1.58,0,0,0,.66.15,1.53,1.53,0,1,0-.66-.15Z"/><path d="M72.81,53.58a1.32,1.32,0,0,0,.34,0,1.53,1.53,0,1,0-.34,0Z"/><path d="M116.07,112.74a1.53,1.53,0,1,0-1.73,2.53,1.51,1.51,0,0,0,.86.27,1.53,1.53,0,0,0,.87-2.8Z"/><path d="M84.67,52.65h.11a1.48,1.48,0,1,0-.11,0Z"/><path d="M113.84,69.36a1.54,1.54,0,0,0,1.27.66,1.49,1.49,0,0,0,.87-.27,1.53,1.53,0,1,0-2.14-.39Z"/><path d="M106,60.92a1.49,1.49,0,0,0,1,.33,1.5,1.5,0,0,0,1.21-.58,1.54,1.54,0,1,0-2.16.25Z"/><path d="M95.93,55.17a1.43,1.43,0,0,0,.56.11,1.54,1.54,0,0,0,.56-3,1.55,1.55,0,0,0-2,.88A1.52,1.52,0,0,0,95.93,55.17Z"/><path d="M140.75,29.41h-2.93V26.56a7.67,7.67,0,0,0-7.66-7.66H101.67L98,12.54A5.08,5.08,0,0,0,93.61,10H72.54a5.08,5.08,0,0,0-4.4,2.54L64.48,18.9H30.55a7.67,7.67,0,0,0-7.66,7.66v2.85H20a10,10,0,0,0-10,10V152.9a13.15,13.15,0,0,0,2.75,8l52.61,67.73c1.8,2.32,4,4.47,8,4.47H85.67a11.51,11.51,0,0,0,9.1-4.43l53.15-67.75a13.12,13.12,0,0,0,2.79-8.07V39.37A10,10,0,0,0,140.75,29.41ZM70.8,14.08a2,2,0,0,1,1.74-1H93.61a2,2,0,0,1,1.74,1l2.78,4.83H68Zm76.84,138.79A10,10,0,0,1,145.5,159L92.36,226.79a8.46,8.46,0,0,1-6.69,3.26H73.41c-2.27,0-3.74-.86-5.63-3.29L15.17,159a10.11,10.11,0,0,1-2.1-6.14V39.37A6.9,6.9,0,0,1,20,32.48H91.71a1.54,1.54,0,0,0,0-3.07H26V26.56A4.6,4.6,0,0,1,30.55,22H65.24l.11,0h35.44l.12,0h29.25a4.6,4.6,0,0,1,4.59,4.59v2.85H122.2a1.54,1.54,0,0,0,0,3.07h18.55a6.9,6.9,0,0,1,6.89,6.89Z"/><path d="M132.28,154.08h-64a1.54,1.54,0,1,0,0,3.07h64a1.54,1.54,0,1,0,0-3.07Z"/><path d="M44.27,154.08H19.85a1.54,1.54,0,1,0,0,3.07H44.27a1.54,1.54,0,0,0,0-3.07Z"/><path d="M61.32,154H56.25a1.54,1.54,0,1,0,0,3.07h5.07a1.54,1.54,0,0,0,0-3.07Z"/><path d="M140.56,154.06a1.4,1.4,0,0,0-.29.09,1.3,1.3,0,0,0-.26.14,1.55,1.55,0,0,0-.24.19,1.53,1.53,0,0,0,0,2.17,1.55,1.55,0,0,0,1.09.45,1.51,1.51,0,0,0,1.08-.45,1.53,1.53,0,0,0-1.38-2.59Z"/><path d="M48.44,154.48a1.53,1.53,0,0,0,0,2.17,1.51,1.51,0,0,0,1.08.45,1.54,1.54,0,0,0,1.09-.45,1.53,1.53,0,0,0-2.17-2.17Z"/><path d="M107.07,32.43h5.1a1.54,1.54,0,0,0,0-3.07h-5.1a1.54,1.54,0,1,0,0,3.07Z"/><path d="M98.89,31.48a1.17,1.17,0,0,0,.15.27,1.37,1.37,0,0,0,.19.23,1.52,1.52,0,0,0,1.38.42,1.4,1.4,0,0,0,.29-.09.94.94,0,0,0,.26-.14,1.12,1.12,0,0,0,.24-.19,2.11,2.11,0,0,0,.19-.23,1.71,1.71,0,0,0,.14-.27,1.41,1.41,0,0,0,.12-.58,1.58,1.58,0,0,0-.45-1.09,1.55,1.55,0,0,0-.24-.19l-.26-.14a1.4,1.4,0,0,0-.29-.09,1.54,1.54,0,0,0-1.8,1.81C98.83,31.29,98.86,31.39,98.89,31.48Z"/><path d="M69.29,218.89a1.54,1.54,0,1,0,2.17,0A1.59,1.59,0,0,0,69.29,218.89Z"/><path d="M78.73,218.89a1.54,1.54,0,0,0-.45,1.09,1.54,1.54,0,0,0,1.53,1.53,1.54,1.54,0,0,0,1.09-.45,1.53,1.53,0,0,0,0-2.17A1.59,1.59,0,0,0,78.73,218.89Z"/><path d="M89.24,218.89a1.54,1.54,0,1,0,2.17,0A1.59,1.59,0,0,0,89.24,218.89Z"/></g></g></svg>