<?xml version="1.0" encoding="utf-8"?>
<!-- Generator: Adobe Illustrator 25.1.0, SVG Export Plug-In . SVG Version: 6.00 Build 0)  -->
<svg version="1.1" id="Layer_3" xmlns="http://www.w3.org/2000/svg" xmlns:xlink="http://www.w3.org/1999/xlink" x="0px" y="0px"
	 viewBox="0 0 512 512" style="enable-background:new 0 0 512 512;" xml:space="preserve">
<style type="text/css">
	.st0{fill:#C1C8D1;}
	.st1{fill:#758190;}
	.st2{fill:#A8B0BC;}
	.st3{fill:#E7E4DD;}
	.st4{fill:#8892A0;}
	.st5{fill:#4482C3;}
	.st6{fill:#95A5A5;}
	.st7{fill:#BDC3C7;}
	.st8{fill:#285680;}
	.st9{fill:none;}
</style>
<g>
	<g>
		<path class="st0" d="M404.7,322.7c-11.4,0-20.7-9.3-20.7-20.7v-32.5h11.8V302c0,4.9,4,8.9,8.9,8.9s8.9-4,8.9-8.9v-38.5
			c0-3.3-2.7-5.9-5.9-5.9h-11.8v-11.8h11.8c9.8,0,17.7,8,17.7,17.7V302C425.4,313.4,416.1,322.7,404.7,322.7z"/>
	</g>
	<g>
		<path class="st0" d="M103,322.7c-11.4,0-20.7-9.3-20.7-20.7v-38.5c0-4.7,1.8-9.2,5.2-12.6c3.4-3.3,7.8-5.2,12.6-5.2h11.8v11.8
			h-11.8c-1.6,0-3.1,0.6-4.2,1.7c-1.1,1.1-1.7,2.6-1.7,4.2V302c0,4.9,4,8.9,8.9,8.9c4.9,0,8.9-4,8.9-8.9v-32.5h11.8V302
			C123.7,313.4,114.5,322.7,103,322.7z"/>
	</g>
	<path class="st1" d="M366.3,234H384c6.5,0,11.8,5.3,11.8,11.8v23.7c0,6.5-5.3,11.8-11.8,11.8h-17.7"/>
	<path class="st1" d="M141.5,234h-17.7c-6.5,0-11.8,5.3-11.8,11.8v23.7c0,6.5,5.3,11.8,11.8,11.8h17.7"/>
	<path class="st0" d="M360.4,216.2c7.8,15.6,11.8,32.7,11.8,50.1v198.3c0,26.1-21.2,47.3-47.3,47.3h-142
		c-26.1,0-47.3-21.2-47.3-47.3V266.3c0-17.4,4.1-34.6,11.8-50.1"/>
	<path class="st2" d="M372.2,293.1H135.6v-26.8c0-17.4,4.1-34.6,11.8-50.1h213c7.8,15.6,11.8,32.7,11.8,50.1V293.1z"/>
	<path class="st1" d="M354.5,216.2H153.3c-9.8,0-17.7-7.9-17.7-17.7c0-9.8,7.9-17.7,17.7-17.7h201.1c9.8,0,17.7,7.9,17.7,17.7
		C372.2,208.3,364.3,216.2,354.5,216.2z"/>
	<path class="st2" d="M153.3,180.7v-11.8c0-6.5,5.3-11.8,11.8-11.8h177.5c6.5,0,11.8,5.3,11.8,11.8v11.8"/>
	<circle class="st1" cx="253.9" cy="281.3" r="29.6"/>
	<circle class="st3" cx="253.9" cy="281.3" r="11.8"/>
	<path class="st2" d="M372.2,446.9H135.6c-3.3,0-5.9-2.7-5.9-5.9v-23.7c0-3.3,2.7-5.9,5.9-5.9h236.6c3.3,0,5.9,2.7,5.9,5.9V441
		C378.1,444.3,375.5,446.9,372.2,446.9z"/>
	<path class="st0" d="M316.3,157.1H165.2c-6.5,0-11.8,5.3-11.8,11.8v11.8h167.2C319.6,172.7,318.2,164.8,316.3,157.1z"/>
	<path class="st4" d="M135.6,198.5c0,9.8,7.9,17.7,17.7,17.7h168.2c0.2-3.9,0.4-7.9,0.4-11.8c0-8-0.5-15.9-1.4-23.7H153.3
		C143.5,180.7,135.6,188.7,135.6,198.5L135.6,198.5z"/>
</g>
<g>
	<desc>Created with Sketch.</desc>
	<g id="Page-1">
		<g id="_x30_23---Valve">
			<path id="Shape" class="st5" d="M252.6,133l0-9.6c0,2.3-0.8,4.5-2.3,6.2v0c-1.8,2.1-4.5,3.3-7.3,3.3l-9.6-0.1
				c-2.8,0-5.4-1.3-7.2-3.4c-1-1.1-1.7-2.5-2-4c-0.2-0.7-0.3-1.5-0.3-2.3c0,0.8-0.1,1.5-0.3,2.3c-0.3,1.5-1,2.8-2.1,3.9
				c-1.8,2.1-4.5,3.3-7.3,3.3l-9.6-0.1c-5.3-0.1-9.6-4.4-9.5-9.7l0.2-43.1c0-2.5,1-5,2.8-6.7c1.8-1.8,4.2-2.8,6.8-2.8l2.4,0l11.3,1
				c2.6,1.3,4.5,3.6,5.2,6.4c0.2,0.7,0.3,1.5,0.3,2.2c0-2.5,1-5,2.8-6.7c1.8-1.8,4.2-2.8,6.8-2.7L241,71l3.2,0.2
				c6.1,0.3,10.9,5.4,10.9,11.6l-0.2,47.9C254.9,132,253.8,133,252.6,133z"/>
			<path id="Shape_1_" class="st6" d="M252.8,82.7c-0.5,0-0.9-0.2-1.3-0.4c-0.6-0.4-0.9-1.1-1-1.8l0-0.1l0-7.3v-2.3
				c0-0.9-0.4-1.7-1.2-2.2s-1.7-0.5-2.5,0c-0.8,0.4-1.3,1.3-1.3,2.2c0,0.2,0,0.5-0.1,0.7L241,71c0-0.1-0.1-0.3-0.1-0.4
				c0-3.9,3.2-7.1,7.1-7c3.9,0.1,7.1,3.3,7.1,7.1V73l0,7.3C255.1,81.6,254.1,82.7,252.8,82.7z"/>
			<path id="Shape_2_" class="st7" d="M257.2,161.7c-1,0-1.9-0.3-2.7-0.9c-1.3-0.9-2-2.4-2.1-4l0.1-23.9c1.3,0,2.3-1,2.3-2.3
				l0.2-50.3l0-7.3v-2.3c0-3.9-3.2-7.1-7.1-7.1c-3.9,0-7.1,3.1-7.1,7c0,0.1,0,0.3,0.1,0.4l-7.3-0.5c0-4.1,1.8-8,5-10.8
				c3.1-2.7,7.3-3.9,11.4-3.3c7.2,1.2,12.6,7.5,12.4,14.8L262,157c0,1.3-0.5,2.5-1.4,3.4C259.7,161.3,258.5,161.7,257.2,161.7z"/>
			<path id="Shape_3_" class="st7" d="M223.7,151.8c-10.6-0.1-19.1-8.7-19.1-19.3l9.6,0.1c0,5.3,4.2,9.6,9.6,9.6
				c2.5,0,5-0.9,6.8-2.7c1.8-1.8,2.8-4.2,2.8-6.7l9.6,0.1c0,5.1-2.1,9.9-5.7,13.5C233.7,149.9,228.8,151.9,223.7,151.8z"/>
			<path id="Shape_4_" class="st7" d="M228,59.1l-9.4,12.3l-11.3-1l12.1-15.8l0.1-12.7l9.6,0.1l-0.1,14.3
				C228.9,57.2,228.6,58.2,228,59.1z"/>
			<path id="Shape_5_" class="st6" d="M252.6,133c-0.6,0-1.2-0.2-1.6-0.7s-0.7-1-0.7-1.6v-1.1v0l0.2-49.2l0-0.1l0-7.3
				c0-1.3,1-2.3,2.3-2.3c1.3,0,2.3,1,2.3,2.3l0,7.3l-0.2,50.3C254.9,132,253.8,133,252.6,133z"/>
			<path id="Shape_6_" class="st8" d="M232.2,41.9l-3.2,0l-9.6-0.1l-3.2,0c-1,0-1.8-0.6-2.2-1.5l-5.1-12c-0.3-0.7-0.3-1.6,0.2-2.2
				c0.4-0.7,1.2-1.1,2-1l26.3,0.3c0.8,0,1.6,0.4,2,1.1c0.4,0.7,0.5,1.5,0.2,2.2l-5.2,11.9C234,41.3,233.2,41.9,232.2,41.9z"/>
			<path id="Shape_7_" class="st5" d="M241.2,25.2l-3.7,0L211.2,25l-3.7-0.1c-0.6,0-1.2-0.3-1.6-0.7s-0.7-1-0.7-1.6l0.1-12.3
				c0-2.5,1-4.8,2.8-6.5s4.1-2.7,6.6-2.6l19.8,0.2c5.1,0.1,9.2,4.2,9.2,9.4L243.5,23C243.5,24.2,242.4,25.2,241.2,25.2z"/>
			<path id="Shape_8_" class="st8" d="M222.5,125c-0.6-0.4-1-1.1-1-1.9l0.2-43.1c0-0.9,0.4-1.6,1.1-2.1c0.7-0.4,1.6-0.4,2.3,0
				c0.7,0.4,1.1,1.2,1.1,2.1l-0.2,43.1c0,0.9-0.5,1.6-1.3,2.1C224.1,125.6,223.2,125.5,222.5,125z"/>
			<path id="Shape_9_" class="st9" d="M244.2,71.3l-3.2-0.2"/>
			<polyline id="Shape_10_" class="st9" points="245.7,71.5 245.5,71.4 241,71.1 240.4,71 			"/>
		</g>
	</g>
</g>
</svg>
