<?xml version="1.0" encoding="UTF-8"?>
<!DOCTYPE svg PUBLIC "-//W3C//DTD SVG 1.1//EN" "http://www.w3.org/Graphics/SVG/1.1/DTD/svg11.dtd">
<svg version="1.1" xmlns="http://www.w3.org/2000/svg" xmlns:xlink="http://www.w3.org/1999/xlink" x="0" y="0" width="400" height="400" viewBox="0, 0, 400, 400">
  <g id="Ebene_1">
    <path d="M178.475,112.25 C190.802,112.225 202.976,114.002 215.029,116.387 C250.68,124.256 273.996,144.411 281.906,174.194 C284.697,184.704 285.361,200.423 283.074,201.837 C282.613,202.123 280.011,202.533 277.294,202.748 C270.62,203.275 270.392,203.734 272.476,212.379 C274.318,220.023 276.048,223.104 279.711,225.254 C281.882,226.531 283.681,226.756 293.487,226.977 C306.703,227.275 309.33,226.917 310.84,224.614 C311.852,223.068 311.826,222.708 310.527,220.283 C308.729,216.932 309.401,214.85 312.624,213.775 C315.59,212.787 316.016,211.703 314.07,210.094 C312.735,208.99 312.658,208.556 313.346,206.099 C313.899,204.134 313.909,197.091 313.384,181.504 C312.978,169.492 312.811,159.395 313.014,159.067 C313.217,158.739 316.26,158.471 319.777,158.471 L326.174,158.471 L325.989,184.192 C325.847,203.967 325.597,209.99 324.91,210.254 C324.419,210.443 324.017,211.251 324.017,212.049 C324.017,213.163 324.483,213.501 326.018,213.501 C327.118,213.501 328.406,213.887 328.877,214.358 C330.072,215.553 329.949,218.903 328.662,220.188 C327.017,221.835 327.377,223.748 329.76,226.032 C331.896,228.079 331.926,228.202 331.725,234.509 L331.522,240.91 L327.816,241.744 C321.269,243.216 317.593,247.011 317.589,252.308 C317.587,255.442 318.325,257.046 324.17,266.581 C327.763,272.437 328.308,273.742 327.546,274.659 C326.154,276.338 316.94,281.524 316.185,281.054 C315.814,280.827 311.916,274.942 307.518,267.976 C293.394,245.601 292.105,243.798 289.278,242.456 C286.171,240.982 281.934,241.423 278.978,243.528 C277.837,244.342 276.353,246.627 275.402,249.042 C271.014,260.175 265.532,266.912 259.45,268.646 C255.471,269.78 254.089,271.085 253.594,274.168 C252.176,282.998 248.657,294.693 244.859,303.193 C239.067,316.158 227.578,330.708 223.133,330.708 C222.458,330.708 220.402,329.405 218.562,327.814 C216.722,326.22 214.709,325.015 214.089,325.135 C213.468,325.254 211.401,328.056 209.496,331.362 C202.046,344.291 192.501,354.392 181.438,361.052 C179.126,362.444 176.878,363.582 176.441,363.582 C176.003,363.582 173.93,362.726 171.832,361.682 C167.056,359.303 155.309,348.126 149.552,340.484 C147.197,337.359 144.152,332.58 142.783,329.865 C141.415,327.148 139.82,324.743 139.239,324.52 C138.604,324.277 136.904,325.289 134.992,327.054 C130.59,331.11 128.528,331.026 123.79,326.599 C115.159,318.535 105.856,300.772 101.728,284.482 C97.911,269.41 98.733,270.971 93.13,268.149 C90.385,266.767 86.87,264.328 85.321,262.731 C76.475,253.619 74.452,236.029 79.831,215.014 C82.22,205.674 82.246,205.427 80.939,204.12 C79.928,203.11 78.55,202.781 75.312,202.781 C71.884,202.781 70.717,202.475 69.496,201.252 C68.054,199.81 67.994,199.277 68.441,191.784 C70.164,163.021 83.117,141.511 106.914,127.9 C124.286,118.26 144.193,113.933 163.89,112.636 C168.743,112.316 173.613,112.379 178.475,112.25 z" fill="#00FF00"/>
    <path d="M171.832,361.682 C167.056,359.303 155.309,348.126 149.552,340.484 C147.197,337.359 144.152,332.58 142.783,329.865 C141.415,327.148 139.82,324.743 139.239,324.52 C138.604,324.277 136.904,325.289 134.992,327.054 C130.59,331.11 128.528,331.026 123.79,326.599 C115.159,318.535 105.856,300.772 101.728,284.482 C97.911,269.41 98.733,270.971 93.13,268.149 C90.385,266.767 86.87,264.328 85.321,262.731 C76.475,253.619 74.452,236.029 79.831,215.014 C82.22,205.674 82.246,205.427 80.939,204.12 C79.928,203.11 78.55,202.781 75.312,202.781 C71.884,202.781 70.717,202.475 69.496,201.252 C68.054,199.81 67.994,199.277 68.441,191.784 C70.164,163.021 83.117,141.511 106.914,127.9 C133.68,112.592 176.958,107.983 215.029,116.387 C250.68,124.256 273.996,144.411 281.906,174.194 C284.697,184.704 285.361,200.423 283.074,201.837 C282.613,202.123 280.011,202.533 277.294,202.748 C270.62,203.275 270.392,203.734 272.476,212.379 C274.318,220.023 276.048,223.104 279.711,225.254 C281.882,226.531 283.681,226.756 293.487,226.977 C306.703,227.275 309.33,226.917 310.84,224.614 C311.852,223.068 311.826,222.708 310.527,220.283 C308.729,216.932 309.401,214.85 312.624,213.775 C315.59,212.787 316.016,211.703 314.07,210.094 C312.735,208.99 312.658,208.556 313.346,206.099 C313.899,204.134 313.909,197.091 313.384,181.504 C312.978,169.492 312.811,159.395 313.014,159.067 C313.217,158.739 316.26,158.471 319.777,158.471 L326.174,158.471 L325.989,184.192 C325.847,203.967 325.597,209.99 324.91,210.254 C324.419,210.443 324.017,211.251 324.017,212.049 C324.017,213.163 324.483,213.501 326.018,213.501 C327.118,213.501 328.406,213.887 328.877,214.358 C330.072,215.553 329.949,218.903 328.662,220.188 C327.017,221.835 327.377,223.748 329.76,226.032 C331.896,228.079 331.926,228.202 331.725,234.509 L331.522,240.91 L327.816,241.744 C321.269,243.216 317.593,247.011 317.589,252.308 C317.587,255.442 318.325,257.046 324.17,266.581 C327.763,272.437 328.308,273.742 327.546,274.659 C326.154,276.338 316.94,281.524 316.185,281.054 C315.814,280.827 311.916,274.942 307.518,267.976 C293.394,245.601 292.105,243.798 289.278,242.456 C286.171,240.982 281.934,241.423 278.978,243.528 C277.837,244.342 276.353,246.627 275.402,249.042 C271.014,260.175 265.532,266.912 259.45,268.646 C255.471,269.78 254.089,271.085 253.594,274.168 C252.176,282.998 248.657,294.693 244.859,303.193 C239.067,316.158 227.578,330.708 223.133,330.708 C222.458,330.708 220.402,329.405 218.562,327.814 C216.722,326.22 214.709,325.015 214.089,325.135 C213.468,325.254 211.401,328.056 209.496,331.362 C202.046,344.291 192.501,354.392 181.438,361.052 C179.126,362.444 176.878,363.582 176.441,363.582 C176.003,363.582 173.93,362.726 171.832,361.682 z M180.232,348.644 C183.504,346.975 193.39,336.759 196.897,331.422 C201.995,323.665 205.382,315.115 205.382,310.003 C205.382,308.698 203.029,305.502 197.072,298.719 C192.503,293.514 188.316,289.257 187.771,289.257 C187.226,289.257 185.069,290.222 182.979,291.402 C178.189,294.105 175.092,294.135 169.807,291.529 C167.558,290.421 165.173,289.637 164.505,289.788 C163.838,289.938 159.898,293.951 155.75,298.703 L148.208,307.346 L148.22,311.344 C148.25,321.361 160.777,341.481 171.033,347.985 C174.774,350.358 176.612,350.49 180.23,348.644 z M178.937,333.922 C176.952,331.527 180.94,323.269 184.516,322.37 C186.715,321.819 188.513,322.853 188.809,324.842 C189.022,326.262 187.524,328.406 183.104,333.007 C180.924,335.275 180.194,335.436 178.937,333.922 z M139.651,306.23 C150.844,294.17 159.643,283.809 159.643,282.687 C159.643,282.244 157.714,278.906 155.359,275.268 C153.002,271.63 148.93,264.686 146.312,259.836 C140.252,248.618 139.75,247.806 138.588,247.361 C138.061,247.158 134.988,248.95 131.758,251.345 C128.53,253.74 122.364,257.663 118.057,260.061 C112.687,263.055 110.017,264.972 109.564,266.166 C108.122,269.963 113.65,290.218 119.083,301.049 C123.084,309.021 128.182,316.414 129.679,316.414 C129.966,316.414 134.451,311.832 139.651,306.23 z M227.105,312.434 C235.694,301.186 244.794,275.139 242.861,267.336 C242.236,264.811 241.663,264.334 234.876,260.678 C230.854,258.512 225.074,254.969 222.031,252.809 C214.822,247.685 214.23,247.405 212.921,248.491 C212.334,248.978 209.957,253.147 207.642,257.754 C205.327,262.361 201.153,269.778 198.369,274.236 C194.032,281.177 193.418,282.556 194.086,283.833 C196.232,287.944 221.742,315.7 223.376,315.7 C224.056,315.7 225.735,314.23 227.105,312.434 z M223.493,289.574 C222.781,287.72 223.867,282.092 225.713,278.058 C227.139,274.944 227.781,274.247 229.235,274.247 C230.322,274.247 231.172,274.751 231.424,275.536 C231.938,277.164 229.512,286.53 227.958,288.901 C226.652,290.898 224.145,291.276 223.493,289.574 z M178.881,286.071 C184.389,283.222 194.991,267.809 204.575,248.715 C206.198,245.481 207.526,242.241 207.526,241.515 C207.526,240.789 206.09,238.344 204.336,236.085 C202.579,233.825 200.483,230.905 199.675,229.598 C198.868,228.292 197.689,227.023 197.056,226.78 C196.334,226.503 193.479,227.912 189.378,230.567 C185.788,232.892 181.374,235.514 179.568,236.391 L176.286,237.986 L171.001,235.218 C168.094,233.694 163.691,230.919 161.213,229.049 C158.736,227.179 156.27,225.65 155.734,225.65 C154.758,225.65 147.482,235.476 145.921,238.903 C144.808,241.344 145.628,243.532 152.327,256.023 C160.331,270.948 168.15,281.951 173.208,285.41 C176.135,287.412 176.26,287.425 178.881,286.071 z M256.44,257.832 C263.641,254.345 267.09,240.842 264.661,225.65 C263.836,220.484 259.356,204.89 257.864,201.988 C256.792,199.901 254.453,198.797 249.691,198.129 C244.854,197.449 231.113,193.737 224.521,191.33 C218.331,189.072 216.455,188.768 215.749,189.908 C215.511,190.296 214.842,192.42 214.267,194.628 C212.732,200.528 209.225,208.574 206.051,213.485 C201.892,219.922 201.89,220.295 206.007,226.452 C214.92,239.777 234.023,254.713 246.553,258.152 C251.452,259.496 253.109,259.443 256.44,257.832 z M250.039,237.622 C249.822,236.737 248.593,230.748 247.306,224.312 C245.282,214.169 245.104,212.473 245.989,211.587 C247.909,209.668 249.918,210.75 251.285,214.44 C254.063,221.942 255.625,236.584 253.836,238.372 C252.446,239.762 250.469,239.371 250.039,237.622 z M111.76,255.415 C120.693,250.877 128.928,244.958 135.746,238.171 C142.179,231.768 149.638,221.521 149.638,219.086 C149.638,218.386 148.367,215.737 146.812,213.198 C142.412,206.008 140.506,201.91 138.942,196.263 C136.733,188.291 137.117,188.404 125.45,192.281 C119.969,194.103 111.626,196.376 106.912,197.331 C102.2,198.288 97.713,199.408 96.943,199.82 C95.306,200.697 93.914,204.132 91.403,213.501 C86.506,231.764 86.196,246.454 90.57,252.944 C94.976,259.485 102.11,260.316 111.76,255.415 z M184.471,225.485 C193.66,219.134 201.092,209.936 205.145,199.897 C207.443,194.212 209.068,186.421 208.26,184.965 C207.918,184.349 204.65,181.431 201,178.483 C192.608,171.706 187.144,165.198 181.559,155.332 C179.136,151.049 176.831,147.547 176.437,147.547 C176.045,147.547 173.793,150.92 171.434,155.043 C164.393,167.358 160.069,172.362 149.994,179.865 C147.243,181.916 144.761,184.002 144.478,184.506 C143.689,185.914 145.224,193.997 147.269,199.189 C151.488,209.91 161.292,221.437 171.16,227.281 C176.656,230.535 177.288,230.45 184.471,225.485 z M104.981,190.954 C135.957,185.624 160.884,166.95 169.344,142.737 C171.311,137.106 173.028,126.554 172.288,124.628 C171.695,123.081 163.587,123.039 152.254,124.525 C133.397,126.997 116.217,133.275 105.378,141.653 C93.096,151.147 84.919,163.051 81.414,176.545 C78.409,188.118 78.293,191.561 80.883,192.331 C82.882,192.924 98.822,192.015 104.981,190.954 z M273.228,190.399 C274.652,186.656 271.997,173.007 268.482,166.005 C258.59,146.299 236.161,131.385 207.771,125.636 C199.129,123.888 183.28,122.291 181.463,122.987 C180.361,123.411 180.24,124.033 180.624,127.299 C180.87,129.4 181.891,133.975 182.892,137.47 C192.465,170.892 223.348,191.603 264.182,191.983 C272.365,192.058 272.613,192.015 273.228,190.399 z M257.826,182.453 C257.015,181.884 254.63,177.946 252.526,173.697 C249.244,167.073 247.829,165.106 242.584,159.861 C237.357,154.634 235.364,153.197 228.834,149.963 C219.771,145.472 218.381,144.233 219.546,141.674 C220.205,140.231 220.873,139.891 223.055,139.891 C229.967,139.892 245.579,150.379 252.971,159.982 C259.305,168.215 263.846,181.063 261.047,182.835 C259.722,183.674 259.539,183.652 257.826,182.453 z M207.431,142.416 C207.248,142.234 203.898,141.585 199.986,140.978 C189.907,139.411 189.686,139.338 188.905,137.283 C187.781,134.327 189.094,133.458 194.673,133.458 C200.286,133.458 210.017,135.274 212.35,136.758 C214.297,137.995 214.421,139.966 212.65,141.565 C211.443,142.659 208.203,143.186 207.431,142.416 z M133.276,108.791 C114.113,103.398 103.616,82.032 111.811,65.101 C114.753,59.024 120.544,53.838 126.938,51.555 C131.541,49.912 139.846,50.127 144.993,52.022 C150.545,54.069 155.323,58.839 157.413,64.428 C160.488,72.649 158.75,78.336 153.423,77.471 C150.03,76.92 149.119,75.991 148.536,72.49 C146.891,62.586 138.008,58.186 128.874,62.751 C118.252,68.06 116.758,82.02 125.749,91.971 C136.613,103.997 157.246,100.258 166.953,84.502 C169.979,79.593 170.356,77.134 170.991,58.228 C171.703,36.953 172.019,35.752 176.678,36.607 C178.118,36.871 179.61,37.392 179.994,37.767 C180.99,38.733 181.686,47.73 181.76,60.561 C181.825,72.035 182.864,79.275 185.054,83.506 C186.762,86.811 192.865,93.087 196.357,95.13 C200.284,97.425 206.307,99.154 210.385,99.154 C231.131,99.154 241.17,72.9 224.221,62.966 C215.564,57.892 207.065,61.405 204.57,71.086 C203.051,76.978 198.076,79.663 194.993,76.256 C191.594,72.498 195.172,61.234 201.551,55.62 C216.752,42.24 241.755,54.081 243.775,75.617 C244.824,86.78 237.409,100.173 227.095,105.742 C217.177,111.097 204.248,111.142 193.754,105.857 C189.27,103.599 181.722,97.624 179.233,94.362 C177.068,91.524 175.24,91.357 173.893,93.875 C172.606,96.278 166.945,101.368 162.955,103.705 C154.463,108.681 141.053,110.979 133.276,108.791 z M133.276,108.791" fill="#020402"/>
  </g>
</svg>
