<svg xmlns="http://www.w3.org/2000/svg" viewBox="0 0 160.7 252.05"><defs><style>.cls-1{fill:#fff;}.cls-2{fill:none;}.cls-3{fill:#edebdd;}.cls-4{fill:#0098e9;}</style></defs><g id="Layer_2" data-name="Layer 2"><g id="Layer_1-2" data-name="Layer 1"><path class="cls-1" d="M141.52,8.92H104.1l-.78-1.36A15.13,15.13,0,0,0,90.25,0H69.17A15.12,15.12,0,0,0,56.11,7.55l-.78,1.37H19.18A19.2,19.2,0,0,0,0,28.1V223.94a19.21,19.21,0,0,0,19.18,19.2H55.33l.79,1.37a15.1,15.1,0,0,0,13.05,7.54H90.25a15.09,15.09,0,0,0,13.06-7.55l.79-1.36h37.42a19.21,19.21,0,0,0,19.18-19.2V28.1A19.2,19.2,0,0,0,141.52,8.92Z"/><path class="cls-2" d="M135.82,32.44H24.88a1.61,1.61,0,0,0-1.6,1.61V218a1.61,1.61,0,0,0,1.6,1.62H135.82a1.62,1.62,0,0,0,1.6-1.62V34.05A1.61,1.61,0,0,0,135.82,32.44ZM85.29,44.51a1.52,1.52,0,0,1,1.38-.42l.29.08a1.35,1.35,0,0,1,.26.15.88.88,0,0,1,.24.19,1.56,1.56,0,0,1,.45,1.08,1.58,1.58,0,0,1-.45,1.09,1.55,1.55,0,0,1-.24.19L87,47a1.4,1.4,0,0,1-.29.09l-.3,0a1.56,1.56,0,0,1-1.08-.45,1.54,1.54,0,0,1-.45-1.09A1.51,1.51,0,0,1,85.29,44.51Zm-12.05,0a1.52,1.52,0,0,1,1.38-.42l.29.08a1.82,1.82,0,0,1,.27.15,1,1,0,0,1,.23.19,1.45,1.45,0,0,1,.19.23,2.15,2.15,0,0,1,.14.26,1.61,1.61,0,0,1,.09.29,1.53,1.53,0,0,1,0,.3,1.58,1.58,0,0,1-.45,1.09,1.6,1.6,0,0,1-1.09.45,1.57,1.57,0,0,1-1.08-.45,1.54,1.54,0,0,1-.45-1.09A1.51,1.51,0,0,1,73.24,44.51ZM39.68,206.77a1.61,1.61,0,0,1-.09.29,2.15,2.15,0,0,1-.14.26,2.11,2.11,0,0,1-.19.23,1.55,1.55,0,0,1-1.09.46,1.54,1.54,0,0,1-1.08-2.63,2.11,2.11,0,0,1,.23-.19,1.71,1.71,0,0,1,.27-.14,1.31,1.31,0,0,1,.28-.09,1.61,1.61,0,0,1,1.39.42,1.58,1.58,0,0,1,.45,1.09A1.53,1.53,0,0,1,39.68,206.77ZM39.26,46.68a1.58,1.58,0,0,1-1.09.45l-.3,0a1.52,1.52,0,0,1-.28-.09,1.71,1.71,0,0,1-.27-.14,2.11,2.11,0,0,1-.23-.19,1.12,1.12,0,0,1-.19-.24.94.94,0,0,1-.14-.26,1.4,1.4,0,0,1-.09-.29,1.52,1.52,0,0,1,0-.6,1.61,1.61,0,0,1,.09-.29.94.94,0,0,1,.14-.26,1.06,1.06,0,0,1,.19-.23,1.58,1.58,0,0,1,2.17,0,1.45,1.45,0,0,1,.19.23,1.3,1.3,0,0,1,.14.26,1.61,1.61,0,0,1,.09.29,1.53,1.53,0,0,1,0,.3A1.58,1.58,0,0,1,39.26,46.68ZM51.73,206.77a1.61,1.61,0,0,1-.09.29,2.15,2.15,0,0,1-.14.26,2.11,2.11,0,0,1-.19.23,1.55,1.55,0,0,1-1.09.46,1.52,1.52,0,0,1-1.08-.46,1.37,1.37,0,0,1-.19-.23.94.94,0,0,1-.14-.26,1.61,1.61,0,0,1-.09-.29,1.53,1.53,0,0,1,0-.3,1.55,1.55,0,0,1,.45-1.09,2.11,2.11,0,0,1,.23-.19,1.71,1.71,0,0,1,.27-.14,1.31,1.31,0,0,1,.28-.09,1.58,1.58,0,0,1,1.39.42,1.6,1.6,0,0,1,.45,1.09A1.53,1.53,0,0,1,51.73,206.77Zm0-160.88a1.4,1.4,0,0,1-.09.29,2.15,2.15,0,0,1-.14.26,1.55,1.55,0,0,1-.19.24,2.11,2.11,0,0,1-.23.19l-.27.14a1.4,1.4,0,0,1-.29.09l-.3,0a1.57,1.57,0,0,1-1.08-.45,1.54,1.54,0,0,1-.45-1.09,1.51,1.51,0,0,1,.45-1.08,1,1,0,0,1,.23-.19,1.17,1.17,0,0,1,.27-.15l.28-.08a1.52,1.52,0,0,1,.6,0l.29.08a1.82,1.82,0,0,1,.27.15,1,1,0,0,1,.23.19,1.45,1.45,0,0,1,.19.23,2.15,2.15,0,0,1,.14.26,1.61,1.61,0,0,1,.09.29,1.51,1.51,0,0,1,0,.6ZM63.78,206.77a1.61,1.61,0,0,1-.09.29,2.15,2.15,0,0,1-.14.26,2.11,2.11,0,0,1-.19.23,1.56,1.56,0,0,1-1.09.46,1.52,1.52,0,0,1-1.08-.46,1.37,1.37,0,0,1-.19-.23,1.35,1.35,0,0,1-.15-.26c0-.1-.06-.19-.08-.29a1.54,1.54,0,0,1,.42-1.39,1.58,1.58,0,0,1,1.38-.42,1.4,1.4,0,0,1,.29.09l.26.14a1.55,1.55,0,0,1,.24.19,1.58,1.58,0,0,1,.45,1.09A1.53,1.53,0,0,1,63.78,206.77ZM63.36,46.68a1.6,1.6,0,0,1-1.09.45l-.3,0a1.31,1.31,0,0,1-.28-.09,1.71,1.71,0,0,1-.27-.14,2.11,2.11,0,0,1-.23-.19,1.54,1.54,0,0,1-.45-1.09,1.51,1.51,0,0,1,.45-1.08,1,1,0,0,1,.23-.19,1.17,1.17,0,0,1,.27-.15l.28-.08a1.54,1.54,0,0,1,1.84,1.5A1.58,1.58,0,0,1,63.36,46.68Zm12,160.87a1.55,1.55,0,0,1-1.09.46,1.52,1.52,0,0,1-1.08-.46,1.37,1.37,0,0,1-.19-.23,1.35,1.35,0,0,1-.15-.26c0-.1-.06-.19-.08-.29a1.54,1.54,0,0,1,.42-1.39,1.54,1.54,0,0,1,2.62,1.09A1.56,1.56,0,0,1,75.41,207.55Zm12.47-.78a1.61,1.61,0,0,1-.09.29,2.15,2.15,0,0,1-.14.26,2.11,2.11,0,0,1-.19.23,1.55,1.55,0,0,1-1.09.46,1.52,1.52,0,0,1-1.08-.46,1.37,1.37,0,0,1-.19-.23,1.35,1.35,0,0,1-.15-.26c0-.1-.06-.19-.08-.29a1.54,1.54,0,0,1,.42-1.39,2.11,2.11,0,0,1,.23-.19,1.71,1.71,0,0,1,.27-.14,1.31,1.31,0,0,1,.28-.09,1.61,1.61,0,0,1,1.39.42,1.58,1.58,0,0,1,.45,1.09A1.53,1.53,0,0,1,87.88,206.77Zm3.05-34.21a15.91,15.91,0,0,1-10.61,4,17,17,0,0,1-1.75-.09,16,16,0,0,1-13.93-13.45,15.83,15.83,0,0,1,8.23-16.33V80.39a7.49,7.49,0,1,1,15,0v66.36a15.86,15.86,0,0,1,3.09,25.81Zm8.58,35a1.55,1.55,0,0,1-1.09.46,1.52,1.52,0,0,1-1.08-.46,1.37,1.37,0,0,1-.19-.23,1.35,1.35,0,0,1-.15-.26c0-.1-.06-.19-.08-.29a1.53,1.53,0,0,1,0-.3,1.55,1.55,0,0,1,.45-1.09,1.45,1.45,0,0,1,.23-.19l.26-.14a1.61,1.61,0,0,1,.29-.09,1.54,1.54,0,0,1,1.84,1.51A1.56,1.56,0,0,1,99.51,207.55Zm0-160.87a1.6,1.6,0,0,1-1.09.45l-.3,0a1.61,1.61,0,0,1-.29-.09l-.26-.14a2.11,2.11,0,0,1-.23-.19,1.12,1.12,0,0,1-.19-.24,1.35,1.35,0,0,1-.15-.26,2.45,2.45,0,0,1-.08-.29,1.52,1.52,0,0,1,0-.6c0-.1,0-.19.08-.29a1.35,1.35,0,0,1,.15-.26,1.06,1.06,0,0,1,.19-.23,1,1,0,0,1,.23-.19,1.35,1.35,0,0,1,.26-.15l.29-.08a1.51,1.51,0,0,1,.6,0l.29.08a1.35,1.35,0,0,1,.26.15.88.88,0,0,1,.24.19,1.56,1.56,0,0,1,.45,1.08A1.58,1.58,0,0,1,99.51,46.68ZM112,206.77a1.61,1.61,0,0,1-.09.29,2.15,2.15,0,0,1-.14.26,2.11,2.11,0,0,1-.19.23,1.56,1.56,0,0,1-1.09.46,1.52,1.52,0,0,1-1.08-.46,1.43,1.43,0,0,1-.2-.23,2.15,2.15,0,0,1-.14-.26c0-.1-.06-.19-.08-.29a1.54,1.54,0,0,1,.42-1.39,2.11,2.11,0,0,1,.23-.19l.26-.14a1.53,1.53,0,0,1,1.68.33,1.58,1.58,0,0,1,.45,1.09A1.53,1.53,0,0,1,112,206.77Zm0-160.88a1.4,1.4,0,0,1-.09.29,2.15,2.15,0,0,1-.14.26,1.55,1.55,0,0,1-.19.24,1.6,1.6,0,0,1-1.09.45,1.56,1.56,0,0,1-1.08-.45,1.54,1.54,0,0,1-.42-1.39c0-.1,0-.19.08-.29a2.15,2.15,0,0,1,.14-.26,1.45,1.45,0,0,1,.19-.23,1.33,1.33,0,0,1,.24-.19,1.35,1.35,0,0,1,.26-.15l.29-.08a1.52,1.52,0,0,1,.6,0l.29.08a1.35,1.35,0,0,1,.26.15.88.88,0,0,1,.24.19,1.45,1.45,0,0,1,.19.23,2.15,2.15,0,0,1,.14.26,1.61,1.61,0,0,1,.09.29,1.51,1.51,0,0,1,0,.6Zm12,160.88a1.61,1.61,0,0,1-.09.29,2.15,2.15,0,0,1-.14.26,2.11,2.11,0,0,1-.19.23,1.56,1.56,0,0,1-1.09.46,1.52,1.52,0,0,1-1.08-.46,1.37,1.37,0,0,1-.19-.23,1.35,1.35,0,0,1-.15-.26c0-.1-.06-.19-.08-.29a1.54,1.54,0,0,1,.42-1.39,1.45,1.45,0,0,1,.23-.19l.26-.14a1.53,1.53,0,0,1,1.68.33,1.58,1.58,0,0,1,.45,1.09A1.53,1.53,0,0,1,124,206.77Zm0-160.88a1.4,1.4,0,0,1-.09.29,2.15,2.15,0,0,1-.14.26,1.33,1.33,0,0,1-.43.43l-.26.14a1.4,1.4,0,0,1-.29.09l-.3,0-.3,0a1.31,1.31,0,0,1-.28-.09,1.71,1.71,0,0,1-.27-.14,2.11,2.11,0,0,1-.23-.19,1.12,1.12,0,0,1-.19-.24,1.35,1.35,0,0,1-.15-.26,2.45,2.45,0,0,1-.08-.29,1.52,1.52,0,0,1,0-.6c0-.1,0-.19.08-.29a1.35,1.35,0,0,1,.15-.26,1.06,1.06,0,0,1,.19-.23,1,1,0,0,1,.23-.19,1.17,1.17,0,0,1,.27-.15l.28-.08a1.51,1.51,0,0,1,.6,0l.29.08a1.35,1.35,0,0,1,.26.15.88.88,0,0,1,.24.19,1.45,1.45,0,0,1,.19.23,2.15,2.15,0,0,1,.14.26,1.61,1.61,0,0,1,.09.29,1.51,1.51,0,0,1,0,.6Z"/><path class="cls-1" d="M94.78,18.92,92,14.07a2,2,0,0,0-1.74-1H69.17a2,2,0,0,0-1.73,1l-2.79,4.84Z"/><path class="cls-1" d="M64.65,233.14,67.44,238a2,2,0,0,0,1.73,1H90.25A2,2,0,0,0,92,238l2.78-4.84Z"/><path class="cls-3" d="M141.52,22H19.18a6.12,6.12,0,0,0-6.11,6.11V223.94a6.13,6.13,0,0,0,6.11,6.13H141.52a6.13,6.13,0,0,0,6.11-6.13V28.1A6.12,6.12,0,0,0,141.52,22Zm-1,196a4.68,4.68,0,0,1-4.67,4.69H24.88A4.68,4.68,0,0,1,20.21,218V34.05a4.68,4.68,0,0,1,4.67-4.68H135.82a4.68,4.68,0,0,1,4.67,4.68Z"/><path d="M141.52,18.92H98.32l-3.67-6.38A5.08,5.08,0,0,0,90.25,10H69.17a5.08,5.08,0,0,0-4.39,2.54l-3.67,6.38H19.18A9.19,9.19,0,0,0,10,28.1V223.94a9.2,9.2,0,0,0,9.18,9.2H61.11l3.67,6.37a5.08,5.08,0,0,0,4.39,2.54H90.25a5.08,5.08,0,0,0,4.4-2.54l3.66-6.37h43.21a9.2,9.2,0,0,0,9.18-9.2V28.1A9.19,9.19,0,0,0,141.52,18.92Zm6.11,205a6.13,6.13,0,0,1-6.11,6.13H19.18a6.13,6.13,0,0,1-6.11-6.13V28.1A6.12,6.12,0,0,1,19.18,22H141.52a6.12,6.12,0,0,1,6.11,6.11ZM90.25,239H69.17a2,2,0,0,1-1.73-1l-2.79-4.84H94.77L92,238A2,2,0,0,1,90.25,239ZM69.17,13.07H90.25a2,2,0,0,1,1.74,1l2.79,4.85H64.65l2.79-4.84A2,2,0,0,1,69.17,13.07Z"/><path d="M135.82,29.37H24.88a4.68,4.68,0,0,0-4.67,4.68V218a4.68,4.68,0,0,0,4.67,4.69H135.82a4.68,4.68,0,0,0,4.67-4.69V34.05A4.68,4.68,0,0,0,135.82,29.37ZM137.42,218a1.62,1.62,0,0,1-1.6,1.62H24.88a1.61,1.61,0,0,1-1.6-1.62V34.05a1.61,1.61,0,0,1,1.6-1.61H135.82a1.61,1.61,0,0,1,1.6,1.61Z"/><path class="cls-1" d="M85.67,149.1a1.56,1.56,0,0,1-.9-1.4V80.39a4.42,4.42,0,1,0-8.83,0V88h4.42a1.54,1.54,0,0,1,0,3.07H75.94v11.25h4.42a1.54,1.54,0,0,1,0,3.07H75.94v11.25h4.42a1.54,1.54,0,0,1,0,3.07H75.94v11.24h3v-4.46a1.37,1.37,0,0,1,1.38-1.36,1.36,1.36,0,0,1,1.36,1.36v5.3a1.48,1.48,0,0,1,.17.7,1.51,1.51,0,0,1-.17.7V147.7a4.58,4.58,0,0,0,2.69,4.16A9.76,9.76,0,0,1,86.87,168a10.44,10.44,0,0,1-2.24,1.5,9.52,9.52,0,0,1-4.47,1h.18c-.33,0-.66,0-1,0h-.11a9.81,9.81,0,0,1-8.53-8.24,9.71,9.71,0,0,1,5.63-10.34A4.63,4.63,0,0,0,79,147.68V134h-3v13.68a1.52,1.52,0,0,1-.9,1.39,12.78,12.78,0,0,0-7.36,13.54A12.91,12.91,0,0,0,78.9,173.46a12.8,12.8,0,0,0,6.77-24.36Z"/><path d="M87.84,146.75V80.39a7.49,7.49,0,1,0-15,0v66.34a15.83,15.83,0,0,0-8.23,16.33,16,16,0,0,0,13.93,13.45,17,17,0,0,0,1.75.09,15.86,15.86,0,0,0,7.52-29.85Zm1,23.52a12.74,12.74,0,0,1-10,3.19,12.91,12.91,0,0,1-11.22-10.84A12.78,12.78,0,0,1,75,149.08a1.52,1.52,0,0,0,.9-1.39V134h4.42a1.54,1.54,0,0,0,1.36-.83,1.51,1.51,0,0,0,.17-.7,1.48,1.48,0,0,0-.17-.7,1.53,1.53,0,0,0-1.36-.84H75.94V119.7h4.42a1.54,1.54,0,0,0,0-3.07H75.94V105.38h4.42a1.54,1.54,0,0,0,0-3.07H75.94V91.06h4.42a1.54,1.54,0,0,0,0-3.07H75.94v-7.6a4.42,4.42,0,1,1,8.83,0V147.7a1.56,1.56,0,0,0,.9,1.4,12.79,12.79,0,0,1,3.22,21.17Z"/><path d="M79.35,170.43c.33,0,.66,0,1,0h-.18C79.89,170.46,79.62,170.46,79.35,170.43Z"/><path class="cls-4" d="M80.36,125.12A1.37,1.37,0,0,0,79,126.48v4.46h1.38a1.53,1.53,0,0,1,1.36.84v-5.3A1.36,1.36,0,0,0,80.36,125.12Z"/><path class="cls-4" d="M76.34,151.85a9.71,9.71,0,0,0-5.63,10.34,9.81,9.81,0,0,0,8.53,8.24h.11c.27,0,.54,0,.81,0a9.52,9.52,0,0,0,4.47-1,10.44,10.44,0,0,0,2.24-1.5,9.76,9.76,0,0,0-2.46-16.13,4.58,4.58,0,0,1-2.69-4.16V133.18a1.54,1.54,0,0,1-1.36.83H79v13.67A4.63,4.63,0,0,1,76.34,151.85Z"/><path d="M39.59,45a1.3,1.3,0,0,0-.14-.26,1.45,1.45,0,0,0-.19-.23,1.58,1.58,0,0,0-2.17,0,1.06,1.06,0,0,0-.19.23.94.94,0,0,0-.14.26,1.61,1.61,0,0,0-.09.29,1.52,1.52,0,0,0,0,.6,1.4,1.4,0,0,0,.09.29.94.94,0,0,0,.14.26,1.12,1.12,0,0,0,.19.24,2.11,2.11,0,0,0,.23.19,1.71,1.71,0,0,0,.27.14,1.52,1.52,0,0,0,.28.09l.3,0a1.54,1.54,0,0,0,1.54-1.54,1.53,1.53,0,0,0,0-.3A1.61,1.61,0,0,0,39.59,45Z"/><path d="M51.64,45a2.15,2.15,0,0,0-.14-.26,1.45,1.45,0,0,0-.19-.23,1,1,0,0,0-.23-.19,1.82,1.82,0,0,0-.27-.15l-.29-.08a1.51,1.51,0,0,0-.6,0l-.28.08a1.17,1.17,0,0,0-.27.15,1,1,0,0,0-.23.19,1.51,1.51,0,0,0-.45,1.08,1.54,1.54,0,0,0,.45,1.09,1.57,1.57,0,0,0,1.08.45l.3,0a1.4,1.4,0,0,0,.29-.09l.27-.14a2.11,2.11,0,0,0,.23-.19,1.55,1.55,0,0,0,.19-.24,2.15,2.15,0,0,0,.14-.26,1.4,1.4,0,0,0,.09-.29,1.51,1.51,0,0,0,0-.6A1.61,1.61,0,0,0,51.64,45Z"/><path d="M62,44.09l-.28.08a1.17,1.17,0,0,0-.27.15,1,1,0,0,0-.23.19,1.51,1.51,0,0,0-.45,1.08,1.54,1.54,0,0,0,.45,1.09,2.11,2.11,0,0,0,.23.19,1.71,1.71,0,0,0,.27.14,1.31,1.31,0,0,0,.28.09l.3,0a1.6,1.6,0,0,0,1.09-.45,1.58,1.58,0,0,0,.45-1.09A1.54,1.54,0,0,0,62,44.09Z"/><path d="M74.32,47.13a1.6,1.6,0,0,0,1.09-.45,1.58,1.58,0,0,0,.45-1.09,1.53,1.53,0,0,0,0-.3,1.61,1.61,0,0,0-.09-.29,2.15,2.15,0,0,0-.14-.26,1.45,1.45,0,0,0-.19-.23,1,1,0,0,0-.23-.19,1.82,1.82,0,0,0-.27-.15l-.29-.08a1.53,1.53,0,0,0-1.38,2.59A1.57,1.57,0,0,0,74.32,47.13Z"/><path d="M86.37,47.13l.3,0A1.4,1.4,0,0,0,87,47l.26-.14a1.55,1.55,0,0,0,.24-.19,1.58,1.58,0,0,0,.45-1.09,1.56,1.56,0,0,0-.45-1.08.88.88,0,0,0-.24-.19,1.35,1.35,0,0,0-.26-.15l-.29-.08a1.53,1.53,0,0,0-1.38,2.59A1.56,1.56,0,0,0,86.37,47.13Z"/><path d="M99.27,44.32a1.35,1.35,0,0,0-.26-.15l-.29-.08a1.51,1.51,0,0,0-.6,0l-.29.08a1.35,1.35,0,0,0-.26.15,1,1,0,0,0-.23.19,1.06,1.06,0,0,0-.19.23A1.35,1.35,0,0,0,97,45c0,.1-.06.19-.08.29a1.52,1.52,0,0,0,0,.6,2.45,2.45,0,0,0,.08.29,1.35,1.35,0,0,0,.15.26,1.12,1.12,0,0,0,.19.24,2.11,2.11,0,0,0,.23.19l.26.14a1.61,1.61,0,0,0,.29.09l.3,0a1.6,1.6,0,0,0,1.09-.45,1.58,1.58,0,0,0,.45-1.09,1.56,1.56,0,0,0-.45-1.08A.88.88,0,0,0,99.27,44.32Z"/><path d="M111.89,45a2.15,2.15,0,0,0-.14-.26,1.45,1.45,0,0,0-.19-.23.88.88,0,0,0-.24-.19,1.35,1.35,0,0,0-.26-.15l-.29-.08a1.52,1.52,0,0,0-.6,0l-.29.08a1.35,1.35,0,0,0-.26.15,1.33,1.33,0,0,0-.24.19,1.45,1.45,0,0,0-.19.23,2.15,2.15,0,0,0-.14.26c0,.1-.06.19-.08.29a1.54,1.54,0,0,0,.42,1.39,1.56,1.56,0,0,0,1.08.45,1.6,1.6,0,0,0,1.09-.45,1.55,1.55,0,0,0,.19-.24,2.15,2.15,0,0,0,.14-.26,1.4,1.4,0,0,0,.09-.29,1.51,1.51,0,0,0,0-.6A1.61,1.61,0,0,0,111.89,45Z"/><path d="M123.94,45a2.15,2.15,0,0,0-.14-.26,1.45,1.45,0,0,0-.19-.23.88.88,0,0,0-.24-.19,1.35,1.35,0,0,0-.26-.15l-.29-.08a1.51,1.51,0,0,0-.6,0l-.28.08a1.17,1.17,0,0,0-.27.15,1,1,0,0,0-.23.19,1.06,1.06,0,0,0-.19.23,1.35,1.35,0,0,0-.15.26c0,.1-.06.19-.08.29a1.52,1.52,0,0,0,0,.6,2.45,2.45,0,0,0,.08.29,1.35,1.35,0,0,0,.15.26,1.12,1.12,0,0,0,.19.24,2.11,2.11,0,0,0,.23.19,1.71,1.71,0,0,0,.27.14,1.31,1.31,0,0,0,.28.09l.3,0,.3,0a1.4,1.4,0,0,0,.29-.09l.26-.14a1.33,1.33,0,0,0,.43-.43,2.15,2.15,0,0,0,.14-.26,1.4,1.4,0,0,0,.09-.29,1.51,1.51,0,0,0,0-.6A1.61,1.61,0,0,0,123.94,45Z"/><path d="M37.87,205a1.31,1.31,0,0,0-.28.09,1.71,1.71,0,0,0-.27.14,2.11,2.11,0,0,0-.23.19,1.54,1.54,0,0,0-.45,1.09A1.55,1.55,0,0,0,38.17,208a1.55,1.55,0,0,0,1.09-.46,2.11,2.11,0,0,0,.19-.23,2.15,2.15,0,0,0,.14-.26,1.61,1.61,0,0,0,.09-.29,1.53,1.53,0,0,0,0-.3,1.58,1.58,0,0,0-.45-1.09A1.61,1.61,0,0,0,37.87,205Z"/><path d="M49.92,205a1.31,1.31,0,0,0-.28.09,1.71,1.71,0,0,0-.27.14,2.11,2.11,0,0,0-.23.19,1.55,1.55,0,0,0-.45,1.09,1.53,1.53,0,0,0,0,.3,1.61,1.61,0,0,0,.09.29.94.94,0,0,0,.14.26,1.37,1.37,0,0,0,.19.23,1.52,1.52,0,0,0,1.08.46,1.55,1.55,0,0,0,1.09-.46,2.11,2.11,0,0,0,.19-.23,2.15,2.15,0,0,0,.14-.26,1.61,1.61,0,0,0,.09-.29,1.53,1.53,0,0,0,0-.3,1.6,1.6,0,0,0-.45-1.09A1.58,1.58,0,0,0,49.92,205Z"/><path d="M63.12,205.19l-.26-.14a1.4,1.4,0,0,0-.29-.09,1.58,1.58,0,0,0-1.38.42,1.54,1.54,0,0,0-.42,1.39c0,.1,0,.19.08.29a1.35,1.35,0,0,0,.15.26,1.37,1.37,0,0,0,.19.23,1.52,1.52,0,0,0,1.08.46,1.56,1.56,0,0,0,1.09-.46,2.11,2.11,0,0,0,.19-.23,2.15,2.15,0,0,0,.14-.26,1.61,1.61,0,0,0,.09-.29,1.53,1.53,0,0,0,0-.3,1.58,1.58,0,0,0-.45-1.09A1.55,1.55,0,0,0,63.12,205.19Z"/><path d="M73.24,205.38a1.54,1.54,0,0,0-.42,1.39c0,.1.05.19.08.29a1.35,1.35,0,0,0,.15.26,1.37,1.37,0,0,0,.19.23,1.52,1.52,0,0,0,1.08.46,1.55,1.55,0,0,0,1.54-1.54,1.54,1.54,0,0,0-2.62-1.09Z"/><path d="M86.07,205a1.31,1.31,0,0,0-.28.09,1.71,1.71,0,0,0-.27.14,2.11,2.11,0,0,0-.23.19,1.54,1.54,0,0,0-.42,1.39c0,.1,0,.19.08.29a1.35,1.35,0,0,0,.15.26,1.37,1.37,0,0,0,.19.23,1.52,1.52,0,0,0,1.08.46,1.55,1.55,0,0,0,1.09-.46,2.11,2.11,0,0,0,.19-.23,2.15,2.15,0,0,0,.14-.26,1.61,1.61,0,0,0,.09-.29,1.53,1.53,0,0,0,0-.3,1.58,1.58,0,0,0-.45-1.09A1.61,1.61,0,0,0,86.07,205Z"/><path d="M98.12,205a1.61,1.61,0,0,0-.29.09l-.26.14a1.45,1.45,0,0,0-.23.19,1.55,1.55,0,0,0-.45,1.09,1.53,1.53,0,0,0,0,.3c0,.1,0,.19.08.29a1.35,1.35,0,0,0,.15.26,1.37,1.37,0,0,0,.19.23,1.52,1.52,0,0,0,1.08.46,1.55,1.55,0,0,0,1.54-1.54A1.54,1.54,0,0,0,98.12,205Z"/><path d="M110.17,205a1.61,1.61,0,0,0-.29.09l-.26.14a2.11,2.11,0,0,0-.23.19,1.54,1.54,0,0,0-.42,1.39c0,.1,0,.19.08.29a2.15,2.15,0,0,0,.14.26,1.43,1.43,0,0,0,.2.23,1.52,1.52,0,0,0,1.08.46,1.56,1.56,0,0,0,1.09-.46,2.11,2.11,0,0,0,.19-.23,2.15,2.15,0,0,0,.14-.26,1.61,1.61,0,0,0,.09-.29,1.53,1.53,0,0,0,0-.3,1.58,1.58,0,0,0-.45-1.09A1.61,1.61,0,0,0,110.17,205Z"/><path d="M122.22,205a1.61,1.61,0,0,0-.29.09l-.26.14a1.45,1.45,0,0,0-.23.19,1.54,1.54,0,0,0-.42,1.39c0,.1,0,.19.08.29a1.35,1.35,0,0,0,.15.26,1.37,1.37,0,0,0,.19.23,1.52,1.52,0,0,0,1.08.46,1.56,1.56,0,0,0,1.09-.46,2.11,2.11,0,0,0,.19-.23,2.15,2.15,0,0,0,.14-.26,1.61,1.61,0,0,0,.09-.29,1.53,1.53,0,0,0,0-.3,1.58,1.58,0,0,0-.45-1.09A1.61,1.61,0,0,0,122.22,205Z"/></g></g></svg>