<?xml version="1.0" encoding="utf-8"?>
<!-- Generator: Adobe Illustrator 25.1.0, SVG Export Plug-In . SVG Version: 6.00 Build 0)  -->
<svg version="1.1" id="Capa_1" xmlns="http://www.w3.org/2000/svg" xmlns:xlink="http://www.w3.org/1999/xlink" x="0px" y="0px"
	 viewBox="0 0 512 832.8" style="enable-background:new 0 0 512 832.8;" xml:space="preserve">
<style type="text/css">
	.st0{fill:#E7D2CB;}
	.st1{fill:#C25100;}
	.st2{fill:#D8B6A9;}
	.st3{fill:#A04708;}
	.st4{fill:#7F4216;}
	.st5{fill:#F6F1EF;}
</style>
<g>
	<g>
		<path class="st0" d="M434.7,12.7H308V44h126.6c25.4,0,46,20.6,46,46v63.1c0,2.2-1.8,4-4.1,4H35.4c-2.2,0-4.1-1.8-4.1-4V90
			c0-25.4,20.7-46,46-46H204V12.7H77.3C34.7,12.7,0,47.4,0,90v63.1c0,19.5,15.9,35.4,35.4,35.4h441.2c19.5,0,35.4-15.9,35.4-35.4V90
			C512,47.4,477.3,12.7,434.7,12.7L434.7,12.7z"/>
	</g>
	<g>
		<path class="st1" d="M193.6,12.7h124.7V44H193.6V12.7z"/>
	</g>
	<g>
		<path class="st2" d="M512,90v63.1c0,19.5-15.9,35.4-35.4,35.4h-31.3c19.5,0,35.4-15.9,35.4-35.4V90c0-0.4,0-0.8,0-1.2
			c-0.7-42.1-35.1-76.1-77.3-76.1h31.3C477.3,12.7,512,47.4,512,90z"/>
	</g>
	<path class="st1" d="M486.4,225.6l-13.7,574.2c-0.9,16.6-14.7,29.6-31.3,29.6H70.5c-16.6,0-30.3-13-31.3-29.6L25.6,225.6
		c-0.3-6,4.4-11,10.4-11h175l3.6,15.6c2.2,9.5,10.6,16.2,20.3,16.2h42.2c9.7,0,18.2-6.7,20.3-16.2l3.6-15.6h175
		C482,214.5,486.8,219.6,486.4,225.6L486.4,225.6z"/>
	<path class="st3" d="M486.4,225.6l-13.7,574.2c-0.9,16.6-14.7,29.6-31.3,29.6h-43.1c16.6,0,30.3-13,31.3-29.6l13.7-574.2
		c0.3-6-4.4-11-10.4-11H476C482,214.5,486.8,219.6,486.4,225.6L486.4,225.6z"/>
	<path class="st3" d="M307.7,240.4l6-25.9H198.3l6,25.9c2.2,9.5,10.6,16.2,20.3,16.2h62.8C297.1,256.6,305.6,249.9,307.7,240.4
		L307.7,240.4z"/>
	<path class="st4" d="M313.7,214.5l-6,25.9c-2.2,9.5-10.6,16.2-20.3,16.2h-36.3c9.7,0,18.2-6.7,20.3-16.2l6-25.9L313.7,214.5z"/>
	<path class="st5" d="M34.4,170.4l-6.9,33.7c-1.3,6.5,3.6,12.5,10.2,12.5h436.5c6.6,0,11.6-6.1,10.2-12.5l-6.9-33.7
		c-3-14.6-15.8-25-30.7-25H65.1C50.3,145.4,37.4,155.8,34.4,170.4L34.4,170.4z"/>
	<path class="st0" d="M474.3,216.6h-43.1c6.6,0,11.6-6.1,10.2-12.5l-6.9-33.7c-3-14.6-15.8-25-30.7-25h43.1
		c14.9,0,27.7,10.5,30.7,25l6.9,33.7C485.8,210.5,480.9,216.6,474.3,216.6L474.3,216.6z"/>
	<g>
		<path class="st3" d="M357.6,774.4H154.4c-5.8,0-10.4-4.7-10.4-10.4V369.5c0-5.8,4.7-10.4,10.4-10.4h203.1
			c5.8,0,10.4,4.7,10.4,10.4V764C368,769.7,363.3,774.4,357.6,774.4z"/>
		<path class="st4" d="M368,369.4v394.5c0,5.8-4.7,10.4-10.4,10.4h-36.3c5.8,0,10.4-4.7,10.4-10.4V369.4c0-5.8-4.7-10.4-10.4-10.4
			h36.3C363.3,359,368,363.7,368,369.4L368,369.4z"/>
	</g>
</g>
</svg>
