<svg xmlns="http://www.w3.org/2000/svg" viewBox="0 0 270.8 336.73"><defs><style>.cls-1{fill:none;}.cls-2{fill:#fff;}.cls-3{fill:#d03c3a;}</style></defs><g id="Layer_2" data-name="Layer 2"><g id="print"><path class="cls-1" d="M194.59,102.77a16.34,16.34,0,0,1-2.79-.24,16.25,16.25,0,0,1-2.79.24H172a25.66,25.66,0,0,1,16.16,22.66c0,.15,0,.29,0,.43a28.05,28.05,0,0,1,13.84,4.86,32.9,32.9,0,0,1,4.4-5.54,21.12,21.12,0,0,1,11.36-6,15.86,15.86,0,0,1-10.17-14.79v-1.62Z"/><path class="cls-2" d="M96.64,193.74a22,22,0,0,0,1.87,7.73c.74,1.54,1.58,2.93,3.58,3.05,2.22.12,4.06-.48,5.27-2.46a12.73,12.73,0,0,0,1.73-5.17,54.14,54.14,0,0,0-.39-14.44c-.5-3.45-1.11-6.91-3.24-9.87a4,4,0,0,0-3.35-1.82c-3,0-4.91,1.61-5.52,4.7a42.57,42.57,0,0,0-.44,8.13A85.92,85.92,0,0,0,96.64,193.74Z"/><path class="cls-2" d="M183.3,167.83a6.63,6.63,0,0,0,1.71,2.63,3,3,0,0,0,4.8-.67,5,5,0,0,0,.72-2.38,29.44,29.44,0,0,0-2.46-13.79,3.08,3.08,0,0,0-6,.49,12.39,12.39,0,0,0-.44,5.59A25,25,0,0,0,183.3,167.83Z"/><path class="cls-2" d="M241.15,187.12c2-.79,1.88-2.53,2-4.45-.18-3.62-1.56-7.12-3.19-10.55a10.4,10.4,0,0,0-2.49-3.51c-1.24-1.08-2.58-1.76-4.26-1.09a3.62,3.62,0,0,0-2.24,3.76,23.39,23.39,0,0,0,4.95,14.24A5,5,0,0,0,241.15,187.12Z"/><path class="cls-2" d="M147.76,194.94a4.32,4.32,0,0,0,4.27,1.71,4.37,4.37,0,0,0,3.64-3.27,12.87,12.87,0,0,0,.54-3.44c.11-5.67-1.06-11.16-2.33-16.63a24.73,24.73,0,0,0-2.63-7.36c-1-1.7-2.46-2.84-4.67-2.51s-3.32,1.81-3.9,3.82a20.84,20.84,0,0,0-.43,5.3,68.46,68.46,0,0,0,2.36,15.63A16.87,16.87,0,0,0,147.76,194.94Z"/><path class="cls-2" d="M261.31,27.32H243.23a9.77,9.77,0,0,0-2.79.42,9.7,9.7,0,0,0-2.78-.42H216.32a9.36,9.36,0,0,0-2.25.27,9.34,9.34,0,0,0-2.24-.27H194.1V10A9.51,9.51,0,0,0,184.6.53H167.26a9.51,9.51,0,0,0-9.5,9.49V21.37a9.44,9.44,0,0,0,2.63,6.57,97.28,97.28,0,0,0-17.18-1.35c-9.17,0-15.51,1.8-20,5.67l-.17.15c-3.38-3.78-8.52-5.82-14.91-5.82a38,38,0,0,0-12.11,2.3,9.56,9.56,0,0,0-5.23-1.57H76a9.51,9.51,0,0,0-9.5,9.5v4.61L56.79,6.92A9.52,9.52,0,0,0,47.65,0H33A9.52,9.52,0,0,0,23.9,6.93L7.27,66.26A9.51,9.51,0,0,0,0,75.49V87a9.51,9.51,0,0,0,9.5,9.49H34.3a9.47,9.47,0,0,0,4.1-.93,9.47,9.47,0,0,0,4.1.93H71.3a9.37,9.37,0,0,0,2.36-.3,9.37,9.37,0,0,0,2.36.3H96.2A9.48,9.48,0,0,0,99,96a9.37,9.37,0,0,0,2.78.42h20.08a9.64,9.64,0,0,0,2.62-.37,18.66,18.66,0,0,0-4.35,10.05,19.52,19.52,0,0,0-5.23-.71c-.53,0-1.08,0-1.62.07A19.13,19.13,0,0,0,96,123.76c-.07,2.16-.14,4.22-.2,6.2a19.46,19.46,0,0,0-4.76-.59A18.58,18.58,0,0,0,72.4,144.89a38.91,38.91,0,0,0-.54,7.24,27.59,27.59,0,0,1-.15,3.48,10.17,10.17,0,0,0-.1,1.33v.18c0,.26,0,.51,0,.78v.19a11.92,11.92,0,0,0,3.4,9c-.24.58-.47,1.18-.67,1.78a60.45,60.45,0,0,0-2.23,31.5,14.41,14.41,0,0,0-1.46-.43v-5.76c0-5.41,0-11.19-.42-17.14,0-.51-.08-1-.11-1.53-.14-1.85-.28-3.77-.55-5.8A15.5,15.5,0,0,0,54.4,156.6a15,15,0,0,0-1.77.1,36.58,36.58,0,0,0-7.5,1.76,91.74,91.74,0,0,0-8.84,3.79c-2.12,1-4.12,1.94-6.08,2.69A16.47,16.47,0,0,0,21,174.08a13.84,13.84,0,0,0,0,11.59,14.23,14.23,0,0,0,8.93,7.62,14.89,14.89,0,0,0,3.3.57c0,3.31.07,6.67,0,10,0,.38,0,.77,0,1.15v0l-.34,0a17.25,17.25,0,0,0-14.71,17.8,14.61,14.61,0,0,0,14.7,14.58,16.16,16.16,0,0,0,2.49-.19c12.56-2,22.17-3.51,31.16-5a19.64,19.64,0,0,0,2-.45c-.33,7.68-.68,15.56-1.06,23.37-.35,7.16-.38,14.17-.37,19.48,0,11.78,2.51,21.93,7.57,31a59.27,59.27,0,0,0,22.63,23,58.62,58.62,0,0,0,29.37,8h0a62.13,62.13,0,0,0,16.88-2.41,58.49,58.49,0,0,0,27.61-17.21,63.27,63.27,0,0,0,6.47-8.79l0-.07c.53-.82,1.07-1.66,1.6-2.44,5.62-8.35,11.66-17.33,19-28.26,6.05-9,11.52-17.2,16.71-25l3.08-4.56c2.78-4.11,5.66-8.37,8.33-12.79A19.39,19.39,0,0,0,221,209a20.57,20.57,0,0,0-7.38-3.38,19.21,19.21,0,0,0,4.19-8.72c.1-.48.2-.95.29-1.41,5.63,6.62,13.32,10.26,22.58,10.63h.43a29.36,29.36,0,0,0,6.21-.74,23.07,23.07,0,0,0,14.23-9.2,23.4,23.4,0,0,0,3.95-16.4,39,39,0,0,0-4.52-13.92c-5.5-10.13-13.42-15.87-23.52-17.05a27.08,27.08,0,0,0-3.12-.19,27.39,27.39,0,0,0-3.76.26c.7-2.36,1.4-4.82,2-7.31,1.5-6-.46-11.37-5.26-14.49a11.51,11.51,0,0,0-6.26-1.81A14.43,14.43,0,0,0,211,129.61a23.44,23.44,0,0,0-6,9.78l-.72,2.38a22,22,0,0,0-17.94-9.66h-.54a26.46,26.46,0,0,0-3.59.36c0-.51-.1-1.76-.1-1.76-.1-1.85-.19-3.45-.26-5a19.05,19.05,0,0,0-17.69-18.24c-.37,0-.74,0-1.12,0a20.35,20.35,0,0,0-5.07.63,20.38,20.38,0,0,0-1.31-6.44,19,19,0,0,0-3.18-5.35A27.78,27.78,0,0,0,160.91,94a9.5,9.5,0,0,0,6.35,2.43H189A9.39,9.39,0,0,0,191.8,96a9.43,9.43,0,0,0,2.79.42H213.4a5.43,5.43,0,0,0,.57,0v8a9.51,9.51,0,0,0,9.5,9.5h24.7a9.51,9.51,0,0,0,9.49-9.5V93.46a9.43,9.43,0,0,0-2.34-6.24l9.8-30.46a9.55,9.55,0,0,0,5.68-8.7V36.82A9.51,9.51,0,0,0,261.31,27.32ZM71.3,87H42.5V76h9.15L48.39,63.41H29.26C29.36,63.41,26,76,26,76h8.3V87H9.5V75.49h5L33,9.5H47.65l18.61,66h5Zm50.55,0H101.77V75.81h2.63V49.43c0-1.68-1-2.21-3.78-2.21a21.2,21.2,0,0,0-7.05,1.26V75.81H96.2V87H76V75.81h4V48.06H76V36.82H90.84l1.37,4.31c6.3-3.79,12.72-5.05,16-5.05,7,0,9.78,3.26,9.78,8.94V75.81h3.89ZM72.09,215.51A8.26,8.26,0,0,1,65,222.89q-15.55,2.52-31.12,5a5.17,5.17,0,0,1-6.22-5.27,7.88,7.88,0,0,1,6.66-8.14c2.79-.43,5.29-1.15,7.06-3.56,1.56-2.11,1.31-4.55,1.34-6.91.08-4.78,0-9.56-.07-14.34-.05-3.56-2.35-5.65-5.92-5.39a11.24,11.24,0,0,1-4.13,0A4.39,4.39,0,0,1,29.7,178a7.24,7.24,0,0,1,3.89-4.16c5-1.91,9.62-4.62,14.68-6.39a26.19,26.19,0,0,1,5.5-1.3,5.92,5.92,0,0,1,6.4,4.86c.3,2.26.43,4.54.61,6.81.42,5.43.43,10.87.38,16.31q0,4.94,0,9.85c0,3.66,1.58,5.39,5.19,5.08C71,208.66,72.51,212.44,72.09,215.51Zm32.74-70.6c.16-6.95.38-13.9.61-20.84a9.55,9.55,0,0,1,8.59-9.13,9.41,9.41,0,0,1,10.27,7.8c.59,3.31,0,6.67.28,10.37-.25,8.8-.3,18-.28,27.15a6.58,6.58,0,0,1-.11,1.33c-.34,1.48-1.24,1.85-2.39.88a33,33,0,0,1-2.86-2.81,22.45,22.45,0,0,0-8-5.35C106.41,152.4,104.72,149.88,104.83,144.91Zm-23.1,1.77c1.55-8.15,10.45-9.66,15.26-5.76,3.31,2.68,4.05,6.27,3.35,10.29-.25,1.43-1.36,1.62-2.56,1.92s-2.08.91-3.18,1.18A22.79,22.79,0,0,0,85,159.38c-.82.65-1.66,1.78-2.87,1.23s-1-1.87-1-3V157C81.61,153.56,81.08,150.07,81.73,146.68Zm1.61,25.25A19.93,19.93,0,0,1,106.91,159c5,1.28,8.62,4.44,11.33,8.74,4.31,6.82,5.4,14.48,5.78,21.86-.2,8.05-1.77,15.2-7.14,20.92-6,6.4-13.53,8.7-22,6.69-6-1.43-9.61-6-11.52-11.57A51.14,51.14,0,0,1,83.34,171.93Zm132.08,44.73a10.07,10.07,0,0,1,2.9,13.65c-3.51,5.8-7.43,11.35-11.19,17q-8.32,12.49-16.7,25-9.47,14.13-19,28.24c-2.33,3.46-4.39,7.1-7.23,10.19a50.09,50.09,0,0,1-62.15,9.78,49.73,49.73,0,0,1-19-19.4c-4.6-8.24-6.35-17.08-6.38-26.43,0-6.33,0-12.66.36-19,.61-12.33,1.11-24.66,1.65-37a33.71,33.71,0,0,1,.16-3.49c.24-1.68,1.3-2.06,2.55-.89,1,.94,1.81,2.11,2.8,3.08,6.18,6.09,13.69,7.13,21.82,5.56,9.25-1.79,15.79-7.18,19.88-15.51,1.1-2.24,3.43-2.34,4.95-.59,7.75,8.91,23.61,10.83,33.9,4.38a22.77,22.77,0,0,0,9.53-12.48c.25-.76.29-2,1.15-2,1.07.05.68,1.34.74,2.08.33,4.54.63,9.09.84,13.64.25,5.16.65,10.33.44,14.47,0,4,0,6.93,0,9.88a10.2,10.2,0,0,0,.08,1.66c.36,2.15,1.55,2.63,3.24,1.3a14.82,14.82,0,0,0,1.83-1.71c6.19-6.7,12.6-13.19,18.79-19.88A10.31,10.31,0,0,1,215.42,216.66Zm-86-89.28c0-6.29,0-12.58,0-18.86a9.27,9.27,0,0,1,8-9.46,9.52,9.52,0,0,1,10.4,6c.83,2.13.67,4.39.72,6.6.22,10.17.33,20.35.46,30.53,0,2.44,0,2.42-2.45,2.65a25.61,25.61,0,0,0-12,4.15l-.42.28c-1,.6-2.1,1.28-3.28.66s-1.32-2-1.33-3.22c0-6.45,0-12.91,0-19.36Zm3.54,31a17.74,17.74,0,0,1,22.19-6.11c4.33,2.07,7.11,5.83,9.23,10,3.3,6.54,4.84,13.59,5.63,20.82a31.46,31.46,0,0,1-1.4,14.31c-3.33,9.32-11.68,12.63-20,11.66-7-.81-11.63-5.11-15-11-3-5.23-4.12-11-4.8-16.89a28.14,28.14,0,0,1-.33-5.66C128.6,169.46,129.46,163.56,133,158.39Zm63.49,51.32a23.18,23.18,0,0,0-2.1,2c-2.48,2.67-5,5.36-7.53,8-.06-1.42-.14-2.88-.22-4.36-.06-1.11-.12-2.22-.17-3.34-.19-4.08-.47-8.48-.83-13.47a10.85,10.85,0,0,0-2.66-8,10.38,10.38,0,0,0-2.49-2,25,25,0,0,0,6.82,1,25.42,25.42,0,0,0,3.63-.26c-.37,1.78-.75,3.7-1.16,5.87A13.66,13.66,0,0,0,196.49,209.71Zm39.83-51.52c7.68.9,12.74,5.64,16.28,12.16A29.28,29.28,0,0,1,256,180.91,13.26,13.26,0,0,1,245.33,196a20.68,20.68,0,0,1-4.31.55c-8.81-.35-15.1-4.63-19.09-12.38A22.4,22.4,0,0,1,219.25,171C220.37,161.79,228.44,157.27,236.32,158.19Zm-31.1,12.9c.17-.64.77-2.48,1.07-3.46,2.6-8.5,5.26-17,7.82-25.51a14.25,14.25,0,0,1,3.66-5.88c1.29-1.32,3.32-1.92,4.37-1.24,1.57,1,1.61,2.66,1.22,4.19-.86,3.39-1.86,6.75-2.88,10.11-1.48,4.88-2.7,9.86-4.26,14.71-2.46,7.63-4.17,15.44-6.17,23.18-.66,2.53-1,5.12-1.57,7.68a9.22,9.22,0,0,1-3.16,5.53c-1.28,1-2.66,1.71-4.3,1a4.2,4.2,0,0,1-1.9-4.47c.7-3.72,1.44-7.43,2.32-11.1C201.75,184.47,204.54,173.73,205.22,171.09ZM186.11,141.6c5.3.12,8.87,2.77,11.32,7a28.3,28.3,0,0,1,3.18,21.24c-2.7,11.13-15.86,12.49-22.5,7-4.07-3.35-5.94-7.82-6.73-12.83-1-6.3,0-12.21,4.13-17.29A13.67,13.67,0,0,1,186.11,141.6ZM153.53,125c.57-5.09,4.89-8.31,10.16-8a9.51,9.51,0,0,1,8.69,9.17c.11,2.44.26,4.88.44,8.3.47,3-1,6.56-2.8,10-.78,1.53-1.61,3-2.52,4.51-1.2,1.93-2.95,2.63-4.66,1.51-2.34-1.54-4.79-3-6.61-5.25-2-2.48-2.46-5.24-2.53-8.25C153.6,133,153.09,129,153.53,125ZM144,87.47A88.51,88.51,0,0,1,126.4,86V71.71h12.92v7.46a43.76,43.76,0,0,0,4.63.21c4.94,0,6.2-.63,6.2-5,0-3.89-1.26-4.63-10.3-7.57-11.25-3.57-14-6.41-14-16,0-10.51,3.78-14.72,17.34-14.72,9.57,0,15.14,1.06,17.77,1.69V51.64H148.57v-7c-.52-.11-3.25-.21-4.94-.21-4,0-5.15,1.36-5.15,4.62,0,3.68.84,4.73,9.25,7.15,12.72,3.67,14.93,7,14.93,16C162.66,83.37,159.09,87.47,144,87.47ZM213.4,87H194.59V76.65l-6-11-4,4.21v6.51H189V87H167.26V75.81h4V21.37h-4V10H184.6V59.41l11.67-12.82h-4.73V36.82h20.29V48.06h-6.31l-7.46,8L209.2,75.81h4.2Zm1.4-20.54-5-8.85h2a10.32,10.32,0,0,0,1.24-.08l3.32,9.31A10.24,10.24,0,0,0,214.8,66.41Zm46.51-18.35h-3.37l-14.61,45.4h4.84v10.93h-24.7V93.46h7.77s1.58-4.62,2.21-7.14L219.79,48.06h-3.47V36.82h21.34V47.43h-4.42l4.42,15A97.56,97.56,0,0,1,240.5,74c.62-3.57,1.47-7,2.62-11.56l4.1-15h-4V36.82h18.08Z"/><path class="cls-2" d="M38.82,25.58c-.63,3.57-2.1,9.24-3.57,15l-3.36,13H45.76c.11,0-3.36-13-3.36-13C40.82,34.82,39.45,29.36,38.82,25.58Z"/><path class="cls-2" d="M130.53,266.28c-1.37-4-1.12-3.71-5-2.95-.33.07-.66.12-1,.16a2.06,2.06,0,0,0-2,2.16,76.66,76.66,0,0,1-1.46,9.88q-.87,4.08-1.62,8.18c-.33,1.76.48,2.56,2.19,2.3,2.77-.41,3-.68,3.49-3.53.17-1.08.38-2.07,1.52-2.59,3-1.34,4.41-.82,5.73,2.13.43,1,1,1.77,2,1.76l1.34-.17c3.05-.27,3.24-.68,1.79-3.29C134.92,275.75,132.23,271.27,130.53,266.28Zm-2.89,9.56c-.82.18-1.64.14-1.57-1a30.86,30.86,0,0,1,.47-5.12.44.44,0,0,1,.84-.06c.64,1.54,1.31,3.08,1.84,4.66C129.67,275.59,128.47,275.65,127.64,275.84Z"/><path class="cls-2" d="M122.07,251.28c.55,1.35,1.27,2.22,2.66,1.9,3.52-.07,3.9-.69,2.38-3.58-2.27-4.32-4.84-8.5-6.52-13.12-1.88-5.16-1.08-4.33-6.33-3.5a2.07,2.07,0,0,0-2,2.19,63.77,63.77,0,0,1-1.14,8.24c-.61,3.21-1.24,6.43-1.78,9.66-.17,1-.36,2.23,1.19,2.46,2.47.37,3.92-.73,4.28-3.2s.88-3.05,3.82-3.45C120.68,248.59,121.06,248.8,122.07,251.28Zm-4.56-6c-.89.11-1.76,0-1.69-1.2.09-1.7.22-3.39.35-5.08a.38.38,0,0,1,.7-.19A19.4,19.4,0,0,1,119,244C119.34,245,118.26,245.19,117.51,245.29Z"/><path class="cls-2" d="M154.19,247c.13,1.56.91,2.18,2.44,1.85,2.12-.45,4.28-.77,6.34-1.4,4.06-1.25,7.57-4.24,7.29-9.51,0-5.94-3.29-10.41-8.47-11.42-3.16-.61-6.18.44-9.23.93-1,.17-1.31,1.1-1.11,2.11A165.54,165.54,0,0,1,154.19,247Zm5.28-15.49a4.25,4.25,0,0,1,3.93,2.63,13.26,13.26,0,0,1,.89,4.07,4.86,4.86,0,0,1-3.45,4.92c-.92.29-1.42,0-1.56-.88-.48-3-.94-6-1.4-9.06C157.69,231.91,158.25,231.43,159.47,231.47Z"/><path class="cls-2" d="M175,273.32c-1.49,0-3,.08-4.49.21-1.24.11-2.09-.23-2.29-1.55s.28-2.29,1.76-2.46c.83-.1,1.66-.24,2.49-.3,1-.07,1.81-.37,1.7-1.55s-.29-2.44-2-2.32c-1.05.08-2.1.26-3.14.35a1.64,1.64,0,0,1-2-1.5c-.15-1.15.56-1.72,1.62-1.94s2.39-.5,3.59-.71c1.53-.26,2.24-1.12,2.06-2.53,0-2.53-.43-2.87-2.79-2.47a74.73,74.73,0,0,1-8.22,1.31c-2.39.14-2.93.83-2.45,3.47a165.82,165.82,0,0,1,2.54,16.45c.13,1.55.74,2,2.38,1.7a88.21,88.21,0,0,1,10.36-1.62,1.39,1.39,0,0,0,1.36-1A2.73,2.73,0,0,0,175,273.32Z"/><path class="cls-2" d="M93.61,255.29c-.2-1.49-.36-3-.51-4.47a2.09,2.09,0,0,1,2-2.55c.5-.08,1-.12,1.5-.18,1.83-.2,2.34.15,2.75,2,.26,1.14.46,2.29.69,3.43.6,3,1,3.2,4.06,2.8,1.55-.21,2.08-.77,1.79-2.41-1-5.51-2.14-11-2.78-16.59-.12-1.09-.21-2.22-1.65-2.25-2.29,0-3.85,1-3.83,2.57,0,1.22.22,2.43.34,3.65.18,2.07-.15,2.5-2.22,2.88-.39.07-.78.09-1.16.14-1.64.24-2.48-.42-2.71-2.1-.33-2.42-.78-4.83-1.25-7.22-.61-3.15-1.38-3.58-4.48-2.71a1.71,1.71,0,0,0-1.38,2.24c1.31,7.49,3.16,14.89,3.48,22.53a1.31,1.31,0,0,0,.69,1.25,4.31,4.31,0,0,0,3.69-.41A2.28,2.28,0,0,0,93.61,255.29Z"/><path class="cls-2" d="M146.14,260.37c-1.35.16-3.61.39-5.86.72a1.65,1.65,0,0,0-1.53,2.14c.2,1,.4,2.07.58,3.11.84,4.75,1.72,9.49,2.19,14.3.21,2.21.53,2.35,2.65,2,.93-.17,1.88-.24,2.8-.43,8-1.71,11.18-5.12,10.53-11.8C157,265.17,153.56,260,146.14,260.37Zm2.14,16.54c-1,.31-1.59.17-1.75-1-.41-2.9-.91-5.79-1.32-8.7-.25-1.79.2-2.15,2-1.88a4.49,4.49,0,0,1,3.66,3,13.82,13.82,0,0,1,.72,3.5C151.6,274.41,150.3,276.28,148.28,276.91Z"/><path class="cls-2" d="M113.42,267c0-1.21-.7-2.14-3.93-1.63a3,3,0,0,0-2.33,2.21c-.67,3.13-1.55,6.21-2,9.4-.07.58,0,1.45-.59,1.6s-.84-.75-1.12-1.24c-1.54-2.71-2.48-4.41-4-7.13-.65-1.18-2.15-2.65-3.49-2.33a18.36,18.36,0,0,1-2,.21c-1.27.15-1.89.78-1.61,2.14.47,2.29.86,4.59,1.33,6.88a91.4,91.4,0,0,1,1.51,10c.11,1.21-.1,2.42,1.63,2.49,2.09.09,3.54-.89,3.44-2.5-.19-3.1-.26-6.22-1.28-9.21-.53-1.56-.26-1.69-.26-1.69s.29-.38.85.63c1.36,2.42,2.66,4.87,4,7.3.42.75.69,1.85,1.82,1.66s1-1.32,1.24-2.14a4,4,0,0,0,.08-.5c.47-2,1.5-5.49,2.07-7.35a.25.25,0,0,1,.48.05,57,57,0,0,0,1.21,8.88c.57,2.06,1.66,2.7,4.23,2.13,1.91-.42,1.39-1.83,1.17-3.07C115,278.17,113.49,272.67,113.42,267Z"/><path class="cls-2" d="M131.31,250.56a1.48,1.48,0,0,0,1,1.56,3,3,0,0,0,4.16-3.1,50.46,50.46,0,0,0-1.56-9.69c-.11-.43-.49-.89-.1-1.38.55.12.63.62.86,1,2.23,3.4,4.43,6.8,6.67,10.19.88,1.33,4.91,1.64,6,.49a1.54,1.54,0,0,0,.39-1.38c-1-6.08-2.38-12.1-2.86-18.26a1.43,1.43,0,0,0-1-1.4,3.1,3.1,0,0,0-4.12,3.28,48.8,48.8,0,0,0,1.66,9.67c.11.34.36.72,0,1.07-.42,0-.58-.3-.75-.56-2-3-4.06-5.87-5.79-9-1.07-1.92-2.26-2.72-4.48-2.49-2.84.3-3.17.57-2.64,3.38C129.78,239.45,131.1,244.92,131.31,250.56Z"/><path class="cls-3" d="M219.25,171a22.4,22.4,0,0,0,2.68,13.18c4,7.75,10.28,12,19.09,12.38a20.68,20.68,0,0,0,4.31-.55A13.26,13.26,0,0,0,256,180.91a29.28,29.28,0,0,0-3.43-10.56c-3.54-6.52-8.6-11.26-16.28-12.16C228.44,157.27,220.37,161.79,219.25,171Zm13.92-3.5c1.68-.67,3,0,4.26,1.09a10.4,10.4,0,0,1,2.49,3.51c1.63,3.43,3,6.93,3.19,10.55-.08,1.92,0,3.66-2,4.45a5,5,0,0,1-5.27-1.6,23.39,23.39,0,0,1-4.95-14.24A3.62,3.62,0,0,1,233.17,167.52Z"/><path class="cls-3" d="M127.38,269.61a.44.44,0,0,0-.84.06,30.86,30.86,0,0,0-.47,5.12c-.07,1.19.75,1.23,1.57,1s2-.25,1.58-1.57C128.69,272.69,128,271.15,127.38,269.61Z"/><path class="cls-3" d="M147.24,265.33c-1.83-.27-2.28.09-2,1.88.41,2.91.91,5.8,1.32,8.7.16,1.17.77,1.31,1.75,1,2-.63,3.32-2.5,3.34-5.08a13.82,13.82,0,0,0-.72-3.5A4.49,4.49,0,0,0,147.24,265.33Z"/><path class="cls-3" d="M129.52,146.74c0,1.24.08,2.57,1.33,3.22s2.26-.06,3.28-.66l.42-.28a25.61,25.61,0,0,1,12-4.15c2.43-.23,2.48-.21,2.45-2.65-.13-10.18-.24-20.36-.46-30.53-.05-2.21.11-4.47-.72-6.6a9.52,9.52,0,0,0-10.4-6,9.27,9.27,0,0,0-8,9.46c0,6.28,0,12.57,0,18.86h0C129.51,133.83,129.5,140.29,129.52,146.74Z"/><path class="cls-3" d="M116.87,238.82a.38.38,0,0,0-.7.19c-.13,1.69-.26,3.38-.35,5.08-.07,1.21.8,1.31,1.69,1.2S119.34,245,119,244A19.4,19.4,0,0,0,116.87,238.82Z"/><path class="cls-3" d="M94.86,217.21c8.49,2,16-.29,22-6.69,5.37-5.72,6.94-12.87,7.14-20.92-.38-7.38-1.47-15-5.78-21.86-2.71-4.3-6.32-7.46-11.33-8.74a19.93,19.93,0,0,0-23.57,12.93,51.14,51.14,0,0,0,0,33.71C85.25,211.25,88.84,215.78,94.86,217.21Zm1.73-41.75c.61-3.09,2.57-4.74,5.52-4.7a4,4,0,0,1,3.35,1.82c2.13,3,2.74,6.42,3.24,9.87a54.14,54.14,0,0,1,.39,14.44,12.73,12.73,0,0,1-1.73,5.17c-1.21,2-3,2.58-5.27,2.46-2-.12-2.84-1.51-3.58-3.05a22,22,0,0,1-1.87-7.73,85.92,85.92,0,0,1-.49-10.15A42.57,42.57,0,0,1,96.59,175.46Z"/><path class="cls-3" d="M82.12,160.61c1.21.55,2-.58,2.87-1.23a22.79,22.79,0,0,1,9.61-5.07c1.1-.27,2.07-.9,3.18-1.18s2.31-.49,2.56-1.92c.7-4,0-7.61-3.35-10.29-4.81-3.9-13.71-2.39-15.26,5.76-.65,3.39-.12,6.88-.62,10.29v.67C81.14,158.74,80.92,160.06,82.12,160.61Z"/><path class="cls-3" d="M128.82,181.2c.68,5.89,1.8,11.66,4.8,16.89,3.37,5.88,8,10.18,15,11,8.35,1,16.7-2.34,20-11.66a31.46,31.46,0,0,0,1.4-14.31c-.79-7.23-2.33-14.28-5.63-20.82-2.12-4.18-4.9-7.94-9.23-10A17.74,17.74,0,0,0,133,158.39c-3.54,5.17-4.4,11.07-4.51,17.15A28.14,28.14,0,0,0,128.82,181.2Zm13.86-13.94c.58-2,1.64-3.49,3.9-3.82s3.63.81,4.67,2.51a24.73,24.73,0,0,1,2.63,7.36c1.27,5.47,2.44,11,2.33,16.63a12.87,12.87,0,0,1-.54,3.44,4.37,4.37,0,0,1-3.64,3.27,4.32,4.32,0,0,1-4.27-1.71,16.87,16.87,0,0,1-3.15-6.75,68.46,68.46,0,0,1-2.36-15.63A20.84,20.84,0,0,1,142.68,167.26Z"/><path class="cls-3" d="M159.28,242.21c.14.91.64,1.17,1.56.88a4.86,4.86,0,0,0,3.45-4.92,13.26,13.26,0,0,0-.89-4.07,4.25,4.25,0,0,0-3.93-2.63c-1.22,0-1.78.44-1.59,1.68C158.34,236.17,158.8,239.19,159.28,242.21Z"/><path class="cls-3" d="M111,154.31a22.45,22.45,0,0,1,8,5.35,33,33,0,0,0,2.86,2.81c1.15,1,2,.6,2.39-.88a6.58,6.58,0,0,0,.11-1.33c0-9.17,0-18.35.28-27.15-.24-3.7.31-7.06-.28-10.37a9.41,9.41,0,0,0-10.27-7.8,9.55,9.55,0,0,0-8.59,9.13c-.23,6.94-.45,13.89-.61,20.84C104.72,149.88,106.41,152.4,111,154.31Z"/><path class="cls-3" d="M171.38,164.07c.79,5,2.66,9.48,6.73,12.83,6.64,5.47,19.8,4.11,22.5-7a28.3,28.3,0,0,0-3.18-21.24c-2.45-4.27-6-6.92-11.32-7a13.67,13.67,0,0,0-10.6,5.18C171.41,151.86,170.38,157.77,171.38,164.07Zm10.72-10a3.08,3.08,0,0,1,6-.49,29.44,29.44,0,0,1,2.46,13.79,5,5,0,0,1-.72,2.38,3,3,0,0,1-4.8.67,6.63,6.63,0,0,1-1.71-2.63,25,25,0,0,1-1.64-8.13A12.39,12.39,0,0,1,182.1,154.11Z"/><path class="cls-3" d="M201,201.36c1.64.75,3,.07,4.3-1a9.22,9.22,0,0,0,3.16-5.53c.55-2.56.91-5.15,1.57-7.68,2-7.74,3.71-15.55,6.17-23.18,1.56-4.85,2.78-9.83,4.26-14.71,1-3.36,2-6.72,2.88-10.11.39-1.53.35-3.17-1.22-4.19-1-.68-3.08-.08-4.37,1.24a14.25,14.25,0,0,0-3.66,5.88c-2.56,8.52-5.22,17-7.82,25.51-.3,1-.9,2.82-1.07,3.46-.68,2.64-3.47,13.38-3.78,14.7-.88,3.67-1.62,7.38-2.32,11.1A4.2,4.2,0,0,0,201,201.36Z"/><path class="cls-3" d="M66.36,209c-3.61.31-5.19-1.42-5.19-5.08q0-4.92,0-9.85c.05-5.44,0-10.88-.38-16.31-.18-2.27-.31-4.55-.61-6.81a5.92,5.92,0,0,0-6.4-4.86,26.19,26.19,0,0,0-5.5,1.3c-5.06,1.77-9.69,4.48-14.68,6.39A7.24,7.24,0,0,0,29.7,178a4.39,4.39,0,0,0,2.92,6.2,11.24,11.24,0,0,0,4.13,0c3.57-.26,5.87,1.83,5.92,5.39.06,4.78.15,9.56.07,14.34,0,2.36.22,4.8-1.34,6.91-1.77,2.41-4.27,3.13-7.06,3.56a7.88,7.88,0,0,0-6.66,8.14,5.17,5.17,0,0,0,6.22,5.27q15.57-2.44,31.12-5a8.26,8.26,0,0,0,7.07-7.38C72.51,212.44,71,208.66,66.36,209Z"/><path class="cls-3" d="M201.36,218.16c-6.19,6.69-12.6,13.18-18.79,19.88a14.82,14.82,0,0,1-1.83,1.71c-1.69,1.33-2.88.85-3.24-1.3a10.2,10.2,0,0,1-.08-1.66c0-2.95,0-5.9,0-9.88.21-4.14-.19-9.31-.44-14.47-.21-4.55-.51-9.1-.84-13.64-.06-.74.33-2-.74-2.08-.86,0-.9,1.25-1.15,2a22.77,22.77,0,0,1-9.53,12.48c-10.29,6.45-26.15,4.53-33.9-4.38-1.52-1.75-3.85-1.65-4.95.59-4.09,8.33-10.63,13.72-19.88,15.51-8.13,1.57-15.64.53-21.82-5.56-1-1-1.79-2.14-2.8-3.08-1.25-1.17-2.31-.79-2.55.89a33.71,33.71,0,0,0-.16,3.49c-.54,12.33-1,24.66-1.65,37-.31,6.32-.37,12.65-.36,19,0,9.35,1.78,18.19,6.38,26.43a49.73,49.73,0,0,0,19,19.4,50.09,50.09,0,0,0,62.15-9.78c2.84-3.09,4.9-6.73,7.23-10.19q9.51-14.1,19-28.24,8.37-12.47,16.7-25c3.76-5.64,7.68-11.19,11.19-17a10.07,10.07,0,0,0-2.9-13.65A10.31,10.31,0,0,0,201.36,218.16Zm-48.8,9.25c3.05-.49,6.07-1.54,9.23-.93,5.18,1,8.47,5.48,8.47,11.42.28,5.27-3.23,8.26-7.29,9.51-2.06.63-4.22,1-6.34,1.4-1.53.33-2.31-.29-2.44-1.85a165.54,165.54,0,0,0-2.74-17.44C151.25,228.51,151.53,227.58,152.56,227.41Zm-21.18,3.15c2.22-.23,3.41.57,4.48,2.49,1.73,3.1,3.83,6,5.79,9,.17.26.33.59.75.56.37-.35.12-.73,0-1.07a48.8,48.8,0,0,1-1.66-9.67,3.1,3.1,0,0,1,4.12-3.28,1.43,1.43,0,0,1,1,1.4c.48,6.16,1.89,12.18,2.86,18.26a1.54,1.54,0,0,1-.39,1.38c-1.09,1.15-5.12.84-6-.49-2.24-3.39-4.44-6.79-6.67-10.19-.23-.35-.31-.85-.86-1-.39.49,0,1,.1,1.38a50.46,50.46,0,0,1,1.56,9.69,3,3,0,0,1-4.16,3.1,1.48,1.48,0,0,1-1-1.56c-.21-5.64-1.53-11.11-2.57-16.62C128.21,231.13,128.54,230.86,131.38,230.56ZM88.92,258.31a1.31,1.31,0,0,1-.69-1.25c-.32-7.64-2.17-15-3.48-22.53a1.71,1.71,0,0,1,1.38-2.24c3.1-.87,3.87-.44,4.48,2.71.47,2.39.92,4.8,1.25,7.22.23,1.68,1.07,2.34,2.71,2.1.38,0,.77-.07,1.16-.14,2.07-.38,2.4-.81,2.22-2.88-.12-1.22-.33-2.43-.34-3.65,0-1.57,1.54-2.61,3.83-2.57,1.44,0,1.53,1.16,1.65,2.25.64,5.58,1.77,11.08,2.78,16.59.29,1.64-.24,2.2-1.79,2.41-3.08.4-3.46.19-4.06-2.8-.23-1.14-.43-2.29-.69-3.43-.41-1.86-.92-2.21-2.75-2-.5.06-1,.1-1.5.18a2.09,2.09,0,0,0-2,2.55c.15,1.49.31,3,.51,4.47a2.28,2.28,0,0,1-1,2.61A4.31,4.31,0,0,1,88.92,258.31Zm25.85,28.5c-2.57.57-3.66-.07-4.23-2.13a57,57,0,0,1-1.21-8.88.25.25,0,0,0-.48-.05c-.57,1.86-1.6,5.31-2.07,7.35a4,4,0,0,1-.08.5c-.25.82-.14,2-1.24,2.14s-1.4-.91-1.82-1.66c-1.35-2.43-2.65-4.88-4-7.3-.56-1-.85-.63-.85-.63s-.27.13.26,1.69c1,3,1.09,6.11,1.28,9.21.1,1.61-1.35,2.59-3.44,2.5-1.73-.07-1.52-1.28-1.63-2.49a91.4,91.4,0,0,0-1.51-10c-.47-2.29-.86-4.59-1.33-6.88-.28-1.36.34-2,1.61-2.14a18.36,18.36,0,0,0,2-.21c1.34-.32,2.84,1.15,3.49,2.33,1.5,2.72,2.44,4.42,4,7.13.28.49.4,1.4,1.12,1.24s.52-1,.59-1.6c.42-3.19,1.3-6.27,2-9.4a3,3,0,0,1,2.33-2.21c3.23-.51,3.92.42,3.93,1.63.07,5.72,1.55,11.22,2.52,16.79C116.16,285,116.68,286.39,114.77,286.81Zm0-34.48c-.36,2.47-1.81,3.57-4.28,3.2-1.55-.23-1.36-1.44-1.19-2.46.54-3.23,1.17-6.45,1.78-9.66a63.77,63.77,0,0,0,1.14-8.24,2.07,2.07,0,0,1,2-2.19c5.25-.83,4.45-1.66,6.33,3.5,1.68,4.62,4.25,8.8,6.52,13.12,1.52,2.89,1.14,3.51-2.38,3.58-1.39.32-2.11-.55-2.66-1.9-1-2.48-1.39-2.69-3.46-2.4C115.67,249.28,115.16,249.74,114.79,252.33Zm20.87,31.28-1.34.17c-1,0-1.56-.79-2-1.76-1.32-2.95-2.77-3.47-5.73-2.13-1.14.52-1.35,1.51-1.52,2.59-.44,2.85-.72,3.12-3.49,3.53-1.71.26-2.52-.54-2.19-2.3q.75-4.09,1.62-8.18a76.66,76.66,0,0,0,1.46-9.88,2.06,2.06,0,0,1,2-2.16c.33,0,.66-.09,1-.16,3.9-.76,3.65-1.07,5,2.95,1.7,5,4.39,9.47,6.92,14C138.9,282.93,138.71,283.34,135.66,283.61ZM147,282.18c-.92.19-1.87.26-2.8.43-2.12.38-2.44.24-2.65-2-.47-4.81-1.35-9.55-2.19-14.3-.18-1-.38-2.07-.58-3.11a1.65,1.65,0,0,1,1.53-2.14c2.25-.33,4.51-.56,5.86-.72,7.42-.42,10.85,4.8,11.36,10C158.15,277.06,155,280.47,147,282.18Zm30.51-5.34a1.39,1.39,0,0,1-1.36,1,88.21,88.21,0,0,0-10.36,1.62c-1.64.28-2.25-.15-2.38-1.7a165.82,165.82,0,0,0-2.54-16.45c-.48-2.64.06-3.33,2.45-3.47a74.73,74.73,0,0,0,8.22-1.31c2.36-.4,2.77-.06,2.79,2.47.18,1.41-.53,2.27-2.06,2.53-1.2.21-2.39.47-3.59.71s-1.77.79-1.62,1.94a1.64,1.64,0,0,0,2,1.5c1-.09,2.09-.27,3.14-.35,1.67-.12,1.84,1.15,2,2.32s-.7,1.48-1.7,1.55c-.83.06-1.66.2-2.49.3-1.48.17-2,1.08-1.76,2.46s1.05,1.66,2.29,1.55c1.49-.13,3-.23,4.49-.21A2.73,2.73,0,0,1,177.48,276.84Z"/><path class="cls-3" d="M153.7,137c.07,3,.56,5.77,2.53,8.25,1.82,2.29,4.27,3.71,6.61,5.25,1.71,1.12,3.46.42,4.66-1.51.91-1.46,1.74-3,2.52-4.51,1.75-3.45,3.27-7,2.8-10-.18-3.42-.33-5.86-.44-8.3a9.51,9.51,0,0,0-8.69-9.17c-5.27-.27-9.59,3-10.16,8C153.09,129,153.6,133,153.7,137Z"/><path class="cls-3" d="M47.65,9.5H33l-18.5,66h-5V87H34.3V76H26s3.36-12.61,3.26-12.61H48.39L51.65,76H42.5V87H71.3V75.49h-5ZM45.76,53.63H31.89l3.36-13c1.47-5.78,2.94-11.45,3.57-15,.63,3.78,2,9.24,3.58,15C42.4,40.6,45.87,53.63,45.76,53.63Z"/><path class="cls-3" d="M118,45c0-5.68-2.73-8.94-9.78-8.94-3.25,0-9.67,1.26-16,5.05l-1.37-4.31H76V48.06h4V75.81H76V87H96.2V75.81H93.57V48.48a21.2,21.2,0,0,1,7.05-1.26c2.83,0,3.78.53,3.78,2.21V75.81h-2.63V87h20.08V75.81H118Z"/><path class="cls-3" d="M147.73,56.16c-8.41-2.42-9.25-3.47-9.25-7.15,0-3.26,1.16-4.62,5.15-4.62,1.69,0,4.42.1,4.94.21v7H161V37.77c-2.63-.63-8.2-1.69-17.77-1.69-13.56,0-17.34,4.21-17.34,14.72,0,9.56,2.73,12.4,14,16,9,2.94,10.3,3.68,10.3,7.57,0,4.41-1.26,5-6.2,5a43.76,43.76,0,0,1-4.63-.21V71.71H126.4V86A88.51,88.51,0,0,0,144,87.47c15.14,0,18.71-4.1,18.71-15.34C162.66,63.2,160.45,59.83,147.73,56.16Z"/><polygon class="cls-3" points="198.06 56.05 205.52 48.06 211.82 48.06 211.82 36.82 191.54 36.82 191.54 46.59 196.27 46.59 184.6 59.41 184.6 10.02 167.26 10.02 167.26 21.37 171.25 21.37 171.25 75.81 167.26 75.81 167.26 86.95 189.01 86.95 189.01 76.33 184.6 76.33 184.6 69.82 188.59 65.61 194.59 76.65 194.59 86.95 213.4 86.95 213.4 75.81 209.2 75.81 198.06 56.05"/><path class="cls-3" d="M243.23,47.43h4l-4.1,15c-1.15,4.52-2,8-2.62,11.56a97.56,97.56,0,0,0-2.84-11.56l-4.42-15h4.42V36.82H216.32V48.06h3.47l13.66,38.26c-.63,2.52-2.21,7.14-2.21,7.14h-7.77v10.93h24.7V93.46h-4.84l14.61-45.4h3.37V36.82H243.23Z"/></g></g></svg>