<svg xmlns="http://www.w3.org/2000/svg" viewBox="0 0 283.46 143.39"><defs><style>.cls-1{fill:#fff;}.cls-2{fill:#231f20;}.cls-3{fill:#efe2dd;}.cls-4{fill:#e2d4cf;}.cls-5{fill:#cdc0bb;}.cls-6{fill:#f7a621;}.cls-7{fill:#f4991c;}.cls-8{fill:#fef5f5;}.cls-9{fill:#010101;}.cls-10{fill:#a2d9f0;}.cls-11{fill:#77cbec;}.cls-12{fill:#f2faff;}.cls-13{fill:#ee7382;}.cls-14{fill:#ea556a;}.cls-15{fill:#e63a51;}</style></defs><g id="Layer_2" data-name="Layer 2"><g id="print"><path class="cls-1" d="M227.14,109.6a1.77,1.77,0,0,0-1.3.54,1.79,1.79,0,0,0-.55,1.3v7.35h1.85a1.79,1.79,0,0,0,1.31-.54A1.76,1.76,0,0,0,229,117v-5.52a1.86,1.86,0,0,0-1.85-1.84Z"/><path class="cls-1" d="M158.93,89.35a1.84,1.84,0,0,0,1.85-1.83V85.68h-1.85a1.78,1.78,0,0,0-1.3.54,1.76,1.76,0,0,0-.54,1.29h0a1.84,1.84,0,0,0,1.84,1.83Z"/><path class="cls-1" d="M241.26,109.6a1.84,1.84,0,0,0-1.84,1.84v1.83h3.69v-1.83a1.86,1.86,0,0,0-1.85-1.84Z"/><path class="cls-1" d="M207.43,89.35a1.79,1.79,0,0,0,1.31-.54,1.76,1.76,0,0,0,.54-1.29V82a1.85,1.85,0,0,0-3.69,0v5.52a1.83,1.83,0,0,0,1.84,1.83Z"/><path class="cls-1" d="M160.17,105.92h-1.85v12.87h1.85A1.84,1.84,0,0,0,162,117v-9.21a1.73,1.73,0,0,0-.55-1.29A1.76,1.76,0,0,0,160.17,105.92Z"/><path class="cls-1" d="M268.14,59.34H123.85a6.82,6.82,0,0,0-5-5.09,9.75,9.75,0,0,1-7.08-7.16,6.81,6.81,0,0,0-6.65-5.26H80.2l-4-10.55-4.9-13.06a6.25,6.25,0,0,0-3.06-3.37,6.16,6.16,0,0,0,.09-4.55L67,6.77A10.49,10.49,0,0,0,57.26,0H28.82A10.49,10.49,0,0,0,19,6.77L1.46,53.6a22.73,22.73,0,0,0,11,28.28L32.64,92.15a.69.69,0,0,1,.4.65v24.41l-6.52,2a8.54,8.54,0,0,0-6,8.19v1.52a8.59,8.59,0,0,0,8.58,8.58h4.77A6.17,6.17,0,0,0,37.94,136,6.19,6.19,0,0,0,42,137.52H57a8.61,8.61,0,0,0,3.86-.92,51.26,51.26,0,0,0,15.2,6l2.89.63a5,5,0,0,0,2.17,0l2.9-.63a51.1,51.1,0,0,0,19.34-8.81H268.14a15.32,15.32,0,0,0,15.32-15.32V74.66A15.32,15.32,0,0,0,268.14,59.34ZM120.35,72.14a1.36,1.36,0,0,1-.4,1l0,0-.11.09a1.35,1.35,0,0,1-.85.3v3.12h.16l.12,0h0l.1,0,0,0,.09,0,.07,0,0,0a1.37,1.37,0,0,1,.72,1.21V92.87a47.42,47.42,0,0,1-7,24.7c-.17.29-.35.57-.53.85a48.12,48.12,0,0,1-2.93,4.07A47.41,47.41,0,0,1,83.23,139l-2.9.64-.09,0H80l-.22,0h-.08L76.85,139a47.42,47.42,0,0,1-16.68-7.26,4.28,4.28,0,0,1-3.17,1.4H42a1.89,1.89,0,0,1-1.89-1.89h-4.4a1.89,1.89,0,0,1-1.89,1.89H29.08a4.3,4.3,0,0,1-4.29-4.29v-1.51a4.27,4.27,0,0,1,3-4.1l7.55-2.35a2.8,2.8,0,0,0,2-2.68V92.75a5,5,0,0,0-2.75-4.48L14.4,78a18.44,18.44,0,0,1-8.92-23l7.6-20.25h0l10-26.57a6.19,6.19,0,0,1,5.76-4H57.26a6.18,6.18,0,0,1,5.76,4l1.33,3.52a1.9,1.9,0,0,1-1.11,2.44l1.65,4.38a1.88,1.88,0,0,1,2.43,1.11l4.91,13.05h0L77,45.51h28.1a3.13,3.13,0,0,1,3,2.16c0,.09.06.18.08.26.07.31.15.6.24.9s.16.47.25.7.27.68.42,1,.22.45.35.67a13.33,13.33,0,0,0,.8,1.3c.09.12.17.24.27.36a13.37,13.37,0,0,0,7.44,5,3.15,3.15,0,0,1,2.39,3.07ZM201.91,82a3.7,3.7,0,0,1,3.68-3.69h3.69A3.7,3.7,0,0,1,213,82v5.52a3.7,3.7,0,0,1-3.67,3.68h-3.69a3.69,3.69,0,0,1-3.68-3.68Zm-68.65,7a2.21,2.21,0,0,0,1.27.39,1.86,1.86,0,0,0,1.41-.47,2,2,0,0,0,.43-1.38,1.9,1.9,0,0,0-.54-1.3l-3.9-4.36a3.81,3.81,0,0,1-1.08-2.6v-.93a3.7,3.7,0,0,1,3.68-3.67h1.84q3.45,0,3.68,3.67h-1.83c-.16-1.23-.74-1.84-1.75-1.84a2,2,0,0,0-1.45.46,1.83,1.83,0,0,0-.49,1.39,1.9,1.9,0,0,0,.54,1.29L139,84a3.82,3.82,0,0,1,1.08,2.59v.93a3.7,3.7,0,0,1-3.68,3.68h-1.84a3.26,3.26,0,0,1-3.68-3.68h1.85c0,.13,0,.23,0,.31A1.25,1.25,0,0,0,133.26,89Zm12.31,22.48a3.56,3.56,0,0,1-1.06,2.62,3.34,3.34,0,0,1-2.46,1.06h-.16V117a3.77,3.77,0,0,1-1.06,2.45,3.32,3.32,0,0,1-2.61,1.23h-3.69a3.33,3.33,0,0,1-2.62-1.23,3.82,3.82,0,0,1-1.06-2.45v-1.84a4.07,4.07,0,0,1,.92-2.46,3.24,3.24,0,0,1,2.76-1.22c-2.45-.28-3.68-1.52-3.68-3.69a3.69,3.69,0,0,1,3.68-3.67h3.69a3.69,3.69,0,0,1,3.67,3.67v1.85h-3.67v-1.85a1.78,1.78,0,0,0-.55-1.3,1.86,1.86,0,0,0-2.6,0,1.77,1.77,0,0,0-.54,1.3v.93c0,1.08.61,1.69,1.84,1.83v1.85c-1.23.15-1.84.77-1.84,1.84V117a1.69,1.69,0,0,0,.54,1.37,2.07,2.07,0,0,0,2.6,0,1.69,1.69,0,0,0,.55-1.37v-3.69h3.67a1.82,1.82,0,0,0,1.31-.53,1.77,1.77,0,0,0,.54-1.3V109.6h1.83Zm4.93-31.28h-1.85v7.36a1.63,1.63,0,0,0,.59,1.36,1.74,1.74,0,0,0,1.08.47h.18V91.2h-1.85a3.51,3.51,0,0,1-2.59-1.08,3.57,3.57,0,0,1-1.08-2.6V80.16h-1.85V78.31H145V74.64h3.67v3.67h1.85Zm2.91,7.36h0a3.7,3.7,0,0,1,3.68-3.68h3.69V82a1.75,1.75,0,0,0-.55-1.3,1.78,1.78,0,0,0-1.3-.54h-1.84c-1.09,0-1.7.61-1.83,1.84h-1.85c.29-2.46,1.51-3.69,3.68-3.69h3.69a3.54,3.54,0,0,1,2.59,1.09,3.58,3.58,0,0,1,1.08,2.6v9.2h-3.67V89.35c-.14,1.23-.76,1.85-1.85,1.85h-1.84a3.7,3.7,0,0,1-3.68-3.68ZM165.69,117a3.72,3.72,0,0,1-3.68,3.68h-7.36V104.08H162a3.7,3.7,0,0,1,3.68,3.67Zm12.37-5.52h-3.67a1.81,1.81,0,0,0-1.31.54,1.76,1.76,0,0,0-.54,1.29v7.37h-3.67V107.75h3.67v3.69a4.51,4.51,0,0,1,1.14-2.77,3.45,3.45,0,0,1,2.55-.92h1.83Zm.61-18.4A3.72,3.72,0,0,1,175,96.72h-3.69q-3.26,0-3.68-3.68h1.85q.12,1.83,1.83,1.83h1.84a1.78,1.78,0,0,0,1.3-.54A1.73,1.73,0,0,0,175,93V89.35c-.15,1.23-.76,1.85-1.85,1.85h-1.84a3.7,3.7,0,0,1-3.68-3.68V78.31h3.68v9.21a1.84,1.84,0,0,0,1.84,1.83,1.79,1.79,0,0,0,1.31-.54,1.76,1.76,0,0,0,.54-1.29V78.31h3.67Zm5.32,27.6h-3.68V107.75H184Zm0-14.72h-3.68v-1.84H184Zm14.29,14.72h-3.67v-9.2a1.86,1.86,0,0,0-1.85-1.84,1.86,1.86,0,0,0-1.85,1.84v9.2h-3.67V107.75h3.67v1.85a2.29,2.29,0,0,1,.58-1.39,1.69,1.69,0,0,1,1.27-.46h1.85a3.51,3.51,0,0,1,2.59,1.09,3.58,3.58,0,0,1,1.08,2.6Zm.5-29.44H195.1V82a1.86,1.86,0,0,0-1.84-1.84,1.81,1.81,0,0,0-1.31.54,1.78,1.78,0,0,0-.54,1.3v9.2h-3.67V74.64h3.67v5.52a2.35,2.35,0,0,1,.57-1.39,1.73,1.73,0,0,1,1.28-.46h1.84A3.72,3.72,0,0,1,198.78,82Zm15.62,29.44h-3.69L205.19,116v4.61h-3.67V104.08h3.67v8.28l5.52-4.61h3.69l-7.71,6.45ZM232.66,117a3.7,3.7,0,0,1-3.67,3.68h-7.37V104.08h3.67v5.52a2.29,2.29,0,0,1,.58-1.39,1.71,1.71,0,0,1,1.27-.46H229a3.51,3.51,0,0,1,2.59,1.09,3.58,3.58,0,0,1,1.08,2.6Zm1.88-25.76h-3.7V82a1.76,1.76,0,0,0-.54-1.29,1.73,1.73,0,0,0-1.28-.55,1.81,1.81,0,0,0-1.31.54,1.78,1.78,0,0,0-.54,1.3v9.2H223.5V82a1.86,1.86,0,0,0-1.85-1.84,1.77,1.77,0,0,0-1.3.54,1.79,1.79,0,0,0-.55,1.3v9.2h-3.67V78.31h3.67v1.85a2.29,2.29,0,0,1,.58-1.39,1.71,1.71,0,0,1,1.27-.46h1.85a3.14,3.14,0,0,1,2.76,1.3,2.63,2.63,0,0,1,1.12-1,3.75,3.75,0,0,1,1.64-.33h1.82a3.72,3.72,0,0,1,3.7,3.69Zm12.24,23.92h-7.36V117a1.83,1.83,0,0,0,1.84,1.83h1.85a1.62,1.62,0,0,0,1.83-1.83h1.84q-.43,3.67-3.67,3.68h-3.69a3.7,3.7,0,0,1-3.68-3.68v-5.52a3.7,3.7,0,0,1,3.68-3.69h3.69a3.51,3.51,0,0,1,2.59,1.09,3.58,3.58,0,0,1,1.08,2.6Zm1.93-29.44h-7.36v1.84a1.84,1.84,0,0,0,1.84,1.83H245a1.62,1.62,0,0,0,1.83-1.83h1.84C248.43,90,247.2,91.2,245,91.2h-3.69a3.53,3.53,0,0,1-2.59-1.08,3.57,3.57,0,0,1-1.08-2.6V82a3.69,3.69,0,0,1,3.67-3.69H245a3.54,3.54,0,0,1,2.59,1.09,3.58,3.58,0,0,1,1.08,2.6Zm12.19,29.44h-7.36V117a1.84,1.84,0,0,0,1.84,1.83h1.85a1.62,1.62,0,0,0,1.83-1.83h1.84c-.28,2.45-1.51,3.68-3.67,3.68h-3.69a3.72,3.72,0,0,1-3.68-3.68v-5.52a3.58,3.58,0,0,1,1.09-2.61,3.54,3.54,0,0,1,2.59-1.08h3.69a3.5,3.5,0,0,1,2.59,1.09,3.58,3.58,0,0,1,1.08,2.6Zm12.33-3.68h-3.67a1.77,1.77,0,0,0-1.3.54,1.73,1.73,0,0,0-.55,1.29v7.37H264V107.75h3.67v3.69a4.63,4.63,0,0,1,1.14-2.77,3.48,3.48,0,0,1,2.55-.92h1.83Z"/><path class="cls-1" d="M243.19,80.16A1.84,1.84,0,0,0,241.35,82v1.83H245V82a1.86,1.86,0,0,0-1.85-1.84Z"/><path class="cls-1" d="M255.38,109.6a1.84,1.84,0,0,0-1.84,1.84v1.83h3.69v-1.83a1.75,1.75,0,0,0-.55-1.3A1.78,1.78,0,0,0,255.38,109.6Z"/><path class="cls-2" d="M130.85,87.52a3.26,3.26,0,0,0,3.68,3.68h1.84a3.7,3.7,0,0,0,3.68-3.68v-.93A3.82,3.82,0,0,0,139,84l-3.9-4.39a1.9,1.9,0,0,1-.54-1.29,1.83,1.83,0,0,1,.49-1.39,2,2,0,0,1,1.45-.46c1,0,1.59.61,1.75,1.84h1.83q-.23-3.68-3.68-3.67h-1.84a3.7,3.7,0,0,0-3.68,3.67v.93a3.81,3.81,0,0,0,1.08,2.6l3.9,4.36a1.9,1.9,0,0,1,.54,1.3,2,2,0,0,1-.43,1.38,1.86,1.86,0,0,1-1.41.47,2.21,2.21,0,0,1-1.27-.39,1.25,1.25,0,0,1-.58-1.13c0-.08,0-.18,0-.31Z"/><path class="cls-2" d="M148.65,74.64H145v3.67h-1.85v1.85H145v7.36a3.57,3.57,0,0,0,1.08,2.6,3.51,3.51,0,0,0,2.59,1.08h1.85V89.35h-.18a1.74,1.74,0,0,1-1.08-.47,1.63,1.63,0,0,1-.59-1.36V80.16h1.85V78.31h-1.85Z"/><path class="cls-2" d="M158.93,91.2c1.09,0,1.71-.62,1.85-1.85V91.2h3.67V82a3.58,3.58,0,0,0-1.08-2.6,3.54,3.54,0,0,0-2.59-1.09h-3.69c-2.17,0-3.39,1.23-3.68,3.69h1.85c.13-1.23.74-1.84,1.83-1.84h1.84a1.78,1.78,0,0,1,1.3.54,1.75,1.75,0,0,1,.55,1.3v1.83h-3.69a3.7,3.7,0,0,0-3.68,3.68h0a3.7,3.7,0,0,0,3.68,3.68Zm-1.84-3.69a1.76,1.76,0,0,1,.54-1.29,1.78,1.78,0,0,1,1.3-.54h1.85v1.84a1.85,1.85,0,0,1-3.69,0Z"/><path class="cls-2" d="M175,87.52a1.76,1.76,0,0,1-.54,1.29,1.79,1.79,0,0,1-1.31.54,1.84,1.84,0,0,1-1.84-1.83V78.31h-3.68v9.21a3.7,3.7,0,0,0,3.68,3.68h1.84c1.09,0,1.7-.62,1.85-1.85V93a1.73,1.73,0,0,1-.55,1.29,1.78,1.78,0,0,1-1.3.54h-1.84q-1.71,0-1.83-1.83h-1.85q.42,3.67,3.68,3.68H175A3.72,3.72,0,0,0,178.67,93V78.31H175Z"/><path class="cls-2" d="M195.1,78.31h-1.84a1.73,1.73,0,0,0-1.28.46,2.35,2.35,0,0,0-.57,1.39V74.64h-3.67V91.2h3.67V82a1.78,1.78,0,0,1,.54-1.3,1.81,1.81,0,0,1,1.31-.54A1.86,1.86,0,0,1,195.1,82v9.2h3.68V82a3.72,3.72,0,0,0-3.68-3.69Z"/><path class="cls-2" d="M205.59,91.2h3.69A3.7,3.7,0,0,0,213,87.52V82a3.7,3.7,0,0,0-3.67-3.69h-3.69A3.7,3.7,0,0,0,201.91,82v5.52a3.69,3.69,0,0,0,3.68,3.68Zm0-9.2a1.85,1.85,0,0,1,3.69,0v5.52a1.76,1.76,0,0,1-.54,1.29,1.84,1.84,0,0,1-3.15-1.29Z"/><path class="cls-2" d="M230.84,78.31H229a3.75,3.75,0,0,0-1.64.33,2.63,2.63,0,0,0-1.12,1,3.14,3.14,0,0,0-2.76-1.3h-1.85a1.71,1.71,0,0,0-1.27.46,2.29,2.29,0,0,0-.58,1.39V78.31h-3.67V91.2h3.67V82a1.79,1.79,0,0,1,.55-1.3,1.77,1.77,0,0,1,1.3-.54A1.86,1.86,0,0,1,223.5,82v9.2h3.67V82a1.78,1.78,0,0,1,.54-1.3,1.81,1.81,0,0,1,1.31-.54,1.73,1.73,0,0,1,1.28.55,1.76,1.76,0,0,1,.54,1.29v9.2h3.7V82a3.72,3.72,0,0,0-3.7-3.69Z"/><path class="cls-2" d="M245,78.31h-3.69A3.69,3.69,0,0,0,237.68,82v5.52a3.57,3.57,0,0,0,1.08,2.6,3.53,3.53,0,0,0,2.59,1.08H245c2.16,0,3.39-1.23,3.67-3.68h-1.84A1.62,1.62,0,0,1,245,89.35h-1.85a1.84,1.84,0,0,1-1.84-1.83V85.68h7.36V82a3.58,3.58,0,0,0-1.08-2.6A3.54,3.54,0,0,0,245,78.31Zm0,5.52h-3.69V82a1.84,1.84,0,0,1,3.14-1.3A1.75,1.75,0,0,1,245,82Z"/><path class="cls-2" d="M143.74,111.44a1.77,1.77,0,0,1-.54,1.3,1.82,1.82,0,0,1-1.31.53h-3.67V117a1.69,1.69,0,0,1-.55,1.37,2.07,2.07,0,0,1-2.6,0,1.69,1.69,0,0,1-.54-1.37V114.2c0-1.07.61-1.69,1.84-1.84v-1.85c-1.23-.14-1.84-.75-1.84-1.83v-.93a1.77,1.77,0,0,1,.54-1.3,1.86,1.86,0,0,1,2.6,0,1.78,1.78,0,0,1,.55,1.3v1.85h3.67v-1.85a3.69,3.69,0,0,0-3.67-3.67h-3.69a3.69,3.69,0,0,0-3.68,3.67c0,2.17,1.23,3.41,3.68,3.69a3.24,3.24,0,0,0-2.76,1.22,4.07,4.07,0,0,0-.92,2.46V117a3.82,3.82,0,0,0,1.06,2.45,3.33,3.33,0,0,0,2.62,1.23h3.69a3.32,3.32,0,0,0,2.61-1.23,3.77,3.77,0,0,0,1.06-2.45v-1.84h.16a3.34,3.34,0,0,0,2.46-1.06,3.56,3.56,0,0,0,1.06-2.62V109.6h-1.83Z"/><path class="cls-2" d="M162,104.08h-7.36v16.56H162a3.72,3.72,0,0,0,3.68-3.68v-9.21a3.7,3.7,0,0,0-3.68-3.67ZM162,117a1.84,1.84,0,0,1-1.84,1.83h-1.85V105.92h1.85a1.76,1.76,0,0,1,1.29.54,1.73,1.73,0,0,1,.55,1.29Z"/><path class="cls-2" d="M173.68,108.67a4.51,4.51,0,0,0-1.14,2.77v-3.69h-3.67v12.89h3.67v-7.37a1.76,1.76,0,0,1,.54-1.29,1.81,1.81,0,0,1,1.31-.54h3.67v-3.69h-1.83A3.45,3.45,0,0,0,173.68,108.67Z"/><rect class="cls-2" x="180.31" y="104.08" width="3.67" height="1.85"/><rect class="cls-2" x="180.31" y="107.75" width="3.67" height="12.89"/><path class="cls-2" d="M194.61,107.75h-1.85a1.69,1.69,0,0,0-1.27.46,2.29,2.29,0,0,0-.58,1.39v-1.85h-3.67v12.89h3.67v-9.2a1.86,1.86,0,0,1,1.85-1.84,1.86,1.86,0,0,1,1.85,1.84v9.2h3.67v-9.2a3.58,3.58,0,0,0-1.08-2.6A3.51,3.51,0,0,0,194.61,107.75Z"/><polygon class="cls-2" points="210.71 107.75 205.19 112.36 205.19 104.08 201.52 104.08 201.52 120.64 205.19 120.64 205.19 116.03 210.71 120.64 214.4 120.64 206.69 114.2 214.4 107.75 210.71 107.75"/><path class="cls-2" d="M229,107.75h-1.85a1.71,1.71,0,0,0-1.27.46,2.29,2.29,0,0,0-.58,1.39v-5.52h-3.67v16.56H229a3.7,3.7,0,0,0,3.67-3.68v-5.52a3.58,3.58,0,0,0-1.08-2.6A3.51,3.51,0,0,0,229,107.75Zm0,9.21a1.76,1.76,0,0,1-.54,1.29,1.79,1.79,0,0,1-1.31.54h-1.85v-7.35a1.79,1.79,0,0,1,.55-1.3,1.77,1.77,0,0,1,1.3-.54,1.86,1.86,0,0,1,1.85,1.84Z"/><path class="cls-2" d="M243.11,107.75h-3.69a3.7,3.7,0,0,0-3.68,3.69V117a3.7,3.7,0,0,0,3.68,3.68h3.69q3.24,0,3.67-3.68h-1.84a1.62,1.62,0,0,1-1.83,1.83h-1.85a1.83,1.83,0,0,1-1.84-1.83v-1.84h7.36v-3.68a3.58,3.58,0,0,0-1.08-2.6A3.51,3.51,0,0,0,243.11,107.75Zm0,5.52h-3.69v-1.83a1.85,1.85,0,0,1,3.69,0Z"/><path class="cls-2" d="M257.23,107.75h-3.69a3.54,3.54,0,0,0-2.59,1.08,3.58,3.58,0,0,0-1.09,2.61V117a3.72,3.72,0,0,0,3.68,3.68h3.69c2.16,0,3.39-1.23,3.67-3.68h-1.84a1.62,1.62,0,0,1-1.83,1.83h-1.85a1.84,1.84,0,0,1-1.84-1.83v-1.84h7.36v-3.68a3.58,3.58,0,0,0-1.08-2.6A3.5,3.5,0,0,0,257.23,107.75Zm0,5.52h-3.69v-1.83a1.84,1.84,0,0,1,3.14-1.3,1.75,1.75,0,0,1,.55,1.3Z"/><path class="cls-2" d="M268.85,108.67a4.63,4.63,0,0,0-1.14,2.77v-3.69H264v12.89h3.67v-7.37a1.73,1.73,0,0,1,.55-1.29,1.77,1.77,0,0,1,1.3-.54h3.67v-3.69H271.4A3.48,3.48,0,0,0,268.85,108.67Z"/><path class="cls-3" d="M28.82,8A2.38,2.38,0,0,0,26.6,9.57L17.31,34.31a13.43,13.43,0,0,0,2.94.3,11.47,11.47,0,0,0,6.54-1.84,15.16,15.16,0,0,1,8.37-2.31,15.19,15.19,0,0,1,8.37,2.31,11.47,11.47,0,0,0,6.54,1.84,11.46,11.46,0,0,0,6.53-1.84c.28-.15.56-.31.86-.46L48.34,8Z"/><path class="cls-4" d="M60.81,13.09,59.48,9.57A2.37,2.37,0,0,0,57.26,8H48.34l9.12,24.28A14.54,14.54,0,0,1,65,30.46a18.6,18.6,0,0,1,2.42.15L63.78,21a1.9,1.9,0,0,1,1.11-2.43h0L63.24,14.2h0A1.89,1.89,0,0,1,60.81,13.09Z"/><path class="cls-4" d="M51.86,125.25l-2.26-.71A6.56,6.56,0,0,1,45,118.25v-3.77a47.5,47.5,0,0,1-3.84-10.26v14a6.55,6.55,0,0,1-4.64,6.29l-7.55,2.35a.52.52,0,0,0-.36.49v.13h20.9A2.4,2.4,0,0,0,51.86,125.25Z"/><path class="cls-4" d="M36.3,84.9A8.74,8.74,0,0,1,39.72,88V84.76H36Z"/><path class="cls-5" d="M42,129.4H57a47.29,47.29,0,0,1-4.16-3.85l-1-.3a2.4,2.4,0,0,1-2.39,2.26H28.57v1.38a.51.51,0,0,0,.51.51h4.77a1.88,1.88,0,0,1,1.89,1.89h4.4A1.89,1.89,0,0,1,42,129.4Z"/><path class="cls-6" d="M28.13,51.41H10.89L9,56.39a14.66,14.66,0,0,0,7.09,18.25L28.58,81h9.07l2.07-1V67.15a2,2,0,0,1,0-3.74V60.93a3.14,3.14,0,0,1,2.43-3.07,13.5,13.5,0,0,0,8.55-6.45H36.63a1.89,1.89,0,0,1-1.89-1.89H30A1.89,1.89,0,0,1,28.13,51.41Z"/><polygon class="cls-7" points="39.72 80.98 39.72 79.93 37.65 80.98 39.72 80.98"/><path class="cls-8" d="M58.44,36.08a15.22,15.22,0,0,1-8.37,2.31,15.23,15.23,0,0,1-8.38-2.31,11.43,11.43,0,0,0-6.53-1.84,11.43,11.43,0,0,0-6.53,1.84,15.23,15.23,0,0,1-8.38,2.31A16.41,16.41,0,0,1,16,37.87l-3.66,9.76H28.13A1.89,1.89,0,0,1,30,49.52h4.72a1.89,1.89,0,0,1,1.89-1.89H52.16a3.15,3.15,0,0,1,3-2.12h7.27L58.8,35.88Z"/><path class="cls-3" d="M69,34.85a11.75,11.75,0,0,0-4-.61,11.15,11.15,0,0,0-6.17,1.64l3.61,9.63H73L69.3,35.7Z"/><path class="cls-9" d="M118,57.82a13.37,13.37,0,0,1-7.44-5c-.1-.12-.18-.24-.27-.36a13.33,13.33,0,0,1-.8-1.3c-.13-.22-.24-.44-.35-.67s-.29-.66-.42-1-.17-.47-.25-.7-.17-.59-.24-.9c0-.08,0-.17-.08-.26a3.13,3.13,0,0,0-3-2.16H77L72.23,32.74h0l-4.91-13a1.88,1.88,0,0,0-2.43-1.11h0A1.9,1.9,0,0,0,63.78,21l3.61,9.6A18.6,18.6,0,0,0,65,30.46a14.54,14.54,0,0,0-7.51,1.85c-.3.15-.58.31-.86.46a11.46,11.46,0,0,1-6.53,1.84,11.47,11.47,0,0,1-6.54-1.84,15.19,15.19,0,0,0-8.37-2.31,15.16,15.16,0,0,0-8.37,2.31,11.47,11.47,0,0,1-6.54,1.84,13.43,13.43,0,0,1-2.94-.3L26.6,9.57A2.38,2.38,0,0,1,28.82,8H57.26a2.37,2.37,0,0,1,2.22,1.54l1.33,3.52a1.89,1.89,0,0,0,2.43,1.11h0a1.9,1.9,0,0,0,1.11-2.44L63,8.24a6.18,6.18,0,0,0-5.76-4H28.82a6.19,6.19,0,0,0-5.76,4l-10,26.57h0L5.48,55.06A18.44,18.44,0,0,0,14.4,78L34.59,88.27a5,5,0,0,1,2.75,4.48v25.5a2.8,2.8,0,0,1-2,2.68l-7.55,2.35a4.27,4.27,0,0,0-3,4.1v1.51a4.3,4.3,0,0,0,4.29,4.29h4.77a1.89,1.89,0,0,0,1.89-1.89h0a1.88,1.88,0,0,0-1.89-1.89H29.08a.51.51,0,0,1-.51-.51v-1.51a.52.52,0,0,1,.36-.49l7.55-2.35a6.55,6.55,0,0,0,4.64-6.29v-14A47.5,47.5,0,0,0,45,114.48v3.77a6.56,6.56,0,0,0,4.64,6.29l2.26.71,1,.3A47.29,47.29,0,0,0,57,129.4H42a1.89,1.89,0,1,0,0,3.78H57a4.28,4.28,0,0,0,3.17-1.4A47.42,47.42,0,0,0,76.85,139l2.89.64h.08l.22,0h.2l.09,0,2.9-.64a47.41,47.41,0,0,0,26.69-16.55,48.12,48.12,0,0,0,2.93-4.07c.18-.28.36-.56.53-.85a47.42,47.42,0,0,0,7-24.7V78a1.37,1.37,0,0,0-.72-1.21l0,0-.07,0-.09,0,0,0-.1,0h0l-.12,0H119A1.38,1.38,0,0,0,117.59,78V92.87a44.52,44.52,0,0,1-35,43.48l-2.59.57-2.6-.57-.56-.13A44.52,44.52,0,0,1,42.49,92.87V60.93a.4.4,0,0,1,.3-.39A16.18,16.18,0,0,0,52,54.46a15.9,15.9,0,0,0,2.77-5.89.39.39,0,0,1,.38-.3h50a.39.39,0,0,1,.38.3A16.07,16.07,0,0,0,117.29,60.5a.39.39,0,0,1,.3.38V72.14A1.38,1.38,0,0,0,119,73.52a1.35,1.35,0,0,0,.85-.3l.11-.09,0,0a1.36,1.36,0,0,0,.4-1V60.89A3.15,3.15,0,0,0,118,57.82ZM39.72,88A8.74,8.74,0,0,0,36.3,84.9L36,84.76h3.7ZM62.41,45.51H55.14a3.15,3.15,0,0,0-3,2.12H36.63a1.89,1.89,0,0,0,0,3.78H50.7a13.5,13.5,0,0,1-8.55,6.45,3.14,3.14,0,0,0-2.43,3.07v2.48a2,2,0,0,0,0,3.74V81H28.58L16.11,74.64A14.66,14.66,0,0,1,9,56.39l1.87-5H28.13a1.89,1.89,0,1,0,0-3.78H12.31L16,37.87a16.41,16.41,0,0,0,4.28.52,15.23,15.23,0,0,0,8.38-2.31,11.43,11.43,0,0,1,6.53-1.84,11.43,11.43,0,0,1,6.53,1.84,15.23,15.23,0,0,0,8.38,2.31,15.22,15.22,0,0,0,8.37-2.31l.36-.2A11.15,11.15,0,0,1,65,34.24a11.75,11.75,0,0,1,4,.61l.32.85L73,45.51Z"/><path class="cls-10" d="M117.59,72.14V60.88a.39.39,0,0,0-.3-.38A16.07,16.07,0,0,1,105.5,48.57a.39.39,0,0,0-.38-.3h-50a.39.39,0,0,0-.38.3A15.9,15.9,0,0,1,52,54.46V59.6c.33-.28.64-.57.95-.88A19.65,19.65,0,0,0,57.1,52.6a1.37,1.37,0,0,1,1.26-.83h43.53a1.38,1.38,0,0,1,1.27.83,19.69,19.69,0,0,0,10.11,10.21,1.37,1.37,0,0,1,.82,1.26v28.8a41,41,0,0,1-2.63,14.43,1.4,1.4,0,0,1-1.3.9,1.36,1.36,0,0,1-.48-.09h0c-.4,1-.84,1.92-1.32,2.86h0a1.38,1.38,0,0,1,.54,1.88,41.77,41.77,0,0,1-3.85,5.72,41.16,41.16,0,0,1-23.16,14.36l-1.55.34a1.36,1.36,0,0,1-.29,0l-.3,0-1.55-.34a40.77,40.77,0,0,1-13-5.37,45.74,45.74,0,0,0,11.73,8.66l.56.13,2.6.57,2.59-.57a44.52,44.52,0,0,0,35-43.48V78A1.38,1.38,0,0,1,119,76.64h0V73.52A1.38,1.38,0,0,1,117.59,72.14Z"/><path class="cls-11" d="M55,118.57A41.15,41.15,0,0,1,46,92.87V78a1.38,1.38,0,0,1,1.39-1.38V73.52A1.38,1.38,0,0,1,46,72.14v-8a1.39,1.39,0,0,1,.84-1.27A19.54,19.54,0,0,0,52,59.6V54.46a16.18,16.18,0,0,1-9.2,6.08.4.4,0,0,0-.3.39V92.87a44.52,44.52,0,0,0,34.39,43.35,45.74,45.74,0,0,1-11.73-8.66A40.67,40.67,0,0,1,55,118.57Z"/><path class="cls-12" d="M108.87,106.33a38.17,38.17,0,0,0,2.46-13.46V65A22.46,22.46,0,0,1,101,54.53H59.25a22.06,22.06,0,0,1-4.36,6.15A22.43,22.43,0,0,1,48.75,65v7.1a1.38,1.38,0,0,1-1.38,1.38h0v3.12A1.38,1.38,0,0,1,48.75,78V92.87a38.25,38.25,0,0,0,30,37.36l1.25.28,1.25-.28a38.45,38.45,0,0,0,21.6-13.39,39.08,39.08,0,0,0,3.58-5.33,1.39,1.39,0,0,1,1.86-.55c.48-.94.92-1.89,1.32-2.86A1.4,1.4,0,0,1,108.87,106.33Zm-.75-29.55A6.08,6.08,0,0,1,100.94,82l-1.65,1.14a1.28,1.28,0,0,0-.47,1.47,19.83,19.83,0,0,1,.69,11.12l1.42.41a3.71,3.71,0,1,1-.78,2.65l-1.43-.41a19.82,19.82,0,0,1-4.47,6.95,1.27,1.27,0,0,0-.19,1.55l.87,1.44a5.63,5.63,0,0,1,3.13,2.46,5.7,5.7,0,0,1,.61,4.44,5.65,5.65,0,0,1-11-2.51l-1-1.59a1.24,1.24,0,0,0-1.38-.58,20.2,20.2,0,0,1-4.58.68V113A3.83,3.83,0,1,1,78,113V111.1a19.82,19.82,0,0,1-6.63-1.92,1.28,1.28,0,0,0-1.52.28l-1,1.08a5.34,5.34,0,0,1-1.38,3.38,5.44,5.44,0,0,1-4.07,1.83h0a5.47,5.47,0,0,1-.88-10.86l.92-1a1.28,1.28,0,0,0,.11-1.55A19.9,19.9,0,0,1,61,96.83l-1.73.23a3.71,3.71,0,1,1-.75-2.69l1.91-.25a19.68,19.68,0,0,1,.77-8.9,1.27,1.27,0,0,0-.52-1.43l-2.33-1.52a5.58,5.58,0,1,1,4.67-7.1l2.28,1.5a1.29,1.29,0,0,0,1.55-.12,19.28,19.28,0,0,1,2.38-1.83l-.73-1.24a4.56,4.56,0,0,1-1,.13,4.13,4.13,0,1,1,2.07-7.72,4.15,4.15,0,0,1,1.52,5.65,4.4,4.4,0,0,1-.26.39l.85,1.44a19.19,19.19,0,0,1,3.2-1.18A1.27,1.27,0,0,0,75.79,71V68.91a6.07,6.07,0,1,1,8.5,0v2a1.26,1.26,0,0,0,.94,1.22,19.5,19.5,0,0,1,3.13,1.13l1.44-2.52a4.09,4.09,0,0,1-1.18-2.88A4.13,4.13,0,1,1,92.75,72a3.71,3.71,0,0,1-.47,0l-1.49,2.61a19.73,19.73,0,0,1,2.09,1.54,1.3,1.3,0,0,0,1.56,0L96.11,75a6,6,0,0,1,3.2-4.38,6.07,6.07,0,0,1,8.81,6.15Z"/><path class="cls-13" d="M100.59,73.08a3.28,3.28,0,0,0-1.8,2.78,1.36,1.36,0,0,1-.59,1.06L96,78.44a4.05,4.05,0,0,1-4.9-.21A19.05,19.05,0,0,0,89.41,77l-1,1.72a1.38,1.38,0,0,1-1.2.7,1.42,1.42,0,0,1-.69-.18A1.39,1.39,0,0,1,86,77.33l1-1.65a18,18,0,0,0-2.46-.87,4,4,0,0,1-3-3.89V68.28a1.37,1.37,0,0,1,.54-1.09,3.31,3.31,0,0,0-1.64-5.91,3.26,3.26,0,0,0-2.59.82,3.33,3.33,0,0,0-1.1,2.47A3.29,3.29,0,0,0,78,67.19a1.37,1.37,0,0,1,.53,1.09V71a4,4,0,0,1-3,3.88,17.37,17.37,0,0,0-2.53.92l.82,1.4a1.38,1.38,0,0,1-.5,1.88,1.36,1.36,0,0,1-.69.19,1.38,1.38,0,0,1-1.2-.68l-.85-1.45a17.22,17.22,0,0,0-1.93,1.5,4,4,0,0,1-4.9.37l-2.75-1.8a1.37,1.37,0,0,1-.6-.92,2.84,2.84,0,0,0-1.4-2A2.53,2.53,0,0,0,58,73.94a4.19,4.19,0,0,0,3.39,6.26,6,6,0,0,1,2.95,1l1.09.72a2.62,2.62,0,0,1,1.07,3,18.51,18.51,0,0,0,2.17,15.91,2.63,2.63,0,0,1-.23,3.22l-.05.06a5.92,5.92,0,0,1-2.44,1.62,4.44,4.44,0,0,0-.84.43l-.86,1a1.6,1.6,0,0,1-.35.28,4.1,4.1,0,0,0,.33,4.77h0a5.44,5.44,0,0,0,.48.48,2.88,2.88,0,0,0,.73-.57,2.67,2.67,0,0,0,.68-2,1.35,1.35,0,0,1,.35-1l1.31-1.48a4,4,0,0,1,4.8-.92,17,17,0,0,0,7.56,1.75,17.25,17.25,0,0,0,4.47-.59,3.91,3.91,0,0,1,1-.13,4,4,0,0,1,3.44,2l1.26,2.07a1.4,1.4,0,0,1,.14,1.11,2.89,2.89,0,0,0,.39,2.47,2.92,2.92,0,0,0,3.71.92A2.87,2.87,0,0,0,96,114.47a2.89,2.89,0,0,0-2.22-3.61,1.42,1.42,0,0,1-.92-.64L91.7,108.3a4,4,0,0,1,.59-4.92,17.19,17.19,0,0,0,3.77-5.78l-3.37-1a1.38,1.38,0,0,1-.94-1.71A1.37,1.37,0,0,1,93.46,94l3.39,1a17.25,17.25,0,0,0,.38-3.6,17.07,17.07,0,0,0-1-5.81,4,4,0,0,1,1.5-4.68l2.17-1.5a1.38,1.38,0,0,1,1.2-.18,3.31,3.31,0,0,0,3.49-5.34A3.31,3.31,0,0,0,100.59,73.08ZM82.05,79.54a3.92,3.92,0,1,1-3.91,3.92A3.93,3.93,0,0,1,82.05,79.54ZM70.62,93.12a4.53,4.53,0,1,1,4.53-4.53A4.53,4.53,0,0,1,70.62,93.12Zm9.73,13.38a5.74,5.74,0,1,1,5.73-5.74A5.75,5.75,0,0,1,80.35,106.5Z"/><path class="cls-14" d="M68.38,104.11l.05-.06a2.63,2.63,0,0,0,.23-3.22,18.51,18.51,0,0,1-2.17-15.91,2.62,2.62,0,0,0-1.07-3l-1.09-.72a6,6,0,0,0-2.95-1A4.19,4.19,0,0,1,58,73.94a2.81,2.81,0,1,0,.37,5.53,1.38,1.38,0,0,1,1.08.19l2.78,1.82a4,4,0,0,1,1.63,4.59,17.24,17.24,0,0,0,2,14.72,4,4,0,0,1-.35,4.9l-.41.47a4.44,4.44,0,0,1,.84-.43A5.92,5.92,0,0,0,68.38,104.11Z"/><path class="cls-14" d="M64.22,112.18a4.1,4.1,0,0,1-.33-4.77,1.4,1.4,0,0,1-.61.18,2.7,2.7,0,0,0,.13,5.4h0a2.71,2.71,0,0,0,1.28-.33,5.44,5.44,0,0,1-.48-.48Z"/><circle class="cls-15" cx="92.75" cy="67.87" r="1.37"/><path class="cls-15" d="M68.18,68.29a1.38,1.38,0,0,0-.68-.18,1.12,1.12,0,0,0-.36,0,1.33,1.33,0,0,0-.83.64,1.39,1.39,0,0,0-.14,1,1.44,1.44,0,0,0,.64.83,1.37,1.37,0,1,0,1.37-2.38Z"/><path class="cls-15" d="M79.36,115.54a1.07,1.07,0,1,0,1.08,1.07A1.07,1.07,0,0,0,79.36,115.54Z"/><path class="cls-15" d="M103.85,99.38a.95.95,0,1,0-.95-.95A1,1,0,0,0,103.85,99.38Z"/><path class="cls-15" d="M55.62,95.7a.94.94,0,1,0,1,.94A.94.94,0,0,0,55.62,95.7Z"/><path class="cls-14" d="M70.62,86.82a1.77,1.77,0,1,0,1.77,1.77A1.77,1.77,0,0,0,70.62,86.82Z"/><path class="cls-14" d="M82.05,84.61a1.15,1.15,0,1,0-1.15-1.15A1.15,1.15,0,0,0,82.05,84.61Z"/><path class="cls-14" d="M80.35,97.79a3,3,0,1,0,3,3A3,3,0,0,0,80.35,97.79Z"/><path class="cls-9" d="M106.47,111.51a39.08,39.08,0,0,1-3.58,5.33,38.45,38.45,0,0,1-21.6,13.39l-1.25.28-1.25-.28a38.25,38.25,0,0,1-30-37.36V78A1.39,1.39,0,0,0,46,78V92.87A41.15,41.15,0,0,0,55,118.57a41.29,41.29,0,0,0,23.15,14.36l1.55.34.3,0a1.36,1.36,0,0,0,.29,0l1.55-.34A41.16,41.16,0,0,0,105,118.57a41.77,41.77,0,0,0,3.85-5.72,1.38,1.38,0,0,0-.54-1.88h0A1.39,1.39,0,0,0,106.47,111.51Z"/><path class="cls-9" d="M46,64.15v8a1.38,1.38,0,0,0,1.39,1.38h0a1.38,1.38,0,0,0,1.38-1.38V65a22.43,22.43,0,0,0,6.14-4.36,22.06,22.06,0,0,0,4.36-6.15H101A22.46,22.46,0,0,0,111.33,65V92.87a38.17,38.17,0,0,1-2.46,13.46,1.4,1.4,0,0,0,.78,1.77h0a1.36,1.36,0,0,0,.48.09,1.4,1.4,0,0,0,1.3-.9,41,41,0,0,0,2.63-14.43V64.07a1.37,1.37,0,0,0-.82-1.26A19.69,19.69,0,0,1,103.16,52.6a1.38,1.38,0,0,0-1.27-.83H58.36a1.37,1.37,0,0,0-1.26.83,19.65,19.65,0,0,1-4.16,6.12c-.31.31-.62.6-.95.88a19.54,19.54,0,0,1-5.17,3.28A1.39,1.39,0,0,0,46,64.15Z"/><path class="cls-9" d="M99.31,70.63A6,6,0,0,0,96.11,75l-1.67,1.16a1.3,1.3,0,0,1-1.56,0,19.73,19.73,0,0,0-2.09-1.54L92.28,72a3.71,3.71,0,0,0,.47,0,4.14,4.14,0,1,0-4.13-4.13,4.09,4.09,0,0,0,1.18,2.88l-1.44,2.52a19.5,19.5,0,0,0-3.13-1.13,1.26,1.26,0,0,1-.94-1.22v-2a6.08,6.08,0,1,0-8.5,0V71a1.27,1.27,0,0,1-.92,1.22,19.19,19.19,0,0,0-3.2,1.18l-.85-1.44a4.4,4.4,0,0,0,.26-.39,4.13,4.13,0,0,0-4.66-6.05,4.13,4.13,0,0,0,1.07,8.12,4.56,4.56,0,0,0,1-.13l.73,1.24a19.28,19.28,0,0,0-2.38,1.83,1.29,1.29,0,0,1-1.55.12l-2.28-1.5a5.58,5.58,0,1,0-4.67,7.1l2.33,1.52a1.27,1.27,0,0,1,.52,1.43,19.68,19.68,0,0,0-.77,8.9l-1.91.25a3.71,3.71,0,1,0,.75,2.69L61,96.83a19.9,19.9,0,0,0,2.53,5.48,1.28,1.28,0,0,1-.11,1.55l-.92,1a5.47,5.47,0,0,0,.88,10.86h0a5.44,5.44,0,0,0,4.07-1.83,5.34,5.34,0,0,0,1.38-3.38l1-1.08a1.28,1.28,0,0,1,1.52-.28A19.82,19.82,0,0,0,78,111.1V113a3.84,3.84,0,1,0,2.76,0v-1.83a20.2,20.2,0,0,0,4.58-.68,1.24,1.24,0,0,1,1.38.58l1,1.59a5.65,5.65,0,0,0,11,2.51,5.7,5.7,0,0,0-.61-4.44,5.63,5.63,0,0,0-3.13-2.46l-.87-1.44a1.27,1.27,0,0,1,.19-1.55,19.82,19.82,0,0,0,4.47-6.95l1.43.41a3.71,3.71,0,1,0,.78-2.65l-1.42-.41a19.83,19.83,0,0,0-.69-11.12,1.28,1.28,0,0,1,.47-1.47L100.94,82a6.07,6.07,0,1,0-1.63-11.36ZM92.75,66.5a1.37,1.37,0,1,1-1.37,1.37A1.37,1.37,0,0,1,92.75,66.5ZM68.69,70.16a1.39,1.39,0,0,1-1.88.51,1.44,1.44,0,0,1-.64-.83,1.39,1.39,0,0,1,.14-1,1.33,1.33,0,0,1,.83-.64,1.12,1.12,0,0,1,.36,0,1.37,1.37,0,0,1,1.19,2ZM55.62,97.58a.94.94,0,1,1,1-.94A.94.94,0,0,1,55.62,97.58Zm48.23-.1a1,1,0,1,1-.95,1A1,1,0,0,1,103.85,97.48Zm-24.49,20.2a1.07,1.07,0,1,1,1.08-1.07A1.07,1.07,0,0,1,79.36,117.68Zm26-41.24a3.31,3.31,0,0,1-4.29,2.74,1.38,1.38,0,0,0-1.2.18l-2.17,1.5a4,4,0,0,0-1.5,4.68,17.07,17.07,0,0,1,1,5.81,17.25,17.25,0,0,1-.38,3.6l-3.39-1a1.37,1.37,0,0,0-1.71.94,1.38,1.38,0,0,0,.94,1.71l3.37,1a17.19,17.19,0,0,1-3.77,5.78,4,4,0,0,0-.59,4.92l1.16,1.92a1.42,1.42,0,0,0,.92.64A2.89,2.89,0,0,1,96,114.47a2.87,2.87,0,0,1-1.44,1.78,2.92,2.92,0,0,1-3.71-.92,2.89,2.89,0,0,1-.39-2.47,1.4,1.4,0,0,0-.14-1.11l-1.26-2.07a4,4,0,0,0-3.44-2,3.91,3.91,0,0,0-1,.13,17.25,17.25,0,0,1-4.47.59,17,17,0,0,1-7.56-1.75,4,4,0,0,0-4.8.92l-1.31,1.48a1.35,1.35,0,0,0-.35,1,2.67,2.67,0,0,1-.68,2,2.88,2.88,0,0,1-.73.57,2.71,2.71,0,0,1-1.28.33h0a2.7,2.7,0,0,1-.13-5.4,1.4,1.4,0,0,0,.61-.18,1.6,1.6,0,0,0,.35-.28l.86-1,.41-.47a4,4,0,0,0,.35-4.9,17.24,17.24,0,0,1-2-14.72,4,4,0,0,0-1.63-4.59l-2.78-1.82a1.38,1.38,0,0,0-1.08-.19A2.81,2.81,0,1,1,58,73.94a2.53,2.53,0,0,1,1.08.34,2.84,2.84,0,0,1,1.4,2,1.37,1.37,0,0,0,.6.92L63.82,79a4,4,0,0,0,4.9-.37,17.22,17.22,0,0,1,1.93-1.5l.85,1.45a1.38,1.38,0,0,0,1.2.68,1.36,1.36,0,0,0,.69-.19,1.38,1.38,0,0,0,.5-1.88l-.82-1.4a17.37,17.37,0,0,1,2.53-.92,4,4,0,0,0,3-3.88V68.28A1.37,1.37,0,0,0,78,67.19a3.29,3.29,0,0,1-1.29-2.62,3.33,3.33,0,0,1,1.1-2.47,3.26,3.26,0,0,1,2.59-.82,3.31,3.31,0,0,1,1.64,5.91,1.37,1.37,0,0,0-.54,1.09v2.64a4,4,0,0,0,3,3.89,18,18,0,0,1,2.46.87l-1,1.65a1.39,1.39,0,0,0,.51,1.89,1.42,1.42,0,0,0,.69.18,1.38,1.38,0,0,0,1.2-.7l1-1.72a19.05,19.05,0,0,1,1.7,1.25,4.05,4.05,0,0,0,4.9.21l2.19-1.52a1.36,1.36,0,0,0,.59-1.06,3.31,3.31,0,1,1,6.59.58Z"/><path class="cls-9" d="M70.62,84.06a4.53,4.53,0,1,0,4.53,4.53A4.53,4.53,0,0,0,70.62,84.06Zm0,6.3a1.77,1.77,0,1,1,1.77-1.77A1.77,1.77,0,0,1,70.62,90.36Z"/><path class="cls-9" d="M82.05,87.37a3.92,3.92,0,1,0-3.91-3.91A3.92,3.92,0,0,0,82.05,87.37Zm0-5.06a1.15,1.15,0,1,1-1.15,1.15A1.14,1.14,0,0,1,82.05,82.31Z"/><path class="cls-9" d="M80.35,95a5.74,5.74,0,1,0,5.73,5.73A5.74,5.74,0,0,0,80.35,95Zm0,8.7a3,3,0,1,1,3-3A3,3,0,0,1,80.35,103.73Z"/></g></g></svg>