<svg height="512pt" viewBox="-82 0 512 512.001" width="512pt" xmlns="http://www.w3.org/2000/svg"><g fill="#9e9797"><path d="m340.363281 90.46875h-59.820312c-4.273438 0-7.738281 3.460938-7.738281 7.734375s3.464843 7.734375 7.738281 7.734375h52.085937v36.101562h-52.085937c-4.273438 0-7.738281 3.460938-7.738281 7.734376 0 4.273437 3.464843 7.738281 7.738281 7.738281h52.085937v36.097656h-52.085937c-4.273438 0-7.738281 3.460937-7.738281 7.734375s3.464843 7.738281 7.738281 7.738281h52.085937v36.097657h-52.085937c-4.273438 0-7.738281 3.464843-7.738281 7.734374 0 4.273438 3.464843 7.738282 7.738281 7.738282h52.085937v36.097656h-52.085937c-4.273438 0-7.738281 3.464844-7.738281 7.738281 0 4.273438 3.464843 7.734375 7.738281 7.734375h59.820312c4.273438 0 7.734375-3.460937 7.734375-7.734375v-206.285156c0-4.273437-3.460937-7.734375-7.734375-7.734375zm0 0"/><path d="m54.230469 364.300781-40.191407 138.46875c-1.339843 4.617188 2.125 9.230469 6.933594 9.230469h12.414063c3.179687 0 5.988281-2.082031 6.910156-5.128906l37.039063-122.3125zm0 0"/><path d="m244.875 364.300781 40.195312 138.46875c1.339844 4.617188-2.125 9.230469-6.9375 9.230469h-12.410156c-3.183594 0-5.988281-2.082031-6.910156-5.128906l-37.042969-122.3125zm0 0"/></g><path d="m67.316406 375.773438-39.535156 131.097656c-.917969 3.03125-3.703125 5.105468-6.867188 5.125.019532 0 .039063.003906.058594.003906h12.410156c3.183594 0 5.988282-2.082031 6.910157-5.125l37.042969-122.316406zm0 0" fill="#766e6e"/><path d="m285.070312 502.765625-40.195312-138.464844-10.558594 9.257813 37.503906 129.207031c1.296876 4.464844-1.898437 8.90625-6.453124 9.207031.121093.003906.234374.027344.351562.027344h12.414062c4.8125 0 8.277344-4.613281 6.9375-9.234375zm0 0" fill="#766e6e"/><path d="m266.113281 58.921875h-115.566406v-49.921875c0-4.972656 4.027344-9 9-9h97.566406c4.96875 0 9 4.027344 9 9zm0 0" fill="#9e9797"/><path d="m72.1875 58.921875h-41.222656v-49.921875c0-4.972656 4.027344-9 9-9h23.222656c4.972656 0 9 4.027344 9 9zm0 0" fill="#9e9797"/><path d="m256.828125 0h-20.125c5.125 0 9.28125 4.15625 9.28125 9.28125v49.640625h20.128906v-49.640625c0-5.125-4.15625-9.28125-9.285156-9.28125zm0 0" fill="#766e6e"/><path d="m62.90625 0h-21.160156c5.128906 0 9.285156 4.15625 9.285156 9.28125v49.640625h21.15625v-49.640625c0-5.125-4.15625-9.28125-9.28125-9.28125zm0 0" fill="#766e6e"/><path d="m286.839844 352.007812-122.65625 107.535157c-7.78125 6.824219-19.414063 6.824219-27.195313 0l-122.65625-107.535157c-9.109375-7.984374-14.332031-19.507812-14.332031-31.617187v-255.6875c0-11.394531 9.234375-20.628906 20.628906-20.628906h259.914063c11.390625 0 20.625 9.234375 20.625 20.628906v255.683594c0 12.113281-5.21875 23.636719-14.328125 31.621093zm0 0" fill="#b9acac"/><path d="m280.542969 44.074219h-70.199219c11.394531 0 20.628906 9.238281 20.628906 20.628906v255.683594c0 12.113281-5.222656 23.636719-14.332031 31.621093l-101.152344 88.683594 21.5 18.851563c7.78125 6.820312 19.414063 6.820312 27.195313 0l122.65625-107.535157c9.105468-7.984374 14.328125-19.507812 14.328125-31.621093v-255.683594c0-11.394531-9.234375-20.628906-20.625-20.628906zm0 0" fill="#9e9797"/><path d="m164.480469 375.613281 66.59375-58.382812c4.5625-4.003907 7.179687-9.777344 7.179687-15.847657v-169.042968c0-7.734375-6.269531-14.003906-14.003906-14.003906h-147.332031c-7.734375 0-14.003907 6.269531-14.003907 14.003906v169.042968c0 6.070313 2.621094 11.84375 7.183594 15.847657l66.59375 58.382812c7.949219 6.96875 19.835938 6.96875 27.789063 0zm0 0" fill="#554e56"/><path d="m224.25 118.335938h-21.09375v165.921874c0 6.070313-2.617188 11.847657-7.183594 15.847657l-66.59375 58.382812c-2.222656 1.953125-4.765625 3.335938-7.433594 4.195313l14.742188 12.929687c7.953125 6.96875 19.839844 6.96875 27.789062 0l66.59375-58.382812c4.566407-4.003907 7.183594-9.777344 7.183594-15.847657v-169.042968c0-7.734375-6.269531-14.003906-14.003906-14.003906zm0 0" fill="#433f43"/><path d="m236.714844 167.527344c-22.660156 0-22.660156 12.613281-45.320313 12.613281-22.660156 0-22.660156-12.613281-45.320312-12.613281-22.65625 0-22.65625 12.613281-45.316407 12.613281-19.839843 0-22.324218-9.664063-37.84375-12.066406v133.308593c0 6.070313 2.621094 11.84375 7.183594 15.847657l66.59375 58.382812c7.949219 6.96875 19.835938 6.96875 27.789063 0l66.59375-58.382812c4.5625-4.003907 7.179687-9.777344 7.179687-15.847657v-133.832031c-.503906-.011719-1.011718-.023437-1.539062-.023437zm0 0" fill="#ffb541"/><path d="m119.488281 229.199219c0 4.617187-3.746093 8.359375-8.359375 8.359375-4.617187 0-8.359375-3.742188-8.359375-8.359375 0-4.617188 3.742188-8.359375 8.359375-8.359375 4.613282 0 8.359375 3.742187 8.359375 8.359375zm0 0" fill="#fdd79b"/><path d="m163.148438 274.183594c0 4.617187-3.742188 8.359375-8.359376 8.359375-4.613281 0-8.359374-3.742188-8.359374-8.359375 0-4.617188 3.746093-8.359375 8.359374-8.359375 4.617188 0 8.359376 3.742187 8.359376 8.359375zm0 0" fill="#fdd79b"/><path d="m185.152344 252.914062c0 4.617188-3.742188 8.359376-8.359375 8.359376-4.617188 0-8.359375-3.742188-8.359375-8.359376 0-4.617187 3.742187-8.359374 8.359375-8.359374 4.617187 0 8.359375 3.742187 8.359375 8.359374zm0 0" fill="#fdd79b"/><path d="m236.714844 167.527344c-17.867188 0-21.652344 7.835937-33.558594 11.152344v105.578124c0 6.070313-2.617188 11.847657-7.183594 15.847657l-66.59375 58.382812c-2.222656 1.953125-4.765625 3.335938-7.433594 4.195313l14.742188 12.929687c7.953125 6.96875 19.839844 6.96875 27.789062 0l66.59375-58.382812c4.566407-4.003907 7.183594-9.777344 7.183594-15.847657v-133.832031c-.503906-.011719-1.011718-.023437-1.539062-.023437zm0 0" fill="#ffa812"/><path d="m146.429688 320.015625c0 4.617187-3.742188 8.359375-8.355469 8.359375-4.617188 0-8.359375-3.742188-8.359375-8.359375 0-4.613281 3.742187-8.359375 8.359375-8.359375 4.613281 0 8.355469 3.746094 8.355469 8.359375zm0 0" fill="#fdd79b"/></svg>