<svg xmlns="http://www.w3.org/2000/svg" viewBox="0 0 161.79 243.13"><defs><style>.cls-1{fill:#fff;}.cls-2{fill:none;}.cls-3{fill:#edebdd;}</style></defs><g id="Layer_2" data-name="Layer 2"><g id="Layer_1-2" data-name="Layer 1"><path class="cls-1" d="M147.75,20.33A17.67,17.67,0,0,0,131.24,8.92H108l-.78-1.36A15.12,15.12,0,0,0,94.15,0H73.07A15.13,15.13,0,0,0,60,7.55l-.78,1.37H30.55A17.7,17.7,0,0,0,14,20.32,20,20,0,0,0,0,39.38V152.91a23.2,23.2,0,0,0,4.85,14.16L57.46,234.8a21.43,21.43,0,0,0,17,8.33H86.75a21.46,21.46,0,0,0,17-8.25l53.15-67.76a23.18,23.18,0,0,0,4.92-14.24V39.38A20,20,0,0,0,147.75,20.33Z"/><path class="cls-2" d="M141.83,32.5H123.28a1.54,1.54,0,0,1,0-3.07h12.55V26.57A4.59,4.59,0,0,0,131.24,22H30.55A4.59,4.59,0,0,0,26,26.57v2.86H92.79a1.54,1.54,0,0,1,0,3.07H20a6.89,6.89,0,0,0-6.89,6.88V152.91a10.11,10.11,0,0,0,2.1,6.14l52.61,67.73a8.45,8.45,0,0,0,6.71,3.28H86.75a8.42,8.42,0,0,0,6.68-3.25l53.15-67.75a10.05,10.05,0,0,0,2.14-6.18V39.38A6.89,6.89,0,0,0,141.83,32.5ZM124.27,91.14v.18a1.54,1.54,0,0,1-3.07,0v-.16a1.53,1.53,0,0,1,1.52-1.55A1.55,1.55,0,0,1,124.27,91.14Zm-1.86,12.5a1.53,1.53,0,0,1-1.46,1.08,1.88,1.88,0,0,1-.46-.06,1.54,1.54,0,1,1,1.92-1Zm-2-25.82a1.52,1.52,0,0,1,1.91,1,1.54,1.54,0,0,1-1,1.92,1.37,1.37,0,0,1-.45.07,1.53,1.53,0,0,1-.45-3Zm-3.55-10.2a1.53,1.53,0,0,1-.38,2.13,1.55,1.55,0,0,1-2.14-.39,1.54,1.54,0,0,1,.39-2.13A1.52,1.52,0,0,1,116.9,67.62Zm.11,47.25a1.54,1.54,0,0,1-1.28.67,1.48,1.48,0,0,1-.85-.27,1.53,1.53,0,1,1,1.72-2.53A1.54,1.54,0,0,1,117,114.87Zm-8.86-85.5h5.1a1.54,1.54,0,0,1,0,3.07h-5.1a1.54,1.54,0,1,1,0-3.07Zm-1.92,29.39a1.55,1.55,0,0,1,2.17-.24,1.54,1.54,0,0,1-1.92,2.4A1.56,1.56,0,0,1,106.23,58.76ZM100.3,29.83a1.54,1.54,0,0,1,1.4-.42l.28.08a1.1,1.1,0,0,1,.26.15,1.12,1.12,0,0,1,.24.19,1.51,1.51,0,0,1,.45,1.08,1.54,1.54,0,0,1-1.53,1.54,1.51,1.51,0,0,1-.6-.12l-.26-.14L100.3,32a1.59,1.59,0,0,1-.44-1.09A1.55,1.55,0,0,1,100.3,29.83ZM95.59,53.19a1.55,1.55,0,0,1,2-.88,1.54,1.54,0,0,1-.56,3,1.43,1.43,0,0,1-.56-.11A1.53,1.53,0,0,1,95.59,53.19Zm-10.17-3.6a1.53,1.53,0,0,1-.1,3.06h-.11a1.53,1.53,0,1,1,.21-3.06ZM73,50.55a1.53,1.53,0,1,1,.69,3,1.19,1.19,0,0,1-.33,0,1.54,1.54,0,0,1-.36-3ZM61.41,55.14A1.54,1.54,0,0,1,63,57.79a1.58,1.58,0,0,1-.78.21,1.55,1.55,0,0,1-1.33-.76A1.53,1.53,0,0,1,61.41,55.14Zm21,5.28a30.9,30.9,0,1,1-30.9,30.89A30.93,30.93,0,0,1,82.43,60.42ZM108.53,124a1.52,1.52,0,0,1-1,.34,1.5,1.5,0,0,1-1.2-.58,1.53,1.53,0,1,1,2.15.24Zm-10.79,6.25a1.47,1.47,0,0,1-.56.11,1.55,1.55,0,1,1,.56-.11ZM87,131.39A1.55,1.55,0,0,1,85.59,133h-.11A1.54,1.54,0,1,1,87,131.39ZM75,131a1.54,1.54,0,0,1-1.5,1.2,1.5,1.5,0,0,1-.35,0A1.53,1.53,0,1,1,75,131ZM44.68,73.25a1.54,1.54,0,0,1,2.78,1.33,1.53,1.53,0,0,1-1.39.87,1.54,1.54,0,0,1-1.39-2.2ZM42.82,98.92l-.23,0a1.54,1.54,0,1,1,.23,0ZM41,85.17a1.54,1.54,0,1,1,1.53,1.76h-.23A1.54,1.54,0,0,1,41,85.17Zm3.23,72H19.85a1.54,1.54,0,1,1,0-3.07H44.27a1.54,1.54,0,0,1,0,3.07Zm2.55-46.91a1.54,1.54,0,0,1-1.35-2.76,1.54,1.54,0,1,1,1.35,2.76ZM51,155.88a1.61,1.61,0,0,1-.09.29,2.15,2.15,0,0,1-.14.26,1.55,1.55,0,0,1-.19.24,1.6,1.6,0,0,1-1.09.45,1.57,1.57,0,0,1-1.08-.45,1.12,1.12,0,0,1-.19-.24,1.35,1.35,0,0,1-.15-.26c0-.1-.06-.19-.08-.29a1.51,1.51,0,0,1,0-.6c0-.1,0-.19.08-.29a1.35,1.35,0,0,1,.15-.26,1.06,1.06,0,0,1,.19-.23,1.43,1.43,0,0,1,.23-.2,1.71,1.71,0,0,1,.27-.14,2.29,2.29,0,0,1,.28-.09,1.59,1.59,0,0,1,1.39.43,1.56,1.56,0,0,1,.45,1.08A1.53,1.53,0,0,1,51,155.88Zm.67-92.94a1.51,1.51,0,0,1,2.15-.08A1.53,1.53,0,0,1,54,65a1.58,1.58,0,0,1-1.13.49,1.51,1.51,0,0,1-1-.41A1.52,1.52,0,0,1,51.7,62.94Zm2.27,57a1.54,1.54,0,0,1-1,.41,1.56,1.56,0,0,1-1.13-.49,1.54,1.54,0,1,1,2.17.08Zm7.35,37.21H56.25a1.54,1.54,0,1,1,0-3.07h5.07a1.54,1.54,0,1,1,0,3.07ZM63.66,127a1.55,1.55,0,0,1-1.33.77A1.54,1.54,0,0,1,61,125.48,1.54,1.54,0,0,1,63.66,127Zm8.22,93.27a1.4,1.4,0,0,1-.09.29,1.3,1.3,0,0,1-.14.26,1.55,1.55,0,0,1-.19.24,2.11,2.11,0,0,1-.23.19l-.27.14a1.4,1.4,0,0,1-.29.09,1.45,1.45,0,0,1-.3,0A1.54,1.54,0,0,1,68.84,220a1.51,1.51,0,0,1,.45-1.08A1.54,1.54,0,0,1,71.91,220,1.53,1.53,0,0,1,71.88,220.29Zm10.09.79a1.53,1.53,0,0,1-1.07.45A1.54,1.54,0,0,1,79.35,220,1.54,1.54,0,0,1,82,218.91a1.47,1.47,0,0,1,.45,1.08A1.51,1.51,0,0,1,82,221.08Zm10.52,0a1.53,1.53,0,0,1-2.17,0,1.12,1.12,0,0,1-.19-.24.94.94,0,0,1-.14-.26,1.4,1.4,0,0,1-.09-.29,1.53,1.53,0,0,1,0-.3,1.5,1.5,0,0,1,.45-1.08,1.57,1.57,0,0,1,2.17,0,1.51,1.51,0,0,1,.45,1.08A1.6,1.6,0,0,1,92.49,221.08Zm40.87-63.92H68.29a1.54,1.54,0,1,1,0-3.07h65.07a1.54,1.54,0,1,1,0,3.07Zm9.66-.49a1.53,1.53,0,0,1-2.17,0,1.55,1.55,0,0,1-.45-1.09,1.51,1.51,0,0,1,.45-1.08,1.57,1.57,0,0,1,2.17,0,1.51,1.51,0,0,1,.45,1.08A1.55,1.55,0,0,1,143,156.67Z"/><path d="M141.83,29.43H138.9V26.57a7.66,7.66,0,0,0-7.66-7.65h-29l-3.67-6.38A5.08,5.08,0,0,0,94.15,10H73.07a5.09,5.09,0,0,0-4.4,2.54L65,18.92H30.55a7.66,7.66,0,0,0-7.66,7.65v2.86H20a10,10,0,0,0-10,10V152.91a13.15,13.15,0,0,0,2.75,8l52.61,67.73a11.5,11.5,0,0,0,9.13,4.47H86.75a11.5,11.5,0,0,0,9.1-4.42L149,161a13.1,13.1,0,0,0,2.79-8.07V39.38A10,10,0,0,0,141.83,29.43ZM73.07,13.07H94.15a2,2,0,0,1,1.73,1l2.79,4.85H68.54l2.79-4.84A2,2,0,0,1,73.07,13.07Zm75.65,139.81a10.05,10.05,0,0,1-2.14,6.18L93.43,226.81a8.42,8.42,0,0,1-6.68,3.25H74.49a8.45,8.45,0,0,1-6.71-3.28L15.17,159.05a10.11,10.11,0,0,1-2.1-6.14V39.38A6.89,6.89,0,0,1,20,32.5H92.79a1.54,1.54,0,0,0,0-3.07H26V26.57A4.59,4.59,0,0,1,30.55,22H131.24a4.59,4.59,0,0,1,4.59,4.58v2.86H123.28a1.54,1.54,0,0,0,0,3.07h18.55a6.89,6.89,0,0,1,6.89,6.88Z"/><path d="M133.36,154.09H68.29a1.54,1.54,0,1,0,0,3.07h65.07a1.54,1.54,0,1,0,0-3.07Z"/><path d="M44.27,154.09H19.85a1.54,1.54,0,1,0,0,3.07H44.27a1.54,1.54,0,0,0,0-3.07Z"/><path d="M61.32,154H56.25a1.54,1.54,0,1,0,0,3.07h5.07a1.54,1.54,0,1,0,0-3.07Z"/><path d="M140.85,154.5a1.51,1.51,0,0,0-.45,1.08,1.55,1.55,0,0,0,.45,1.09,1.53,1.53,0,0,0,2.17,0,1.55,1.55,0,0,0,.45-1.09,1.51,1.51,0,0,0-.45-1.08A1.57,1.57,0,0,0,140.85,154.5Z"/><path d="M49.22,154.07a2.29,2.29,0,0,0-.28.09,1.71,1.71,0,0,0-.27.14,1.43,1.43,0,0,0-.23.2,1.06,1.06,0,0,0-.19.23,1.35,1.35,0,0,0-.15.26c0,.1-.06.19-.08.29a1.51,1.51,0,0,0,0,.6c0,.1,0,.19.08.29a1.35,1.35,0,0,0,.15.26,1.12,1.12,0,0,0,.19.24,1.57,1.57,0,0,0,1.08.45,1.6,1.6,0,0,0,1.09-.45,1.55,1.55,0,0,0,.19-.24,2.15,2.15,0,0,0,.14-.26,1.61,1.61,0,0,0,.09-.29,1.53,1.53,0,0,0,0-.3,1.56,1.56,0,0,0-.45-1.08A1.59,1.59,0,0,0,49.22,154.07Z"/><path d="M108.15,32.44h5.1a1.54,1.54,0,0,0,0-3.07h-5.1a1.54,1.54,0,1,0,0,3.07Z"/><path d="M100.54,32.19l.26.14a1.51,1.51,0,0,0,.6.12,1.54,1.54,0,0,0,1.53-1.54,1.51,1.51,0,0,0-.45-1.08,1.12,1.12,0,0,0-.24-.19,1.1,1.1,0,0,0-.26-.15l-.28-.08a1.52,1.52,0,0,0-1.84,1.5A1.59,1.59,0,0,0,100.3,32Z"/><path d="M69.29,218.91a1.51,1.51,0,0,0-.45,1.08,1.54,1.54,0,0,0,1.53,1.54,1.45,1.45,0,0,0,.3,0,1.4,1.4,0,0,0,.29-.09l.27-.14a2.11,2.11,0,0,0,.23-.19,1.55,1.55,0,0,0,.19-.24,1.3,1.3,0,0,0,.14-.26,1.4,1.4,0,0,0,.09-.29,1.53,1.53,0,0,0,0-.3,1.54,1.54,0,0,0-2.62-1.08Z"/><path d="M79.8,218.91a1.56,1.56,0,0,0-.45,1.08,1.54,1.54,0,0,0,1.55,1.54,1.53,1.53,0,0,0,1.07-.45,1.51,1.51,0,0,0,.45-1.09,1.47,1.47,0,0,0-.45-1.08A1.57,1.57,0,0,0,79.8,218.91Z"/><path d="M90.32,218.91a1.5,1.5,0,0,0-.45,1.08,1.53,1.53,0,0,0,0,.3,1.4,1.4,0,0,0,.09.29.94.94,0,0,0,.14.26,1.12,1.12,0,0,0,.19.24,1.53,1.53,0,0,0,2.17,0,1.6,1.6,0,0,0,.45-1.09,1.51,1.51,0,0,0-.45-1.08A1.57,1.57,0,0,0,90.32,218.91Z"/><path class="cls-1" d="M98.67,18.92l-2.79-4.85a2,2,0,0,0-1.73-1H73.07a2,2,0,0,0-1.74,1l-2.79,4.84Z"/><path class="cls-3" d="M84.89,95.21a3,3,0,0,0,1.65.5,2.9,2.9,0,0,0,1.63-.5,3.4,3.4,0,0,0,1.17-1.34,4.32,4.32,0,0,0,0-3.76,3.28,3.28,0,0,0-1.16-1.33,2.9,2.9,0,0,0-1.64-.49,3,3,0,0,0-1.65.49,3.44,3.44,0,0,0-1.23,1.33A3.92,3.92,0,0,0,83.21,92a4,4,0,0,0,.45,1.88A3.57,3.57,0,0,0,84.89,95.21Z"/><path class="cls-3" d="M54.6,91.31A27.83,27.83,0,1,0,82.43,63.49,27.86,27.86,0,0,0,54.6,91.31ZM97.9,80.5a3.81,3.81,0,0,1,1.44.26,2.35,2.35,0,0,1,1,.74,1.67,1.67,0,0,1,.37,1.08,2.36,2.36,0,0,1-.4,1.26,7.25,7.25,0,0,1-1.14,1.38l-1.4,1.41h3.11v1.81H94.8V87l2.8-2.89a2.92,2.92,0,0,0,.48-.61,1,1,0,0,0,.19-.53.47.47,0,0,0-.19-.41.85.85,0,0,0-.52-.14,2.56,2.56,0,0,0-1,.26,5.51,5.51,0,0,0-1.14.74l-.87-1.68A6,6,0,0,1,97.9,80.5ZM80,88.36a6.74,6.74,0,0,1,2.65-2.51,8.31,8.31,0,0,1,7.6,0,6.64,6.64,0,0,1,2.66,2.51,6.88,6.88,0,0,1,1,3.6,7,7,0,0,1-1,3.64,6.71,6.71,0,0,1-2.66,2.54,8.23,8.23,0,0,1-7.6,0A6.81,6.81,0,0,1,80,95.6a7,7,0,0,1-1-3.64A6.88,6.88,0,0,1,80,88.36Zm-13.19,0a6.66,6.66,0,0,1,2.62-2.51,7.66,7.66,0,0,1,3.75-.92,7.75,7.75,0,0,1,3.07.66,7.51,7.51,0,0,1,2.56,1.77l-2.33,2.78A4.91,4.91,0,0,0,75,88.79a3.48,3.48,0,0,0-1.71-.5,3,3,0,0,0-1.65.47,3.25,3.25,0,0,0-1.17,1.29,4.22,4.22,0,0,0,0,3.71,3.35,3.35,0,0,0,1.17,1.3,3,3,0,0,0,1.65.47,3.91,3.91,0,0,0,1.66-.42,5.74,5.74,0,0,0,1.58-1.17l2.33,2.49a8.37,8.37,0,0,1-2.67,1.92,7.41,7.41,0,0,1-6.78-.21,6.63,6.63,0,0,1-2.57-2.55,7.23,7.23,0,0,1-.93-3.65A6.92,6.92,0,0,1,66.84,88.36Z"/><path d="M82.43,122.21a30.9,30.9,0,1,0-30.9-30.9A30.93,30.93,0,0,0,82.43,122.21Zm27.82-30.9A27.83,27.83,0,1,1,82.43,63.49,27.85,27.85,0,0,1,110.25,91.31Z"/><path d="M106.48,60.92a1.54,1.54,0,1,0,1.92-2.4,1.54,1.54,0,1,0-1.92,2.4Z"/><path d="M72,130.29a1.53,1.53,0,0,0,1.15,1.83,1.5,1.5,0,0,0,.35,0,1.53,1.53,0,1,0-1.5-1.87Z"/><path d="M106.61,121.61a1.54,1.54,0,0,0-.23,2.16,1.5,1.5,0,0,0,1.2.58,1.54,1.54,0,0,0,1.19-2.5A1.54,1.54,0,0,0,106.61,121.61Z"/><path d="M84,131.62A1.54,1.54,0,0,0,85.48,133h.11A1.53,1.53,0,1,0,84,131.62Z"/><path d="M42.35,95.89a1.53,1.53,0,0,0,.24,3l.23,0a1.53,1.53,0,0,0-.47-3Z"/><path d="M96.62,127.4a1.54,1.54,0,0,0,.56,3,1.47,1.47,0,0,0,.56-.11,1.54,1.54,0,0,0-1.12-2.86Z"/><path d="M45.41,75.3a1.55,1.55,0,0,0,.66.15,1.53,1.53,0,0,0,.66-2.92,1.53,1.53,0,1,0-1.32,2.77Z"/><path d="M63.1,124.92a1.54,1.54,0,1,0-1.55,2.66,1.58,1.58,0,0,0,.78.21,1.54,1.54,0,0,0,.77-2.87Z"/><path d="M51.89,117.65a1.53,1.53,0,0,0-.09,2.17,1.56,1.56,0,0,0,1.13.49,1.53,1.53,0,1,0-1-2.66Z"/><path d="M45.47,107.49a1.54,1.54,0,1,0,2.06.71A1.53,1.53,0,0,0,45.47,107.49Z"/><path d="M52.82,65.52A1.58,1.58,0,0,0,54,65a1.53,1.53,0,0,0-.1-2.17,1.53,1.53,0,1,0-1,2.66Z"/><path d="M42.34,86.92h.23a1.5,1.5,0,1,0-.23,0Z"/><path d="M62.18,58a1.58,1.58,0,0,0,.78-.21,1.55,1.55,0,1,0-.78.21Z"/><path d="M96.46,55.17a1.43,1.43,0,0,0,.56.11,1.54,1.54,0,1,0-.56-.11Z"/><path d="M114.38,69.36a1.53,1.53,0,1,0,.39-2.13A1.54,1.54,0,0,0,114.38,69.36Z"/><path d="M120.9,80.82a1.37,1.37,0,0,0,.45-.07,1.54,1.54,0,0,0,1-1.92,1.52,1.52,0,0,0-1.91-1,1.53,1.53,0,0,0,.45,3Z"/><path d="M121.2,91.16v.16a1.54,1.54,0,0,0,3.07,0v-.18a1.55,1.55,0,0,0-1.55-1.53A1.53,1.53,0,0,0,121.2,91.16Z"/><path d="M119.48,102.74a1.53,1.53,0,0,0,1,1.92,1.88,1.88,0,0,0,.46.06,1.53,1.53,0,1,0-1.47-2Z"/><path d="M116.6,112.74a1.53,1.53,0,1,0-1.72,2.53,1.48,1.48,0,0,0,.85.27,1.53,1.53,0,0,0,.87-2.8Z"/><path d="M85.21,52.65h.11a1.49,1.49,0,1,0-.11,0Z"/><path d="M73.35,53.58a1.19,1.19,0,0,0,.33,0,1.52,1.52,0,1,0-.33,0Z"/><path d="M69.39,98.14a7.41,7.41,0,0,0,6.78.21,8.37,8.37,0,0,0,2.67-1.92l-2.33-2.49a5.74,5.74,0,0,1-1.58,1.17,3.91,3.91,0,0,1-1.66.42,3,3,0,0,1-1.65-.47,3.35,3.35,0,0,1-1.17-1.3,4.22,4.22,0,0,1,0-3.71,3.25,3.25,0,0,1,1.17-1.29,3,3,0,0,1,1.65-.47,3.48,3.48,0,0,1,1.71.5,4.91,4.91,0,0,1,1.53,1.35l2.33-2.78a7.51,7.51,0,0,0-2.56-1.77,7.75,7.75,0,0,0-3.07-.66,7.66,7.66,0,0,0-3.75.92,6.66,6.66,0,0,0-2.62,2.51,6.92,6.92,0,0,0-1,3.58,7.23,7.23,0,0,0,.93,3.65A6.63,6.63,0,0,0,69.39,98.14Z"/><path d="M82.68,98.14a8.23,8.23,0,0,0,7.6,0,6.71,6.71,0,0,0,2.66-2.54,7,7,0,0,0,1-3.64,6.88,6.88,0,0,0-1-3.6,6.64,6.64,0,0,0-2.66-2.51,8.31,8.31,0,0,0-7.6,0A6.74,6.74,0,0,0,80,88.36a6.88,6.88,0,0,0-1,3.6,7,7,0,0,0,1,3.64A6.81,6.81,0,0,0,82.68,98.14Zm1-8a3.44,3.44,0,0,1,1.23-1.33,3,3,0,0,1,1.65-.49,2.9,2.9,0,0,1,1.64.49,3.28,3.28,0,0,1,1.16,1.33,4.32,4.32,0,0,1,0,3.76,3.4,3.4,0,0,1-1.17,1.34,2.9,2.9,0,0,1-1.63.5,3,3,0,0,1-1.65-.5,3.57,3.57,0,0,1-1.23-1.35A4,4,0,0,1,83.21,92,3.92,3.92,0,0,1,83.66,90.11Z"/><path d="M96.53,82.64a2.56,2.56,0,0,1,1-.26.85.85,0,0,1,.52.14.47.47,0,0,1,.19.41,1,1,0,0,1-.19.53,2.92,2.92,0,0,1-.48.61L94.79,87v1.48h6.07V86.63H97.76l1.4-1.41a7.25,7.25,0,0,0,1.14-1.38,2.36,2.36,0,0,0,.4-1.26,1.67,1.67,0,0,0-.37-1.08,2.35,2.35,0,0,0-1-.74,3.81,3.81,0,0,0-1.44-.26,6,6,0,0,0-3.38,1.2l.87,1.68A5.51,5.51,0,0,1,96.53,82.64Z"/></g></g></svg>