<?xml version="1.0" encoding="iso-8859-1"?>
<!-- Generator: Adobe Illustrator 18.0.0, SVG Export Plug-In . SVG Version: 6.00 Build 0)  -->
<!DOCTYPE svg PUBLIC "-//W3C//DTD SVG 1.1//EN" "http://www.w3.org/Graphics/SVG/1.1/DTD/svg11.dtd">
<svg version="1.1" id="Capa_1" xmlns="http://www.w3.org/2000/svg" xmlns:xlink="http://www.w3.org/1999/xlink" x="0px" y="0px"
	 viewBox="0 0 512 512" style="enable-background:new 0 0 512 512;" xml:space="preserve">
<g>
	<path style="fill:#566E7F;" d="M496,248H16c-8.836,0-16,7.163-16,16v48c0,8.836,7.164,16,16,16h480c8.837,0,16-7.164,16-16v-48
		C512,255.163,504.837,248,496,248z M328,304H184v-32h144V304z"/>
	<path style="fill:#B1C3D0;" d="M344,106.174V24c0-8.837-7.163-16-16-16H184c-8.837,0-16,7.163-16,16v82.174
		c0,8.823-3.643,17.255-10.068,23.302L32,248h448L354.069,129.476C347.643,123.429,344,114.997,344,106.174z"/>
	<g>
		<path style="fill:#D0D7DA;" d="M196.696,377.524c-3.586-2.602-8.586-1.797-11.172,1.781c-2.594,3.578-1.797,8.578,1.781,11.172
			C195.492,396.414,200,404.055,200,412s-4.508,15.586-12.695,21.523C174.852,442.547,168,454.789,168,468
			s6.852,25.453,19.305,34.477c1.422,1.031,3.063,1.523,4.688,1.523c2.477,0,4.922-1.148,6.484-3.305
			c2.594-3.578,1.797-8.578-1.781-11.172C188.508,483.586,184,475.945,184,468s4.508-15.586,12.695-21.523
			C209.149,437.453,216,425.211,216,412S209.149,386.547,196.696,377.524z"/>
		<path style="fill:#D0D7DA;" d="M260.695,377.524c-3.594-2.602-8.586-1.797-11.172,1.781c-2.594,3.578-1.797,8.578,1.781,11.172
			C259.492,396.414,264,404.055,264,412s-4.508,15.586-12.695,21.523C238.852,442.547,232,454.789,232,468
			s6.852,25.453,19.305,34.477c1.422,1.031,3.063,1.523,4.688,1.523c2.477,0,4.922-1.148,6.484-3.305
			c2.594-3.578,1.797-8.578-1.781-11.172C252.508,483.586,248,475.945,248,468s4.508-15.586,12.695-21.523
			C273.149,437.453,280,425.211,280,412S273.149,386.547,260.695,377.524z"/>
		<path style="fill:#D0D7DA;" d="M324.695,446.477C337.149,437.453,344,425.211,344,412s-6.852-25.453-19.305-34.477
			c-3.594-2.602-8.594-1.797-11.172,1.781c-2.594,3.578-1.797,8.578,1.781,11.172C323.492,396.414,328,404.055,328,412
			s-4.508,15.586-12.695,21.523C302.852,442.547,296,454.789,296,468s6.852,25.453,19.305,34.477
			c1.422,1.031,3.063,1.523,4.688,1.523c2.477,0,4.922-1.148,6.484-3.305c2.594-3.578,1.797-8.578-1.781-11.172
			C316.508,483.586,312,475.945,312,468S316.508,452.414,324.695,446.477z"/>
	</g>
	<path style="fill:#3F556B;" d="M48,304c-7.447,0-13.651-5.107-15.435-12c-0.332,1.286-0.565,2.61-0.565,4c0,8.844,7.164,16,16,16
		c8.836,0,16-7.156,16-16c0-1.39-0.233-2.714-0.565-4C61.651,298.893,55.447,304,48,304z"/>
	<path style="fill:#B1C3D0;" d="M64,288c0,8.844-7.164,16-16,16c-8.836,0-16-7.156-16-16c0-8.843,7.164-16,16-16
		C56.836,272,64,279.157,64,288z"/>
	<path style="fill:#3F556B;" d="M96,304c-7.447,0-13.651-5.107-15.435-12c-0.332,1.286-0.565,2.61-0.565,4c0,8.844,7.164,16,16,16
		c8.836,0,16-7.156,16-16c0-1.39-0.233-2.714-0.565-4C109.651,298.893,103.447,304,96,304z"/>
	<path style="fill:#B1C3D0;" d="M112,288c0,8.844-7.164,16-16,16c-8.836,0-16-7.156-16-16c0-8.843,7.164-16,16-16
		C104.836,272,112,279.157,112,288z"/>
	<rect x="184" y="280" style="fill:#3CB44A;" width="144" height="24"/>
	<path style="fill:#8EADBE;" d="M344,106.174V24c0-8.837-7.163-16-16-16h-16v104.446c0,4.968,1.157,9.867,3.378,14.311l35.255,70.51
		c7.979,15.958-3.625,34.733-21.466,34.733H49l-17,16h344h24h80L354.069,129.476C347.643,123.429,344,114.997,344,106.174z"/>
	<path style="fill:#3F556B;" d="M496,328c8.837,0,16-7.163,16-16v-48c-4.418,0-8,3.582-8,8v32c0,8.837-7.163,16-16,16H24
		c-4.418,0-8,3.582-8,8H496z"/>
	<rect x="184" y="272" style="fill:#0E9247;" width="144" height="8"/>
</g>
<g>
</g>
<g>
</g>
<g>
</g>
<g>
</g>
<g>
</g>
<g>
</g>
<g>
</g>
<g>
</g>
<g>
</g>
<g>
</g>
<g>
</g>
<g>
</g>
<g>
</g>
<g>
</g>
<g>
</g>
</svg>
