<?xml version="1.0" encoding="UTF-8"?>
<svg xmlns="http://www.w3.org/2000/svg" xmlns:xlink="http://www.w3.org/1999/xlink" width="512" height="512" viewBox="0 0 58 59" version="1.1"><!-- Generator: Sketch 51.3 (57544) - http://www.bohemiancoding.com/sketch --><title>015 - Still</title><desc>Created with Sketch.</desc><defs/><g id="Page-1" stroke="none" stroke-width="1" fill="none" fill-rule="evenodd"><g id="015---Still" fill-rule="nonzero"><path d="M48,12 L56,12 C55.7990326,12.5347378 55.5229266,13.0381261 55.18,13.495 C54.9673895,13.7789879 54.7120212,14.028284 54.423,14.234 C53.8772752,14.5700106 53.2858187,14.8253204 52.667,14.992 C52.054247,15.2155979 51.4756737,15.5235645 50.948,15.907 C49.806223,16.7736834 48.8109055,17.8179564 48,19 L10,19 C9.18909448,17.8179564 8.19377702,16.7736834 7.052,15.907 C6.52432631,15.5235645 5.945753,15.2155979 5.333,14.992 C4.71418133,14.8253204 4.12272478,14.5700106 3.577,14.234 C3.28835372,14.0298003 3.03300568,13.7822105 2.82,13.5 C2.47665816,13.0415822 2.20053779,12.536484 2,12 L48,12 Z" id="Shape" fill="#7F8C8D"/><path d="M57,13 L1,13 C0.44771525,13 0,12.5522847 0,12 C-1.11022302e-16,11.4477153 0.44771525,11 1,11 L57,11 C57.5522847,11 58,11.4477153 58,12 C58,12.5522847 57.5522847,13 57,13 Z" id="Shape" fill="#BDC3C7"/><path d="M48,7 L48,51 C48,55.42 39.49,59 29,59 C18.51,59 10,55.42 10,51 L10,7 L48,7 Z" id="Shape" fill="#95A5A5"/><path d="M40,6 C39.7728397,6.0001065 39.5524122,5.9228687 39.375,5.781 L35.2,2.438 C34.8442497,2.15453944 34.4028716,2.00012761 33.948,2 L24.048,2 C23.5941575,2.00080557 23.1539453,2.15517942 22.799,2.438 L18.625,5.781 C18.3459756,6.004291 17.969022,6.06176263 17.6361342,5.93176589 C17.3032463,5.80176914 17.0649976,5.50405362 17.0111341,5.15076588 C16.9572707,4.79747814 17.0959756,4.44229099 17.375,4.219 L21.554,0.876 C22.2635808,0.309798588 23.1442071,0.00098007431 24.052,0 L33.952,0 C34.860479,0.000527462038 35.7418829,0.309371392 36.452,0.876 L40.631,4.219 C40.9636571,4.48499268 41.0913244,4.93250295 40.9490844,5.333976 C40.8068444,5.73544905 40.4259169,6.00276654 40,6 Z" id="Shape" fill="#95A5A5"/><path d="M31,44.8 L31,49.77 L27,49.77 L27,44.8 L26.07,25.44 L26.75,19.98 C26.8936332,18.8467441 27.857678,17.9971736 29,17.9971736 C30.142322,17.9971736 31.1063668,18.8467441 31.25,19.98 L31.93,25.44 L31,44.8 Z" id="Shape" fill="#7F8C8D"/><circle id="Oval" fill="#E6E7E8" cx="29" cy="52" r="3"/><path d="M15,14 L14,14 C13.4477153,14 13,13.5522847 13,13 C13,12.4477153 13.4477153,12 14,12 L15,12 C15.5522847,12 16,12.4477153 16,13 C16,13.5522847 15.5522847,14 15,14 Z" id="Shape" fill="#E6E7E8"/><path d="M40,14 L19,14 C18.4477153,14 18,13.5522847 18,13 C18,12.4477153 18.4477153,12 19,12 L40,12 C40.5522847,12 41,12.4477153 41,13 C41,13.5522847 40.5522847,14 40,14 Z" id="Shape" fill="#E6E7E8"/><path d="M48,5 L50.293,7.293 C50.5789079,7.57899425 50.6644219,8.00903662 50.509678,8.38265456 C50.3549341,8.7562725 49.9903959,8.99991365 49.586,9 L8.414,9 C8.0096041,8.99991365 7.64506595,8.7562725 7.49032202,8.38265456 C7.33557809,8.00903662 7.42109208,7.57899425 7.707,7.293 L10,5 L48,5 Z" id="Shape" fill="#BDC3C7"/><circle id="Oval" fill="#ECF0F1" cx="29" cy="35" r="10"/><path d="M29,46 C22.9248678,46 18,41.0751322 18,35 C18,28.9248678 22.9248678,24 29,24 C35.0751322,24 40,28.9248678 40,35 C39.9928365,41.0721626 35.0721626,45.9928365 29,46 Z M29,26 C24.0294373,26 20,30.0294373 20,35 C20,39.9705627 24.0294373,44 29,44 C33.9705627,44 38,39.9705627 38,35 C37.993939,30.0319499 33.9680501,26.006061 29,26 Z" id="Shape" fill="#4482C3"/><path d="M35,36 C34.4477153,36 34,35.5522847 34,35 C34,32.2385763 31.7614237,30 29,30 C26.2385763,30 24,32.2385763 24,35 C24,35.5522847 23.5522847,36 23,36 C22.4477153,36 22,35.5522847 22,35 C22,31.1340068 25.1340068,28 29,28 C32.8659932,28 36,31.1340068 36,35 C36,35.5522847 35.5522847,36 35,36 Z" id="Shape" fill="#35495E"/><path d="M29,38 C28.4477153,38 28,37.5522847 28,37 L28,33 C28,32.4477153 28.4477153,32 29,32 C29.5522847,32 30,32.4477153 30,33 L30,37 C30,37.5522847 29.5522847,38 29,38 Z" id="Shape" fill="#E64C3C"/><path d="M29,42 C28.9329301,41.9982939 28.8660796,41.9916089 28.8,41.98 C28.7373375,41.9691127 28.6766624,41.9488877 28.62,41.92 C28.5562619,41.8981446 28.4957271,41.8678773 28.44,41.83 L28.29,41.71 C28.25,41.66 28.21,41.61 28.17,41.55 C28.1303512,41.4989925 28.0998955,41.4414651 28.08,41.38 C28.0511123,41.3233376 28.0308873,41.2626625 28.02,41.2 C27.9933333,41.068 27.9933333,40.932 28.02,40.8 C28.0308873,40.7373375 28.0511123,40.6766624 28.08,40.62 C28.1018554,40.5562619 28.1321227,40.4957271 28.17,40.44 L28.29,40.29 L28.44,40.17 C28.4957271,40.1321227 28.5562619,40.1018554 28.62,40.08 C28.6766624,40.0511123 28.7373375,40.0308873 28.8,40.02 C28.9948642,39.9791133 29.1976321,40.0000893 29.38,40.08 C29.5023813,40.128323 29.6143929,40.1996032 29.71,40.29 L29.83,40.44 C29.8678773,40.4957271 29.8981446,40.5562619 29.92,40.62 C29.9488877,40.6766624 29.9691127,40.7373375 29.98,40.8 C30.0066667,40.932 30.0066667,41.068 29.98,41.2 C29.9691127,41.2626625 29.9488877,41.3233376 29.92,41.38 C29.9001045,41.4414651 29.8696488,41.4989925 29.83,41.55 C29.79,41.61 29.75,41.66 29.71,41.71 C29.616074,41.802531 29.5036026,41.8741036 29.38,41.92 C29.2597777,41.971241 29.1306773,41.99842 29,42 Z" id="Shape" fill="#35495E"/></g></g></svg>
