<?xml version="1.0" encoding="UTF-8"?>
<!DOCTYPE svg PUBLIC "-//W3C//DTD SVG 1.1//EN" "http://www.w3.org/Graphics/SVG/1.1/DTD/svg11.dtd">
<svg version="1.1" xmlns="http://www.w3.org/2000/svg" xmlns:xlink="http://www.w3.org/1999/xlink" x="0" y="0" width="120" height="200" viewBox="0, 0, 120, 200">
  <g id="Ebene_1">
    <path d="M60.009,7.352 C61.422,7.353 73.819,7.474 73.819,11.656 L73.819,56.12 C78.446,58.277 103.501,70.091 107.577,74.951 C108.236,75.594 108.625,76.43 108.725,77.339 L108.725,153.967 C108.556,157.858 105.577,160.463 102.63,162.558 L106.274,165.139 C106.5,165.273 106.707,165.4 106.834,165.655 L106.834,192.043 C106.662,192.457 106.211,192.607 105.807,192.648 L99.685,192.647 C99.022,192.648 98.484,192.11 98.484,191.447 L98.484,173.485 L50.621,173.485 L50.621,173.485 L21.099,173.485 L21.099,191.447 C21.099,192.11 20.562,192.648 19.899,192.648 L13.777,192.647 C13.113,192.648 12.576,192.11 12.576,191.447 L12.576,166.28 C12.576,166.228 12.581,166.146 12.599,166.048 C12.601,166.041 12.602,166.033 12.604,166.026 C12.617,165.962 12.64,165.892 12.669,165.818 L12.673,165.806 C12.767,165.575 12.952,165.321 13.31,165.139 L17.162,162.41 C13.316,159.823 11.275,156.869 11.275,153.754 L11.275,77.501 C11.275,76.604 11.667,75.746 12.441,74.95 C13.808,73.321 17.533,70.91 22.055,68.343 L20.842,65.945 C19.736,66.347 18.88,66.553 18.226,66.553 C17.404,66.553 16.891,66.236 16.569,65.599 C15.985,64.445 16.798,62.966 19.118,60.963 L17.258,59.942 C17.204,59.978 17.153,60.018 17.094,60.048 C16.244,60.477 15.2,60.12 14.759,59.25 C14.319,58.38 14.651,57.327 15.501,56.897 C16.35,56.467 17.395,56.824 17.835,57.694 C17.963,57.946 18.018,58.213 18.023,58.476 L20.512,59.842 C20.725,59.68 20.941,59.518 21.164,59.357 L20.388,57.822 C20.091,57.235 20.04,56.566 20.245,55.94 C20.451,55.313 20.888,54.805 21.476,54.508 L29.554,50.422 C30.141,50.125 30.81,50.074 31.437,50.28 C32.063,50.486 32.571,50.922 32.869,51.51 L33.648,53.051 C33.906,52.967 34.164,52.884 34.421,52.806 L34.797,49.993 C34.587,49.834 34.405,49.631 34.278,49.379 C33.838,48.509 34.17,47.455 35.02,47.026 C35.869,46.596 36.914,46.953 37.354,47.823 C37.794,48.693 37.463,49.747 36.613,50.176 C36.554,50.206 36.492,50.223 36.431,50.246 L36.151,52.344 C38.627,51.778 40.749,51.765 41.395,53.044 L41.396,53.044 C41.974,54.188 41.353,55.218 39.143,56.691 L40.277,58.935 C42.996,57.621 45.136,56.616 46.199,56.12 L46.199,11.656 C46.199,7.474 58.595,7.353 60.009,7.353 L60.009,7.352 z M104.606,167.48 L91.389,167.48 C85.594,169.232 78.804,170.458 71.49,171.083 L99.685,171.083 C100.348,171.083 100.886,171.621 100.886,172.284 L100.886,190.246 L104.606,190.246 L104.606,167.48 z M28.629,167.48 L14.978,167.48 L14.978,190.246 L18.698,190.246 L18.698,172.284 C18.698,171.621 19.236,171.083 19.899,171.083 L48.528,171.083 C41.214,170.458 34.424,169.232 28.629,167.481 L28.629,167.48 z M106.341,81.028 C105.869,81.347 105.332,81.653 104.74,81.947 L91.535,85.96 L76.921,87.282 C73.967,87.501 71,87.658 68.114,87.76 L63.711,87.877 C62.857,87.891 62.016,87.9 61.19,87.905 L58.828,87.905 C49.851,87.855 39.097,87.236 30.088,85.857 L24.484,84.844 C23.291,84.59 22.154,84.319 21.082,84.03 L15.278,81.946 C14.686,81.653 14.149,81.347 13.677,81.028 L13.677,153.754 C13.677,161.197 32.295,169.165 60.009,169.165 C87.724,169.165 106.341,161.197 106.341,153.754 L106.341,81.028 z M73.124,58.446 C73.1,58.47 73.073,58.492 73.048,58.515 C73.012,58.549 72.976,58.582 72.937,58.615 C72.874,58.671 72.807,58.725 72.737,58.778 C72.697,58.809 72.657,58.84 72.615,58.87 C72.537,58.926 72.455,58.98 72.37,59.032 C72.331,59.057 72.295,59.082 72.254,59.106 C72.134,59.178 72.009,59.247 71.877,59.314 C71.871,59.317 71.865,59.321 71.857,59.325 C71.719,59.395 71.573,59.462 71.424,59.527 C71.377,59.547 71.327,59.567 71.279,59.587 C71.174,59.63 71.068,59.674 70.96,59.715 C70.9,59.737 70.838,59.759 70.777,59.781 C70.674,59.818 70.571,59.854 70.465,59.889 C70.401,59.91 70.335,59.931 70.269,59.952 C70.162,59.986 70.053,60.018 69.944,60.05 C69.877,60.069 69.811,60.088 69.744,60.107 C69.626,60.139 69.507,60.17 69.386,60.201 C69.326,60.217 69.266,60.233 69.206,60.247 C69.036,60.289 68.864,60.329 68.691,60.366 C68.679,60.369 68.668,60.372 68.655,60.375 C68.47,60.415 68.282,60.453 68.093,60.49 L67.902,60.525 C67.774,60.548 67.646,60.572 67.517,60.594 C67.444,60.606 67.371,60.618 67.298,60.63 C67.177,60.65 67.058,60.669 66.936,60.687 C66.861,60.699 66.784,60.71 66.708,60.721 C66.589,60.739 66.47,60.755 66.351,60.771 C66.277,60.781 66.203,60.792 66.13,60.801 C66,60.818 65.872,60.834 65.743,60.849 C65.682,60.856 65.62,60.863 65.559,60.871 C65.382,60.891 65.206,60.91 65.031,60.928 L64.996,60.931 C64.812,60.95 64.63,60.967 64.449,60.984 C64.384,60.989 64.32,60.994 64.255,61 C64.139,61.01 64.024,61.02 63.91,61.028 C63.84,61.034 63.77,61.039 63.702,61.044 C63.595,61.052 63.489,61.06 63.385,61.067 C63.318,61.071 63.252,61.076 63.185,61.08 C63.08,61.087 62.976,61.093 62.874,61.099 C62.815,61.103 62.756,61.106 62.697,61.109 C62.592,61.115 62.49,61.12 62.389,61.125 C62.336,61.128 62.283,61.131 62.231,61.133 C62.096,61.139 61.966,61.145 61.841,61.15 L61.789,61.152 C61.657,61.157 61.531,61.162 61.409,61.165 C61.368,61.167 61.331,61.168 61.29,61.169 C61.21,61.171 61.13,61.173 61.056,61.175 C61.008,61.176 60.962,61.178 60.916,61.179 C60.854,61.18 60.793,61.181 60.736,61.182 C60.695,61.183 60.656,61.184 60.618,61.184 C60.556,61.185 60.501,61.186 60.446,61.187 C60.42,61.187 60.394,61.188 60.369,61.188 C60.314,61.188 60.266,61.189 60.22,61.189 C60.199,61.189 60.176,61.189 60.157,61.189 C60.099,61.19 60.05,61.19 60.009,61.19 C59.969,61.19 59.919,61.19 59.861,61.189 C59.842,61.189 59.819,61.189 59.798,61.189 C59.751,61.189 59.704,61.188 59.649,61.188 C59.624,61.188 59.598,61.187 59.571,61.187 C59.517,61.186 59.461,61.185 59.4,61.184 C59.362,61.184 59.323,61.183 59.282,61.182 C59.224,61.181 59.164,61.18 59.102,61.179 C59.055,61.178 59.01,61.176 58.962,61.175 C58.888,61.173 58.808,61.171 58.728,61.169 C58.688,61.168 58.65,61.167 58.609,61.165 C58.488,61.162 58.362,61.157 58.231,61.152 C58.213,61.151 58.193,61.151 58.175,61.15 C58.05,61.145 57.921,61.139 57.787,61.133 C57.735,61.131 57.681,61.128 57.628,61.125 C57.528,61.12 57.427,61.115 57.322,61.109 C57.263,61.106 57.203,61.103 57.143,61.099 C57.041,61.093 56.938,61.087 56.832,61.08 C56.766,61.076 56.7,61.071 56.633,61.067 C56.529,61.06 56.422,61.052 56.315,61.044 C56.247,61.039 56.179,61.034 56.108,61.028 C55.995,61.02 55.88,61.01 55.763,61 C55.698,60.994 55.634,60.989 55.568,60.984 C55.388,60.967 55.206,60.95 55.021,60.932 L54.987,60.928 C54.812,60.91 54.636,60.891 54.459,60.871 C54.398,60.863 54.336,60.856 54.274,60.849 C54.146,60.834 54.017,60.818 53.888,60.801 C53.814,60.792 53.74,60.781 53.666,60.771 C53.547,60.755 53.429,60.739 53.31,60.722 C53.234,60.71 53.157,60.699 53.081,60.687 C52.961,60.669 52.84,60.65 52.721,60.63 C52.647,60.618 52.574,60.606 52.5,60.594 C52.372,60.572 52.245,60.548 52.117,60.525 C52.053,60.513 51.989,60.501 51.925,60.489 C51.736,60.453 51.548,60.415 51.363,60.375 C51.35,60.372 51.339,60.369 51.327,60.366 C51.153,60.329 50.982,60.289 50.812,60.247 C50.751,60.233 50.692,60.217 50.632,60.201 C50.511,60.17 50.392,60.139 50.274,60.107 C50.207,60.088 50.141,60.069 50.074,60.05 C49.965,60.018 49.856,59.986 49.749,59.952 C49.683,59.931 49.617,59.91 49.552,59.889 C49.446,59.854 49.344,59.818 49.242,59.781 C49.18,59.759 49.118,59.737 49.058,59.714 C48.949,59.674 48.844,59.63 48.739,59.587 C48.691,59.567 48.641,59.547 48.594,59.527 C48.444,59.462 48.299,59.395 48.16,59.325 C48.153,59.321 48.147,59.317 48.141,59.314 C48.009,59.247 47.884,59.178 47.764,59.106 C47.723,59.082 47.686,59.057 47.647,59.032 C47.563,58.98 47.481,58.926 47.403,58.87 C47.361,58.84 47.321,58.809 47.281,58.778 C47.211,58.725 47.144,58.671 47.08,58.615 C47.043,58.582 47.006,58.549 46.97,58.515 C46.945,58.492 46.917,58.47 46.894,58.446 C37.98,62.602 17.394,72.695 14.261,76.517 L14.186,76.601 C13.954,76.835 13.677,77.182 13.677,77.501 C13.677,78.55 16.404,80.852 26.626,82.833 C35.531,84.557 47.387,85.507 60.009,85.507 C72.631,85.507 84.486,84.557 93.391,82.833 C103.614,80.852 106.341,78.55 106.341,77.501 C106.341,77.182 106.064,76.835 105.832,76.601 L105.756,76.517 C102.624,72.695 82.038,62.602 73.124,58.446 L73.124,58.446 z M24.114,64.91 L23.235,65.355 L24.154,67.172 C24.44,67.014 24.728,66.857 25.019,66.699 L24.114,64.91 z M34.539,59.638 L27.731,63.081 C27.416,63.483 27.259,63.993 27.559,64.586 C27.609,64.684 27.724,64.913 27.858,65.18 C30.566,63.753 33.323,62.355 35.869,61.092 C35.734,60.813 35.586,60.509 35.443,60.226 C35.248,59.84 34.893,59.68 34.539,59.638 L34.539,59.638 z M38.262,54.396 C36.337,54.625 32.619,55.67 28.252,57.879 C23.886,60.087 20.841,62.462 19.516,63.877 C21.788,63.118 26.186,60.894 29.046,59.447 C31.906,58.001 36.303,55.777 38.262,54.396 L38.262,54.396 z M60.009,9.754 C53.391,9.754 49.211,11.02 48.601,11.768 L48.601,56.775 C49.211,57.523 53.391,58.788 60.009,58.788 C66.628,58.788 70.807,57.523 71.417,56.775 L71.417,11.767 C70.807,11.02 66.628,9.754 60.009,9.754 L60.009,9.754 z M30.662,52.56 C30.654,52.56 30.645,52.562 30.638,52.566 L22.559,56.651 C22.533,56.664 22.517,56.711 22.531,56.738 L23.171,58.004 C24.424,57.21 25.771,56.442 27.169,55.736 C28.182,55.223 29.698,54.527 31.372,53.873 L30.725,52.594 C30.715,52.574 30.687,52.56 30.662,52.56 L30.662,52.56 z" fill="#494949"/>
  </g>
</svg>
