<svg xmlns="http://www.w3.org/2000/svg" width="150" height="220"><defs><linearGradient id="a" gradientUnits="userSpaceOnUse" x1="3.5" y1="110.5" x2="147.5" y2="110.5"><stop offset="0" stop-color="#323232"/><stop offset=".357" stop-color="#FFF"/><stop offset=".571" stop-color="#919191"/><stop offset="1" stop-color="#4A4A4A"/></linearGradient><linearGradient id="b" gradientUnits="userSpaceOnUse" x1="73.868" y1="3.277" x2="77.132" y2="217.723"><stop offset="0" stop-color="#5D5D5D"/><stop offset="1" stop-opacity=".959"/></linearGradient><linearGradient id="c" gradientUnits="userSpaceOnUse" x1="3.5" y1="101.083" x2="147.5" y2="101.083"><stop offset="0" stop-color="#323232"/><stop offset=".357" stop-color="#FFF"/><stop offset=".571" stop-color="#919191"/><stop offset="1" stop-color="#4A4A4A"/></linearGradient><linearGradient id="d" gradientUnits="userSpaceOnUse" x1="2.75" y1="110.5" x2="148.25" y2="110.5"><stop offset="0" stop-color="#232323"/><stop offset=".357" stop-color="#5B5B5B"/><stop offset=".571" stop-color="#474747"/><stop offset="1" stop-color="#282828"/></linearGradient><linearGradient id="e" gradientUnits="userSpaceOnUse" x1="219.5" y1="110" x2="223.5" y2="110"><stop offset="0" stop-color="#232323"/><stop offset=".357" stop-color="#5B5B5B"/><stop offset=".571" stop-color="#474747"/><stop offset="1" stop-color="#282828"/></linearGradient></defs><path d="M2.25 159.208c0 4.626 32.571 8.375 72.75 8.375s72.75-3.749 72.75-8.375v49.667c0 4.625-32.571 8.375-72.75 8.375s-72.75-3.75-72.75-8.375v-49.667z" fill="#3B2CD5"/><path d="M75 167.333c-40.179 0-72.75-3.749-72.75-8.375 0-4.625 32.571-8.375 72.75-8.375s72.75 3.75 72.75 8.375c0 4.626-32.571 8.375-72.75 8.375z" fill="#2193FF"/><path d="M75.5 20c-40.179 0-72.75-3.75-72.75-8.375S35.321 3.25 75.5 3.25s72.75 3.75 72.75 8.375S115.679 20 75.5 20zM75.5 217.75c-40.179 0-72.75-3.75-72.75-8.375S35.321 201 75.5 201s72.75 3.75 72.75 8.375-32.571 8.375-72.75 8.375zM2.75 208.604V12.396M148.25 209.375V11.625" stroke="#CDCDCD" fill="none"/><g><path d="M2.75 3.25h145.5v214.5H2.75V3.25z" fill="url(#d)"/><path d="M2.75 3.25h145.5v214.5H2.75V3.25z" stroke="#000" fill="none"/><g><path d="M219.5 108.5h4v3h-4v-3z" fill="url(#e)"/><path d="M219.5 108.5h4v3h-4v-3z" stroke="#000" fill="none"/></g></g></svg>