<svg xmlns="http://www.w3.org/2000/svg" viewBox="0 0 368.06 87.94"><defs><style>.cls-1{fill:#fff;}.cls-2{fill:#1f2839;}.cls-3{fill:#ffce00;}.cls-4{fill:#b5ce44;}</style></defs><g id="Layer_2" data-name="Layer 2"><g id="print"><path class="cls-1" d="M353.91,0H14.16A14.16,14.16,0,0,0,0,14.16V73.79A14.16,14.16,0,0,0,14.16,87.94H353.91a14.16,14.16,0,0,0,14.15-14.15V14.16A14.16,14.16,0,0,0,353.91,0ZM361,72.59a8.27,8.27,0,0,1-8.27,8.27H15.35a8.27,8.27,0,0,1-8.27-8.27V15.35a8.27,8.27,0,0,1,8.27-8.27H352.71A8.27,8.27,0,0,1,361,15.35Z"/><path class="cls-2" d="M168.24,26.45a1.09,1.09,0,0,0,.3-.82,1.23,1.23,0,0,0-.32-.9,1.19,1.19,0,0,0-.84-.31h-1.14l0,2.33h1.13A1.16,1.16,0,0,0,168.24,26.45Z"/><path class="cls-2" d="M173.84,29.37a1,1,0,0,0,.78-.29,1.05,1.05,0,0,0,.27-.78V27.06a1,1,0,0,0-.27-.77,1,1,0,0,0-.78-.29h-.17a1,1,0,0,0-.88,1.06v1.25a.54.54,0,0,0,0,.18A1,1,0,0,0,173.84,29.37Z"/><path class="cls-2" d="M34.3,30.33c-.28,1.55-.92,4-1.56,6.53l-1.47,5.67h6s-1.46-5.67-1.46-5.67C35.19,34.35,34.56,32,34.3,30.33Z"/><path class="cls-2" d="M191.37,29.36a.94.94,0,0,0,.71-.26,1,1,0,0,0,.26-.72V27a1,1,0,0,0-.26-.72,1,1,0,0,0-.71-.26,3.52,3.52,0,0,0-1,.14V29a1.13,1.13,0,0,0,.45.26A1.59,1.59,0,0,0,191.37,29.36Z"/><path class="cls-2" d="M181.57,26a1,1,0,0,0-.71.26,1,1,0,0,0-.26.72v1.4a1,1,0,0,0,.26.72.9.9,0,0,0,.71.26,3.63,3.63,0,0,0,1-.14V26.34a1.13,1.13,0,0,0-.45-.26A1.89,1.89,0,0,0,181.57,26Z"/><path class="cls-2" d="M191.44,38.66c-1.74,0-2.47.59-2.52,5h5C193.91,39.18,193.18,38.66,191.44,38.66Z"/><path class="cls-2" d="M238,38.66c-1.74,0-2.47.59-2.52,5h5C240.48,39.16,239.75,38.66,238,38.66Z"/><path class="cls-2" d="M156.75,33.15c0-3.83-.91-4.84-3.06-4.84h-4.58v9.74h4.58C155.78,38.05,156.75,37,156.75,33.15Z"/><path class="cls-2" d="M196,29.08a1.1,1.1,0,0,0,.28-.78V27.06a1.1,1.1,0,0,0-.28-.77,1.21,1.21,0,0,0-1.56,0,1,1,0,0,0-.27.77V28.3a1.05,1.05,0,0,0,.27.78A1.21,1.21,0,0,0,196,29.08Z"/><path class="cls-2" d="M212.07,27a1,1,0,0,0-1.68-.72.92.92,0,0,0-.26.72v.35h1.94Z"/><path class="cls-2" d="M270.16,26.2c0-1-.4-1.47-1.18-1.47a1.06,1.06,0,0,0-.89.35h0a1.83,1.83,0,0,0-.29,1.12Z"/><path class="cls-2" d="M256.81,24.82a1.29,1.29,0,0,0,.89-.32,1,1,0,0,0,.35-.8,1.18,1.18,0,0,0-.26-.83,1.09,1.09,0,0,0-.82-.28h-1.48l0,2.23Z"/><path class="cls-2" d="M205.81,27a.9.9,0,0,0-1-1,.9.9,0,0,0-1,1v.35h1.95Z"/><path class="cls-2" d="M279.68,25.24a1.68,1.68,0,0,0,.45,0,1,1,0,0,0,.42-.2.9.9,0,0,0,.29-.4,1.73,1.73,0,0,0-.21-1.65,1.2,1.2,0,0,0-.95-.35h-1.52l0,2.65Z"/><path class="cls-2" d="M257.08,28.6a1.21,1.21,0,0,0,.89-.34,1.35,1.35,0,0,0,.32-1,1.21,1.21,0,0,0-.11-.49,1.17,1.17,0,0,0-.3-.4,1.68,1.68,0,0,0-.45-.27,1.42,1.42,0,0,0-.58-.1h-1.36l0,2.56Z"/><path class="cls-2" d="M241.44,27.25a.74.74,0,0,0-.33.22.53.53,0,0,0-.13.26.74.74,0,0,0,0,.21.81.81,0,0,0,0,.22.57.57,0,0,0,.13.27.86.86,0,0,0,.33.23,1.64,1.64,0,0,0,.62.09q.31,0,.63,0c.2,0,.41-.07.61-.12V27.16h-1.24A1.86,1.86,0,0,0,241.44,27.25Z"/><path class="cls-2" d="M214.86,29.37a3.3,3.3,0,0,0,1-.15V26.34a1.07,1.07,0,0,0-.45-.26,1.89,1.89,0,0,0-.53-.08,1,1,0,0,0-.71.26,1,1,0,0,0-.26.72v1.41a1,1,0,0,0,.26.72A.94.94,0,0,0,214.86,29.37Z"/><path class="cls-2" d="M263.08,24.73a1.08,1.08,0,0,0-.89.35,1.77,1.77,0,0,0-.27,1.12h2.34C264.26,25.22,263.87,24.73,263.08,24.73Z"/><path class="cls-2" d="M219.53,29.37a.89.89,0,0,0,.78-1V27a.54.54,0,0,0,0-.18.88.88,0,0,0-1-.8,1.82,1.82,0,0,0-.52.08,1.07,1.07,0,0,0-.45.26l0,2.89a3.55,3.55,0,0,0,1,.14Z"/><path class="cls-2" d="M154.37,42h-5.26V52.39h5.26v0c2.1,0,3.11-1.18,3.11-5.16S156.43,42,154.37,42Z"/><path class="cls-2" d="M352.71,7.08H15.35a8.27,8.27,0,0,0-8.27,8.27V72.59a8.27,8.27,0,0,0,8.27,8.27H352.71A8.27,8.27,0,0,0,361,72.59V15.35A8.27,8.27,0,0,0,352.71,7.08ZM276.88,22.14a.73.73,0,0,1,.23-.54.79.79,0,0,1,.55-.24h2a2.81,2.81,0,0,1,1,.19,2.32,2.32,0,0,1,.81.53,2.17,2.17,0,0,1,.52.81,2.87,2.87,0,0,1,.19,1.05,3.12,3.12,0,0,1-.18,1,2.38,2.38,0,0,1-.51.79,2.6,2.6,0,0,1-.82.52,2.81,2.81,0,0,1-1,.17h-1.52v2.83a.66.66,0,0,1-.19.46.59.59,0,0,1-.45.18h0a.65.65,0,0,1-.64-.65Zm-4.16,3.17a1.68,1.68,0,0,1,.13-.7,1.84,1.84,0,0,1,.38-.57,2.06,2.06,0,0,1,.56-.38,1.78,1.78,0,0,1,.72-.14,5.27,5.27,0,0,1,.89.1.61.61,0,0,1,.36.21.57.57,0,0,1,.14.38v0a.58.58,0,0,1-.6.56h-.2l-.3-.06a.76.76,0,0,0-.3,0,.55.55,0,0,0-.55.55v4a.64.64,0,0,1-.19.45.57.57,0,0,1-.43.17.61.61,0,0,1-.44-.24.6.6,0,0,1-.17-.44Zm-6.15.68v-.24A2.3,2.3,0,0,1,269,23.58a2.33,2.33,0,0,1,1.78.68,2.23,2.23,0,0,1,.5.76,2.69,2.69,0,0,1,.18,1v.57a.79.79,0,0,1-.23.56.82.82,0,0,1-.55.22h-2.81a2.14,2.14,0,0,0,.06.62,1.05,1.05,0,0,0,.18.42,1.07,1.07,0,0,0,.89.4,1.94,1.94,0,0,0,.67-.09,3.62,3.62,0,0,0,.63-.22.7.7,0,0,1,.25,0,.57.57,0,0,1,.41.16.51.51,0,0,1,.19.4.82.82,0,0,1-.07.31.59.59,0,0,1-.24.23,4.37,4.37,0,0,1-1.84.41,1.13,1.13,0,0,1-.26,0,2.29,2.29,0,0,1-2.15-2.42Zm-12.35-3.85a.73.73,0,0,1,.22-.54.8.8,0,0,1,.56-.24h2a2.9,2.9,0,0,1,1,.17,2.51,2.51,0,0,1,.76.48,2.35,2.35,0,0,1,.48.74,2.84,2.84,0,0,1,.17.95,2.21,2.21,0,0,1-.81,1.66,2.26,2.26,0,0,1,.79.89,2.41,2.41,0,0,1,.24,1.05,2.62,2.62,0,0,1-.18,1,2.18,2.18,0,0,1-1.3,1.29,2.6,2.6,0,0,1-1,.18H255a.76.76,0,0,1-.75-.77ZM250,21.87a.38.38,0,0,1,0-.15.62.62,0,0,1,1.24.15v1.85h1.17a.66.66,0,0,1,.44.17.62.62,0,0,1,0,.86.62.62,0,0,1-.45.16h-1.17v3a.86.86,0,0,0,.16.54.47.47,0,0,0,.39.2h.49a.38.38,0,0,1,.15,0,.64.64,0,0,1,.42.15.51.51,0,0,1,.18.42.51.51,0,0,1-.15.39.76.76,0,0,1-.37.21,4.39,4.39,0,0,1-.72.07,1.81,1.81,0,0,1-.69-.14,1.61,1.61,0,0,1-.57-.39,1.69,1.69,0,0,1-.4-.55,2.27,2.27,0,0,1-.13-.77Zm-7,3.11a1,1,0,0,0-.74-.25,2.81,2.81,0,0,0-.71.07,2,2,0,0,0-.6.26.6.6,0,0,1-.75-.06.46.46,0,0,1-.17-.38.48.48,0,0,1,.08-.31.43.43,0,0,1,.22-.24,3.34,3.34,0,0,1,1-.39,6.09,6.09,0,0,1,1.13-.1,2.47,2.47,0,0,1,.89.17,1.8,1.8,0,0,1,.64.46,1.69,1.69,0,0,1,.4.65,2.29,2.29,0,0,1,.14.78v3.24a.75.75,0,0,1-.15.46.76.76,0,0,1-.38.28,6.26,6.26,0,0,1-.95.23,5.62,5.62,0,0,1-1,.08,2.56,2.56,0,0,1-1.73-.53,1.81,1.81,0,0,1-.62-1.43,1.73,1.73,0,0,1,.62-1.39,2.69,2.69,0,0,1,1.73-.53h1.24v-.41A.9.9,0,0,0,243.05,25Zm-7.17.33a1.69,1.69,0,0,1,.15-.7,1.47,1.47,0,0,1,.38-.57,1.76,1.76,0,0,1,1.28-.52,5.39,5.39,0,0,1,.89.1.61.61,0,0,1,.35.21.57.57,0,0,1,.14.38v0a.57.57,0,0,1-.59.54h-.21l-.3-.06a.71.71,0,0,0-.29,0,.56.56,0,0,0-.56.55v4a.63.63,0,0,1-.18.45.59.59,0,0,1-.43.17v-.06h0a.63.63,0,0,1-.63-.62Zm-14.44.5a0,0,0,0,1,0,0,.32.32,0,0,1,.08-.2.27.27,0,0,1,.21-.09.43.43,0,0,1,.16.05.26.26,0,0,1,.11.14L223.16,29l1-3.32a.25.25,0,0,1,.1-.15.22.22,0,0,1,.17-.05.28.28,0,0,1,.21.08.25.25,0,0,1,.09.2v.1l-1.52,4.8a1.46,1.46,0,0,1-.54.77,1.55,1.55,0,0,1-.95.29.3.3,0,0,1-.2-.08h0a.27.27,0,0,1,0-.39.32.32,0,0,1,.2-.08,1,1,0,0,0,1-.68l.2-.67ZM217.79,24a.28.28,0,0,1,.08-.2.27.27,0,0,1,.21-.09.27.27,0,0,1,.2.09.25.25,0,0,1,.09.2v1.7a2,2,0,0,1,.46-.18,1.79,1.79,0,0,1,.51-.07,1.48,1.48,0,0,1,1.13.42,1.54,1.54,0,0,1,.42,1.14v1.31a1.7,1.7,0,0,1-.1.63,1.34,1.34,0,0,1-.32.49,1.38,1.38,0,0,1-.5.32,1.68,1.68,0,0,1-.63.12,3.71,3.71,0,0,1-1.28-.22.39.39,0,0,1-.19-.17.41.41,0,0,1-.08-.24Zm-4.47,3a1.56,1.56,0,0,1,.42-1.14,1.53,1.53,0,0,1,1.13-.42,1.7,1.7,0,0,1,.51.07,2.2,2.2,0,0,1,.47.19V24a.31.31,0,0,1,.29-.29.29.29,0,0,1,.21.09.28.28,0,0,1,.08.2v5.29a.4.4,0,0,1-.08.23.33.33,0,0,1-.19.14,2.78,2.78,0,0,1-.63.16,3.6,3.6,0,0,1-.66.06,1.72,1.72,0,0,1-.63-.12,1.43,1.43,0,0,1-.49-.32,1.39,1.39,0,0,1-.31-.52,1.77,1.77,0,0,1-.12-.64Zm-3.77,0a1.67,1.67,0,0,1,.11-.63,1.14,1.14,0,0,1,.31-.49,1.38,1.38,0,0,1,.5-.32,1.71,1.71,0,0,1,1.26,0,1.16,1.16,0,0,1,.5.32,1.37,1.37,0,0,1,.31.49,1.5,1.5,0,0,1,.11.63v.44a.41.41,0,0,1-.11.28.4.4,0,0,1-.29.12h-2.12v.47a1,1,0,0,0,.26.74.9.9,0,0,0,.71.29,2.08,2.08,0,0,0,.5-.07,3.75,3.75,0,0,0,.47-.17.24.24,0,0,1,.12,0,.22.22,0,0,1,.2.08.25.25,0,0,1,.09.19.24.24,0,0,1-.16.25,2.63,2.63,0,0,1-.59.22,3.36,3.36,0,0,1-.63.06,1.58,1.58,0,0,1-1.13-.44,1.25,1.25,0,0,1-.31-.52,1.67,1.67,0,0,1-.11-.63Zm-2.49-.43a1.2,1.2,0,0,1,.33-.85,1.21,1.21,0,0,1,.35-.24,1.12,1.12,0,0,1,.44-.09,3.19,3.19,0,0,1,.61.08.24.24,0,0,1,.16.09.25.25,0,0,1,.06.18.22.22,0,0,1-.08.2.28.28,0,0,1-.2.08h-.55a.53.53,0,0,0-.38.16.59.59,0,0,0-.16.44v3a.27.27,0,0,1-.09.21.25.25,0,0,1-.19.09v-.07a.32.32,0,0,1-.3-.3Zm-3.78.43a1.68,1.68,0,0,1,.12-.63,1.14,1.14,0,0,1,.31-.49,1.43,1.43,0,0,1,.49-.32,1.55,1.55,0,0,1,.64-.12,1.36,1.36,0,0,1,.63.12,1.42,1.42,0,0,1,.81.81,1.9,1.9,0,0,1,.11.63v.44a.41.41,0,0,1-.11.28.4.4,0,0,1-.29.12h-2.13v.47a1.05,1.05,0,0,0,.26.74,1,1,0,0,0,.72.29,2.08,2.08,0,0,0,.5-.07,3.75,3.75,0,0,0,.47-.17.24.24,0,0,1,.12,0,.22.22,0,0,1,.2.08.21.21,0,0,1,.08.19.24.24,0,0,1-.16.25,2.39,2.39,0,0,1-.58.22,4.48,4.48,0,0,1-.63.06,1.73,1.73,0,0,1-.64-.12,1.43,1.43,0,0,1-.49-.32,1.25,1.25,0,0,1-.31-.52,1.68,1.68,0,0,1-.12-.63Zm-9.68.11a1.69,1.69,0,0,1,.12-.67,1.77,1.77,0,0,1,.33-.52,1.51,1.51,0,0,1,.52-.34,2,2,0,0,1,1.33,0,1.47,1.47,0,0,1,.51.34,1.44,1.44,0,0,1,.33.52,1.7,1.7,0,0,1,.13.67v1.15a1.74,1.74,0,0,1-.13.67,1.4,1.4,0,0,1-.33.51,1.32,1.32,0,0,1-.51.33,1.8,1.8,0,0,1-1.33,0,1.36,1.36,0,0,1-.52-.33,1.63,1.63,0,0,1-.45-1.18ZM189.81,26a.41.41,0,0,1,.08-.24.47.47,0,0,1,.19-.12,3.75,3.75,0,0,1,1.29-.21,1.53,1.53,0,0,1,.63.11,1.43,1.43,0,0,1,.49.32,1.28,1.28,0,0,1,.31.49,1.76,1.76,0,0,1,.11.64v1.31a1.71,1.71,0,0,1-.11.63,1.21,1.21,0,0,1-.31.49,1.43,1.43,0,0,1-.49.32,1.72,1.72,0,0,1-.63.12,2.09,2.09,0,0,1-.51-.07,2.2,2.2,0,0,1-.47-.19v1.78a.28.28,0,0,1-.08.2.29.29,0,0,1-.21.09.3.3,0,0,1-.2-.13.34.34,0,0,1-.09-.19Zm-4.66-.28a.32.32,0,0,1,.08-.2.27.27,0,0,1,.21-.09.37.37,0,0,1,.17.05.45.45,0,0,1,.1.14L186.87,29l1-3.32a.31.31,0,0,1,.1-.15.27.27,0,0,1,.18-.05.32.32,0,0,1,.2.08.25.25,0,0,1,.09.2v.1l-1.52,4.8a1.46,1.46,0,0,1-.54.77,1.55,1.55,0,0,1-.95.29.28.28,0,0,1-.2-.08h0a.27.27,0,0,1,0-.39.3.3,0,0,1,.2-.08,1,1,0,0,0,.92-.74l.21-.66-1.42-4ZM183.89,24a.31.31,0,0,1,.3-.29.27.27,0,0,1,.2.09.24.24,0,0,1,.08.2V29.6a.28.28,0,0,1-.08.21.25.25,0,0,1-.2.09.27.27,0,0,1-.21-.13.29.29,0,0,1-.09-.2Zm-7.7,1.73a.27.27,0,0,1,.08-.19.24.24,0,0,1,.2-.09.24.24,0,0,1,.21.09.34.34,0,0,1,.09.19v2.62a.54.54,0,0,0,0,.18.88.88,0,0,0,1,.8,3.5,3.5,0,0,0,1-.14V25.74a.29.29,0,0,1,.29-.28.22.22,0,0,1,.2.09.23.23,0,0,1,.09.19v3.57a.39.39,0,0,1-.07.23.35.35,0,0,1-.2.14,2.69,2.69,0,0,1-.62.16,3.68,3.68,0,0,1-.66.06,1,1,0,0,1-.25,0,1.44,1.44,0,0,1-1.3-1.56Zm-4,1.36a1.89,1.89,0,0,1,.12-.67,1.46,1.46,0,0,1,.34-.52,1.43,1.43,0,0,1,.5-.34,2.05,2.05,0,0,1,1.34,0,1.51,1.51,0,0,1,.52.34,1.77,1.77,0,0,1,.33.52,1.69,1.69,0,0,1,.11.67v1.15a1.57,1.57,0,0,1-.44,1.18,1.36,1.36,0,0,1-.52.33,1.82,1.82,0,0,1-1.34,0,1.29,1.29,0,0,1-.5-.33,1.43,1.43,0,0,1-.34-.51,1.93,1.93,0,0,1-.12-.67Zm-2.46-.54a1.32,1.32,0,0,1,.09-.48,1.1,1.1,0,0,1,1-.7,3.09,3.09,0,0,1,.61.08.26.26,0,0,1,.17.09.3.3,0,0,1,.06.18.24.24,0,0,1-.08.2.3.3,0,0,1-.2.08h-.56a.51.51,0,0,0-.38.16.59.59,0,0,0-.15.44v3a.31.31,0,0,1-.3.3.29.29,0,0,1-.2-.16.32.32,0,0,1-.08-.21Zm-4.1-2.32a.41.41,0,0,1,.11-.28.4.4,0,0,1,.29-.12h1.35a1.68,1.68,0,0,1,1.24.47,1.8,1.8,0,0,1,.49,1.28,1.7,1.7,0,0,1-.46,1.23,1.77,1.77,0,0,1-1.27.46h-1.16V29.6a.26.26,0,0,1-.08.21.29.29,0,0,1-.21.09h0a.3.3,0,0,1-.3-.3ZM48.38,57H35.89V52.26h4L38.5,46.78H30.18s-1.42,5.48-1.42,5.48h3.56V57H21.53V52h2.22l8-28.71h6.35L46.23,52h2.15Zm21.83,0H61.48V52.18h1.14V40.7c0-.73-.41-1-1.64-1a9.15,9.15,0,0,0-3.07.55V52.18H59.1V57H50.31V52.18H52.1V40.07H50.31V35.21h6.45l.6,1.88a14.89,14.89,0,0,1,6.94-2.2c3.06,0,4.26,1.42,4.26,3.89v13.4h1.65Zm9.46.26A38.24,38.24,0,0,1,72,56.63V50.39h5.61v3.24c.67.06,1.35.09,2,.09,2.13,0,2.68-.28,2.68-2.2,0-1.68-.53-2-4.46-3.29-4.9-1.55-6.09-2.79-6.09-6.94,0-4.58,1.65-6.41,7.55-6.41a33.35,33.35,0,0,1,7.72.73v6.07H81.72V38.61a13.47,13.47,0,0,0-2.15-.09c-1.73,0-2.24.6-2.24,2,0,1.59.37,2.05,4,3.1,5.53,1.59,6.49,3,6.44,7C87.8,55.49,86.25,57.28,79.67,57.28Zm30.1-.26h-8.19V52.54L99,47.74l-1.74,1.83v2.84h1.92V57H89.69V52.18h1.74V28.5H89.69V23.56h7.55V45l5.07-5.57h-2V35.21h8.82v4.9h-2.75l-3.24,3.47,4.85,8.6h1.83Zm20.69-17H129l-6.38,19.78h2.1v4.72H114V59.82h3.38s.69-2,1-3.11L112.4,40.07h-1.51V35.21h9.28v4.62h-1.92l1.92,6.54a41.48,41.48,0,0,1,1.24,5c.25-1.55.64-3.07,1.14-5l1.78-6.54h-1.74V35.21h7.87Zm24.59,17H140.61V52H143V28.63h-2.38V23.56h13.58c6.86,0,8.51,2,8.51,8.59,0,4.82-1.2,6.86-4.86,7.5,4,.55,5.76,2,5.76,8C163.6,54.09,162,57,155.05,57Zm26.14-13.88h-5.26v-3a10.16,10.16,0,0,0-2.68.45v11.6h2.42V57H165.61V52.18h1.74V40.07h-1.74V35.21h6.45l.67,2.19a19.08,19.08,0,0,1,8.46-2.68Zm.38-13.28a1.53,1.53,0,0,1-.63-.11,1.8,1.8,0,0,1-.49-.32,1.28,1.28,0,0,1-.31-.49,1.77,1.77,0,0,1-.12-.64V27a1.45,1.45,0,0,1,1.55-1.56,2.09,2.09,0,0,1,.51.07,2.72,2.72,0,0,1,.47.19V24a.29.29,0,0,1,.5-.2.28.28,0,0,1,.08.2v5.29a.5.5,0,0,1-.08.2.45.45,0,0,1-.19.14A3.75,3.75,0,0,1,181.57,29.86Zm17.8,17.29H188.85c.07,5.48.48,6.49,2.68,6.49a17.84,17.84,0,0,0,2.06-.09V50.39h5.62v6.32a46,46,0,0,1-7.68.59c-6.58,0-8.5-2-8.5-11.2s2-11.38,8.45-11.38,7.91,1.79,7.89,9.87Zm1.5-17.55L200,26.5l-.85,3.1a.35.35,0,0,1-.12.19.31.31,0,0,1-.21.07.33.33,0,0,1-.21-.07.32.32,0,0,1-.12-.18l-1.13-3.81a.11.11,0,0,1,0-.08.4.4,0,0,1,.07-.19.27.27,0,0,1,.22-.09.41.41,0,0,1,.18,0,.25.25,0,0,1,.1.15l.89,3.17.9-3.12a.39.39,0,0,1,.12-.19.38.38,0,0,1,.21-.07.4.4,0,0,1,.21.07.39.39,0,0,1,.12.19l.89,3.12.89-3.17a.27.27,0,0,1,.11-.15.31.31,0,0,1,.17,0,.3.3,0,0,1,.2.08.29.29,0,0,1,.09.2v.08l-1.11,3.85a.42.42,0,0,1-.11.18.37.37,0,0,1-.29,0,.33.33,0,0,1-.21-.07A.35.35,0,0,1,200.87,29.6Zm27.2,10.47h-1.69l-3.79,17h-5.17l-1.69-7c-.41-1.78-.73-3.14-1-4.61a32.09,32.09,0,0,1-1.06,4.66l-1.87,6.91h-5.21l-3.88-17h-1.7V35.21h9.11v4.64h-1.93l1.1,5.57c.36,1.88.64,3.48.78,4.76a41,41,0,0,1,1.1-4.76l2-7.13h4l2.06,7.13a42.1,42.1,0,0,1,1.16,4.76c.09-1.1.41-2.88.73-4.76l1-5.59h-2.06V35.21h7.91Zm1.46-15.7a3.29,3.29,0,0,1,.22-1.28,2.66,2.66,0,0,1,.63-1,2.75,2.75,0,0,1,1-.63,3.48,3.48,0,0,1,3.12.34.59.59,0,0,1,.3.52.6.6,0,0,1-.18.42.67.67,0,0,1-.78.08,2.89,2.89,0,0,0-.58-.3,1.57,1.57,0,0,0-.61-.1,1.73,1.73,0,0,0-1.36.53,2.06,2.06,0,0,0-.47,1.41v2.45a2.11,2.11,0,0,0,.47,1.41,2,2,0,0,0,2,.42,4.56,4.56,0,0,0,.58-.3.6.6,0,0,1,.34-.11.63.63,0,0,1,.43.17.6.6,0,0,1-.11,1,3.24,3.24,0,0,1-1.83.56,3.47,3.47,0,0,1-1.27-.22,2.75,2.75,0,0,1-1-.63,2.84,2.84,0,0,1-.65-1,3.29,3.29,0,0,1-.22-1.28Zm16.4,22.78H235.42c.07,5.48.48,6.49,2.68,6.49a17.84,17.84,0,0,0,2.06-.09V50.39h5.61v6.32a45.76,45.76,0,0,1-7.67.59c-6.59,0-8.5-2-8.5-11.2s2-11.38,8.45-11.38,7.95,1.79,7.88,9.87Zm.71-17.3h0a.62.62,0,0,1-.62-.62V23a1.86,1.86,0,0,1,.14-.7,1.84,1.84,0,0,1,.38-.57,2,2,0,0,1,.57-.38,1.78,1.78,0,0,1,.71-.15h.35l.37,0a.57.57,0,0,1,.37.2.59.59,0,0,1,.15.4.55.55,0,0,1-.18.4.61.61,0,0,1-.43.17h-.63a.51.51,0,0,0-.39.15.52.52,0,0,0-.17.38v.76h1.18a.66.66,0,0,1,.44.17.62.62,0,0,1,.18.43.59.59,0,0,1-.19.43.62.62,0,0,1-.43.18h-1.18v4.34A.61.61,0,0,1,246.64,29.85Zm16.82,13.29h-5.25v-3a10.16,10.16,0,0,0-2.68.45v11.6h2.39V57H247.86V52.18h1.78V40.07h-1.78V35.21h6.48L255,37.4a19.08,19.08,0,0,1,8.46-2.68Zm-.39-13.21a1.13,1.13,0,0,1-.26,0,2.29,2.29,0,0,1-2.15-2.42V26a1,1,0,0,1,0-.24,2.29,2.29,0,0,1,2.41-2.17,2.33,2.33,0,0,1,1.78.68,2.23,2.23,0,0,1,.5.76,2.69,2.69,0,0,1,.18,1v.57a.79.79,0,0,1-.23.56.82.82,0,0,1-.56.22h-2.81A2.56,2.56,0,0,0,262,28a1.2,1.2,0,0,0,.17.42,1.08,1.08,0,0,0,.9.4,1.85,1.85,0,0,0,.66-.09,3.72,3.72,0,0,0,.64-.22.7.7,0,0,1,.25,0,.57.57,0,0,1,.41.16.52.52,0,0,1,.18.4.64.64,0,0,1-.07.31.43.43,0,0,1-.25.23A4.25,4.25,0,0,1,263.07,29.93ZM284.6,40.07h-1.46l-6.31,19.78h2.1v4.72H268.18V59.82h3.39s.69-2,1-3.11l-5.94-16.64H265V35.21h9.27v4.62h-1.92l1.92,6.54a41.48,41.48,0,0,1,1.24,5c.25-1.55.64-3.07,1.14-5l1.79-6.54h-1.74V35.21h7.86Zm.09-10.76a.63.63,0,0,1-.18.45.57.57,0,0,1-.43.17.66.66,0,0,1-.45-.17.63.63,0,0,1-.18-.45v-5.1a.63.63,0,0,1,.18-.45.67.67,0,0,1,.45-.18.61.61,0,0,1,.61.63Zm-.12-6.87a.67.67,0,0,1-.49.21.71.71,0,0,1-.71-.71.67.67,0,0,1,.21-.49.7.7,0,0,1,.5-.2.69.69,0,0,1,.69.69A.7.7,0,0,1,284.57,22.44Zm73.87,50.15a5.76,5.76,0,0,1-5.73,5.76H298.62V9.59h54.09a5.76,5.76,0,0,1,5.73,5.76Z"/><path class="cls-3" d="M322.35,43.3a8.18,8.18,0,0,0,1.47,3.16,1,1,0,0,1,0,1.29,13.5,13.5,0,0,1-2,2.47,13.48,13.48,0,0,0,2-2.46,1,1,0,0,0,0-1.29,8.25,8.25,0,0,1-1.47-3.16c-.13-.84-.47-.92-1.05-.73C321.89,42.41,322.22,42.47,322.35,43.3Z"/><path class="cls-3" d="M335.26,52.2a15.73,15.73,0,0,0,3.48,2.14,15.67,15.67,0,0,1-3.42-2.22c-.4-.33-.64-.3-.85,0C334.67,51.9,334.9,51.91,335.26,52.2Z"/><path class="cls-3" d="M339.26,55.25c0-.44-.11-.73-.52-.91A.94.94,0,0,1,339.26,55.25Z"/><path class="cls-3" d="M332.46,60.73a8.41,8.41,0,0,1-1.37-1.55,1.09,1.09,0,0,0-.62-.49,1.2,1.2,0,0,1,.55.48,8.74,8.74,0,0,0,1.36,1.55,2,2,0,0,1,.5,2.54,10.83,10.83,0,0,1-3.44,4.58,1.39,1.39,0,0,1-1,.4,1.29,1.29,0,0,0,1.05-.39A10.84,10.84,0,0,0,333,63.22l-.07,0A2,2,0,0,0,332.46,60.73Z"/><path class="cls-3" d="M336.63,62.38l0-.05h0Z"/><path class="cls-3" d="M321.33,62.49c-.15.17-.27.26-.41.18.15.1.28,0,.43-.17l4.1-4.59Z"/><path class="cls-3" d="M328.35,59.32a1.68,1.68,0,0,1-.48-.2,1.67,1.67,0,0,0-.71-.32,1.77,1.77,0,0,1,.64.31A1.61,1.61,0,0,0,328.35,59.32Z"/><path class="cls-3" d="M314.31,50.45h0c.1,2.31,1.08,3.34,2.69,2.92C315.34,53.76,314.4,52.79,314.31,50.45Z"/><path class="cls-3" d="M322.82,52.28a37.62,37.62,0,0,0,2.68,4.65l0,0a.69.69,0,0,1,.08.73.69.69,0,0,0-.09-.76,37.09,37.09,0,0,1-2.68-4.65c-.11-.23-.23-.37-.37-.41A.7.7,0,0,1,322.82,52.28Z"/><path class="cls-3" d="M325.48,57.88a.42.42,0,0,0,.11-.15.62.62,0,0,1-.14.18Z"/><path class="cls-3" d="M325.81,48.66a10.25,10.25,0,0,0,2.58,1.56,11.4,11.4,0,0,1-2.53-1.55c-.1-.06-.19-.15-.29-.22l-.2-.14h0l.18.12A3,3,0,0,0,325.81,48.66Z"/><path class="cls-3" d="M318.49,42.17c5.31-1.37,8.77-5,9.36-9.68,0-.32,0-.51-.11-.62a.79.79,0,0,1,.07.59c-.6,4.7-4,8.3-9.36,9.67a16.39,16.39,0,0,1-4,.53c-1,0-1.44,0-1.51-.39.05.47.44.47,1.56.45A16.83,16.83,0,0,0,318.49,42.17Z"/><path class="cls-3" d="M333.38,41.35c.37.25.25.66.18,1a9.1,9.1,0,0,1-4.46,6.19.79.79,0,0,1-.43.16.77.77,0,0,0,.52-.16,9.1,9.1,0,0,0,4.46-6.19c.07-.35.19-.76-.18-1a13.48,13.48,0,0,1-4.8-6s-.05.09-.07.14A13.44,13.44,0,0,0,333.38,41.35Z"/><path class="cls-3" d="M330.51,31.71c3.91.34,7.56,1.23,10.59,3.9a8.81,8.81,0,0,1,3.13,6.25v0a8.79,8.79,0,0,0-3.13-6.24c-3-2.66-6.68-3.61-10.59-3.91-.94,0-1.18-.05-1.14.47C329.34,31.66,329.59,31.67,330.51,31.71Z"/><path class="cls-3" d="M332.46,49.05h0c1.2,1.23,1,2.32.2,3.67a32.28,32.28,0,0,1-3.05,4.64c-.4.44-.76.63-1.14.53.4.12.77-.06,1.18-.52a32.28,32.28,0,0,0,3.05-4.64C333.51,51.37,333.67,50.28,332.46,49.05Z"/><path class="cls-3" d="M341.09,43.88a23.53,23.53,0,0,1-5.35-1.45c-.26-.1-.43-.11-.54,0a.71.71,0,0,1,.45.06A22.54,22.54,0,0,0,341,43.93a.9.9,0,0,1,.74.72,15.32,15.32,0,0,1,1.08,5.71,4.26,4.26,0,0,1-.48,2.18,5.3,5.3,0,0,0,.59-2.27,15.34,15.34,0,0,0-1.08-5.72A.9.9,0,0,0,341.09,43.88Z"/><path class="cls-3" d="M352.71,9.59H298.62V78.35h54.09a5.76,5.76,0,0,0,5.73-5.76V15.35A5.76,5.76,0,0,0,352.71,9.59ZM321.07,19.78a4.17,4.17,0,0,1,.86-.14,3.86,3.86,0,0,1,4,3.7.92.92,0,0,1-.89,1.05,1,1,0,0,1-1.11-.83c-.37-1.44-1-2-2.16-1.88A2.45,2.45,0,0,0,319.55,24a3.6,3.6,0,0,0,.22,1.38,3.52,3.52,0,0,0,4.52,2.05,4.62,4.62,0,0,0,3.23-4.29c0-1.53.09-3.05.17-4.58,0-.52.06-1.16.82-1.12s1,.53,1,1.22c0,1.64.05,3.3.19,4.93a6.45,6.45,0,0,0,.12.66,4.47,4.47,0,0,0,5.45,3.19,3.26,3.26,0,0,0,2.31-2.68,2.58,2.58,0,0,0-1-2.63,2,2,0,0,0-3.3,1c-.22.68-.45,1.42-1.38,1.17s-.71-1.08-.57-1.73a4,4,0,0,1,3.86-3,4.82,4.82,0,0,1,4.39,3.83c.53,3.21-2.09,6.17-6.41,6.17a6.57,6.57,0,0,1-4.11-2.47c-.43-.48-.62-.48-1,.05a6.7,6.7,0,0,1-6.71,2.17,5.51,5.51,0,0,1-3.78-4.66A4.58,4.58,0,0,1,321.07,19.78ZM354,50.62s-1.08.42-1.22.49a1.49,1.49,0,0,0-1,2.22l1.51,2.94-2.12,1.24-3.57-5.68a1.6,1.6,0,0,0-1.7-.89,1.54,1.54,0,0,0-1.22,1.21c-.54,1.52-1.32,2.83-3.05,3.24-.39.1-.39.47-.44.8a16.62,16.62,0,0,1-3.78,8.3c-.73.83-1.38,1.2-2.28.18-.42-.5-.62-.15-.83.23A15.22,15.22,0,0,1,329.91,70a1.93,1.93,0,0,1-2.68,0,15.71,15.71,0,0,1-4.73-5.72c-1.59,1.38-1.93,1.34-3.22-.26A17.46,17.46,0,0,1,316,56.46c-.09-.42-.15-.83-.61-1-2.67-1-3.11-3.33-3.11-5.81a12.48,12.48,0,0,1,.72-4c.26-.66.21-1.06-.63-1-1.15.13-1.47-.39-1.47-1.51.13-6,3.46-10.46,9.71-12.32a25.65,25.65,0,0,1,18.27.89c4.84,2.18,7.24,6.13,7.36,11.48,0,1.07-.39,1.52-1.42,1.41-.86-.09-.84.33-.69,1,.41,1.62.5,2.4,1.79,2.68a33.24,33.24,0,0,0,3.49.11.94.94,0,0,0,.49-.12c.41-.25.5-.66.15-1.23s.38-1,1.18-1c0-.32-.68-.77-.68-.77V36.94H353v8.37s-.78.43-.78.75c1.11,0,1.67.5,1.05,1.39v.06l0,.07a.54.54,0,0,0,.36.67l.44.21Z"/><path class="cls-3" d="M341.69,53.21h0l0,0Z"/><path class="cls-3" d="M166,29.9h0a.29.29,0,0,0,.21-.09.26.26,0,0,0,.08-.21V27.29h1.16a1.77,1.77,0,0,0,1.27-.46,1.7,1.7,0,0,0,.46-1.23,1.8,1.8,0,0,0-.49-1.28,1.68,1.68,0,0,0-1.24-.47h-1.35a.4.4,0,0,0-.29.12.41.41,0,0,0-.11.28V29.6A.3.3,0,0,0,166,29.9Zm.29-5.48h1.14a1.19,1.19,0,0,1,.84.31,1.23,1.23,0,0,1,.32.9,1.09,1.09,0,0,1-.3.82,1.16,1.16,0,0,1-.89.3h-1.13Z"/><path class="cls-3" d="M170,29.9a.31.31,0,0,0,.3-.3v-3a.59.59,0,0,1,.15-.44.51.51,0,0,1,.38-.16h.56a.3.3,0,0,0,.2-.08.24.24,0,0,0,.08-.2.3.3,0,0,0-.06-.18.26.26,0,0,0-.17-.09,3.09,3.09,0,0,0-.61-.08,1.1,1.1,0,0,0-1,.7,1.32,1.32,0,0,0-.09.48v3a.32.32,0,0,0,.08.21A.29.29,0,0,0,170,29.9Z"/><path class="cls-3" d="M172.67,29.44a1.29,1.29,0,0,0,.5.33,1.82,1.82,0,0,0,1.34,0,1.36,1.36,0,0,0,.52-.33,1.57,1.57,0,0,0,.44-1.18V27.11a1.69,1.69,0,0,0-.11-.67,1.77,1.77,0,0,0-.33-.52,1.51,1.51,0,0,0-.52-.34,2.05,2.05,0,0,0-1.34,0,1.43,1.43,0,0,0-.5.34,1.46,1.46,0,0,0-.34.52,1.89,1.89,0,0,0-.12.67v1.15a1.93,1.93,0,0,0,.12.67A1.43,1.43,0,0,0,172.67,29.44Zm.12-1.13V27.06a1,1,0,0,1,.88-1.06h.17a1,1,0,0,1,.78.29,1,1,0,0,1,.27.77V28.3a1.05,1.05,0,0,1-.27.78,1,1,0,0,1-.78.29,1,1,0,0,1-1.05-.88A.54.54,0,0,1,172.79,28.31Z"/><path class="cls-3" d="M177.49,29.9a1,1,0,0,0,.25,0,3.68,3.68,0,0,0,.66-.06,2.69,2.69,0,0,0,.62-.16.35.35,0,0,0,.2-.14.39.39,0,0,0,.07-.23V25.74a.23.23,0,0,0-.09-.19.22.22,0,0,0-.2-.09.29.29,0,0,0-.29.28v3.47a3.5,3.5,0,0,1-1,.14.88.88,0,0,1-1-.8.54.54,0,0,1,0-.18V25.75a.34.34,0,0,0-.09-.19.24.24,0,0,0-.21-.09.24.24,0,0,0-.2.09.27.27,0,0,0-.08.19v2.59A1.44,1.44,0,0,0,177.49,29.9Z"/><path class="cls-3" d="M183.13,29.31V24a.28.28,0,0,0-.08-.2.29.29,0,0,0-.5.2v1.67a2.72,2.72,0,0,0-.47-.19,2.09,2.09,0,0,0-.51-.07A1.45,1.45,0,0,0,180,27V28.3a1.77,1.77,0,0,0,.12.64,1.28,1.28,0,0,0,.31.49,1.8,1.8,0,0,0,.49.32,1.53,1.53,0,0,0,.63.11,3.75,3.75,0,0,0,1.29-.21.45.45,0,0,0,.19-.14A.5.5,0,0,0,183.13,29.31Zm-.58-.09a3.63,3.63,0,0,1-1,.14.9.9,0,0,1-.71-.26,1,1,0,0,1-.26-.72V27a1,1,0,0,1,.26-.72,1,1,0,0,1,.71-.26,1.89,1.89,0,0,1,.53.08,1.13,1.13,0,0,1,.45.26Z"/><path class="cls-3" d="M184.19,29.9a.25.25,0,0,0,.2-.09.28.28,0,0,0,.08-.21V24a.24.24,0,0,0-.08-.2.27.27,0,0,0-.2-.09.31.31,0,0,0-.3.29v5.55a.29.29,0,0,0,.09.2A.27.27,0,0,0,184.19,29.9Z"/><path class="cls-3" d="M186.36,30.42a1,1,0,0,1-.92.74.3.3,0,0,0-.2.08.27.27,0,0,0,0,.39h0a.28.28,0,0,0,.2.08,1.55,1.55,0,0,0,.95-.29,1.46,1.46,0,0,0,.54-.77l1.52-4.8v-.1a.25.25,0,0,0-.09-.2.32.32,0,0,0-.2-.08.27.27,0,0,0-.18.05.31.31,0,0,0-.1.15l-1,3.32-1.16-3.33a.45.45,0,0,0-.1-.14.37.37,0,0,0-.17-.05.27.27,0,0,0-.21.09.32.32,0,0,0-.08.2v0l1.42,4Z"/><path class="cls-3" d="M190.1,31.71a.29.29,0,0,0,.21-.09.28.28,0,0,0,.08-.2V29.64a2.2,2.2,0,0,0,.47.19,2.09,2.09,0,0,0,.51.07,1.72,1.72,0,0,0,.63-.12,1.43,1.43,0,0,0,.49-.32,1.21,1.21,0,0,0,.31-.49,1.71,1.71,0,0,0,.11-.63V27a1.76,1.76,0,0,0-.11-.64,1.28,1.28,0,0,0-.31-.49,1.43,1.43,0,0,0-.49-.32,1.53,1.53,0,0,0-.63-.11,3.75,3.75,0,0,0-1.29.21.47.47,0,0,0-.19.12.41.41,0,0,0-.08.24v5.35a.34.34,0,0,0,.09.19A.3.3,0,0,0,190.1,31.71Zm.29-5.57a3.52,3.52,0,0,1,1-.14,1,1,0,0,1,.71.26,1,1,0,0,1,.26.72v1.4a1,1,0,0,1-.26.72.94.94,0,0,1-.71.26,1.59,1.59,0,0,1-.53-.08,1.13,1.13,0,0,1-.45-.26Z"/><path class="cls-3" d="M194.05,29.44a1.36,1.36,0,0,0,.52.33,1.8,1.8,0,0,0,1.33,0,1.32,1.32,0,0,0,.51-.33,1.4,1.4,0,0,0,.33-.51,1.74,1.74,0,0,0,.13-.67V27.11a1.7,1.7,0,0,0-.13-.67,1.44,1.44,0,0,0-.33-.52,1.47,1.47,0,0,0-.51-.34,2,2,0,0,0-1.33,0,1.51,1.51,0,0,0-.52.34,1.77,1.77,0,0,0-.33.52,1.69,1.69,0,0,0-.12.67v1.15a1.63,1.63,0,0,0,.45,1.18Zm.13-2.38a1,1,0,0,1,.27-.77,1.21,1.21,0,0,1,1.56,0,1.1,1.1,0,0,1,.28.77V28.3a1.1,1.1,0,0,1-.28.78,1.21,1.21,0,0,1-1.56,0,1.05,1.05,0,0,1-.27-.78Z"/><path class="cls-3" d="M201.49,29.83a.42.42,0,0,0,.11-.18l1.11-3.85v-.08a.29.29,0,0,0-.09-.2.3.3,0,0,0-.2-.08.31.31,0,0,0-.17,0,.27.27,0,0,0-.11.15l-.89,3.17-.89-3.12a.39.39,0,0,0-.12-.19.4.4,0,0,0-.21-.07.38.38,0,0,0-.21.07.39.39,0,0,0-.12.19l-.9,3.12-.89-3.17a.25.25,0,0,0-.1-.15.41.41,0,0,0-.18,0,.27.27,0,0,0-.22.09.4.4,0,0,0-.07.19.11.11,0,0,0,0,.08l1.13,3.81a.32.32,0,0,0,.12.18.33.33,0,0,0,.21.07.31.31,0,0,0,.21-.07.35.35,0,0,0,.12-.19l.85-3.1.89,3.1a.35.35,0,0,0,.12.19.33.33,0,0,0,.21.07A.37.37,0,0,0,201.49,29.83Z"/><path class="cls-3" d="M203.71,29.46a1.43,1.43,0,0,0,.49.32,1.73,1.73,0,0,0,.64.12,4.48,4.48,0,0,0,.63-.06,2.39,2.39,0,0,0,.58-.22.24.24,0,0,0,.16-.25.21.21,0,0,0-.08-.19.22.22,0,0,0-.2-.08.24.24,0,0,0-.12,0,3.75,3.75,0,0,1-.47.17,2.08,2.08,0,0,1-.5.07,1,1,0,0,1-.72-.29,1.05,1.05,0,0,1-.26-.74v-.47H206a.4.4,0,0,0,.29-.12.41.41,0,0,0,.11-.28V27a1.9,1.9,0,0,0-.11-.63,1.42,1.42,0,0,0-.81-.81,1.36,1.36,0,0,0-.63-.12,1.55,1.55,0,0,0-.64.12,1.43,1.43,0,0,0-.49.32,1.14,1.14,0,0,0-.31.49,1.68,1.68,0,0,0-.12.63v1.31a1.68,1.68,0,0,0,.12.63A1.25,1.25,0,0,0,203.71,29.46Zm.15-2.48a.9.9,0,0,1,1-1,.9.9,0,0,1,1,1v.35h-1.95Z"/><path class="cls-3" d="M207.36,29.83v.07a.25.25,0,0,0,.19-.09.27.27,0,0,0,.09-.21v-3a.59.59,0,0,1,.16-.44.53.53,0,0,1,.38-.16h.55a.28.28,0,0,0,.2-.08.22.22,0,0,0,.08-.2.25.25,0,0,0-.06-.18.24.24,0,0,0-.16-.09,3.19,3.19,0,0,0-.61-.08,1.12,1.12,0,0,0-.44.09,1.21,1.21,0,0,0-.35.24,1.2,1.2,0,0,0-.33.85v3A.32.32,0,0,0,207.36,29.83Z"/><path class="cls-3" d="M210,29.46a1.58,1.58,0,0,0,1.13.44,3.36,3.36,0,0,0,.63-.06,2.63,2.63,0,0,0,.59-.22.24.24,0,0,0,.16-.25.25.25,0,0,0-.09-.19.22.22,0,0,0-.2-.08.24.24,0,0,0-.12,0,3.75,3.75,0,0,1-.47.17,2.08,2.08,0,0,1-.5.07.9.9,0,0,1-.71-.29,1,1,0,0,1-.26-.74v-.47h2.12a.4.4,0,0,0,.29-.12.41.41,0,0,0,.11-.28V27a1.5,1.5,0,0,0-.11-.63,1.37,1.37,0,0,0-.31-.49,1.16,1.16,0,0,0-.5-.32,1.71,1.71,0,0,0-1.26,0,1.38,1.38,0,0,0-.5.32,1.14,1.14,0,0,0-.31.49,1.67,1.67,0,0,0-.11.63v1.31a1.67,1.67,0,0,0,.11.63A1.25,1.25,0,0,0,210,29.46Zm.16-2.48a.92.92,0,0,1,.26-.72,1,1,0,0,1,1.68.72v.35h-1.94Z"/><path class="cls-3" d="M213.75,29.46a1.43,1.43,0,0,0,.49.32,1.72,1.72,0,0,0,.63.12,3.6,3.6,0,0,0,.66-.06,2.78,2.78,0,0,0,.63-.16.33.33,0,0,0,.19-.14.4.4,0,0,0,.08-.23V24a.28.28,0,0,0-.08-.2.29.29,0,0,0-.21-.09.31.31,0,0,0-.29.29v1.67a2.2,2.2,0,0,0-.47-.19,1.7,1.7,0,0,0-.51-.07,1.53,1.53,0,0,0-1.13.42,1.56,1.56,0,0,0-.42,1.14V28.3a1.77,1.77,0,0,0,.12.64A1.39,1.39,0,0,0,213.75,29.46ZM213.9,27a1,1,0,0,1,.26-.72,1,1,0,0,1,.71-.26,1.89,1.89,0,0,1,.53.08,1.07,1.07,0,0,1,.45.26v2.88a3.3,3.3,0,0,1-1,.15.94.94,0,0,1-.71-.26,1,1,0,0,1-.26-.72Z"/><path class="cls-3" d="M218.06,29.68a3.71,3.71,0,0,0,1.28.22,1.68,1.68,0,0,0,.63-.12,1.38,1.38,0,0,0,.5-.32,1.34,1.34,0,0,0,.32-.49,1.7,1.7,0,0,0,.1-.63V27a1.54,1.54,0,0,0-.42-1.14,1.48,1.48,0,0,0-1.13-.42,1.79,1.79,0,0,0-.51.07,2,2,0,0,0-.46.18V24a.25.25,0,0,0-.09-.2.27.27,0,0,0-.2-.09.27.27,0,0,0-.21.09.28.28,0,0,0-.08.2v5.25a.41.41,0,0,0,.08.24A.39.39,0,0,0,218.06,29.68Zm.31-3.34a1.07,1.07,0,0,1,.45-.26,1.82,1.82,0,0,1,.52-.08.88.88,0,0,1,1,.8.54.54,0,0,1,0,.18v1.4a.89.89,0,0,1-.78,1h-.21a3.55,3.55,0,0,1-1-.14Z"/><path class="cls-3" d="M221.72,31.16a.32.32,0,0,0-.2.08.27.27,0,0,0,0,.39h0a.3.3,0,0,0,.2.08,1.55,1.55,0,0,0,.95-.29,1.46,1.46,0,0,0,.54-.77l1.52-4.8v-.1a.25.25,0,0,0-.09-.2.28.28,0,0,0-.21-.08.22.22,0,0,0-.17.05.25.25,0,0,0-.1.15l-1,3.32L222,25.66a.26.26,0,0,0-.11-.14.43.43,0,0,0-.16-.05.27.27,0,0,0-.21.09.32.32,0,0,0-.08.2,0,0,0,0,0,0,0l1.45,4-.2.67A1,1,0,0,1,221.72,31.16Z"/><path class="cls-4" d="M314.45,42.66a16.39,16.39,0,0,0,4-.53c5.35-1.37,8.76-5,9.36-9.67a.79.79,0,0,0-.07-.59.82.82,0,0,0-.55-.13,19.78,19.78,0,0,0-8.09,1.78,10.27,10.27,0,0,0-6,7.51h0a4.85,4.85,0,0,0-.16,1.25C313,42.67,313.41,42.67,314.45,42.66Z"/><path class="cls-4" d="M341.1,35.61c-3-2.67-6.68-3.56-10.59-3.9-.92,0-1.17-.05-1.14.44a6.51,6.51,0,0,0,.12.71,11.35,11.35,0,0,0,2.07,4.73c3.08,4,7.41,5,12.13,5.06.57,0,.54-.4.54-.79A8.81,8.81,0,0,0,341.1,35.61Zm-6.39-1.33c-.1.56-.49.63-.94.56-.77-.12-1.53-.29-2.29-.38-.57-.09-1.17-.18-1.07-.9s.81-.4,1.28-.53l2.39.46C334.49,33.57,334.81,33.72,334.71,34.28Zm7.49,7.12c-.53.2-.83-.27-1-.69a8.46,8.46,0,0,0-5.1-5.11c-.41-.16-.85-.4-.7-1,.1-.41.43-.47.85-.47a7,7,0,0,1,.89.27,9,9,0,0,1,5.31,5.82C342.58,40.66,342.74,41.21,342.2,41.4Z"/><path class="cls-4" d="M333.56,42.36c.07-.35.19-.76-.18-1a13.44,13.44,0,0,1-4.78-5.82,12.12,12.12,0,0,1-4.68,5.71c-.39.25-.35.6-.28,1a8.91,8.91,0,0,0,4.62,6.4.74.74,0,0,0,.41.11.79.79,0,0,0,.43-.16A9.1,9.1,0,0,0,333.56,42.36Z"/><path class="cls-4" d="M317,53.37a3.94,3.94,0,0,0,.72-.26,13.69,13.69,0,0,0,4.16-2.89,13.5,13.5,0,0,0,2-2.47,1,1,0,0,0,0-1.29,8.18,8.18,0,0,1-1.47-3.16c-.13-.83-.46-.89-1-.72l-.23.08a19.31,19.31,0,0,1-4.6,1.23,1.26,1.26,0,0,0-1.17,1,20.35,20.35,0,0,0-1,4.82,4.21,4.21,0,0,0,0,.71h0C314.4,52.79,315.34,53.76,317,53.37Z"/><path class="cls-4" d="M341.74,44.65a.9.9,0,0,0-.74-.72,22.54,22.54,0,0,1-5.35-1.45.71.71,0,0,0-.45-.06.68.68,0,0,0-.19.4,9.31,9.31,0,0,1-1.61,3.67,1.18,1.18,0,0,0,0,1.54,14.47,14.47,0,0,0,4.78,4.46c1.06.59,2.21,1.46,3.46.74l0,0h-.05a2.29,2.29,0,0,0,.73-.68,4.26,4.26,0,0,0,.48-2.18A15.32,15.32,0,0,0,341.74,44.65Zm-.82,5.82c-.77.07-.57-.62-.67-1-.22-1-.39-1.94-.62-2.89-.08-.42-.11-.71.37-.89s.67.16.79.5a11.8,11.8,0,0,1,.62,3.18C341.3,49.72,341.69,50.4,340.92,50.47Z"/><path class="cls-4" d="M332.88,63.26a2,2,0,0,0-.5-2.54A8.74,8.74,0,0,1,331,59.17a1.2,1.2,0,0,0-.55-.48.85.85,0,0,0-.66.24,1.58,1.58,0,0,1-1.46.39,1.61,1.61,0,0,1-.55-.21,1.77,1.77,0,0,0-.64-.31c-.55-.09-.94.29-1.34.83s-.66.78-1,1.16a1.81,1.81,0,0,0-.67,1.34,9.59,9.59,0,0,0,4,6,.81.81,0,0,0,.35.15,1.39,1.39,0,0,0,1-.4A10.83,10.83,0,0,0,332.88,63.26Zm-4.11,1.93c.22-.63.5-1.36,1.33-1.52.38-.07.78.39.63.69A2.66,2.66,0,0,1,329.22,66C328.83,66.08,328.77,65.65,328.77,65.19Z"/><path class="cls-4" d="M329.57,57.36a32.28,32.28,0,0,0,3.05-4.64c.84-1.35,1-2.44-.2-3.67h0c-.52-.51-.72-.6-1.29-.2-1.6,1-2.05,1.52-2.73,1.37a10.25,10.25,0,0,1-2.58-1.56,3,3,0,0,1-.28-.22l-.18-.12c-.5,0-1.75,2.28-1.5,2.8a25.58,25.58,0,0,0,3.84,6.25,1.74,1.74,0,0,0,.74.52C328.81,58,329.17,57.8,329.57,57.36Z"/><path class="cls-4" d="M321.33,62.49l4.12-4.58a.62.62,0,0,0,.14-.18l0,0a.69.69,0,0,0-.08-.73l0,0a37.62,37.62,0,0,1-2.68-4.65.7.7,0,0,0-.34-.4c-.14,0-.31,0-.52.2a17,17,0,0,1-3.48,2.2c-.35.18-.68.39-.58,1.19a16.12,16.12,0,0,0,2.85,7,.55.55,0,0,0,.17.17C321.06,62.75,321.18,62.66,321.33,62.49Z"/><path class="cls-4" d="M336.6,62.37a15.14,15.14,0,0,0,2.67-6.64c0-.18,0-.34,0-.48a.94.94,0,0,0-.52-.91,15.73,15.73,0,0,1-3.48-2.14c-.36-.29-.59-.3-.79-.09a1.5,1.5,0,0,0-.15.26,26,26,0,0,1-2.51,4.46l-.05.05a.75.75,0,0,0,.14,1c1.33,1.51,2.65,3,3.94,4.46.33.37.55.32.79,0l0,0Zm-.27-3.52a.64.64,0,0,1-.32-.76,4.9,4.9,0,0,1,.63-1.85.59.59,0,0,1,.66-.35c.32.09.33.38.32.93-.12.37-.28,1-.51,1.61v0A.61.61,0,0,1,336.33,58.85Z"/><path class="cls-4" d="M230.4,29.08a2.75,2.75,0,0,0,1,.63,3.47,3.47,0,0,0,1.27.22,3.24,3.24,0,0,0,1.83-.56.6.6,0,0,0,.11-1,.63.63,0,0,0-.43-.17.6.6,0,0,0-.34.11,4.56,4.56,0,0,1-.58.3,2,2,0,0,1-2-.42,2.11,2.11,0,0,1-.47-1.41V24.37a2.06,2.06,0,0,1,.47-1.41,1.73,1.73,0,0,1,1.36-.53,1.57,1.57,0,0,1,.61.1,2.89,2.89,0,0,1,.58.3.67.67,0,0,0,.78-.08.6.6,0,0,0,.18-.42.59.59,0,0,0-.3-.52,3.48,3.48,0,0,0-3.12-.34,2.75,2.75,0,0,0-1,.63,2.66,2.66,0,0,0-.63,1,3.29,3.29,0,0,0-.22,1.28v2.44a3.29,3.29,0,0,0,.22,1.28A2.84,2.84,0,0,0,230.4,29.08Z"/><path class="cls-4" d="M236.51,29.87h0v.06a.59.59,0,0,0,.43-.17.63.63,0,0,0,.18-.45v-4a.56.56,0,0,1,.56-.55.71.71,0,0,1,.29,0l.3.06h.21a.57.57,0,0,0,.59-.54v0a.57.57,0,0,0-.14-.38.61.61,0,0,0-.35-.21,5.39,5.39,0,0,0-.89-.1,1.76,1.76,0,0,0-1.28.52,1.47,1.47,0,0,0-.38.57,1.69,1.69,0,0,0-.15.7v3.94A.63.63,0,0,0,236.51,29.87Z"/><path class="cls-4" d="M242.06,26.05a2.69,2.69,0,0,0-1.73.53,1.73,1.73,0,0,0-.62,1.39,1.81,1.81,0,0,0,.62,1.43,2.56,2.56,0,0,0,1.73.53,5.62,5.62,0,0,0,1-.08,6.26,6.26,0,0,0,.95-.23.76.76,0,0,0,.38-.28.75.75,0,0,0,.15-.46V25.64a2.29,2.29,0,0,0-.14-.78,1.69,1.69,0,0,0-.4-.65,1.8,1.8,0,0,0-.64-.46,2.47,2.47,0,0,0-.89-.17,6.09,6.09,0,0,0-1.13.1,3.34,3.34,0,0,0-1,.39.43.43,0,0,0-.22.24.48.48,0,0,0-.08.31.46.46,0,0,0,.17.38.6.6,0,0,0,.75.06,2,2,0,0,1,.6-.26,2.81,2.81,0,0,1,.71-.07,1,1,0,0,1,.74.25.9.9,0,0,1,.25.66v.41Zm1.24,2.58c-.2.05-.41.09-.61.12s-.42,0-.63,0a1.64,1.64,0,0,1-.62-.09.86.86,0,0,1-.33-.23.57.57,0,0,1-.13-.27.81.81,0,0,1,0-.22.74.74,0,0,1,0-.21.53.53,0,0,1,.13-.26.74.74,0,0,1,.33-.22,1.86,1.86,0,0,1,.62-.09h1.24Z"/><path class="cls-4" d="M247.25,24.91h1.18a.62.62,0,0,0,.43-.18.59.59,0,0,0,.19-.43.62.62,0,0,0-.18-.43.66.66,0,0,0-.44-.17h-1.18v-.76a.52.52,0,0,1,.17-.38.51.51,0,0,1,.39-.15h.63a.61.61,0,0,0,.43-.17.55.55,0,0,0,.18-.4.59.59,0,0,0-.15-.4.57.57,0,0,0-.37-.2l-.37,0h-.35a1.78,1.78,0,0,0-.71.15,2,2,0,0,0-.57.38,1.84,1.84,0,0,0-.38.57,1.86,1.86,0,0,0-.14.7v6.24a.62.62,0,0,0,.62.62h0a.61.61,0,0,0,.61-.6V24.91Z"/><path class="cls-4" d="M250.54,29.37a1.61,1.61,0,0,0,.57.39,1.81,1.81,0,0,0,.69.14,4.39,4.39,0,0,0,.72-.07.76.76,0,0,0,.37-.21.51.51,0,0,0,.15-.39.51.51,0,0,0-.18-.42.64.64,0,0,0-.42-.15.38.38,0,0,0-.15,0h-.49a.47.47,0,0,1-.39-.2.86.86,0,0,1-.16-.54v-3h1.17a.62.62,0,0,0,.45-.16.62.62,0,0,0,0-.86.66.66,0,0,0-.44-.17h-1.17V21.87a.62.62,0,0,0-1.24-.15.38.38,0,0,0,0,.15v6.18a2.27,2.27,0,0,0,.13.77A1.69,1.69,0,0,0,250.54,29.37Z"/><path class="cls-4" d="M255,29.81h2.08a2.6,2.6,0,0,0,1-.18,2.18,2.18,0,0,0,1.3-1.29,2.62,2.62,0,0,0,.18-1,2.41,2.41,0,0,0-.24-1.05,2.26,2.26,0,0,0-.79-.89,2.21,2.21,0,0,0,.81-1.66,2.84,2.84,0,0,0-.17-.95,2.35,2.35,0,0,0-.48-.74,2.51,2.51,0,0,0-.76-.48,2.9,2.9,0,0,0-1-.17h-2a.8.8,0,0,0-.56.24.73.73,0,0,0-.22.54V29A.76.76,0,0,0,255,29.81Zm2-7.22a1.09,1.09,0,0,1,.82.28,1.18,1.18,0,0,1,.26.83,1,1,0,0,1-.35.8,1.29,1.29,0,0,1-.89.32h-1.29l0-2.23ZM256.85,26a1.42,1.42,0,0,1,.58.1,1.68,1.68,0,0,1,.45.27,1.17,1.17,0,0,1,.3.4,1.21,1.21,0,0,1,.11.49,1.35,1.35,0,0,1-.32,1,1.21,1.21,0,0,1-.89.34h-1.55l0-2.56Z"/><path class="cls-4" d="M265.21,29a.52.52,0,0,0-.18-.4.57.57,0,0,0-.41-.16.7.7,0,0,0-.25,0,3.72,3.72,0,0,1-.64.22,1.85,1.85,0,0,1-.66.09,1.08,1.08,0,0,1-.9-.4A1.2,1.2,0,0,1,262,28a2.56,2.56,0,0,1-.07-.62h2.81a.82.82,0,0,0,.56-.22.79.79,0,0,0,.23-.56V26a2.69,2.69,0,0,0-.18-1,2.23,2.23,0,0,0-.5-.76,2.33,2.33,0,0,0-1.78-.68,2.29,2.29,0,0,0-2.41,2.17,1,1,0,0,0,0,.24v1.52a2.29,2.29,0,0,0,2.15,2.42,1.13,1.13,0,0,0,.26,0,4.25,4.25,0,0,0,1.82-.41.43.43,0,0,0,.25-.23A.64.64,0,0,0,265.21,29Zm-3-3.9a1.08,1.08,0,0,1,.89-.35c.79,0,1.18.49,1.18,1.47h-2.34A1.77,1.77,0,0,1,262.19,25.08Z"/><path class="cls-4" d="M268.72,29.93a1.13,1.13,0,0,0,.26,0,4.37,4.37,0,0,0,1.84-.41.59.59,0,0,0,.24-.23.82.82,0,0,0,.07-.31.51.51,0,0,0-.19-.4.57.57,0,0,0-.41-.16.7.7,0,0,0-.25,0,3.62,3.62,0,0,1-.63.22,1.94,1.94,0,0,1-.67.09,1.07,1.07,0,0,1-.89-.4,1.05,1.05,0,0,1-.18-.42,2.14,2.14,0,0,1-.06-.62h2.81a.82.82,0,0,0,.55-.22.79.79,0,0,0,.23-.56V26a2.69,2.69,0,0,0-.18-1,2.23,2.23,0,0,0-.5-.76,2.33,2.33,0,0,0-1.78-.68,2.3,2.3,0,0,0-2.41,2.17v1.76A2.29,2.29,0,0,0,268.72,29.93Zm-.63-4.85a1.06,1.06,0,0,1,.89-.35c.78,0,1.18.49,1.18,1.47h-2.35a1.83,1.83,0,0,1,.29-1.12Z"/><path class="cls-4" d="M273.33,29.93a.57.57,0,0,0,.43-.17.64.64,0,0,0,.19-.45v-4a.55.55,0,0,1,.55-.55.76.76,0,0,1,.3,0l.3.06h.2a.58.58,0,0,0,.6-.56v0a.57.57,0,0,0-.14-.38.61.61,0,0,0-.36-.21,5.27,5.27,0,0,0-.89-.1,1.78,1.78,0,0,0-.72.14,2.06,2.06,0,0,0-.56.38,1.84,1.84,0,0,0-.38.57,1.68,1.68,0,0,0-.13.7v3.94a.6.6,0,0,0,.17.44A.61.61,0,0,0,273.33,29.93Z"/><path class="cls-4" d="M277.52,29.92h0a.59.59,0,0,0,.45-.18.66.66,0,0,0,.19-.46V26.46h1.52a2.81,2.81,0,0,0,1-.17,2.6,2.6,0,0,0,.82-.52,2.38,2.38,0,0,0,.51-.79,3.12,3.12,0,0,0,.18-1,2.87,2.87,0,0,0-.19-1.05,2.17,2.17,0,0,0-.52-.81,2.32,2.32,0,0,0-.81-.53,2.81,2.81,0,0,0-1-.19h-2a.79.79,0,0,0-.55.24.73.73,0,0,0-.23.54v7.13A.65.65,0,0,0,277.52,29.92Zm2.16-7.33a1.2,1.2,0,0,1,.95.35,1.73,1.73,0,0,1,.21,1.65.9.9,0,0,1-.29.4,1,1,0,0,1-.42.2,1.68,1.68,0,0,1-.45,0h-1.5l0-2.65Z"/><path class="cls-4" d="M284.08,23.58a.67.67,0,0,0-.45.18.63.63,0,0,0-.18.45v5.1a.63.63,0,0,0,.18.45.66.66,0,0,0,.45.17.57.57,0,0,0,.43-.17.63.63,0,0,0,.18-.45v-5.1a.61.61,0,0,0-.61-.63Z"/><path class="cls-4" d="M284.08,21.25a.7.7,0,0,0-.5.2.67.67,0,0,0-.21.49.71.71,0,0,0,.71.71.67.67,0,0,0,.49-.21.7.7,0,0,0,.2-.5A.69.69,0,0,0,284.08,21.25Z"/><path class="cls-1" d="M38.13,23.33H31.78L23.75,52H21.53v5H32.32V52.26H28.76s1.46-5.48,1.42-5.48H38.5l1.41,5.48h-4V57H48.38V52H46.23Zm-6.86,19.2,1.47-5.67c.64-2.51,1.28-5,1.56-6.53.26,1.64.89,4,1.55,6.53,0,0,1.5,5.67,1.46,5.67Z"/><path class="cls-1" d="M68.56,38.78c0-2.47-1.2-3.89-4.26-3.89a14.89,14.89,0,0,0-6.94,2.2l-.6-1.88H50.31v4.86H52.1V52.18H50.31V57H59.1V52.18H57.91V40.29A9.15,9.15,0,0,1,61,39.74c1.23,0,1.64.23,1.64,1V52.18H61.48V57h8.73V52.18H68.56Z"/><path class="cls-1" d="M81.36,43.64c-3.66-1-4-1.51-4-3.1,0-1.42.51-2,2.24-2a13.47,13.47,0,0,1,2.15.09v3.07h5.35V35.61a33.35,33.35,0,0,0-7.72-.73c-5.9,0-7.55,1.83-7.55,6.41,0,4.15,1.19,5.39,6.09,6.94,3.93,1.29,4.46,1.61,4.46,3.29,0,1.92-.55,2.2-2.68,2.2-.67,0-1.35,0-2-.09V50.39H72v6.24a38.24,38.24,0,0,0,7.63.65c6.58,0,8.13-1.79,8.13-6.68C87.85,46.69,86.89,45.23,81.36,43.64Z"/><polygon class="cls-1" points="103.09 43.58 106.33 40.11 109.08 40.11 109.08 35.21 100.26 35.21 100.26 39.47 102.31 39.47 97.24 45.04 97.24 23.56 89.69 23.56 89.69 28.5 91.43 28.5 91.43 52.17 89.69 52.17 89.69 57.02 99.16 57.02 99.16 52.41 97.24 52.41 97.24 49.57 98.98 47.74 101.58 52.54 101.58 57.02 109.77 57.02 109.77 52.17 107.94 52.17 103.09 43.58"/><path class="cls-1" d="M122.59,39.83h1.74l-1.78,6.54c-.5,2-.89,3.48-1.14,5a41.48,41.48,0,0,0-1.24-5l-1.92-6.54h1.92V35.21h-9.28v4.86h1.51l5.95,16.64c-.28,1.1-1,3.11-1,3.11H114v4.75h10.71V59.85h-2.1L129,40.07h1.47V35.21h-7.87Z"/><path class="cls-1" d="M157.84,39.65c3.66-.64,4.86-2.68,4.86-7.5,0-6.59-1.65-8.59-8.51-8.59H140.61v5.07H143V52h-2.38v5h14.44c6.91,0,8.55-2.93,8.55-9.38C163.6,41.66,161.82,40.2,157.84,39.65Zm-8.73-11.34h4.58c2.15,0,3.06,1,3.06,4.84s-1,4.9-3.06,4.9h-4.58Zm5.26,24v0h-5.26V42h5.26c2.06,0,3.11,1.18,3.11,5.16S156.47,52.35,154.37,52.35Z"/><path class="cls-1" d="M172.06,35.21h-6.45v4.86h1.74V52.18h-1.74V57h10.06V52.18h-2.42V40.58a10.16,10.16,0,0,1,2.68-.45v3h5.26V34.72a19.08,19.08,0,0,0-8.46,2.68Z"/><path class="cls-1" d="M191.48,34.72C185,34.72,183,36.87,183,46.1s1.92,11.2,8.5,11.2a46,46,0,0,0,7.68-.59V50.39h-5.62v3.16a17.84,17.84,0,0,1-2.06.09c-2.2,0-2.61-1-2.68-6.49h10.52V44.59C199.39,36.51,197.79,34.72,191.48,34.72Zm-2.56,8.92c.05-4.39.78-5,2.52-5s2.47.52,2.47,5Z"/><path class="cls-1" d="M220.16,39.83h2.06l-1,5.59c-.32,1.88-.64,3.66-.73,4.76a42.1,42.1,0,0,0-1.16-4.76l-2.06-7.13h-4l-2,7.13a41,41,0,0,0-1.1,4.76c-.14-1.28-.42-2.88-.78-4.76l-1.1-5.57h1.93V35.21h-9.11v4.86h1.7l3.88,17h5.21l1.87-6.91a32.09,32.09,0,0,0,1.06-4.66c.23,1.47.55,2.83,1,4.61l1.69,7h5.17l3.79-17h1.69V35.21h-7.91Z"/><path class="cls-1" d="M238.05,34.72c-6.45,0-8.45,2.15-8.45,11.38s1.91,11.2,8.5,11.2a45.76,45.76,0,0,0,7.67-.59V50.39h-5.61v3.16a17.84,17.84,0,0,1-2.06.09c-2.2,0-2.61-1-2.68-6.49h10.51V44.59C246,36.51,244.39,34.72,238.05,34.72Zm-2.56,8.92c0-4.39.78-5,2.52-5s2.47.5,2.47,5Z"/><path class="cls-1" d="M254.34,35.21h-6.48v4.86h1.78V52.18h-1.78V57h10.06V52.18h-2.39V40.58a10.16,10.16,0,0,1,2.68-.45v3h5.25V34.72A19.08,19.08,0,0,0,255,37.4Z"/><path class="cls-1" d="M276.74,39.83h1.74l-1.79,6.54c-.5,2-.89,3.48-1.14,5a41.48,41.48,0,0,0-1.24-5l-1.92-6.54h1.92V35.21H265v4.86h1.55l5.94,16.64c-.27,1.1-1,3.11-1,3.11h-3.39v4.75h10.75V59.85h-2.1l6.31-19.78h1.46V35.21h-7.86Z"/><path class="cls-2" d="M353.22,47.58l0-.07v-.06c.62-.89.06-1.37-1.05-1.39,0-.32.78-.75.78-.75V36.94h-2.46v8.37s.68.45.68.77c-.8,0-1.54.4-1.18,1s.26,1-.15,1.23a.94.94,0,0,1-.49.12,33.24,33.24,0,0,1-3.49-.11c-1.29-.28-1.38-1.06-1.79-2.68-.15-.63-.17-1,.69-1,1,.11,1.44-.34,1.42-1.41-.12-5.35-2.52-9.3-7.36-11.48a25.65,25.65,0,0,0-18.27-.89c-6.25,1.86-9.58,6.34-9.71,12.32,0,1.12.32,1.64,1.47,1.51.84-.09.89.31.63,1a12.48,12.48,0,0,0-.72,4c0,2.48.44,4.76,3.11,5.81.46.19.52.6.61,1A17.46,17.46,0,0,0,319.28,64c1.29,1.6,1.63,1.64,3.22.26A15.71,15.71,0,0,0,327.23,70a1.93,1.93,0,0,0,2.68,0,15.22,15.22,0,0,0,4.45-5.12c.21-.38.41-.73.83-.23.9,1,1.55.65,2.28-.18a16.62,16.62,0,0,0,3.78-8.3c.05-.33.05-.7.44-.8,1.73-.41,2.51-1.72,3.05-3.24A1.54,1.54,0,0,1,346,50.94a1.6,1.6,0,0,1,1.7.89l3.57,5.68,2.12-1.24-1.51-2.94a1.49,1.49,0,0,1,1-2.22c.14-.07,1.22-.49,1.22-.49V48.46l-.44-.21A.54.54,0,0,1,353.22,47.58Zm-22.71-15.9c3.91.3,7.56,1.25,10.59,3.91a8.79,8.79,0,0,1,3.13,6.24v0c0,.39,0,.8-.54.79-4.72,0-9.05-1.09-12.13-5.06a11.35,11.35,0,0,1-2.07-4.73,6.51,6.51,0,0,1-.12-.71C329.33,31.63,329.57,31.64,330.51,31.68Zm-.9,25.69c-.41.46-.78.64-1.18.52a1.74,1.74,0,0,1-.74-.52,25.58,25.58,0,0,1-3.84-6.25c-.25-.52,1-2.78,1.5-2.8h0l.2.14c.1.07.19.16.29.22a11.4,11.4,0,0,0,2.53,1.55c.68.15,1.13-.35,2.73-1.37.57-.4.77-.31,1.29.2h0c1.21,1.23,1.05,2.32.2,3.68A32.28,32.28,0,0,1,329.61,57.37Zm3.86-16c.37.25.25.66.18,1a9.1,9.1,0,0,1-4.46,6.19.77.77,0,0,1-.52.16.74.74,0,0,1-.41-.11,8.91,8.91,0,0,1-4.62-6.4c-.07-.36-.11-.71.28-1a12.12,12.12,0,0,0,4.68-5.71c0-.05,0-.09.07-.14A13.48,13.48,0,0,0,333.47,41.35Zm-20.53.92A4.85,4.85,0,0,1,313.1,41h0a10.27,10.27,0,0,1,6-7.51,19.78,19.78,0,0,1,8.09-1.78.82.82,0,0,1,.55.13c.13.11.16.3.11.62-.59,4.7-4.05,8.31-9.36,9.68a16.83,16.83,0,0,1-4,.55C313.38,42.74,313,42.74,312.94,42.27Zm1.33,8.18h.05a4.21,4.21,0,0,1,0-.71,20.35,20.35,0,0,1,1-4.82,1.26,1.26,0,0,1,1.17-1,19.31,19.31,0,0,0,4.6-1.23l.23-.08c.58-.19.92-.11,1.05.73a8.25,8.25,0,0,0,1.47,3.16,1,1,0,0,1,0,1.29,13.48,13.48,0,0,1-2,2.46,13.69,13.69,0,0,1-4.16,2.89,3.94,3.94,0,0,1-.72.26C315.35,53.79,314.37,52.76,314.27,50.45Zm7.08,12c-.15.18-.28.27-.43.17a.55.55,0,0,1-.17-.17,16.12,16.12,0,0,1-2.85-7c-.1-.8.23-1,.58-1.19a17,17,0,0,0,3.48-2.2c.21-.18.38-.24.52-.2s.26.18.37.41a37.09,37.09,0,0,0,2.68,4.65.69.69,0,0,1,.09.76l0,0a.42.42,0,0,1-.11.15l0,0Zm11.6.72a10.84,10.84,0,0,1-3.44,4.63,1.29,1.29,0,0,1-1.05.39.81.81,0,0,1-.35-.15,9.59,9.59,0,0,1-4-6,1.81,1.81,0,0,1,.67-1.34c.34-.38.7-.75,1-1.16s.79-.92,1.34-.83a1.67,1.67,0,0,1,.71.32,1.68,1.68,0,0,0,.48.2,1.58,1.58,0,0,0,1.46-.39.85.85,0,0,1,.66-.24,1.09,1.09,0,0,1,.62.49,8.41,8.41,0,0,0,1.37,1.55,2,2,0,0,1,.42,2.53Zm3.68-.84c-.24.32-.46.37-.79,0-1.29-1.48-2.61-3-3.94-4.46a.75.75,0,0,1-.14-1l.05-.05a26,26,0,0,0,2.51-4.46,1.5,1.5,0,0,1,.15-.26c.21-.29.45-.32.85,0a15.67,15.67,0,0,0,3.42,2.22c.41.18.5.47.52.91,0,.14,0,.3,0,.48a15.14,15.14,0,0,1-2.67,6.64l.06,0h0Zm5.71-9.84a2.29,2.29,0,0,1-.73.68h.08l-.05,0c-1.25.72-2.4-.15-3.46-.74A14.47,14.47,0,0,1,333.4,48a1.18,1.18,0,0,1,0-1.54A9.31,9.31,0,0,0,335,42.82a.68.68,0,0,1,.19-.4c.11-.1.28-.09.54,0a23.53,23.53,0,0,0,5.35,1.45.9.9,0,0,1,.76.67,15.34,15.34,0,0,1,1.08,5.72A5.3,5.3,0,0,1,342.34,52.54Z"/><path class="cls-2" d="M337.15,34.42a7,7,0,0,0-.89-.27c-.42,0-.75.06-.85.47-.15.58.29.82.7,1a8.46,8.46,0,0,1,5.1,5.11c.16.42.46.89,1,.69s.38-.74.26-1.16A9,9,0,0,0,337.15,34.42Z"/><path class="cls-2" d="M334.08,33.49,331.69,33c-.47.13-1.17-.18-1.28.53s.5.81,1.07.9c.76.09,1.52.26,2.29.38.45.07.84,0,.94-.56S334.49,33.57,334.08,33.49Z"/><path class="cls-2" d="M341.41,49.34a11.8,11.8,0,0,0-.62-3.18c-.12-.34-.31-.69-.79-.5s-.45.47-.37.89c.23,1,.4,1.92.62,2.89.1.41-.1,1.1.67,1S341.3,49.72,341.41,49.34Z"/><path class="cls-2" d="M330.73,64.36c.15-.3-.25-.76-.63-.69-.83.16-1.11.89-1.33,1.52,0,.46.06.89.45.79A2.66,2.66,0,0,0,330.73,64.36Z"/><path class="cls-2" d="M337.1,58.45v0c.23-.61.39-1.24.51-1.61,0-.55,0-.84-.32-.93a.59.59,0,0,0-.66.35,4.9,4.9,0,0,0-.63,1.85.64.64,0,0,0,.32.76A.61.61,0,0,0,337.1,58.45Z"/><path class="cls-2" d="M321.33,29.31A6.7,6.7,0,0,0,328,27.14c.4-.53.59-.53,1-.05a6.57,6.57,0,0,0,4.11,2.47c4.32,0,6.94-3,6.41-6.17a4.82,4.82,0,0,0-4.39-3.83,4,4,0,0,0-3.86,3c-.14.65-.35,1.48.57,1.73s1.16-.49,1.38-1.17a2,2,0,0,1,3.3-1,2.58,2.58,0,0,1,1,2.63,3.26,3.26,0,0,1-2.31,2.68,4.47,4.47,0,0,1-5.45-3.19,6.45,6.45,0,0,1-.12-.66c-.14-1.63-.15-3.29-.19-4.93,0-.69-.22-1.18-1-1.22s-.8.6-.82,1.12c-.08,1.53-.13,3.05-.17,4.58a4.62,4.62,0,0,1-3.23,4.29,3.52,3.52,0,0,1-4.52-2.05,3.6,3.6,0,0,1-.22-1.38,2.45,2.45,0,0,1,2.22-2.32c1.18-.1,1.79.44,2.16,1.88a1,1,0,0,0,1.11.83.92.92,0,0,0,.89-1.05,3.86,3.86,0,0,0-4-3.7,4.17,4.17,0,0,0-.86.14,4.58,4.58,0,0,0-3.52,4.87A5.51,5.51,0,0,0,321.33,29.31Z"/></g></g></svg>