<svg xmlns="http://www.w3.org/2000/svg" viewBox="0 0 171.14 243.77"><defs><style>.cls-1{fill:#fff;}.cls-2{fill:none;}.cls-3{fill:#ffcb05;}</style></defs><g id="Layer_2" data-name="Layer 2"><g id="Layer_1-2" data-name="Layer 1"><path class="cls-1" d="M171.14,79.29a14.79,14.79,0,0,0-5.63-11.62,34.69,34.69,0,0,0-34.23-29.28H117.82V33.63A13.61,13.61,0,0,0,121,24.85V22.58A13.68,13.68,0,0,0,110.13,9.2l-.95-1.65A15.11,15.11,0,0,0,96.11,0H75A15.13,15.13,0,0,0,62,7.55L61,9.19A13.69,13.69,0,0,0,50.1,22.58v2.27a13.65,13.65,0,0,0,3.22,8.8v4.74H39.85A34.7,34.7,0,0,0,5.62,67.68a14.79,14.79,0,0,0-.41,22.87V212a13.66,13.66,0,0,0-1.88,6.94v2.28A13.68,13.68,0,0,0,17,234.85h44.2l.79,1.37A15.11,15.11,0,0,0,75,243.77H96.11a15.12,15.12,0,0,0,13.07-7.56l.78-1.36h44.19a13.68,13.68,0,0,0,13.66-13.66v-2.28a13.64,13.64,0,0,0-1.89-7V90.56A14.78,14.78,0,0,0,171.14,79.29Z"/><path class="cls-2" d="M63.76,25.44h43.61a.58.58,0,0,0,.59-.59V22.58a.58.58,0,0,0-.59-.59H63.76a.59.59,0,0,0-.59.59v2.27A.59.59,0,0,0,63.76,25.44Z"/><path class="cls-2" d="M21.49,215.25H149.64a3.21,3.21,0,0,0,3.21-3.21V84.09H131.21a1.54,1.54,0,1,1,0-3.07h25.13a1.73,1.73,0,0,0,0-3.46h-99a1.54,1.54,0,0,1,0-3.07h95.48V73a21.59,21.59,0,0,0-21.57-21.56h-34a1.54,1.54,0,0,1,0-3.07h7.5V28.51H66.39V48.39H81.67a1.54,1.54,0,0,1,0,3.07H39.85A21.59,21.59,0,0,0,18.28,73v1.46H40.66a1.54,1.54,0,0,1,0,3.07H14.8a1.73,1.73,0,0,0,0,3.46H118.18a1.54,1.54,0,1,1,0,3.07H18.28V212A3.21,3.21,0,0,0,21.49,215.25ZM132.69,63.11a1.59,1.59,0,0,1,2.17,0,1.54,1.54,0,0,1,.45,1.09,1.51,1.51,0,0,1-.45,1.08,2.11,2.11,0,0,1-.23.19,1.16,1.16,0,0,1-.27.14,1.4,1.4,0,0,1-.29.09,1.36,1.36,0,0,1-.29,0,1.55,1.55,0,0,1-.31,0,1.52,1.52,0,0,1-.28-.09,1.16,1.16,0,0,1-.27-.14,2.11,2.11,0,0,1-.23-.19,1.51,1.51,0,0,1-.45-1.08A1.54,1.54,0,0,1,132.69,63.11Zm-12,0a1.59,1.59,0,0,1,2.17,0,1.54,1.54,0,0,1,.45,1.09,1.51,1.51,0,0,1-.45,1.08,2.11,2.11,0,0,1-.23.19,1.16,1.16,0,0,1-.27.14,1.41,1.41,0,0,1-.58.12,1.54,1.54,0,0,1-1.09-.45,1.51,1.51,0,0,1-.45-1.08A1.54,1.54,0,0,1,120.64,63.11Zm-12,0a1.59,1.59,0,0,1,2.17,0,1.54,1.54,0,0,1,.42,1.39,1.61,1.61,0,0,1-.09.29,1.65,1.65,0,0,1-.14.26l-.19.23a2.11,2.11,0,0,1-.23.19,1.16,1.16,0,0,1-.27.14,1.41,1.41,0,0,1-.58.12,1.54,1.54,0,0,1-1.09-.45,1.51,1.51,0,0,1-.45-1.08A1.54,1.54,0,0,1,108.59,63.11Zm-12,0a1.59,1.59,0,0,1,2.17,0,1.54,1.54,0,0,1,.45,1.09,1.51,1.51,0,0,1-.45,1.08,1.53,1.53,0,0,1-2.17,0,1.51,1.51,0,0,1-.45-1.08A1.54,1.54,0,0,1,96.54,63.11Zm-12.05,0a1.59,1.59,0,0,1,2.17,0,1.54,1.54,0,0,1,.42,1.39,1.61,1.61,0,0,1-.09.29,1.65,1.65,0,0,1-.14.26l-.19.23a1.53,1.53,0,0,1-2.17,0A1.51,1.51,0,0,1,84,64.2,1.54,1.54,0,0,1,84.49,63.11Zm-12,0a1.59,1.59,0,0,1,2.17,0,1.54,1.54,0,0,1,.45,1.09,1.51,1.51,0,0,1-.45,1.08,1.53,1.53,0,0,1-2.17,0A1.51,1.51,0,0,1,72,64.2,1.54,1.54,0,0,1,72.44,63.11Zm-12,0a1.59,1.59,0,0,1,2.17,0A1.54,1.54,0,0,1,63,64.2a1.51,1.51,0,0,1-.45,1.08,1.53,1.53,0,0,1-2.17,0,1.56,1.56,0,0,1-.45-1.08A1.58,1.58,0,0,1,60.39,63.11ZM38.46,65.28a1.53,1.53,0,0,1-2.17,0,1.56,1.56,0,0,1-.45-1.08,1.54,1.54,0,0,1,2.62-1.09,1.54,1.54,0,0,1,.45,1.09A1.51,1.51,0,0,1,38.46,65.28Zm11.81,11a1.61,1.61,0,0,1-.09.29.94.94,0,0,1-.14.26,1.57,1.57,0,0,1-.42.42,1.43,1.43,0,0,1-.27.15c-.09,0-.19.06-.28.09l-.3,0-.3,0a2.46,2.46,0,0,1-.29-.09,1.35,1.35,0,0,1-.26-.15,1.12,1.12,0,0,1-.24-.19,2.11,2.11,0,0,1-.19-.23,2.15,2.15,0,0,1-.14-.26,1.61,1.61,0,0,1-.09-.29,1.53,1.53,0,0,1,0-.3,1.54,1.54,0,0,1,2.62-1.09,1.54,1.54,0,0,1,.42,1.39Zm.24-11a1.53,1.53,0,0,1-1.08.45,1.45,1.45,0,0,1-.3,0,1.4,1.4,0,0,1-.29-.09,1.16,1.16,0,0,1-.27-.14,2.11,2.11,0,0,1-.23-.19l-.19-.23a1.65,1.65,0,0,1-.14-.26,1.61,1.61,0,0,1-.09-.29,1.54,1.54,0,0,1,.42-1.39,1.59,1.59,0,0,1,2.17,0A1.54,1.54,0,0,1,51,64.2,1.51,1.51,0,0,1,50.51,65.28Zm8.15,87.51A1.41,1.41,0,0,1,58,153a1.54,1.54,0,0,1-1.37-.84c-.14-.28-.27-.55-.4-.83A1.53,1.53,0,1,1,59,150c.12.26.24.5.37.75A1.53,1.53,0,0,1,58.66,152.79Zm-2.89-5.49a1.55,1.55,0,0,1-1.48-1.13c-.25-.87-.45-1.77-.62-2.66a1.53,1.53,0,1,1,3-.57c.16.81.35,1.62.57,2.41a1.54,1.54,0,0,1-1.07,1.89A1.51,1.51,0,0,1,55.77,147.3Zm29.8,19.53a1.54,1.54,0,0,1,0,3.07,32.22,32.22,0,0,1-26-13A1.54,1.54,0,0,1,62,155.07,29.19,29.19,0,0,0,85.57,166.83Zm-5.82-29.39a5.82,5.82,0,0,1,9.92-4.11h0a5.81,5.81,0,0,1,0,8.22,5.82,5.82,0,0,1-9.92-4.11Zm7.36,54.85a1.54,1.54,0,0,1-.45,1.09,1.56,1.56,0,0,1-1.08.45,1.58,1.58,0,0,1-1.09-.45,1.53,1.53,0,0,1,0-2.17,1.37,1.37,0,0,1,.23-.19l.27-.15.29-.08a1.54,1.54,0,0,1,1.38.42A1.51,1.51,0,0,1,87.11,192.29Zm-12,0a1.54,1.54,0,0,1-.45,1.09,1.53,1.53,0,0,1-2.17,0,1.54,1.54,0,0,1-.45-1.09,1.51,1.51,0,0,1,.45-1.08,1.59,1.59,0,0,1,2.17,0A1.51,1.51,0,0,1,75.06,192.29Zm-12.05,0a1.54,1.54,0,0,1-.45,1.09,1.54,1.54,0,0,1-2.62-1.09,1.54,1.54,0,0,1,1.84-1.5l.28.08a1.43,1.43,0,0,1,.27.15,1.37,1.37,0,0,1,.23.19A1.51,1.51,0,0,1,63,192.29Zm2.89,16.58H60.8a1.54,1.54,0,0,1,0-3.07h5.1a1.54,1.54,0,1,1,0,3.07Zm79.93-2.62a1.59,1.59,0,0,1,2.17,0,1.54,1.54,0,0,1,.42,1.39,1.31,1.31,0,0,1-.09.28.87.87,0,0,1-.14.27,1.37,1.37,0,0,1-.19.23,1.52,1.52,0,0,1-1.38.42,1.4,1.4,0,0,1-.29-.09.94.94,0,0,1-.26-.14,1.12,1.12,0,0,1-.24-.19,2.11,2.11,0,0,1-.19-.23,1.71,1.71,0,0,1-.14-.27,1.31,1.31,0,0,1-.09-.28,1.53,1.53,0,0,1,0-.3A1.58,1.58,0,0,1,145.83,206.25Zm-13.14-15a1.54,1.54,0,0,1,1.38-.42l.29.08.27.15a1.37,1.37,0,0,1,.23.19,1.51,1.51,0,0,1,.45,1.08,1.54,1.54,0,0,1-.45,1.09,1.58,1.58,0,0,1-1.09.45,1.56,1.56,0,0,1-1.08-.45,1.54,1.54,0,0,1-.45-1.09A1.51,1.51,0,0,1,132.69,191.21ZM123.34,81.47a1.55,1.55,0,0,1,1.39-.42,1.31,1.31,0,0,1,.28.09.87.87,0,0,1,.27.14,1.37,1.37,0,0,1,.23.19,1.52,1.52,0,0,1,.42,1.38,1.4,1.4,0,0,1-.09.29,1.16,1.16,0,0,1-.14.27,1.37,1.37,0,0,1-.19.23,2.11,2.11,0,0,1-.23.19A1.71,1.71,0,0,1,125,84a1.31,1.31,0,0,1-.28.09,1.51,1.51,0,0,1-.6,0,1.4,1.4,0,0,1-.29-.09l-.26-.14a1.55,1.55,0,0,1-.24-.19,2.11,2.11,0,0,1-.19-.23c-.05-.09-.1-.18-.14-.27a1.4,1.4,0,0,1-.09-.29,1.53,1.53,0,0,1,0-.3A1.56,1.56,0,0,1,123.34,81.47Zm-2.7,109.74a1.37,1.37,0,0,1,.23-.19,1.43,1.43,0,0,1,.27-.15l.28-.08a1.55,1.55,0,0,1,1.39.42,1.51,1.51,0,0,1,.45,1.08,1.54,1.54,0,0,1-.45,1.09,1.53,1.53,0,0,1-2.17,0,1.53,1.53,0,0,1,0-2.17Zm17.65,14.64a1.54,1.54,0,1,1,0,3.07H72.9a1.54,1.54,0,0,1,0-3.07Zm-42.2-13.56a1.51,1.51,0,0,1,.45-1.08,1.54,1.54,0,0,1,1.38-.42l.29.08a1.82,1.82,0,0,1,.27.15,1.37,1.37,0,0,1,.23.19,1.51,1.51,0,0,1,.45,1.08,1.54,1.54,0,0,1-.45,1.09,1.53,1.53,0,0,1-2.17,0A1.54,1.54,0,0,1,96.09,192.29Zm12,0a1.51,1.51,0,0,1,.45-1.08,1.59,1.59,0,0,1,2.17,0,1.51,1.51,0,0,1,.45,1.08,1.54,1.54,0,0,1-.45,1.09,1.53,1.53,0,0,1-2.17,0A1.54,1.54,0,0,1,108.14,192.29Zm9.11-24.13a1.51,1.51,0,0,1-.77.88.38.38,0,0,1-.13.06,11.75,11.75,0,0,1-13.77-4l-13.34-18.4a1.53,1.53,0,0,1,.16-2l3.39-3.4a1.54,1.54,0,0,1,2-.15l18.4,13.33A11.75,11.75,0,0,1,117.25,168.16Zm-.31-39.09c.18.66.33,1.32.46,2a1.52,1.52,0,0,1-1.2,1.8l-.3,0a1.54,1.54,0,0,1-1.51-1.23c-.12-.61-.26-1.21-.42-1.81a1.54,1.54,0,1,1,3-.79Zm-4.47-7a1.52,1.52,0,0,1,2.06.67c.14.27.27.55.4.83a1.52,1.52,0,0,1-.73,2,1.51,1.51,0,0,1-.65.15,1.54,1.54,0,0,1-1.39-.88c-.12-.25-.24-.5-.37-.75A1.53,1.53,0,0,1,112.47,122.09ZM85.57,105a32.24,32.24,0,0,1,25.87,12.84,1.55,1.55,0,0,1-.3,2.16,1.5,1.5,0,0,1-.92.31,1.53,1.53,0,0,1-1.23-.61,29.18,29.18,0,0,0-23.42-11.63,1.54,1.54,0,1,1,0-3.07ZM53.9,106.66v0a1.55,1.55,0,0,1,.91-.88,11.77,11.77,0,0,1,13.74,4.07l13.33,18.4a1.52,1.52,0,0,1-.16,2l-3.39,3.4a1.57,1.57,0,0,1-1.09.45,1.52,1.52,0,0,1-.9-.3L58,120.43A11.75,11.75,0,0,1,53.9,106.66ZM52.55,207a1.4,1.4,0,0,1,.09-.29,1.16,1.16,0,0,1,.14-.27,1.37,1.37,0,0,1,.19-.23,1.59,1.59,0,0,1,2.17,0,2.11,2.11,0,0,1,.19.23c.05.09.1.18.14.27a1.4,1.4,0,0,1,.09.29,1.53,1.53,0,0,1,0,.3,1.56,1.56,0,0,1-.45,1.08,1.12,1.12,0,0,1-.24.19.94.94,0,0,1-.26.14,1.4,1.4,0,0,1-.29.09,1.53,1.53,0,0,1-1.8-1.8Zm-4.21-15.83a1.37,1.37,0,0,1,.23-.19,1.82,1.82,0,0,1,.27-.15l.29-.08a1.54,1.54,0,0,1,1.38.42,1.51,1.51,0,0,1,.45,1.08,1.54,1.54,0,0,1-.45,1.09,1.56,1.56,0,0,1-1.08.45,1.54,1.54,0,0,1-1.54-1.54A1.53,1.53,0,0,1,48.34,191.21Zm-12.05,0a1.59,1.59,0,0,1,2.17,0,1.51,1.51,0,0,1,.45,1.08,1.54,1.54,0,0,1-.45,1.09,1.56,1.56,0,0,1-1.08.45,1.58,1.58,0,0,1-1.09-.45,1.54,1.54,0,0,1-.45-1.09A1.51,1.51,0,0,1,36.29,191.21ZM24.22,205.85H48.76a1.54,1.54,0,1,1,0,3.07H24.22a1.54,1.54,0,0,1,0-3.07Z"/><rect class="cls-2" x="16.4" y="218.32" width="138.34" height="3.45" rx="0.59"/><path class="cls-3" d="M87.5,135.5a2.74,2.74,0,1,0-3.87,3.88,2.81,2.81,0,0,0,3.87,0A2.75,2.75,0,0,0,87.5,135.5Z"/><path d="M89.67,141.55a5.81,5.81,0,0,0,0-8.22h0a5.81,5.81,0,1,0-8.21,8.22,5.81,5.81,0,0,0,8.21,0Zm-6-2.17a2.74,2.74,0,1,1,3.87,0A2.81,2.81,0,0,1,83.63,139.38Z"/><path class="cls-3" d="M59.76,117.94l17.33,12.57L78.64,129,66.07,111.63a8.68,8.68,0,0,0-9.53-3.22A8.68,8.68,0,0,0,59.76,117.94Z"/><path d="M58,120.43l18.39,13.33a1.52,1.52,0,0,0,.9.3,1.57,1.57,0,0,0,1.09-.45l3.39-3.4a1.52,1.52,0,0,0,.16-2l-13.33-18.4a11.77,11.77,0,0,0-13.74-4.07,1.55,1.55,0,0,0-.91.88v0A11.75,11.75,0,0,0,58,120.43Zm8.11-8.8L78.64,129l-1.55,1.54L59.76,117.94a8.68,8.68,0,0,1-3.22-9.53A8.68,8.68,0,0,1,66.07,111.63Z"/><path class="cls-3" d="M111.37,156.93,94,144.37l-1.54,1.54,12.56,17.34a8.69,8.69,0,0,0,9.53,3.21A8.69,8.69,0,0,0,111.37,156.93Z"/><path d="M113.18,154.45l-18.4-13.33a1.54,1.54,0,0,0-2,.15l-3.39,3.4a1.53,1.53,0,0,0-.16,2l13.34,18.4a11.75,11.75,0,0,0,13.77,4,.38.38,0,0,0,.13-.06,1.51,1.51,0,0,0,.77-.88A11.75,11.75,0,0,0,113.18,154.45Zm-8.12,8.8L92.5,145.91,94,144.37l17.33,12.56a8.69,8.69,0,0,1,3.22,9.53A8.69,8.69,0,0,1,105.06,163.25Z"/><path d="M114,129.86c.16.6.3,1.2.42,1.81a1.54,1.54,0,0,0,1.51,1.23l.3,0a1.52,1.52,0,0,0,1.2-1.8c-.13-.68-.28-1.34-.46-2a1.54,1.54,0,1,0-3,.79Z"/><path d="M111.79,124.15c.13.25.25.5.37.75a1.54,1.54,0,0,0,1.39.88,1.51,1.51,0,0,0,.65-.15,1.52,1.52,0,0,0,.73-2c-.13-.28-.26-.56-.4-.83a1.54,1.54,0,0,0-2.74,1.39Z"/><path d="M85.57,108.05A29.18,29.18,0,0,1,109,119.68a1.53,1.53,0,0,0,1.23.61,1.5,1.5,0,0,0,.92-.31,1.55,1.55,0,0,0,.3-2.16A32.24,32.24,0,0,0,85.57,105a1.54,1.54,0,1,0,0,3.07Z"/><path d="M57.25,145.35c-.22-.79-.41-1.6-.57-2.41a1.53,1.53,0,1,0-3,.57c.17.89.37,1.79.62,2.66a1.55,1.55,0,0,0,1.48,1.13,1.51,1.51,0,0,0,.41-.06A1.54,1.54,0,0,0,57.25,145.35Z"/><path d="M59.34,150.73c-.13-.25-.25-.49-.37-.75a1.53,1.53,0,1,0-2.77,1.31c.13.28.26.55.4.83A1.54,1.54,0,0,0,58,153a1.41,1.41,0,0,0,.69-.17A1.53,1.53,0,0,0,59.34,150.73Z"/><path d="M62,155.07a1.54,1.54,0,0,0-2.46,1.84,32.22,32.22,0,0,0,26,13,1.54,1.54,0,0,0,0-3.07A29.19,29.19,0,0,1,62,155.07Z"/><path d="M155.92,84.09h.42a4.8,4.8,0,0,0,0-9.6h-.42V73a24.66,24.66,0,0,0-24.64-24.63H107.82V28.47A3.65,3.65,0,0,0,111,24.85V22.58a3.66,3.66,0,0,0-3.66-3.66h-3.19l-3.67-6.38A5.08,5.08,0,0,0,96.11,10H75a5.08,5.08,0,0,0-4.4,2.54L67,18.92H63.76a3.66,3.66,0,0,0-3.66,3.66v2.27a3.65,3.65,0,0,0,3.22,3.62V48.39H39.85A24.67,24.67,0,0,0,15.21,73v1.46H14.8a4.8,4.8,0,1,0,0,9.6h.41V212a6.22,6.22,0,0,0,1,3.31,3.66,3.66,0,0,0-2.84,3.56v2.28A3.66,3.66,0,0,0,17,224.85H67l3.67,6.38a5.11,5.11,0,0,0,4.4,2.54H96.11a5.1,5.1,0,0,0,4.4-2.54l3.67-6.38h50a3.66,3.66,0,0,0,3.66-3.66v-2.28a3.67,3.67,0,0,0-2.84-3.56,6.22,6.22,0,0,0,.95-3.31ZM75,13.07H96.11a2,2,0,0,1,1.74,1l2.79,4.85H70.51l2.79-4.85A2,2,0,0,1,75,13.07ZM63.17,22.58a.59.59,0,0,1,.59-.59h43.61a.58.58,0,0,1,.59.59v2.27a.58.58,0,0,1-.59.59H63.76a.59.59,0,0,1-.59-.59Zm55,61.51a1.54,1.54,0,1,0,0-3.07H14.8a1.73,1.73,0,0,1,0-3.46H40.66a1.54,1.54,0,0,0,0-3.07H18.28V73A21.59,21.59,0,0,1,39.85,51.46H81.67a1.54,1.54,0,0,0,0-3.07H66.39V28.51h38.36V48.39h-7.5a1.54,1.54,0,0,0,0,3.07h34A21.59,21.59,0,0,1,152.85,73v1.47H57.37a1.54,1.54,0,0,0,0,3.07h99a1.73,1.73,0,0,1,0,3.46H131.21a1.54,1.54,0,1,0,0,3.07h21.64V212a3.21,3.21,0,0,1-3.21,3.21H21.49A3.21,3.21,0,0,1,18.28,212V84.09ZM96.11,230.7H75a2,2,0,0,1-1.74-1l-2.79-4.84h30.13l-2.79,4.84A2,2,0,0,1,96.11,230.7Zm58.63-9.51a.59.59,0,0,1-.59.59H17a.6.6,0,0,1-.59-.59v-2.28a.6.6,0,0,1,.59-.59H154.15a.59.59,0,0,1,.59.59Z"/><path d="M47.68,74.94A1.58,1.58,0,0,0,47.23,76a1.53,1.53,0,0,0,0,.3,1.61,1.61,0,0,0,.09.29,2.15,2.15,0,0,0,.14.26,2.11,2.11,0,0,0,.19.23,1.12,1.12,0,0,0,.24.19,1.35,1.35,0,0,0,.26.15,2.46,2.46,0,0,0,.29.09l.3,0,.3,0c.09,0,.19-.05.28-.09a1.43,1.43,0,0,0,.27-.15,1.57,1.57,0,0,0,.42-.42.94.94,0,0,0,.14-.26,1.61,1.61,0,0,0,.09-.29,1.54,1.54,0,0,0-.42-1.39A1.59,1.59,0,0,0,47.68,74.94Z"/><path d="M123,83.14c0,.09.09.18.14.27a2.11,2.11,0,0,0,.19.23,1.55,1.55,0,0,0,.24.19l.26.14a1.4,1.4,0,0,0,.29.09,1.51,1.51,0,0,0,.6,0A1.31,1.31,0,0,0,125,84a1.71,1.71,0,0,0,.27-.14,2.11,2.11,0,0,0,.23-.19,1.37,1.37,0,0,0,.19-.23,1.16,1.16,0,0,0,.14-.27,1.4,1.4,0,0,0,.09-.29,1.52,1.52,0,0,0-.42-1.38,1.37,1.37,0,0,0-.23-.19.87.87,0,0,0-.27-.14,1.31,1.31,0,0,0-.28-.09,1.54,1.54,0,0,0-1.84,1.5,1.53,1.53,0,0,0,0,.3A1.4,1.4,0,0,0,123,83.14Z"/><path d="M71.37,207.38a1.53,1.53,0,0,0,1.53,1.54h65.39a1.54,1.54,0,1,0,0-3.07H72.9A1.53,1.53,0,0,0,71.37,207.38Z"/><path d="M24.22,208.92H48.76a1.54,1.54,0,1,0,0-3.07H24.22a1.54,1.54,0,0,0,0,3.07Z"/><path d="M65.9,205.8H60.8a1.54,1.54,0,0,0,0,3.07h5.1a1.54,1.54,0,1,0,0-3.07Z"/><path d="M145.5,207.92a1.71,1.71,0,0,0,.14.27,2.11,2.11,0,0,0,.19.23,1.12,1.12,0,0,0,.24.19.94.94,0,0,0,.26.14,1.4,1.4,0,0,0,.29.09,1.52,1.52,0,0,0,1.38-.42,1.37,1.37,0,0,0,.19-.23.87.87,0,0,0,.14-.27,1.31,1.31,0,0,0,.09-.28,1.54,1.54,0,0,0-.42-1.39,1.54,1.54,0,0,0-2.62,1.09,1.53,1.53,0,0,0,0,.3A1.31,1.31,0,0,0,145.5,207.92Z"/><path d="M54.05,208.87a1.53,1.53,0,0,0,.3,0,1.4,1.4,0,0,0,.29-.09.94.94,0,0,0,.26-.14,1.12,1.12,0,0,0,.24-.19,1.56,1.56,0,0,0,.45-1.08,1.53,1.53,0,0,0,0-.3,1.4,1.4,0,0,0-.09-.29c0-.09-.09-.18-.14-.27a2.11,2.11,0,0,0-.19-.23,1.59,1.59,0,0,0-2.17,0,1.37,1.37,0,0,0-.19.23,1.16,1.16,0,0,0-.14.27,1.4,1.4,0,0,0-.09.29,1.53,1.53,0,0,0,1.5,1.83Z"/><path class="cls-1" d="M100.64,18.92l-2.79-4.85a2,2,0,0,0-1.74-1H75a2,2,0,0,0-1.74,1l-2.79,4.85Z"/><path class="cls-1" d="M70.51,224.85l2.79,4.84a2,2,0,0,0,1.74,1H96.11a2,2,0,0,0,1.74-1l2.79-4.84Z"/><path d="M36.29,63.11a1.58,1.58,0,0,0-.45,1.09,1.56,1.56,0,0,0,.45,1.08,1.53,1.53,0,0,0,2.17,0,1.51,1.51,0,0,0,.45-1.08,1.54,1.54,0,0,0-.45-1.09A1.59,1.59,0,0,0,36.29,63.11Z"/><path d="M48.34,63.11a1.54,1.54,0,0,0-.42,1.39,1.61,1.61,0,0,0,.09.29,1.65,1.65,0,0,0,.14.26l.19.23a2.11,2.11,0,0,0,.23.19,1.16,1.16,0,0,0,.27.14,1.4,1.4,0,0,0,.29.09,1.45,1.45,0,0,0,.3,0,1.53,1.53,0,0,0,1.08-.45A1.51,1.51,0,0,0,51,64.2a1.54,1.54,0,0,0-.45-1.09A1.59,1.59,0,0,0,48.34,63.11Z"/><path d="M61.48,65.73a1.53,1.53,0,0,0,1.08-.45A1.51,1.51,0,0,0,63,64.2a1.54,1.54,0,0,0-.45-1.09,1.54,1.54,0,0,0-2.62,1.09,1.56,1.56,0,0,0,.45,1.08A1.54,1.54,0,0,0,61.48,65.73Z"/><path d="M73.53,65.73a1.53,1.53,0,0,0,1.08-.45,1.51,1.51,0,0,0,.45-1.08,1.54,1.54,0,0,0-.45-1.09,1.59,1.59,0,0,0-2.17,0A1.54,1.54,0,0,0,72,64.2a1.51,1.51,0,0,0,.45,1.08A1.54,1.54,0,0,0,73.53,65.73Z"/><path d="M85.58,65.73a1.53,1.53,0,0,0,1.08-.45l.19-.23a1.65,1.65,0,0,0,.14-.26,1.61,1.61,0,0,0,.09-.29,1.54,1.54,0,0,0-.42-1.39,1.59,1.59,0,0,0-2.17,0A1.54,1.54,0,0,0,84,64.2a1.51,1.51,0,0,0,.45,1.08A1.54,1.54,0,0,0,85.58,65.73Z"/><path d="M97.63,65.73a1.53,1.53,0,0,0,1.08-.45,1.51,1.51,0,0,0,.45-1.08,1.54,1.54,0,0,0-.45-1.09,1.59,1.59,0,0,0-2.17,0,1.54,1.54,0,0,0-.45,1.09,1.51,1.51,0,0,0,.45,1.08A1.54,1.54,0,0,0,97.63,65.73Z"/><path d="M109.68,65.73a1.41,1.41,0,0,0,.58-.12,1.16,1.16,0,0,0,.27-.14,2.11,2.11,0,0,0,.23-.19l.19-.23a1.65,1.65,0,0,0,.14-.26,1.61,1.61,0,0,0,.09-.29,1.54,1.54,0,0,0-.42-1.39,1.59,1.59,0,0,0-2.17,0,1.54,1.54,0,0,0-.45,1.09,1.51,1.51,0,0,0,.45,1.08A1.54,1.54,0,0,0,109.68,65.73Z"/><path d="M121.73,65.73a1.41,1.41,0,0,0,.58-.12,1.16,1.16,0,0,0,.27-.14,2.11,2.11,0,0,0,.23-.19,1.51,1.51,0,0,0,.45-1.08,1.54,1.54,0,0,0-.45-1.09,1.59,1.59,0,0,0-2.17,0,1.54,1.54,0,0,0-.45,1.09,1.51,1.51,0,0,0,.45,1.08A1.54,1.54,0,0,0,121.73,65.73Z"/><path d="M132.92,65.47a1.16,1.16,0,0,0,.27.14,1.52,1.52,0,0,0,.28.09,1.55,1.55,0,0,0,.31,0,1.36,1.36,0,0,0,.29,0,1.4,1.4,0,0,0,.29-.09,1.16,1.16,0,0,0,.27-.14,2.11,2.11,0,0,0,.23-.19,1.51,1.51,0,0,0,.45-1.08,1.54,1.54,0,0,0-.45-1.09,1.59,1.59,0,0,0-2.17,0,1.54,1.54,0,0,0-.45,1.09,1.51,1.51,0,0,0,.45,1.08A2.11,2.11,0,0,0,132.92,65.47Z"/><path d="M37.38,193.83a1.56,1.56,0,0,0,1.08-.45,1.54,1.54,0,0,0,.45-1.09,1.51,1.51,0,0,0-.45-1.08,1.59,1.59,0,0,0-2.17,0,1.51,1.51,0,0,0-.45,1.08,1.54,1.54,0,0,0,.45,1.09A1.58,1.58,0,0,0,37.38,193.83Z"/><path d="M49.43,193.83a1.56,1.56,0,0,0,1.08-.45,1.54,1.54,0,0,0,.45-1.09,1.51,1.51,0,0,0-.45-1.08,1.54,1.54,0,0,0-1.38-.42l-.29.08a1.82,1.82,0,0,0-.27.15,1.37,1.37,0,0,0-.23.19,1.53,1.53,0,0,0-.45,1.08,1.54,1.54,0,0,0,1.54,1.54Z"/><path d="M62.06,190.87l-.28-.08a1.54,1.54,0,0,0-1.84,1.5,1.53,1.53,0,0,0,2.62,1.09,1.54,1.54,0,0,0,.45-1.09,1.51,1.51,0,0,0-.45-1.08,1.37,1.37,0,0,0-.23-.19A1.43,1.43,0,0,0,62.06,190.87Z"/><path d="M72.44,191.21a1.51,1.51,0,0,0-.45,1.08,1.54,1.54,0,0,0,.45,1.09,1.53,1.53,0,0,0,2.17,0,1.54,1.54,0,0,0,.45-1.09,1.51,1.51,0,0,0-.45-1.08A1.59,1.59,0,0,0,72.44,191.21Z"/><path d="M85.28,190.79l-.29.08-.27.15a1.37,1.37,0,0,0-.23.19,1.53,1.53,0,0,0,0,2.17,1.58,1.58,0,0,0,1.09.45,1.56,1.56,0,0,0,1.08-.45,1.54,1.54,0,0,0,.45-1.09,1.51,1.51,0,0,0-.45-1.08A1.54,1.54,0,0,0,85.28,190.79Z"/><path d="M98.71,193.38a1.54,1.54,0,0,0,.45-1.09,1.51,1.51,0,0,0-.45-1.08,1.37,1.37,0,0,0-.23-.19,1.82,1.82,0,0,0-.27-.15l-.29-.08a1.54,1.54,0,0,0-1.38.42,1.51,1.51,0,0,0-.45,1.08,1.54,1.54,0,0,0,.45,1.09,1.53,1.53,0,0,0,2.17,0Z"/><path d="M110.76,193.38a1.54,1.54,0,0,0,.45-1.09,1.51,1.51,0,0,0-.45-1.08,1.59,1.59,0,0,0-2.17,0,1.51,1.51,0,0,0-.45,1.08,1.54,1.54,0,0,0,.45,1.09,1.53,1.53,0,0,0,2.17,0Z"/><path d="M121.73,193.83a1.56,1.56,0,0,0,1.08-.45,1.54,1.54,0,0,0,.45-1.09,1.51,1.51,0,0,0-.45-1.08,1.55,1.55,0,0,0-1.39-.42l-.28.08a1.43,1.43,0,0,0-.27.15,1.37,1.37,0,0,0-.23.19,1.53,1.53,0,0,0,0,2.17A1.56,1.56,0,0,0,121.73,193.83Z"/><path d="M133.77,193.83a1.58,1.58,0,0,0,1.09-.45,1.54,1.54,0,0,0,.45-1.09,1.51,1.51,0,0,0-.45-1.08,1.37,1.37,0,0,0-.23-.19l-.27-.15-.29-.08a1.54,1.54,0,0,0-1.38.42,1.51,1.51,0,0,0-.45,1.08,1.54,1.54,0,0,0,.45,1.09A1.56,1.56,0,0,0,133.77,193.83Z"/></g></g></svg>