<svg xmlns="http://www.w3.org/2000/svg" viewBox="0 0 171.14 243.77"><defs><style>.cls-1{fill:#fff;}.cls-2{fill:none;}.cls-3{fill:#0587e0;}.cls-4{fill:#ffcb05;}</style></defs><g id="Layer_2" data-name="Layer 2"><g id="Layer_1-2" data-name="Layer 1"><path class="cls-1" d="M171.14,79.29a14.79,14.79,0,0,0-5.63-11.62,34.69,34.69,0,0,0-34.23-29.28H117.82V33.63A13.61,13.61,0,0,0,121,24.85V22.58A13.68,13.68,0,0,0,110.13,9.2l-.95-1.65A15.12,15.12,0,0,0,96.12,0H75A15.11,15.11,0,0,0,62,7.55L61,9.19A13.69,13.69,0,0,0,50.1,22.58v2.27a13.65,13.65,0,0,0,3.22,8.8v4.74H39.85A34.7,34.7,0,0,0,5.62,67.68a14.79,14.79,0,0,0-.41,22.87V212a13.66,13.66,0,0,0-1.88,6.94v2.28A13.68,13.68,0,0,0,17,234.85h44.2l.79,1.38A15.13,15.13,0,0,0,75,243.77H96.12a15.11,15.11,0,0,0,13.06-7.56l.79-1.36h44.18a13.68,13.68,0,0,0,13.66-13.66v-2.28a13.64,13.64,0,0,0-1.89-7V90.56A14.76,14.76,0,0,0,171.14,79.29Z"/><path class="cls-2" d="M21.49,215.25H149.64a3.21,3.21,0,0,0,3.21-3.21V84.09H131.21a1.54,1.54,0,1,1,0-3.07h25.14a1.73,1.73,0,0,0,0-3.46h-99a1.54,1.54,0,1,1,0-3.07h95.47V73a21.59,21.59,0,0,0-21.57-21.56h-34a1.54,1.54,0,0,1,0-3.07h7.5V28.51H66.39V48.39H81.67a1.54,1.54,0,0,1,0,3.07H39.85A21.59,21.59,0,0,0,18.28,73v1.46H40.66a1.54,1.54,0,0,1,0,3.07H14.8a1.73,1.73,0,0,0,0,3.46H118.18a1.54,1.54,0,1,1,0,3.07H18.28V212A3.21,3.21,0,0,0,21.49,215.25ZM132.69,63.11a1.59,1.59,0,0,1,2.17,0,1.54,1.54,0,0,1,.45,1.09,1.51,1.51,0,0,1-.45,1.08,1.54,1.54,0,0,1-1.39.42,1.52,1.52,0,0,1-.28-.09,1.16,1.16,0,0,1-.27-.14,2.11,2.11,0,0,1-.23-.19,1.51,1.51,0,0,1-.45-1.08A1.54,1.54,0,0,1,132.69,63.11Zm-12,0,.23-.2.27-.13a1,1,0,0,1,.29-.09,1.53,1.53,0,0,1,1.38,2.59,2.11,2.11,0,0,1-.23.19,1,1,0,0,1-.27.14,1.48,1.48,0,0,1-.88.09,1.4,1.4,0,0,1-.29-.09,1.16,1.16,0,0,1-.27-.14,2.11,2.11,0,0,1-.23-.19,1.51,1.51,0,0,1-.45-1.08A1.54,1.54,0,0,1,120.64,63.11Zm-12,0a1.59,1.59,0,0,1,2.17,0,1.54,1.54,0,0,1,.45,1.09,1.51,1.51,0,0,1-.45,1.08,2.11,2.11,0,0,1-.23.19,1.16,1.16,0,0,1-.27.14,1.41,1.41,0,0,1-.58.12,1.45,1.45,0,0,1-.3,0,1.4,1.4,0,0,1-.29-.09,1.16,1.16,0,0,1-.27-.14,2.11,2.11,0,0,1-.23-.19,1.51,1.51,0,0,1-.45-1.08A1.54,1.54,0,0,1,108.59,63.11Zm-12,0,.23-.2.27-.13a1,1,0,0,1,.29-.09,1.53,1.53,0,0,1,1.83,1.51,1.51,1.51,0,0,1-.45,1.08,2.11,2.11,0,0,1-.23.19,1,1,0,0,1-.27.14,1.41,1.41,0,0,1-.58.12,1.54,1.54,0,0,1-1.09-.45,1.51,1.51,0,0,1-.45-1.08A1.54,1.54,0,0,1,96.54,63.11Zm-12.05,0a1.59,1.59,0,0,1,2.17,0,1.54,1.54,0,0,1,.45,1.09,1.51,1.51,0,0,1-.45,1.08,2.11,2.11,0,0,1-.23.19.87.87,0,0,1-.27.14,1.41,1.41,0,0,1-.58.12,1.54,1.54,0,0,1-1.09-.45A1.51,1.51,0,0,1,84,64.2,1.54,1.54,0,0,1,84.49,63.11Zm-12,0a1.59,1.59,0,0,1,2.17,0,1.54,1.54,0,0,1,.45,1.09,1.54,1.54,0,0,1-1.53,1.53,1.54,1.54,0,0,1-1.09-.45A1.51,1.51,0,0,1,72,64.2,1.54,1.54,0,0,1,72.44,63.11Zm-12,0a1.59,1.59,0,0,1,2.17,0A1.54,1.54,0,0,1,63,64.2a1.54,1.54,0,0,1-1.53,1.53,1.54,1.54,0,0,1-1.09-.45,1.51,1.51,0,0,1-.45-1.08A1.54,1.54,0,0,1,60.39,63.11ZM38.46,65.28a1.51,1.51,0,0,1-1.08.45,1.54,1.54,0,0,1-1.09-.45,1.56,1.56,0,0,1-.45-1.08,1.54,1.54,0,0,1,2.62-1.09,1.54,1.54,0,0,1,.45,1.09A1.51,1.51,0,0,1,38.46,65.28Zm11.81,11c0,.1-.05.19-.08.29a1.35,1.35,0,0,1-.15.26,1.57,1.57,0,0,1-.42.42,1.17,1.17,0,0,1-.27.15c-.09,0-.19.06-.28.09l-.3,0-.3,0a2.46,2.46,0,0,1-.29-.09,1.35,1.35,0,0,1-.26-.15,1.12,1.12,0,0,1-.24-.19,2.11,2.11,0,0,1-.19-.23,2.15,2.15,0,0,1-.14-.26,1.61,1.61,0,0,1-.09-.29,1.53,1.53,0,0,1,0-.3,1.54,1.54,0,0,1,2.62-1.09,1.54,1.54,0,0,1,.42,1.39Zm.24-11a1.51,1.51,0,0,1-1.08.45,1.54,1.54,0,0,1-1.09-.45,1.51,1.51,0,0,1-.45-1.08,1.54,1.54,0,0,1,.45-1.09,1.59,1.59,0,0,1,2.17,0A1.54,1.54,0,0,1,51,64.2,1.51,1.51,0,0,1,50.51,65.28Zm0,128.1a1.56,1.56,0,0,1-1.08.45,1.54,1.54,0,0,1-1.54-1.54,1.54,1.54,0,0,1,1.84-1.5l.28.08a1.17,1.17,0,0,1,.27.15,1.37,1.37,0,0,1,.23.19,1.51,1.51,0,0,1,.45,1.08A1.54,1.54,0,0,1,50.51,193.38Zm5.05,14.26a1.31,1.31,0,0,1-.09.28,1.15,1.15,0,0,1-.14.27,2.11,2.11,0,0,1-.19.23,1.37,1.37,0,0,1-.23.19,1.16,1.16,0,0,1-.27.14,1.4,1.4,0,0,1-.29.09,1.45,1.45,0,0,1-.3,0,1.51,1.51,0,0,1-1.08-.45,1.37,1.37,0,0,1-.19-.23,1.15,1.15,0,0,1-.14-.27,1.31,1.31,0,0,1-.09-.28,1.54,1.54,0,0,1,.42-1.39,1.54,1.54,0,0,1,2.62,1.09A1.53,1.53,0,0,1,55.56,207.64Zm10.34,1.23H60.8a1.54,1.54,0,0,1,0-3.07h5.1a1.54,1.54,0,1,1,0,3.07Zm-6-16.58a1.56,1.56,0,0,1,.45-1.08,1.37,1.37,0,0,1,.23-.19,1.82,1.82,0,0,1,.27-.15l.29-.08a1.53,1.53,0,0,1,1.38,2.59,1.56,1.56,0,0,1-1.08.45,1.54,1.54,0,0,1-1.54-1.54Zm3.38-27.72a5.33,5.33,0,1,1,5.33,5.33A5.33,5.33,0,0,1,63.32,164.57Zm0-16.31a5.33,5.33,0,1,1,5.33,5.33A5.33,5.33,0,0,1,63.32,148.26Zm11.29,43a1.53,1.53,0,0,1,0,2.17,1.56,1.56,0,0,1-1.08.45l-.3,0a1.4,1.4,0,0,1-.29-.09l-.27-.14a2.11,2.11,0,0,1-.23-.19,1.58,1.58,0,0,1-.45-1.09,1.56,1.56,0,0,1,.45-1.08,1.37,1.37,0,0,1,.23-.19,1.82,1.82,0,0,1,.27-.15l.29-.08A1.54,1.54,0,0,1,74.61,191.21ZM145.41,207a1.4,1.4,0,0,1,.09-.29c0-.09.09-.18.14-.27a2.11,2.11,0,0,1,.19-.23,1.59,1.59,0,0,1,2.17,0,1.37,1.37,0,0,1,.19.23,1.82,1.82,0,0,1,.15.27,2.45,2.45,0,0,1,.08.29,1.53,1.53,0,0,1-2.59,1.38,1.56,1.56,0,0,1-.45-1.08A1.53,1.53,0,0,1,145.41,207Zm-12.72-15.83a1.37,1.37,0,0,1,.23-.19,1.82,1.82,0,0,1,.27-.15l.29-.08a1.53,1.53,0,0,1,1.38.42,1.51,1.51,0,0,1,.45,1.08,1.54,1.54,0,0,1-.45,1.09,1.56,1.56,0,0,1-1.08.45,1.58,1.58,0,0,1-1.09-.45,1.54,1.54,0,0,1-.45-1.09A1.51,1.51,0,0,1,132.69,191.21Zm5.6,14.64a1.54,1.54,0,1,1,0,3.07H72.9a1.54,1.54,0,0,1,0-3.07ZM84.57,159.24a5.33,5.33,0,1,1-5.34,5.33A5.34,5.34,0,0,1,84.57,159.24Zm-5.34-11a5.34,5.34,0,1,1,5.34,5.33A5.34,5.34,0,0,1,79.23,148.26Zm7.88,44a1.54,1.54,0,0,1-.45,1.09A1.54,1.54,0,0,1,84,192.29a1.56,1.56,0,0,1,.45-1.08,1.59,1.59,0,0,1,2.17,0A1.51,1.51,0,0,1,87.11,192.29Zm13.37-33a5.33,5.33,0,1,1-5.33,5.33A5.33,5.33,0,0,1,100.48,159.24Zm-5.33-11a5.33,5.33,0,1,1,5.33,5.33A5.33,5.33,0,0,1,95.15,148.26Zm4,44a1.54,1.54,0,0,1-.45,1.09,1.56,1.56,0,0,1-1.08.45,1.58,1.58,0,0,1-1.09-.45,1.54,1.54,0,0,1-.45-1.09,1.51,1.51,0,0,1,.45-1.08,1.37,1.37,0,0,1,.23-.19,1.82,1.82,0,0,1,.27-.15l.29-.08a1.53,1.53,0,0,1,1.38.42A1.51,1.51,0,0,1,99.16,192.29Zm17.24-33a5.33,5.33,0,1,1-5.33,5.33A5.33,5.33,0,0,1,116.4,159.24Zm-5.33-11a5.33,5.33,0,1,1,5.33,5.33A5.33,5.33,0,0,1,111.07,148.26Zm11.74,43a1.51,1.51,0,0,1,.45,1.08,1.54,1.54,0,0,1-.45,1.09,1.54,1.54,0,0,1-2.62-1.09,1.56,1.56,0,0,1,.45-1.08A1.59,1.59,0,0,1,122.81,191.21Zm-11.6,1.08a1.54,1.54,0,0,1-.45,1.09,1.56,1.56,0,0,1-1.08.45l-.3,0a1.4,1.4,0,0,1-.29-.09l-.27-.14a2.11,2.11,0,0,1-.23-.19,1.54,1.54,0,0,1-.45-1.09,1.51,1.51,0,0,1,.45-1.08,1.37,1.37,0,0,1,.23-.19,1.82,1.82,0,0,1,.27-.15l.29-.08a1.53,1.53,0,0,1,1.83,1.5Zm11.71-110A1.52,1.52,0,0,1,123,82a2.29,2.29,0,0,1,.14-.27,2.11,2.11,0,0,1,.19-.23,1.12,1.12,0,0,1,.24-.19.94.94,0,0,1,.26-.14,1.4,1.4,0,0,1,.29-.09,1.51,1.51,0,0,1,.6,0,1.61,1.61,0,0,1,.29.09.94.94,0,0,1,.26.14,1.57,1.57,0,0,1,.42.42,1.43,1.43,0,0,1,.15.27c0,.09.06.19.08.28a1.6,1.6,0,0,1,0,.3,1.53,1.53,0,0,1,0,.3,2.45,2.45,0,0,1-.08.29,1.82,1.82,0,0,1-.15.27,1.37,1.37,0,0,1-.19.23,2.11,2.11,0,0,1-.23.19L125,84a1.61,1.61,0,0,1-.29.09,1.51,1.51,0,0,1-.6,0,1.4,1.4,0,0,1-.29-.09l-.26-.14a1.55,1.55,0,0,1-.24-.19,2.11,2.11,0,0,1-.19-.23c-.05-.09-.1-.18-.14-.27a1.4,1.4,0,0,1-.09-.29,1.53,1.53,0,0,1,0-.3A1.6,1.6,0,0,1,122.92,82.25Zm-74,27.29c3.05,0,4.57,2.06,5.79,3.71s1.88,2.47,3.31,2.47,2.16-.89,3.32-2.47,2.74-3.71,5.79-3.71,4.57,2.06,5.79,3.71,1.89,2.47,3.32,2.47,2.16-.89,3.32-2.47,2.74-3.71,5.79-3.71,4.57,2.06,5.79,3.71,1.89,2.47,3.32,2.47,2.16-.89,3.32-2.47,2.74-3.71,5.79-3.71,4.58,2.06,5.8,3.71,1.89,2.47,3.32,2.47,2.16-.89,3.32-2.47,2.74-3.71,5.8-3.71a1.54,1.54,0,0,1,0,3.07c-1.44,0-2.17.89-3.33,2.47s-2.74,3.71-5.79,3.71-4.57-2.06-5.79-3.71-1.89-2.47-3.33-2.47-2.16.89-3.32,2.46-2.73,3.72-5.79,3.72-4.57-2.06-5.79-3.72-1.89-2.46-3.32-2.46-2.16.89-3.32,2.46-2.74,3.72-5.79,3.72-4.57-2.06-5.79-3.72-1.89-2.46-3.32-2.46-2.16.89-3.32,2.46-2.74,3.72-5.79,3.72-4.57-2.06-5.79-3.72-1.88-2.46-3.31-2.46a1.54,1.54,0,1,1,0-3.07Zm0,14.59c3.05,0,4.57,2.06,5.79,3.71s1.88,2.47,3.31,2.47,2.16-.89,3.32-2.47,2.74-3.71,5.79-3.71,4.57,2.06,5.79,3.71,1.89,2.47,3.32,2.47,2.16-.89,3.32-2.47,2.74-3.71,5.79-3.71,4.57,2.06,5.79,3.71,1.89,2.47,3.32,2.47,2.16-.89,3.32-2.47,2.74-3.71,5.79-3.71,4.58,2.06,5.8,3.71,1.89,2.47,3.32,2.47,2.16-.89,3.32-2.47,2.74-3.71,5.8-3.71a1.54,1.54,0,0,1,0,3.07c-1.44,0-2.16.89-3.33,2.46s-2.74,3.72-5.79,3.72-4.57-2.06-5.79-3.72-1.89-2.46-3.33-2.46-2.16.89-3.32,2.46-2.73,3.72-5.79,3.72-4.57-2.06-5.79-3.72-1.89-2.46-3.32-2.46-2.16.89-3.32,2.46-2.74,3.72-5.79,3.72-4.57-2.06-5.79-3.72-1.89-2.46-3.32-2.46-2.16.89-3.32,2.46-2.74,3.72-5.79,3.72-4.57-2.06-5.79-3.72-1.88-2.46-3.31-2.46a1.54,1.54,0,1,1,0-3.07Zm3.79,18.8a5.33,5.33,0,1,1-5.33,5.33A5.33,5.33,0,0,1,52.73,142.93Zm0,16.31a5.33,5.33,0,1,1-5.33,5.33A5.33,5.33,0,0,1,52.73,159.24Zm-16.44,32a1.37,1.37,0,0,1,.23-.19,1.82,1.82,0,0,1,.27-.15l.29-.08a1.53,1.53,0,0,1,1.38,2.59,1.56,1.56,0,0,1-1.08.45l-.3,0a1.4,1.4,0,0,1-.29-.09l-.27-.14a2.11,2.11,0,0,1-.23-.19,1.58,1.58,0,0,1-.45-1.09A1.56,1.56,0,0,1,36.29,191.21ZM24.22,205.85H48.76a1.54,1.54,0,1,1,0,3.07H24.22a1.54,1.54,0,0,1,0-3.07Z"/><rect class="cls-2" x="16.4" y="218.32" width="138.34" height="3.45" rx="0.59"/><path class="cls-2" d="M63.76,25.44h43.61a.58.58,0,0,0,.59-.59V22.58a.58.58,0,0,0-.59-.59H63.76a.59.59,0,0,0-.59.59v2.27A.59.59,0,0,0,63.76,25.44Z"/><path d="M155.92,84.09h.43a4.8,4.8,0,0,0,0-9.6h-.43V73a24.66,24.66,0,0,0-24.64-24.63H107.82V28.47A3.65,3.65,0,0,0,111,24.85V22.58a3.66,3.66,0,0,0-3.66-3.66h-3.19l-3.67-6.38A5.08,5.08,0,0,0,96.12,10H75a5.09,5.09,0,0,0-4.4,2.54L67,18.92H63.76a3.66,3.66,0,0,0-3.66,3.66v2.27a3.65,3.65,0,0,0,3.22,3.62V48.39H39.85A24.67,24.67,0,0,0,15.21,73v1.46H14.8a4.8,4.8,0,1,0,0,9.6h.41V212a6.22,6.22,0,0,0,1,3.31,3.67,3.67,0,0,0-2.84,3.56v2.28A3.66,3.66,0,0,0,17,224.85H67l3.67,6.38a5.11,5.11,0,0,0,4.4,2.54H96.12a5.1,5.1,0,0,0,4.39-2.54l3.67-6.38h50a3.66,3.66,0,0,0,3.66-3.66v-2.28a3.67,3.67,0,0,0-2.84-3.56,6.22,6.22,0,0,0,.95-3.31ZM75,13.07H96.12a2,2,0,0,1,1.73,1l2.79,4.85H70.51l2.79-4.85A2,2,0,0,1,75,13.07ZM63.17,22.58a.59.59,0,0,1,.59-.59h43.61a.58.58,0,0,1,.59.59v2.27a.58.58,0,0,1-.59.59H63.76a.59.59,0,0,1-.59-.59Zm55,61.51a1.54,1.54,0,1,0,0-3.07H14.8a1.73,1.73,0,0,1,0-3.46H40.66a1.54,1.54,0,0,0,0-3.07H18.28V73A21.59,21.59,0,0,1,39.85,51.46H81.67a1.54,1.54,0,0,0,0-3.07H66.39V28.51h38.36V48.39h-7.5a1.54,1.54,0,0,0,0,3.07h34A21.59,21.59,0,0,1,152.85,73v1.47H57.38a1.54,1.54,0,1,0,0,3.07h99a1.73,1.73,0,0,1,0,3.46H131.21a1.54,1.54,0,1,0,0,3.07h21.64V212a3.21,3.21,0,0,1-3.21,3.21H21.49A3.21,3.21,0,0,1,18.28,212V84.09ZM96.12,230.7H75a2,2,0,0,1-1.74-1l-2.79-4.84h30.13l-2.79,4.84A2,2,0,0,1,96.12,230.7Zm58.62-9.51a.59.59,0,0,1-.59.59H17a.6.6,0,0,1-.59-.59v-2.28a.6.6,0,0,1,.59-.59H154.15a.59.59,0,0,1,.59.59Z"/><path d="M47.68,74.94A1.58,1.58,0,0,0,47.23,76a1.53,1.53,0,0,0,0,.3,1.61,1.61,0,0,0,.09.29,2.15,2.15,0,0,0,.14.26,2.11,2.11,0,0,0,.19.23,1.12,1.12,0,0,0,.24.19,1.35,1.35,0,0,0,.26.15,2.46,2.46,0,0,0,.29.09l.3,0,.3,0c.09,0,.19-.05.28-.09a1.17,1.17,0,0,0,.27-.15,1.57,1.57,0,0,0,.42-.42,1.35,1.35,0,0,0,.15-.26c0-.1.06-.19.08-.29a1.54,1.54,0,0,0-.42-1.39A1.59,1.59,0,0,0,47.68,74.94Z"/><path d="M123,83.14c0,.09.09.18.14.27a2.11,2.11,0,0,0,.19.23,1.55,1.55,0,0,0,.24.19l.26.14a1.4,1.4,0,0,0,.29.09,1.51,1.51,0,0,0,.6,0A1.61,1.61,0,0,0,125,84l.26-.14a2.11,2.11,0,0,0,.23-.19,1.37,1.37,0,0,0,.19-.23,1.82,1.82,0,0,0,.15-.27,2.45,2.45,0,0,0,.08-.29,1.53,1.53,0,0,0,0-.3,1.6,1.6,0,0,0,0-.3c0-.09-.05-.19-.08-.28a1.43,1.43,0,0,0-.15-.27,1.57,1.57,0,0,0-.42-.42.94.94,0,0,0-.26-.14,1.61,1.61,0,0,0-.29-.09,1.51,1.51,0,0,0-.6,0,1.4,1.4,0,0,0-.29.09.94.94,0,0,0-.26.14,1.12,1.12,0,0,0-.24.19,2.11,2.11,0,0,0-.19.23A2.29,2.29,0,0,0,123,82a1.52,1.52,0,0,0-.09.28,1.6,1.6,0,0,0,0,.3,1.53,1.53,0,0,0,0,.3A1.4,1.4,0,0,0,123,83.14Z"/><path d="M71.37,207.38a1.54,1.54,0,0,0,1.53,1.54h65.39a1.54,1.54,0,1,0,0-3.07H72.9A1.54,1.54,0,0,0,71.37,207.38Z"/><path d="M24.22,208.92H48.76a1.54,1.54,0,1,0,0-3.07H24.22a1.54,1.54,0,0,0,0,3.07Z"/><path d="M65.9,205.8H60.8a1.54,1.54,0,0,0,0,3.07h5.1a1.54,1.54,0,1,0,0-3.07Z"/><path d="M146.92,208.87a1.53,1.53,0,0,0,1.5-1.83,2.45,2.45,0,0,0-.08-.29,1.82,1.82,0,0,0-.15-.27,1.37,1.37,0,0,0-.19-.23,1.59,1.59,0,0,0-2.17,0,2.11,2.11,0,0,0-.19.23c0,.09-.1.18-.14.27a1.4,1.4,0,0,0-.09.29,1.53,1.53,0,0,0,0,.3,1.56,1.56,0,0,0,.45,1.08A1.54,1.54,0,0,0,146.92,208.87Z"/><path d="M53,206.25a1.54,1.54,0,0,0-.42,1.39,1.31,1.31,0,0,0,.09.28,1.15,1.15,0,0,0,.14.27,1.37,1.37,0,0,0,.19.23,1.51,1.51,0,0,0,1.08.45,1.45,1.45,0,0,0,.3,0,1.4,1.4,0,0,0,.29-.09,1.16,1.16,0,0,0,.27-.14,1.37,1.37,0,0,0,.23-.19,2.11,2.11,0,0,0,.19-.23,1.15,1.15,0,0,0,.14-.27,1.31,1.31,0,0,0,.09-.28,1.53,1.53,0,0,0,0-.3A1.54,1.54,0,0,0,53,206.25Z"/><path class="cls-1" d="M100.64,18.92l-2.79-4.85a2,2,0,0,0-1.73-1H75a2,2,0,0,0-1.74,1l-2.79,4.85Z"/><path class="cls-1" d="M70.51,224.85l2.79,4.84a2,2,0,0,0,1.74,1H96.12a2,2,0,0,0,1.73-1l2.79-4.84Z"/><path d="M36.29,63.11a1.58,1.58,0,0,0-.45,1.09,1.56,1.56,0,0,0,.45,1.08,1.54,1.54,0,0,0,1.09.45,1.54,1.54,0,0,0,1.53-1.53,1.54,1.54,0,0,0-.45-1.09A1.59,1.59,0,0,0,36.29,63.11Z"/><path d="M48.34,63.11a1.54,1.54,0,0,0-.45,1.09,1.51,1.51,0,0,0,.45,1.08,1.54,1.54,0,0,0,1.09.45A1.54,1.54,0,0,0,51,64.2a1.54,1.54,0,0,0-.45-1.09A1.59,1.59,0,0,0,48.34,63.11Z"/><path d="M61.48,65.73A1.54,1.54,0,0,0,63,64.2a1.54,1.54,0,0,0-.45-1.09,1.59,1.59,0,0,0-2.17,0,1.54,1.54,0,0,0-.45,1.09,1.51,1.51,0,0,0,.45,1.08A1.54,1.54,0,0,0,61.48,65.73Z"/><path d="M73.53,65.73a1.54,1.54,0,0,0,1.53-1.53,1.54,1.54,0,0,0-.45-1.09,1.59,1.59,0,0,0-2.17,0A1.54,1.54,0,0,0,72,64.2a1.51,1.51,0,0,0,.45,1.08A1.54,1.54,0,0,0,73.53,65.73Z"/><path d="M85.58,65.73a1.41,1.41,0,0,0,.58-.12.87.87,0,0,0,.27-.14,2.11,2.11,0,0,0,.23-.19,1.51,1.51,0,0,0,.45-1.08,1.54,1.54,0,0,0-.45-1.09,1.59,1.59,0,0,0-2.17,0A1.54,1.54,0,0,0,84,64.2a1.51,1.51,0,0,0,.45,1.08A1.54,1.54,0,0,0,85.58,65.73Z"/><path d="M97.63,65.73a1.41,1.41,0,0,0,.58-.12,1,1,0,0,0,.27-.14,2.11,2.11,0,0,0,.23-.19,1.51,1.51,0,0,0,.45-1.08,1.53,1.53,0,0,0-1.83-1.51,1,1,0,0,0-.29.09l-.27.13-.23.2a1.54,1.54,0,0,0-.45,1.09,1.51,1.51,0,0,0,.45,1.08A1.54,1.54,0,0,0,97.63,65.73Z"/><path d="M108.82,65.47a1.16,1.16,0,0,0,.27.14,1.4,1.4,0,0,0,.29.09,1.45,1.45,0,0,0,.3,0,1.41,1.41,0,0,0,.58-.12,1.16,1.16,0,0,0,.27-.14,2.11,2.11,0,0,0,.23-.19,1.51,1.51,0,0,0,.45-1.08,1.54,1.54,0,0,0-.45-1.09,1.59,1.59,0,0,0-2.17,0,1.54,1.54,0,0,0-.45,1.09,1.51,1.51,0,0,0,.45,1.08A2.11,2.11,0,0,0,108.82,65.47Z"/><path d="M120.87,65.47a1.16,1.16,0,0,0,.27.14,1.4,1.4,0,0,0,.29.09,1.45,1.45,0,0,0,.88-.09,1,1,0,0,0,.27-.14,2.11,2.11,0,0,0,.23-.19,1.51,1.51,0,0,0,.45-1.08,1.53,1.53,0,0,0-1.83-1.51,1,1,0,0,0-.29.09l-.27.13-.23.2a1.54,1.54,0,0,0-.45,1.09,1.51,1.51,0,0,0,.45,1.08A2.11,2.11,0,0,0,120.87,65.47Z"/><path d="M132.92,65.47a1.16,1.16,0,0,0,.27.14,1.41,1.41,0,0,0,.58.12,1.54,1.54,0,0,0,1.09-.45,1.51,1.51,0,0,0,.45-1.08,1.54,1.54,0,0,0-.45-1.09,1.59,1.59,0,0,0-2.17,0,1.54,1.54,0,0,0-.45,1.09,1.51,1.51,0,0,0,.45,1.08A2.11,2.11,0,0,0,132.92,65.47Z"/><path d="M36.52,193.57l.27.14a1.4,1.4,0,0,0,.29.09l.3,0a1.56,1.56,0,0,0,1.08-.45,1.53,1.53,0,0,0-1.38-2.59l-.29.08a1.82,1.82,0,0,0-.27.15,1.37,1.37,0,0,0-.23.19,1.56,1.56,0,0,0-.45,1.08,1.58,1.58,0,0,0,.45,1.09A2.11,2.11,0,0,0,36.52,193.57Z"/><path d="M50.28,191a1.17,1.17,0,0,0-.27-.15l-.28-.08a1.54,1.54,0,0,0-1.84,1.5,1.54,1.54,0,0,0,1.54,1.54,1.56,1.56,0,0,0,1.08-.45,1.54,1.54,0,0,0,.45-1.09,1.51,1.51,0,0,0-.45-1.08A1.37,1.37,0,0,0,50.28,191Z"/><path d="M62.56,193.38a1.54,1.54,0,0,0,.45-1.09,1.53,1.53,0,0,0-1.83-1.5l-.29.08a1.82,1.82,0,0,0-.27.15,1.37,1.37,0,0,0-.23.19,1.56,1.56,0,0,0-.45,1.08,1.54,1.54,0,0,0,1.54,1.54A1.56,1.56,0,0,0,62.56,193.38Z"/><path d="M73.23,190.79l-.29.08a1.82,1.82,0,0,0-.27.15,1.37,1.37,0,0,0-.23.19,1.56,1.56,0,0,0-.45,1.08,1.58,1.58,0,0,0,.45,1.09,2.11,2.11,0,0,0,.23.19l.27.14a1.4,1.4,0,0,0,.29.09l.3,0a1.56,1.56,0,0,0,1.08-.45,1.53,1.53,0,0,0-1.38-2.59Z"/><path d="M84.49,191.21a1.56,1.56,0,0,0-.45,1.08,1.53,1.53,0,0,0,2.62,1.09,1.54,1.54,0,0,0,.45-1.09,1.51,1.51,0,0,0-.45-1.08A1.59,1.59,0,0,0,84.49,191.21Z"/><path d="M97.33,190.79l-.29.08a1.82,1.82,0,0,0-.27.15,1.37,1.37,0,0,0-.23.19,1.51,1.51,0,0,0-.45,1.08,1.54,1.54,0,0,0,.45,1.09,1.58,1.58,0,0,0,1.09.45,1.56,1.56,0,0,0,1.08-.45,1.54,1.54,0,0,0,.45-1.09,1.51,1.51,0,0,0-.45-1.08A1.53,1.53,0,0,0,97.33,190.79Z"/><path d="M109.38,190.79l-.29.08a1.82,1.82,0,0,0-.27.15,1.37,1.37,0,0,0-.23.19,1.51,1.51,0,0,0-.45,1.08,1.54,1.54,0,0,0,.45,1.09,2.11,2.11,0,0,0,.23.19l.27.14a1.4,1.4,0,0,0,.29.09l.3,0a1.56,1.56,0,0,0,1.08-.45,1.53,1.53,0,0,0-1.38-2.59Z"/><path d="M120.64,191.21a1.56,1.56,0,0,0-.45,1.08,1.53,1.53,0,0,0,2.62,1.09,1.54,1.54,0,0,0,.45-1.09,1.51,1.51,0,0,0-.45-1.08A1.59,1.59,0,0,0,120.64,191.21Z"/><path d="M133.78,193.83a1.56,1.56,0,0,0,1.08-.45,1.54,1.54,0,0,0,.45-1.09,1.51,1.51,0,0,0-.45-1.08,1.53,1.53,0,0,0-1.38-.42l-.29.08a1.82,1.82,0,0,0-.27.15,1.37,1.37,0,0,0-.23.19,1.51,1.51,0,0,0-.45,1.08,1.54,1.54,0,0,0,.45,1.09A1.58,1.58,0,0,0,133.78,193.83Z"/><path class="cls-3" d="M48.94,112.61c1.43,0,2.15.89,3.31,2.46S55,118.79,58,118.79s4.57-2.06,5.79-3.72,1.89-2.46,3.32-2.46,2.16.89,3.32,2.46,2.74,3.72,5.79,3.72,4.57-2.06,5.79-3.72,1.89-2.46,3.32-2.46,2.16.89,3.32,2.46,2.74,3.72,5.79,3.72,4.57-2.06,5.79-3.72,1.89-2.46,3.32-2.46,2.16.89,3.33,2.47,2.74,3.71,5.79,3.71,4.57-2.06,5.79-3.71,1.89-2.47,3.33-2.47a1.54,1.54,0,0,0,0-3.07c-3.06,0-4.58,2.06-5.8,3.71s-1.89,2.47-3.32,2.47-2.16-.89-3.32-2.47-2.74-3.71-5.8-3.71S99,111.6,97.8,113.25s-1.88,2.47-3.32,2.47-2.16-.89-3.32-2.47-2.74-3.71-5.79-3.71-4.57,2.06-5.79,3.71-1.89,2.47-3.32,2.47-2.16-.89-3.32-2.47-2.74-3.71-5.79-3.71-4.57,2.06-5.79,3.71-1.89,2.47-3.32,2.47-2.15-.89-3.31-2.47-2.74-3.71-5.79-3.71a1.54,1.54,0,1,0,0,3.07Z"/><path class="cls-3" d="M48.94,127.2c1.43,0,2.15.89,3.31,2.46S55,133.38,58,133.38s4.57-2.06,5.79-3.72,1.89-2.46,3.32-2.46,2.16.89,3.32,2.46,2.74,3.72,5.79,3.72,4.57-2.06,5.79-3.72,1.89-2.46,3.32-2.46,2.16.89,3.32,2.46,2.74,3.72,5.79,3.72,4.57-2.06,5.79-3.72,1.89-2.46,3.32-2.46,2.16.89,3.33,2.46,2.74,3.72,5.79,3.72,4.57-2.06,5.79-3.72,1.89-2.46,3.33-2.46a1.54,1.54,0,0,0,0-3.07c-3.06,0-4.58,2.06-5.8,3.71s-1.89,2.47-3.32,2.47-2.16-.89-3.32-2.47-2.74-3.71-5.8-3.71-4.57,2.06-5.79,3.71-1.88,2.47-3.32,2.47-2.16-.89-3.32-2.47-2.74-3.71-5.79-3.71-4.57,2.06-5.79,3.71-1.89,2.47-3.32,2.47-2.16-.89-3.32-2.47-2.74-3.71-5.79-3.71-4.57,2.06-5.79,3.71-1.89,2.47-3.32,2.47-2.15-.89-3.31-2.47-2.74-3.71-5.79-3.71a1.54,1.54,0,1,0,0,3.07Z"/><path class="cls-4" d="M52.73,150.52a2.26,2.26,0,1,0-2.26-2.26A2.26,2.26,0,0,0,52.73,150.52Z"/><path d="M52.73,153.59a5.33,5.33,0,1,0-5.33-5.33A5.33,5.33,0,0,0,52.73,153.59Zm0-7.59a2.26,2.26,0,1,1-2.26,2.26A2.26,2.26,0,0,1,52.73,146Z"/><path class="cls-4" d="M68.65,150.52a2.26,2.26,0,1,0-2.26-2.26A2.26,2.26,0,0,0,68.65,150.52Z"/><path d="M68.65,153.59a5.33,5.33,0,1,0-5.33-5.33A5.33,5.33,0,0,0,68.65,153.59Zm0-7.59a2.26,2.26,0,1,1-2.26,2.26A2.26,2.26,0,0,1,68.65,146Z"/><path class="cls-4" d="M84.57,150.52a2.26,2.26,0,1,0-2.27-2.26A2.26,2.26,0,0,0,84.57,150.52Z"/><path d="M84.57,153.59a5.33,5.33,0,1,0-5.34-5.33A5.34,5.34,0,0,0,84.57,153.59Zm0-7.59a2.26,2.26,0,1,1-2.27,2.26A2.26,2.26,0,0,1,84.57,146Z"/><path class="cls-4" d="M100.48,150.52a2.26,2.26,0,1,0-2.26-2.26A2.26,2.26,0,0,0,100.48,150.52Z"/><path d="M100.48,153.59a5.33,5.33,0,1,0-5.33-5.33A5.33,5.33,0,0,0,100.48,153.59Zm0-7.59a2.26,2.26,0,1,1-2.26,2.26A2.26,2.26,0,0,1,100.48,146Z"/><path class="cls-4" d="M116.4,150.52a2.26,2.26,0,1,0-2.26-2.26A2.26,2.26,0,0,0,116.4,150.52Z"/><path d="M116.4,153.59a5.33,5.33,0,1,0-5.33-5.33A5.33,5.33,0,0,0,116.4,153.59Zm0-7.59a2.26,2.26,0,1,1-2.26,2.26A2.26,2.26,0,0,1,116.4,146Z"/><path class="cls-4" d="M52.73,166.83a2.26,2.26,0,1,0-2.26-2.26A2.26,2.26,0,0,0,52.73,166.83Z"/><path d="M52.73,169.9a5.33,5.33,0,1,0-5.33-5.33A5.33,5.33,0,0,0,52.73,169.9Zm0-7.59a2.26,2.26,0,1,1-2.26,2.26A2.26,2.26,0,0,1,52.73,162.31Z"/><path class="cls-4" d="M68.65,162.31a2.26,2.26,0,1,0,2.26,2.26A2.26,2.26,0,0,0,68.65,162.31Z"/><path d="M74,164.57a5.33,5.33,0,1,0-5.33,5.33A5.33,5.33,0,0,0,74,164.57Zm-5.33,2.26a2.26,2.26,0,1,1,2.26-2.26A2.26,2.26,0,0,1,68.65,166.83Z"/><path class="cls-4" d="M84.57,166.83a2.26,2.26,0,1,0-2.27-2.26A2.26,2.26,0,0,0,84.57,166.83Z"/><path d="M84.57,169.9a5.33,5.33,0,1,0-5.34-5.33A5.34,5.34,0,0,0,84.57,169.9Zm0-7.59a2.26,2.26,0,1,1-2.27,2.26A2.26,2.26,0,0,1,84.57,162.31Z"/><path class="cls-4" d="M100.48,166.83a2.26,2.26,0,1,0-2.26-2.26A2.26,2.26,0,0,0,100.48,166.83Z"/><path d="M100.48,169.9a5.33,5.33,0,1,0-5.33-5.33A5.33,5.33,0,0,0,100.48,169.9Zm0-7.59a2.26,2.26,0,1,1-2.26,2.26A2.26,2.26,0,0,1,100.48,162.31Z"/><path class="cls-4" d="M116.4,166.83a2.26,2.26,0,1,0-2.26-2.26A2.26,2.26,0,0,0,116.4,166.83Z"/><path d="M116.4,169.9a5.33,5.33,0,1,0-5.33-5.33A5.33,5.33,0,0,0,116.4,169.9Zm0-7.59a2.26,2.26,0,1,1-2.26,2.26A2.26,2.26,0,0,1,116.4,162.31Z"/></g></g></svg>