<?xml version="1.0" encoding="UTF-8"?>
<svg xmlns="http://www.w3.org/2000/svg" xmlns:xlink="http://www.w3.org/1999/xlink" width="512" height="512" viewBox="0 0 58 58" version="1.1"><!-- Generator: Sketch 51.3 (57544) - http://www.bohemiancoding.com/sketch --><title>016 - Macerator</title><desc>Created with Sketch.</desc><defs/><g id="Page-1" stroke="none" stroke-width="1" fill="none" fill-rule="evenodd"><g id="016---Macerator" fill-rule="nonzero"><path d="M49,54 C48.4477153,54 48,53.5522847 48,53 L48,39 C48,37.3431458 49.3431458,36 51,36 L54,36 C54.5522847,36 55,36.4477153 55,37 C55,37.5522847 54.5522847,38 54,38 L51,38 C50.4477153,38 50,38.4477153 50,39 L50,53 C50,53.5522847 49.5522847,54 49,54 Z" id="Shape" fill="#606060"/><path d="M55.757,39.689 L53.757,39.189 C53.3120689,39.0775409 53.0000121,38.6776794 53,38.219 L53,35.781 C53.0000121,35.3223206 53.3120689,34.9224591 53.757,34.811 L55.757,34.311 C56.0557824,34.2361524 56.3723864,34.3031708 56.6152132,34.4926655 C56.8580399,34.6821602 56.9999919,34.9729853 57,35.281 L57,38.719 C56.9999919,39.0270147 56.8580399,39.3178398 56.6152132,39.5073345 C56.3723864,39.6968292 56.0557824,39.7638476 55.757,39.689 Z" id="Shape" fill="#285680"/><path d="M44,51 L50,51 L50,54 C50,54.5522847 49.5522847,55 49,55 L44,55 L44,51 Z" id="Shape" fill="#4482C3"/><path d="M40,50 L45,50 C45.5522847,50 46,50.4477153 46,51 L46,55 C46,55.5522847 45.5522847,56 45,56 L40,56 L40,50 Z" id="Shape" fill="#285680"/><polygon id="Shape" fill="#3B97D3" points="56 4 42 47 28.83 49 27.35 48.77 16 47 2 4 27.5 2.11 29 2"/><path d="M42,47 L42,57 C42,57.5522847 41.5522847,58 41,58 L17,58 C16.4477153,58 16,57.5522847 16,57 L16,47 L42,47 Z" id="Shape" fill="#BDC3C7"/><rect id="Rectangle-path" fill="#95A5A5" x="0" y="0" width="58" height="4" rx="1"/><rect id="Rectangle-path" fill="#BDC3C7" x="0" y="0" width="55" height="4" rx="1"/><path d="M20,44 L19,44 C18.4477153,44 18,43.5522847 18,43 C18,42.4477153 18.4477153,42 19,42 L20,42 C20.5522847,42 21,42.4477153 21,43 C21,43.5522847 20.5522847,44 20,44 Z" id="Shape" fill="#67B9CC"/><path d="M39,44 L24,44 C23.4477153,44 23,43.5522847 23,43 C23,42.4477153 23.4477153,42 24,42 L39,42 C39.5522847,42 40,42.4477153 40,43 C40,43.5522847 39.5522847,44 39,44 Z" id="Shape" fill="#67B9CC"/><path d="M39,52 L38,52 C37.4477153,52 37,51.5522847 37,51 C37,50.4477153 37.4477153,50 38,50 L39,50 C39.5522847,50 40,50.4477153 40,51 C40,51.5522847 39.5522847,52 39,52 Z" id="Shape" fill="#ECF0F1"/><path d="M34,52 L19,52 C18.4477153,52 18,51.5522847 18,51 C18,50.4477153 18.4477153,50 19,50 L34,50 C34.5522847,50 35,50.4477153 35,51 C35,51.5522847 34.5522847,52 34,52 Z" id="Shape" fill="#ECF0F1"/><path d="M10,9 L9,9 C8.44771525,9 8,8.55228475 8,8 C8,7.44771525 8.44771525,7 9,7 L10,7 C10.5522847,7 11,7.44771525 11,8 C11,8.55228475 10.5522847,9 10,9 Z" id="Shape" fill="#67B9CC"/><path d="M49,9 L14,9 C13.4477153,9 13,8.55228475 13,8 C13,7.44771525 13.4477153,7 14,7 L49,7 C49.5522847,7 50,7.44771525 50,8 C50,8.55228475 49.5522847,9 49,9 Z" id="Shape" fill="#67B9CC"/></g></g></svg>
