<svg xmlns="http://www.w3.org/2000/svg" xmlns:xlink="http://www.w3.org/1999/xlink" viewBox="0 0 128.08 187.66"><defs><style>.cls-1,.cls-2{fill:#fff;}.cls-1,.cls-3,.cls-5{fill-rule:evenodd;}.cls-4{mask:url(#mask);}.cls-5,.cls-9{fill:#ffcb05;}.cls-6{mask:url(#mask-12);}.cls-7{mask:url(#mask-19);}.cls-8{fill:none;}</style><mask id="mask" x="12.12" y="10" width="822.22" height="642.45" maskUnits="userSpaceOnUse"><g id="mask-2"><polygon id="path-1" class="cls-1" points="12.12 652.45 834.34 652.45 834.34 10 12.12 10 12.12 652.45"/></g></mask><mask id="mask-12" x="12.12" y="10" width="822.22" height="642.45" maskUnits="userSpaceOnUse"><g id="mask-2-13" data-name="mask-2"><polygon id="path-1-12" data-name="path-1" class="cls-1" points="12.12 652.45 834.34 652.45 834.34 10 12.12 10 12.12 652.45"/></g></mask><mask id="mask-19" x="-30.17" y="-29.54" width="1509.09" height="1179.15" maskUnits="userSpaceOnUse"><g id="mask-2-20" data-name="mask-2"><polygon id="path-1-19" data-name="path-1" class="cls-1" points="-30.16 1149.61 1478.92 1149.61 1478.92 -29.54 -30.16 -29.54 -30.16 1149.61"/></g></mask></defs><g id="Layer_2" data-name="Layer 2"><g id="Layer_1-2" data-name="Layer 1"><path class="cls-2" d="M112.1,46.52h-17a22.73,22.73,0,0,0-1.63-7.87h0c1.67-3.58,2.65-8.84,0-15.64h0c1.68-3.58,2.66-8.84,0-15.65A11.63,11.63,0,0,0,82.75,0,10.26,10.26,0,0,0,81.6.06a21.09,21.09,0,0,0-10.13,3.5A21.08,21.08,0,0,0,61.36.06a11.61,11.61,0,0,0-6,1,11.43,11.43,0,0,0-4.71-1,10.26,10.26,0,0,0-1.15.06C41,.91,36.59,5.28,34.44,8.8c-4.73,7.71-1.83,16.19-1.2,17.83a.36.36,0,0,1,0,.09c-3,7-.61,14.08,0,15.56a.36.36,0,0,1,0,.09,17.67,17.67,0,0,0-1.21,4.15H16a16,16,0,0,0-16,16v4.74A16,16,0,0,0,9.5,81.85L15.76,117c.08.42.16.83.27,1.25a12.74,12.74,0,0,0-.6,3.87v4.24l-2.47.87a15.35,15.35,0,0,0,.57,29.51l1.9.65v4a12.83,12.83,0,0,0,11.08,12.7l1.65,2.05c.21.26.43.51.65.75a11.55,11.55,0,0,0,11.51,10.76H86.58A11.56,11.56,0,0,0,98,178a15.47,15.47,0,0,0,2.79-3.27l.52-.82a12.84,12.84,0,0,0,10.2-12.55V122.14a13.26,13.26,0,0,0-.11-1.67,20.15,20.15,0,0,0,1-3.44l6.26-35.18a16,16,0,0,0,9.5-14.61V62.5A16,16,0,0,0,112.1,46.52Z"/><g id="Stroke-1"><path d="M87.86,171.84H40.06a5.24,5.24,0,0,1-4.11-2l-7-8.72H97.58l-5.26,8.25A5.28,5.28,0,0,1,87.86,171.84Zm-52.53-7.62,3,3.72a2.22,2.22,0,0,0,1.73.83h47.8a2.2,2.2,0,0,0,1.87-1L92,164.22Z"/></g><g id="Stroke-3"><path d="M94,122.4H34.11a8.63,8.63,0,0,1-8.5-7.13l-8-45.12H110.5l-8,45.12A8.64,8.64,0,0,1,94,122.4ZM21.24,73.22l7.39,41.52a5.56,5.56,0,0,0,5.48,4.59H94a5.57,5.57,0,0,0,5.49-4.59l7.39-41.52Z"/></g><g id="Stroke-5"><path d="M112.1,73.22H16a6,6,0,0,1-6-6V62.5a6,6,0,0,1,6-6H112.1a6,6,0,0,1,6,6v4.74A6,6,0,0,1,112.1,73.22ZM16,59.59a2.9,2.9,0,0,0-2.9,2.91v4.74A2.91,2.91,0,0,0,16,70.15H112.1a2.91,2.91,0,0,0,2.9-2.91V62.5a2.9,2.9,0,0,0-2.9-2.91Z"/></g><g id="Stroke-7"><path d="M98.65,164.22H28.24a2.81,2.81,0,0,1-2.81-2.82V122.14a2.81,2.81,0,0,1,2.81-2.81H98.65a2.82,2.82,0,0,1,2.82,2.81V161.4A2.82,2.82,0,0,1,98.65,164.22ZM28.5,161.15H98.4V122.4H28.5Z"/></g><g id="Fill-9"><polygon class="cls-3" points="95.29 143.11 96.62 141.77 95.29 140.44 96.37 138.89 94.83 137.81 95.62 136.1 93.91 135.3 94.4 133.48 92.58 132.99 92.74 131.11 90.86 130.95 90.7 129.07 88.82 129.23 88.33 127.41 86.51 127.9 85.71 126.19 84 126.98 82.92 125.44 81.37 126.52 80.04 125.19 78.7 126.52 77.16 125.44 76.07 126.98 74.36 126.19 73.56 127.9 71.74 127.41 71.25 129.23 69.37 129.07 69.21 130.95 67.33 131.11 67.5 132.99 65.67 133.48 66.16 135.3 64.45 136.1 65.25 137.81 63.7 138.89 64.78 140.44 63.45 141.77 64.78 143.11 63.7 144.65 65.25 145.74 64.45 147.45 66.16 148.24 65.67 150.07 67.5 150.56 67.33 152.44 69.21 152.6 69.37 154.48 71.25 154.31 71.74 156.14 73.56 155.65 74.36 157.36 76.07 156.56 77.16 158.11 78.7 157.03 80.04 158.36 81.37 157.03 82.92 158.11 84 156.56 85.71 157.36 86.51 155.65 88.33 156.14 88.82 154.31 90.7 154.48 90.86 152.6 92.74 152.44 92.58 150.56 94.4 150.07 93.91 148.24 95.62 147.45 94.83 145.74 96.37 144.65 95.29 143.11"/></g><g id="Fill-11"><path class="cls-1" d="M85.25,141.77A5.22,5.22,0,1,1,80,136.56a5.22,5.22,0,0,1,5.21,5.21"/></g><g id="Fill-13"><polygon class="cls-3" points="62.12 143.11 63.45 141.77 62.12 140.44 63.2 138.89 61.65 137.81 62.45 136.1 60.74 135.3 61.23 133.48 59.4 132.99 59.57 131.11 57.69 130.95 57.52 129.07 55.64 129.23 55.16 127.41 53.33 127.9 52.53 126.19 50.83 126.98 49.74 125.44 48.2 126.52 46.86 125.19 45.53 126.52 43.98 125.44 42.9 126.98 41.19 126.19 40.39 127.9 38.57 127.41 38.08 129.23 36.2 129.07 36.04 130.95 34.16 131.11 34.32 132.99 32.5 133.48 32.99 135.3 31.28 136.1 32.07 137.81 30.53 138.89 31.61 140.44 30.28 141.77 31.61 143.11 30.53 144.65 32.07 145.74 31.28 147.45 32.99 148.24 32.5 150.07 34.32 150.56 34.16 152.44 36.04 152.6 36.2 154.48 38.08 154.31 38.57 156.14 40.39 155.65 41.19 157.36 42.9 156.56 43.98 158.11 45.53 157.03 46.86 158.36 48.2 157.03 49.74 158.11 50.83 156.56 52.53 157.36 53.33 155.65 55.16 156.14 55.64 154.31 57.52 154.48 57.69 152.6 59.57 152.44 59.4 150.56 61.23 150.07 60.74 148.24 62.45 147.45 61.65 145.74 63.2 144.65 62.12 143.11"/></g><g id="Fill-15"><path class="cls-1" d="M52.08,141.77a5.22,5.22,0,1,1-5.22-5.21,5.22,5.22,0,0,1,5.22,5.21"/></g><g id="Fill-21"><path class="cls-1" d="M21.32,141.92a3.83,3.83,0,1,1-3.83-3.83,3.84,3.84,0,0,1,3.83,3.83"/></g><g id="Stroke-23"><path d="M17.49,147.28a5.37,5.37,0,1,1,5.36-5.36A5.37,5.37,0,0,1,17.49,147.28Zm0-7.66a2.3,2.3,0,1,0,2.29,2.3A2.3,2.3,0,0,0,17.49,139.62Z"/></g><g id="Group-32"><g id="Fill-29"><path class="cls-1" d="M16.82,138.12,44,128.58"/></g><g id="Stroke-31"><path d="M16.82,139.66a1.54,1.54,0,0,1-.51-3l27.18-9.54a1.54,1.54,0,0,1,1,2.9l-27.18,9.54A1.47,1.47,0,0,1,16.82,139.66Z"/></g></g><g id="Group-36"><g id="Fill-33"><path class="cls-1" d="M16.79,145.68,44.06,155"/></g><g id="Stroke-35"><path d="M44.06,156.5a1.4,1.4,0,0,1-.49-.08l-27.28-9.28a1.54,1.54,0,0,1,1-2.91l27.28,9.28a1.54,1.54,0,0,1-.5,3Z"/></g></g><g id="Stroke-37"><path d="M84.39,177.66H42.51l3.92-8.89h34Zm-37.17-3.07H79.68l-1.21-2.75h-30Z"/></g><g id="Group-42"><g id="Fill-39"><path class="cls-1" d="M40.32,176.13H86.58"/></g><g id="Stroke-41"><path d="M86.58,177.66H40.32a1.54,1.54,0,1,1,0-3.07H86.58a1.54,1.54,0,0,1,0,3.07Z"/></g></g><g class="cls-4"><g id="Fill-295"><path class="cls-5" d="M60.19,42.84c-3.84,9.85,6.68,10.9,6.68,10.9s3.84-9.85-6.68-10.9"/></g></g><g class="cls-4"><g id="Stroke-296"><path d="M66.87,55.28h-.15c-.22,0-5.46-.59-7.81-4.42-1.42-2.31-1.47-5.19-.16-8.57a1.54,1.54,0,0,1,1.59-1c3.6.36,6.15,1.71,7.56,4,2.36,3.83.48,8.76.4,9A1.54,1.54,0,0,1,66.87,55.28ZM61.23,44.54a5.73,5.73,0,0,0,.29,4.69A7.06,7.06,0,0,0,65.78,52a7.06,7.06,0,0,0-.5-5A5.77,5.77,0,0,0,61.23,44.54Z"/></g></g><g class="cls-4"><g id="Fill-297"><path class="cls-5" d="M60.19,27.19c-3.84,9.85,6.68,10.9,6.68,10.9s3.84-9.85-6.68-10.9"/></g></g><g class="cls-4"><g id="Stroke-298"><path d="M66.87,39.63h-.15c-.22,0-5.46-.59-7.81-4.42-1.42-2.31-1.47-5.19-.16-8.57a1.53,1.53,0,0,1,1.59-1c3.6.36,6.15,1.71,7.56,4,2.36,3.83.48,8.76.4,9A1.54,1.54,0,0,1,66.87,39.63ZM61.23,28.89a5.74,5.74,0,0,0,.29,4.69,7.06,7.06,0,0,0,4.26,2.74,7.06,7.06,0,0,0-.5-5.05A5.77,5.77,0,0,0,61.23,28.89Z"/></g></g><g class="cls-4"><g id="Fill-299"><path class="cls-5" d="M60.19,11.54c-3.84,9.85,6.68,10.9,6.68,10.9s3.84-9.85-6.68-10.9"/></g></g><g class="cls-4"><g id="Stroke-300"><path d="M66.87,24h-.15c-.22,0-5.46-.59-7.81-4.42-1.42-2.31-1.47-5.19-.16-8.57a1.54,1.54,0,0,1,1.59-1c3.6.36,6.15,1.71,7.56,4,2.36,3.83.48,8.76.4,9A1.54,1.54,0,0,1,66.87,24ZM61.23,13.24a5.75,5.75,0,0,0,.29,4.7,7.07,7.07,0,0,0,4.26,2.72,7,7,0,0,0-.5-5A5.77,5.77,0,0,0,61.23,13.24Z"/></g></g><g class="cls-4"><g id="Fill-301"><path class="cls-5" d="M82.74,42.84c3.84,9.85-6.68,10.9-6.68,10.9s-3.84-9.85,6.68-10.9"/></g></g><g class="cls-4"><g id="Stroke-302"><path d="M76.06,55.28a1.54,1.54,0,0,1-1.43-1c-.08-.21-2-5.14.4-9,1.41-2.31,4-3.66,7.56-4a1.55,1.55,0,0,1,1.59,1c1.31,3.38,1.26,6.26-.16,8.57-2.35,3.83-7.59,4.4-7.81,4.42ZM81.7,44.54a5.77,5.77,0,0,0-4,2.38,7.06,7.06,0,0,0-.5,5,7.06,7.06,0,0,0,4.26-2.74A5.73,5.73,0,0,0,81.7,44.54Z"/></g></g><g class="cls-4"><g id="Fill-303"><path class="cls-5" d="M82.74,27.19c3.84,9.85-6.68,10.9-6.68,10.9s-3.84-9.85,6.68-10.9"/></g></g><g class="cls-4"><g id="Stroke-304"><path d="M76.06,39.63a1.54,1.54,0,0,1-1.43-1c-.08-.21-2-5.14.4-9,1.41-2.31,4-3.66,7.56-4a1.54,1.54,0,0,1,1.59,1C85.49,30,85.44,32.89,84,35.2c-2.35,3.83-7.59,4.4-7.81,4.42ZM81.7,28.89a5.77,5.77,0,0,0-4,2.38,7.06,7.06,0,0,0-.5,5.05,7.06,7.06,0,0,0,4.26-2.74A5.74,5.74,0,0,0,81.7,28.89Z"/></g></g><g class="cls-4"><g id="Fill-305"><path class="cls-5" d="M82.74,11.54c3.84,9.85-6.68,10.9-6.68,10.9s-3.84-9.85,6.68-10.9"/></g></g><g class="cls-6"><g id="Stroke-306"><path d="M76.06,24a1.54,1.54,0,0,1-1.43-1c-.08-.21-2-5.14.4-9,1.41-2.31,4-3.66,7.56-4a1.55,1.55,0,0,1,1.59,1c1.31,3.38,1.26,6.26-.16,8.57C81.67,23.38,76.43,24,76.21,24ZM81.7,13.24a5.77,5.77,0,0,0-4,2.38,7.06,7.06,0,0,0-.5,5.05,7.06,7.06,0,0,0,4.26-2.74A5.73,5.73,0,0,0,81.7,13.24Z"/></g></g><g class="cls-4"><g id="Fill-307"><path class="cls-5" d="M50.68,42.84C54.52,52.69,44,53.74,44,53.74s-3.83-9.85,6.69-10.9"/></g></g><g class="cls-4"><g id="Stroke-308"><path d="M44,55.28a1.55,1.55,0,0,1-1.43-1c-.08-.21-2-5.14.4-9,1.42-2.31,4-3.66,7.57-4a1.54,1.54,0,0,1,1.58,1c1.32,3.38,1.27,6.26-.15,8.57-2.35,3.83-7.59,4.4-7.81,4.42Zm5.65-10.74a5.77,5.77,0,0,0-4,2.38,7.07,7.07,0,0,0-.51,5,7.06,7.06,0,0,0,4.27-2.74A5.77,5.77,0,0,0,49.64,44.54Z"/></g></g><g class="cls-4"><g id="Fill-309"><path class="cls-5" d="M50.68,27.19C54.52,37,44,38.09,44,38.09s-3.83-9.85,6.69-10.9"/></g></g><g class="cls-4"><g id="Stroke-310"><path d="M44,39.63a1.55,1.55,0,0,1-1.43-1c-.08-.21-2-5.14.4-9,1.42-2.31,4-3.66,7.57-4a1.52,1.52,0,0,1,1.58,1C53.43,30,53.38,32.89,52,35.2c-2.35,3.83-7.59,4.4-7.81,4.42Zm5.65-10.74a5.81,5.81,0,0,0-4.06,2.38,7.12,7.12,0,0,0-.5,5.05,7.06,7.06,0,0,0,4.27-2.74A5.77,5.77,0,0,0,49.64,28.89Z"/></g></g><g class="cls-4"><g id="Fill-311"><path class="cls-5" d="M50.68,11.54C54.52,21.39,44,22.44,44,22.44s-3.83-9.85,6.69-10.9"/></g></g><g class="cls-6"><g id="Stroke-312"><path d="M44,24a1.55,1.55,0,0,1-1.43-1c-.08-.21-2-5.14.4-9,1.42-2.31,4-3.66,7.57-4a1.54,1.54,0,0,1,1.58,1c1.32,3.38,1.27,6.26-.15,8.57C49.61,23.38,44.37,24,44.15,24Zm5.65-10.74a5.81,5.81,0,0,0-4.06,2.38,7.12,7.12,0,0,0-.5,5.05,7.06,7.06,0,0,0,4.27-2.74A5.77,5.77,0,0,0,49.64,13.24Z"/></g></g><g class="cls-7"><g id="Group-339"><g id="Fill-337"><path class="cls-5" d="M21.59,83.92H49.45"/></g><g id="Stroke-338"><path d="M49.45,85.46H21.59a1.54,1.54,0,1,1,0-3.07H49.45a1.54,1.54,0,1,1,0,3.07Z"/></g></g></g><g class="cls-7"><g id="Group-342"><g id="Fill-340"><path class="cls-5" d="M58.76,83.92h4.51"/></g><g id="Stroke-341"><path d="M63.27,85.46H58.76a1.54,1.54,0,0,1,0-3.07h4.51a1.54,1.54,0,1,1,0,3.07Z"/></g></g></g><g class="cls-4"><g id="Fill-343"><path class="cls-5" d="M60.19,101c-3.84,9.86,6.68,10.91,6.68,10.91S70.71,102,60.19,101"/></g></g><g class="cls-4"><g id="Stroke-344"><path d="M66.87,113.39h-.15c-.22,0-5.46-.59-7.81-4.43-1.42-2.3-1.47-5.18-.16-8.56a1.53,1.53,0,0,1,1.59-1c3.6.36,6.15,1.71,7.56,4,2.36,3.83.48,8.76.4,9A1.53,1.53,0,0,1,66.87,113.39Zm-5.64-10.73a5.74,5.74,0,0,0,.29,4.69,7,7,0,0,0,4.26,2.73,7,7,0,0,0-.5-5A5.74,5.74,0,0,0,61.23,102.66Z"/></g></g><polygon class="cls-8" points="34.11 122.4 28.5 122.4 28.5 132.39 36.14 129.71 36.2 129.07 37.62 129.19 38.14 129.01 38.57 127.41 40.39 127.9 41.19 126.19 42.9 126.98 43.98 125.44 45.53 126.52 46.86 125.19 48.2 126.52 49.74 125.44 50.83 126.98 52.53 126.19 53.33 127.9 55.16 127.41 55.64 129.23 57.52 129.07 57.69 130.95 59.57 131.11 59.4 132.99 61.23 133.48 60.74 135.3 62.45 136.1 61.65 137.81 63.2 138.89 62.12 140.44 63.45 141.77 64.78 140.44 63.7 138.89 65.25 137.81 64.45 136.1 66.16 135.3 65.67 133.48 67.5 132.99 67.33 131.11 69.21 130.95 69.37 129.07 71.25 129.23 71.74 127.41 73.56 127.9 74.36 126.19 76.07 126.98 77.16 125.44 78.7 126.52 80.04 125.19 81.37 126.52 82.92 125.44 84 126.98 85.71 126.19 86.51 127.9 88.33 127.41 88.82 129.23 90.7 129.07 90.86 130.95 92.74 131.11 92.58 132.99 94.4 133.48 93.91 135.3 95.62 136.1 94.83 137.81 96.37 138.89 95.29 140.44 96.62 141.77 95.29 143.11 96.37 144.65 94.83 145.74 95.62 147.45 93.91 148.24 94.4 150.07 92.58 150.56 92.74 152.44 90.86 152.6 90.7 154.48 88.82 154.31 88.33 156.14 86.51 155.65 85.71 157.36 84 156.56 82.92 158.11 81.37 157.03 80.04 158.36 78.7 157.03 77.16 158.11 76.07 156.56 74.36 157.36 73.56 155.65 71.74 156.14 71.25 154.31 69.37 154.48 69.21 152.6 67.33 152.44 67.5 150.56 65.67 150.07 66.16 148.24 64.45 147.45 65.25 145.74 63.7 144.65 64.78 143.11 63.45 141.77 62.12 143.11 63.2 144.65 61.65 145.74 62.45 147.45 60.74 148.24 61.23 150.07 59.4 150.56 59.57 152.44 57.69 152.6 57.52 154.48 55.64 154.31 55.16 156.14 53.33 155.65 52.53 157.36 50.83 156.56 49.74 158.11 48.2 157.03 46.86 158.36 45.53 157.03 43.98 158.11 42.9 156.56 41.19 157.36 40.39 155.65 38.57 156.14 38.15 154.57 37.53 154.36 36.2 154.48 36.15 153.89 28.5 151.29 28.5 161.15 28.91 161.15 97.58 161.15 98.4 161.15 98.4 122.4 93.96 122.4 34.11 122.4"/><path class="cls-8" d="M38.33,167.94a2.22,2.22,0,0,0,1.73.83h47.8a2.2,2.2,0,0,0,1.87-1L92,164.22H35.33Z"/><path class="cls-8" d="M21.32,138.17a5.35,5.35,0,0,1,0,7.45L25.43,147V136.72Z"/><polygon class="cls-8" points="28.5 148.05 32.66 149.46 32.99 148.24 31.28 147.45 32.07 145.74 30.53 144.65 31.61 143.11 30.28 141.77 31.61 140.44 30.53 138.89 32.07 137.81 31.28 136.1 32.99 135.3 32.69 134.18 28.5 135.65 28.5 148.05"/><polygon class="cls-8" points="47.22 174.59 79.68 174.59 78.47 171.84 48.43 171.84 47.22 174.59"/><path class="cls-8" d="M22.87,82.39H49.45a1.54,1.54,0,1,1,0,3.07h-26l5.21,29.28a5.56,5.56,0,0,0,5.48,4.59H94a5.57,5.57,0,0,0,5.49-4.59l7.39-41.52H21.24Zm45,21.06c2.36,3.83.48,8.76.4,9a1.53,1.53,0,0,1-1.43,1h-.15c-.22,0-5.46-.59-7.81-4.43-1.42-2.3-1.47-5.18-.16-8.56a1.53,1.53,0,0,1,1.59-1C63.94,99.79,66.49,101.14,67.9,103.45ZM58.76,82.39h4.51a1.54,1.54,0,1,1,0,3.07H58.76a1.54,1.54,0,0,1,0-3.07Z"/><path class="cls-8" d="M112.1,59.59H16a2.9,2.9,0,0,0-2.9,2.91v4.74A2.91,2.91,0,0,0,16,70.15H112.1a2.91,2.91,0,0,0,2.9-2.91V62.5A2.9,2.9,0,0,0,112.1,59.59Z"/><path d="M112.1,56.52H16a6,6,0,0,0-6,6v4.74a6,6,0,0,0,6,6h2.15l7.49,42.05a8.63,8.63,0,0,0,2,4.15,2.81,2.81,0,0,0-2.15,2.72v11.33l-9.12,3.2-.12.06a5.35,5.35,0,0,0,.16,10.43l9.08,3.09V161.4a2.81,2.81,0,0,0,2.81,2.82h3.15L36,169.87a5.24,5.24,0,0,0,4.11,2h5l-1.22,2.75H40.32a1.54,1.54,0,1,0,0,3.07H86.58a1.54,1.54,0,0,0,0-3.07H83l-1.21-2.75h6a5.28,5.28,0,0,0,4.46-2.44l3.3-5.18h3a2.82,2.82,0,0,0,2.82-2.82V122.14a2.81,2.81,0,0,0-1.31-2.36,8.61,8.61,0,0,0,2.31-4.51l7.49-42h2.14a6,6,0,0,0,6-6V62.5A6,6,0,0,0,112.1,56.52Zm-94.61,83.1a2.3,2.3,0,1,1-2.3,2.3A2.3,2.3,0,0,1,17.49,139.62Zm3.87,6a5.35,5.35,0,0,0,0-7.45l4.11-1.45V147Zm20.29-3.85A5.22,5.22,0,1,1,46.86,147,5.21,5.21,0,0,1,41.65,141.77Zm-9-7.59L33,135.3l-1.71.8.79,1.71-1.54,1.08,1.08,1.55-1.33,1.33,1.33,1.34-1.08,1.54,1.54,1.09-.79,1.71,1.71.79-.33,1.22-4.16-1.41v-12.4Zm47,40.41H47.22l1.21-2.75h30Zm10-6.85a2.2,2.2,0,0,1-1.87,1H40.06a2.22,2.22,0,0,1-1.73-.83l-3-3.72H92Zm8.67-6.59H28.5v-9.86l7.65,2.6.05.59,1.33-.12.62.22.42,1.56,1.82-.49.8,1.71,1.71-.8L44,158.11,45.53,157l1.33,1.33L48.2,157l1.54,1.08,1.08-1.55,1.71.8.8-1.71,1.83.49.48-1.82,1.88.16.17-1.88,1.88-.16-.17-1.88,1.83-.49-.49-1.83,1.71-.79-.8-1.71,1.55-1.09-1.09-1.54,1.34-1.34,1.33,1.34-1.08,1.54,1.55,1.09-.8,1.71,1.71.79-.49,1.83,1.82.49-.16,1.88,1.88.16.16,1.88,1.88-.16.49,1.82,1.82-.49.8,1.71,1.71-.8,1.09,1.55L78.7,157,80,158.36,81.37,157l1.55,1.08L84,156.56l1.71.8.8-1.71,1.82.49.49-1.82,1.88.16.16-1.88,1.88-.16-.16-1.88,1.82-.49-.49-1.83,1.71-.79-.8-1.71,1.55-1.09-1.08-1.54,1.33-1.34-1.33-1.33,1.08-1.55-1.55-1.08.8-1.71-1.71-.8.49-1.82L92.58,133l.16-1.88L90.86,131l-.16-1.88-1.88.16-.49-1.82-1.82.49-.8-1.71L84,127l-1.08-1.55-1.55,1.08L80,125.19l-1.34,1.33-1.54-1.08L76.07,127l-1.71-.8-.8,1.71-1.82-.49-.49,1.82-1.88-.16L69.21,131l-1.88.16.16,1.88-1.82.49.49,1.82-1.71.8.8,1.71-1.55,1.08,1.08,1.55-1.33,1.33-1.34-1.33,1.09-1.55-1.55-1.08.8-1.71-1.71-.8.49-1.82L59.4,133l.17-1.88L57.69,131l-.17-1.88-1.88.16-.48-1.82-1.83.49-.8-1.71-1.71.8-1.08-1.55-1.54,1.08-1.34-1.33-1.33,1.33L44,125.44,42.9,127l-1.71-.8-.8,1.71-1.82-.49-.43,1.6-.52.18-1.42-.12-.06.64-7.64,2.68v-10H98.4ZM74.82,141.77A5.22,5.22,0,1,1,80,147,5.22,5.22,0,0,1,74.82,141.77Zm24.63-27A5.57,5.57,0,0,1,94,119.33H34.11a5.56,5.56,0,0,1-5.48-4.59L23.42,85.46h26a1.54,1.54,0,1,0,0-3.07H22.87l-1.63-9.17h85.6ZM115,67.24a2.91,2.91,0,0,1-2.9,2.91H16a2.91,2.91,0,0,1-2.9-2.91V62.5A2.9,2.9,0,0,1,16,59.59H112.1A2.9,2.9,0,0,1,115,62.5Z"/><circle class="cls-2" cx="80.04" cy="141.77" r="5.21" transform="translate(-76.81 98.12) rotate(-45)"/><circle class="cls-2" cx="46.86" cy="141.77" r="5.22" transform="translate(-31.32 14.56) rotate(-13.28)"/><path class="cls-2" d="M17.49,144.21a2.3,2.3,0,1,0-2.3-2.29A2.3,2.3,0,0,0,17.49,144.21Z"/><path class="cls-9" d="M65.78,52a7.06,7.06,0,0,0-.5-5,5.77,5.77,0,0,0-4.05-2.38,5.73,5.73,0,0,0,.29,4.69A7.06,7.06,0,0,0,65.78,52Z"/><path d="M66.72,55.27h.15a1.54,1.54,0,0,0,1.43-1c.08-.21,2-5.14-.4-9-1.41-2.31-4-3.66-7.56-4a1.54,1.54,0,0,0-1.59,1c-1.31,3.38-1.26,6.26.16,8.57C61.26,54.68,66.5,55.25,66.72,55.27ZM61.23,44.54a5.77,5.77,0,0,1,4.05,2.38,7.06,7.06,0,0,1,.5,5,7.06,7.06,0,0,1-4.26-2.74A5.73,5.73,0,0,1,61.23,44.54Z"/><path class="cls-9" d="M65.78,36.32a7.06,7.06,0,0,0-.5-5.05,5.77,5.77,0,0,0-4.05-2.38,5.74,5.74,0,0,0,.29,4.69A7.06,7.06,0,0,0,65.78,36.32Z"/><path d="M66.72,39.62h.15a1.54,1.54,0,0,0,1.43-1c.08-.21,2-5.14-.4-9-1.41-2.31-4-3.66-7.56-4a1.53,1.53,0,0,0-1.59,1c-1.31,3.38-1.26,6.26.16,8.57C61.26,39,66.5,39.6,66.72,39.62ZM61.23,28.89a5.77,5.77,0,0,1,4.05,2.38,7.06,7.06,0,0,1,.5,5.05,7.06,7.06,0,0,1-4.26-2.74A5.74,5.74,0,0,1,61.23,28.89Z"/><path class="cls-9" d="M65.78,20.66a7,7,0,0,0-.5-5,5.77,5.77,0,0,0-4.05-2.38,5.75,5.75,0,0,0,.29,4.7A7.07,7.07,0,0,0,65.78,20.66Z"/><path d="M66.72,24h.15a1.54,1.54,0,0,0,1.43-1c.08-.21,2-5.14-.4-9-1.41-2.31-4-3.66-7.56-4a1.54,1.54,0,0,0-1.59,1c-1.31,3.38-1.26,6.26.16,8.57C61.26,23.38,66.5,24,66.72,24ZM61.23,13.24a5.77,5.77,0,0,1,4.05,2.38,7,7,0,0,1,.5,5,7.07,7.07,0,0,1-4.26-2.72A5.75,5.75,0,0,1,61.23,13.24Z"/><path class="cls-9" d="M77.15,52a7.06,7.06,0,0,0,4.26-2.74,5.73,5.73,0,0,0,.29-4.69,5.77,5.77,0,0,0-4,2.38A7.06,7.06,0,0,0,77.15,52Z"/><path d="M76.06,55.28h.15c.22,0,5.46-.59,7.81-4.42,1.42-2.31,1.47-5.19.16-8.57a1.55,1.55,0,0,0-1.59-1c-3.6.36-6.15,1.71-7.56,4-2.36,3.83-.48,8.76-.4,9A1.54,1.54,0,0,0,76.06,55.28ZM81.7,44.54a5.73,5.73,0,0,1-.29,4.69A7.06,7.06,0,0,1,77.15,52a7.06,7.06,0,0,1,.5-5A5.77,5.77,0,0,1,81.7,44.54Z"/><path class="cls-9" d="M77.15,36.32a7.06,7.06,0,0,0,4.26-2.74,5.74,5.74,0,0,0,.29-4.69,5.77,5.77,0,0,0-4,2.38A7.06,7.06,0,0,0,77.15,36.32Z"/><path d="M76.06,39.63h.15c.22,0,5.46-.59,7.81-4.42,1.42-2.31,1.47-5.19.16-8.57a1.54,1.54,0,0,0-1.59-1c-3.6.36-6.15,1.71-7.56,4-2.36,3.83-.48,8.76-.4,9A1.54,1.54,0,0,0,76.06,39.63ZM81.7,28.89a5.74,5.74,0,0,1-.29,4.69,7.06,7.06,0,0,1-4.26,2.74,7.06,7.06,0,0,1,.5-5.05A5.77,5.77,0,0,1,81.7,28.89Z"/><path class="cls-9" d="M77.15,20.67a7.06,7.06,0,0,0,4.26-2.74,5.73,5.73,0,0,0,.29-4.69,5.77,5.77,0,0,0-4,2.38A7.06,7.06,0,0,0,77.15,20.67Z"/><path d="M76.06,24h.15c.22,0,5.46-.59,7.81-4.42,1.42-2.31,1.47-5.19.16-8.57a1.55,1.55,0,0,0-1.59-1c-3.6.36-6.15,1.71-7.56,4-2.36,3.83-.48,8.76-.4,9A1.54,1.54,0,0,0,76.06,24ZM81.7,13.24a5.73,5.73,0,0,1-.29,4.69,7.06,7.06,0,0,1-4.26,2.74,7.06,7.06,0,0,1,.5-5.05A5.77,5.77,0,0,1,81.7,13.24Z"/><path class="cls-9" d="M45.08,52a7.06,7.06,0,0,0,4.27-2.74,5.77,5.77,0,0,0,.29-4.69,5.77,5.77,0,0,0-4,2.38A7.07,7.07,0,0,0,45.08,52Z"/><path d="M44,55.28h.16c.22,0,5.46-.59,7.81-4.42,1.42-2.31,1.47-5.19.15-8.57a1.54,1.54,0,0,0-1.58-1c-3.61.36-6.15,1.71-7.57,4-2.35,3.83-.48,8.76-.4,9A1.55,1.55,0,0,0,44,55.28Zm5.65-10.74a5.77,5.77,0,0,1-.29,4.69A7.06,7.06,0,0,1,45.08,52a7.07,7.07,0,0,1,.51-5A5.77,5.77,0,0,1,49.64,44.54Z"/><path class="cls-9" d="M45.08,36.32a7.06,7.06,0,0,0,4.27-2.74,5.77,5.77,0,0,0,.29-4.69,5.81,5.81,0,0,0-4.06,2.38A7.12,7.12,0,0,0,45.08,36.32Z"/><path d="M44,39.63h.16c.22,0,5.46-.59,7.81-4.42,1.42-2.31,1.47-5.19.15-8.57a1.52,1.52,0,0,0-1.58-1c-3.61.36-6.15,1.71-7.57,4-2.35,3.83-.48,8.76-.4,9A1.55,1.55,0,0,0,44,39.63Zm5.65-10.74a5.77,5.77,0,0,1-.29,4.69,7.06,7.06,0,0,1-4.27,2.74,7.12,7.12,0,0,1,.5-5.05A5.81,5.81,0,0,1,49.64,28.89Z"/><path class="cls-9" d="M45.08,20.67a7.06,7.06,0,0,0,4.27-2.74,5.77,5.77,0,0,0,.29-4.69,5.81,5.81,0,0,0-4.06,2.38A7.12,7.12,0,0,0,45.08,20.67Z"/><path d="M44,24h.16c.22,0,5.46-.59,7.81-4.42,1.42-2.31,1.47-5.19.15-8.57a1.54,1.54,0,0,0-1.58-1c-3.61.36-6.15,1.71-7.57,4-2.35,3.83-.48,8.76-.4,9A1.55,1.55,0,0,0,44,24Zm5.65-10.74a5.77,5.77,0,0,1-.29,4.69,7.06,7.06,0,0,1-4.27,2.74,7.12,7.12,0,0,1,.5-5.05A5.81,5.81,0,0,1,49.64,13.24Z"/><path d="M58.76,85.46h4.51a1.54,1.54,0,1,0,0-3.07H58.76a1.54,1.54,0,0,0,0,3.07Z"/><path class="cls-9" d="M61.23,102.66a5.74,5.74,0,0,0,.29,4.69,7,7,0,0,0,4.26,2.73,7,7,0,0,0-.5-5A5.74,5.74,0,0,0,61.23,102.66Z"/><path d="M58.75,100.4c-1.31,3.38-1.26,6.26.16,8.56,2.35,3.84,7.59,4.4,7.81,4.43h.15a1.53,1.53,0,0,0,1.43-1c.08-.21,2-5.14-.4-9-1.41-2.31-4-3.66-7.56-4A1.53,1.53,0,0,0,58.75,100.4Zm7,9.68a7,7,0,0,1-4.26-2.73,5.74,5.74,0,0,1-.29-4.69A5.74,5.74,0,0,1,65.28,105,7,7,0,0,1,65.78,110.08Z"/></g></g></svg>