<svg id="Capa_1" enable-background="new 0 0 512 512" height="512" viewBox="0 0 512 512" width="512" xmlns="http://www.w3.org/2000/svg"><g><path d="m76 15h120v241h-120z" fill="#47568c"/><path d="m338.192 420.751h-67.192-67.192l-36.065 69.247h103.257 103.257z" fill="#47568c"/><path d="m338.192 420.751h-67.192v69.247h103.257z" fill="#29376d"/><circle cx="271" cy="256" fill="#61729b" r="195"/><path d="m466 256c0-107.52-87.48-195-195-195v390c107.52 0 195-87.48 195-195z" fill="#47568c"/><circle cx="271" cy="256" fill="#47568c" r="165"/><path d="m436 256c0-90.981-74.019-165-165-165v330c90.981 0 165-74.019 165-165z" fill="#29376d"/><path d="m211 30h-150c-8.291 0-15-6.709-15-15s6.709-15 15-15h150c8.291 0 15 6.709 15 15s-6.709 15-15 15z" fill="#61729b"/><g><path d="m253.832 390.847c-10.474-1.523-21.548-4.482-31.275-8.789-16.699-8.438-26.118-22.837-26.543-39.844-.41-16.875 8.027-31.948 22.573-40.342l29.912-16.802c9.943-5.727 22.5 1.398 22.5 12.993v77.944c.001 8.948-7.874 16.141-17.167 14.84z" fill="#e6f2ff"/></g><g><path d="m288.168 121.153c10.474 1.523 21.548 4.482 31.275 8.789 16.699 8.438 26.118 22.837 26.543 39.844.41 16.875-8.027 31.948-22.573 40.342l-29.913 16.801c-9.943 5.727-22.5-1.398-22.5-12.993v-77.944c0-8.947 7.875-16.14 17.168-14.839z" fill="#cce6ff"/></g><g><path d="m379.769 338.292c-6.556 8.309-14.656 16.42-23.249 22.69-15.657 10.243-32.836 11.201-47.777 3.065-14.819-8.082-23.654-22.926-23.65-39.72l.405-34.306c.012-11.474 12.461-18.787 22.502-12.989l67.502 38.972c7.748 4.474 10.041 14.89 4.267 22.288z" fill="#cce6ff"/></g><g><path d="m162.231 173.708c6.556-8.309 14.656-16.42 23.249-22.69 15.657-10.243 32.836-11.201 47.777-3.065 14.819 8.082 23.654 22.926 23.65 39.72l-.405 34.306c-.012 11.474-12.461 18.787-22.502 12.989l-67.502-38.972c-7.748-4.474-10.041-14.89-4.267-22.288z" fill="#e6f2ff"/></g><g><path d="m396.365 203.444c3.917 9.832 6.892 20.903 8.026 31.479 1.043 18.681-6.718 34.037-21.234 42.909-14.409 8.793-31.682 9.022-46.224.622l-29.507-17.504c-9.931-5.747-10.039-20.185.002-25.982l67.502-38.972c7.748-4.474 17.915-1.251 21.435 7.448z" fill="#cce6ff"/></g><g><path d="m145.635 308.556c-3.917-9.832-6.892-20.902-8.026-31.479-1.043-18.681 6.718-34.037 21.234-42.909 14.409-8.793 31.682-9.022 46.224-.622l29.507 17.504c9.931 5.747 10.039 20.185-.002 25.982l-67.502 38.972c-7.748 4.474-17.915 1.251-21.435-7.448z" fill="#e6f2ff"/></g><path d="m391 482h-120-120c-8.291 0-15 6.709-15 15s6.709 15 15 15h120 120c8.291 0 15-6.709 15-15s-6.709-15-15-15z" fill="#61729b"/><path d="m406 497c0-8.291-6.709-15-15-15h-120v30h120c8.291 0 15-6.709 15-15z" fill="#47568c"/><circle cx="271" cy="256" fill="#9cf" r="45"/><path d="m316 256c0-24.814-20.186-45-45-45v90c24.814 0 45-20.186 45-45z" fill="#80aaff"/></g></svg>