<svg xmlns="http://www.w3.org/2000/svg" width="150" height="220"><defs><linearGradient id="a" gradientUnits="userSpaceOnUse" x1="3.5" y1="110.5" x2="147.5" y2="110.5"><stop offset="0" stop-color="#232323"/><stop offset=".357" stop-color="#5B5B5B"/><stop offset=".571" stop-color="#474747"/><stop offset="1" stop-color="#282828"/></linearGradient><linearGradient id="b" gradientUnits="userSpaceOnUse" x1="-38.5" y1="-219.554" x2="-135" y2="-189.801" gradientTransform="rotate(180)"><stop offset="0" stop-color="#232323"/><stop offset=".357" stop-color="#5B5B5B"/><stop offset=".571" stop-color="#474747"/><stop offset="1" stop-color="#282828"/></linearGradient><linearGradient id="c" gradientUnits="userSpaceOnUse" x1="64" y1="211.25" x2="86.5" y2="211.25"><stop offset="0" stop-color="#232323"/><stop offset=".357" stop-color="#5B5B5B"/><stop offset=".571" stop-color="#474747"/><stop offset="1" stop-color="#282828"/></linearGradient><linearGradient id="d" gradientUnits="userSpaceOnUse" x1="73.868" y1="3.277" x2="77.132" y2="217.723"><stop offset="0" stop-color="#5D5D5D"/><stop offset="1" stop-opacity=".959"/></linearGradient><linearGradient id="e" gradientUnits="userSpaceOnUse" x1="3.5" y1="101.083" x2="147.5" y2="101.083"><stop offset="0" stop-color="#323232"/><stop offset=".357" stop-color="#FFF"/><stop offset=".571" stop-color="#919191"/><stop offset="1" stop-color="#4A4A4A"/></linearGradient><linearGradient id="f" gradientUnits="userSpaceOnUse" x1="6.25" y1="110" x2="144.75" y2="110"><stop offset="0" stop-color="#232323"/><stop offset=".357" stop-color="#5B5B5B"/><stop offset=".571" stop-color="#474747"/><stop offset="1" stop-color="#282828"/></linearGradient><linearGradient id="g" gradientUnits="userSpaceOnUse" x1="219.5" y1="110" x2="223.5" y2="110"><stop offset="0" stop-color="#232323"/><stop offset=".357" stop-color="#5B5B5B"/><stop offset=".571" stop-color="#474747"/><stop offset="1" stop-color="#282828"/></linearGradient></defs><path d="M135.5 3c6.274.18 10.586 4.113 11.848 10.254h.152v142.873l-36 29.307c-9.065 7.39-18.13 14.78-27.2 22.164V218H66.7v-10.672c-9.028-7.343-18.106-14.627-27.2-21.894l-36-29.307V13.254h.152C4.623 7.127 9.57 3.297 15.5 3h120z" fill="url(#a)"/><path d="M135.5 3c6.274.18 10.586 4.113 11.848 10.254h.152v142.873l-36 29.307c-9.065 7.39-18.13 14.78-27.2 22.164V218H66.7v-10.672c-9.028-7.343-18.106-14.627-27.2-21.894l-36-29.307V13.254h.152C4.623 7.127 9.57 3.297 15.5 3h120z" stroke="#272727" fill="none"/><path d="M147.5 154.579l-36 29.298-36 29.298-36-29.298-36-29.298h72z" fill="url(#b)"/><path d="M147.5 154.579l-36 29.298-36 29.298-36-29.298-36-29.298h72z" stroke="#272727" fill="none"/><g><path d="M64 204.5h22.5V218H64v-13.5z" fill="url(#c)"/><path d="M64 204.5h22.5V218H64v-13.5z" stroke="#272727" fill="none"/></g></svg>